<svg width="507" height="495" viewBox="0 0 507 495" fill="none" xmlns="http://www.w3.org/2000/svg">
<path d="M439.193 377.839C436.921 377.839 434.699 378.513 432.81 379.776C430.92 381.038 429.447 382.833 428.578 384.932C427.708 387.032 427.481 389.342 427.924 391.571C428.367 393.8 429.462 395.847 431.068 397.454C432.675 399.061 434.723 400.155 436.952 400.598C439.18 401.042 441.491 400.814 443.59 399.944C445.69 399.075 447.484 397.602 448.747 395.713C450.009 393.823 450.683 391.602 450.683 389.329C450.683 386.282 449.473 383.359 447.318 381.204C445.163 379.05 442.24 377.839 439.193 377.839ZM439.193 396.4C437.795 396.4 436.427 395.985 435.265 395.208C434.102 394.431 433.196 393.327 432.66 392.035C432.125 390.743 431.985 389.321 432.258 387.95C432.531 386.578 433.204 385.318 434.193 384.329C435.182 383.34 436.442 382.667 437.814 382.394C439.185 382.121 440.607 382.261 441.899 382.796C443.191 383.332 444.295 384.238 445.072 385.401C445.849 386.564 446.264 387.931 446.264 389.329V389.329C446.264 391.204 445.519 393.003 444.193 394.329C442.867 395.655 441.068 396.4 439.193 396.4Z" fill="#484848"/>
<path d="M395 369H439.193V412.739C439.193 414.266 438.586 415.73 437.507 416.81C436.427 417.889 434.963 418.496 433.436 418.496H400.757C399.23 418.496 397.766 417.889 396.686 416.81C395.607 415.73 395 414.266 395 412.739V369Z" fill="#484848"/>
<path d="M506.318 419H0.682278C0.494761 419.014 0.32144 419.072 0.195534 419.164C0.0696275 419.257 0 419.376 0 419.5C0 419.624 0.0696275 419.743 0.195534 419.836C0.32144 419.928 0.494761 419.986 0.682278 420H506.318C506.505 419.986 506.679 419.928 506.805 419.836C506.93 419.743 507 419.624 507 419.5C507 419.376 506.93 419.257 506.805 419.164C506.679 419.072 506.505 419.014 506.318 419Z" fill="#CACACA"/>
<path d="M89.41 401.381L85.302 421.694L161.695 447.208L167.759 417.228L89.41 401.381Z" fill="#BF8D62"/>
<path d="M97.0902 397.542L88.999 437.545L88.9987 437.546C87.6305 444.307 83.6329 450.248 77.8851 454.061C72.1372 457.875 65.1099 459.249 58.3489 457.882L57.5205 457.714L70.7683 392.218L97.0902 397.542Z" fill="#2F2E41"/>
<path d="M175.979 121.584C204.627 121.584 227.85 98.3606 227.85 69.713C227.85 41.0655 204.627 17.842 175.979 17.842C147.332 17.842 124.108 41.0655 124.108 69.713C124.108 98.3606 147.332 121.584 175.979 121.584Z" fill="#BF8D62"/>
<path d="M192.856 409.146C266.62 409.146 326.416 392.42 326.416 371.787C326.416 351.154 266.62 334.428 192.856 334.428C119.093 334.428 59.2964 351.154 59.2964 371.787C59.2964 392.42 119.093 409.146 192.856 409.146Z" fill="#2F2E41"/>
<path d="M287.539 203.101C285.755 192.37 283.916 181.433 278.928 171.766C275.65 165.434 270.447 159.4 263.433 158.148C262.051 158.025 260.694 157.711 259.398 157.214C257.343 156.224 229.725 140.458 225.335 137.712C221.566 135.355 215.617 130.99 212.617 130.99C209.599 130.923 198.026 133.617 152.856 130.086C145.259 133.136 137.901 136.753 130.846 140.908C130.701 140.812 83.9644 165.909 82.2085 165.843C78.8833 165.703 75.7925 167.832 73.8862 170.513C71.9805 173.194 71.0864 176.513 70.1504 179.722C80.3584 202.455 89.6982 225.217 99.9072 247.95C100.385 248.806 100.639 249.769 100.646 250.75C100.44 251.768 100.006 252.725 99.3755 253.55C94.3692 261.592 94.5283 271.707 95.0752 281.159C95.6226 290.611 96.2993 300.595 92.0752 309.067C90.9263 311.393 89.4321 313.522 88.3394 315.848C85.7803 321.116 84.8555 337.965 86.3501 343.625L273.617 348.99C269.59 337.922 287.539 203.101 287.539 203.101Z" fill="#3F3D56"/>
<path d="M53.9633 248.958C53.5897 251.661 53.552 254.4 53.8513 257.112L56.5353 295.658C56.7873 299.291 57.0353 302.915 57.3763 306.539C58.0203 313.572 58.9823 320.549 60.1763 327.516C60.2033 328.505 60.6216 329.443 61.3395 330.124C62.0573 330.805 63.0161 331.174 64.0053 331.149C75.8203 333.649 88.0273 333.549 100.085 332.868C118.485 331.841 165.559 329.898 168.435 326.162C171.311 322.426 169.635 316.383 165.885 313.362C162.135 310.341 100.014 302.976 100.014 302.976C100.621 298.166 102.452 293.636 104.189 289.069C107.309 280.969 110.223 272.603 110.279 263.926C110.335 255.249 107.066 246.126 99.9583 241.155C94.1113 237.074 86.5833 236.317 79.4583 236.485C74.2743 236.634 65.3173 235.392 60.5823 237.419C56.8353 239.069 54.6633 245.289 53.9633 248.958Z" fill="#BF8D62"/>
<path d="M287.871 336.091C290.981 334.905 294.409 335.334 297.743 335.783C308.475 337.249 319.365 338.753 329.312 343.04C333.982 345.04 338.428 347.71 341.585 351.64C344.385 355.18 346.021 359.514 347.572 363.782L351.159 373.608C352.684 377.299 353.736 381.169 354.288 385.124C355.409 396.883 347.367 407.969 337.252 414.078C327.137 420.187 315.229 422.362 303.628 424.641C292.027 426.92 280.381 429.441 268.828 432.113C263.44 433.511 257.972 434.587 252.455 435.335C240.089 436.735 227.163 434.672 215.413 438.763C210.743 440.398 206.157 442.826 201.313 443.956C198.093 444.633 194.838 445.129 191.562 445.441L169.324 447.981C164.802 448.586 160.25 448.935 155.688 449.027C145.975 449.027 136.42 446.727 126.988 444.427C125.986 444.251 125.032 443.866 124.188 443.297C122.694 442.12 122.367 440.037 122.152 438.151C121.2 429.801 120.366 421.442 119.652 413.074C119.428 410.356 119.26 407.414 120.745 405.126C122.613 402.326 126.256 401.446 129.581 400.904C143.681 398.597 157.964 397.606 172.246 397.943C177.672 392.517 186.62 392.489 193.728 389.537C196.343 388.336 198.874 386.96 201.303 385.418C214.017 378 228.226 373.511 242.893 372.277C245.766 372.189 248.62 371.782 251.402 371.063C256.902 369.354 261.919 364.702 267.569 365.842C268.269 363.909 268.755 361.321 270.369 359.995C271.169 359.313 272.162 358.856 272.9 358.127C274.46 356.549 274.6 354.064 274.366 351.86C274.132 349.656 273.609 347.396 274.179 345.247C274.416 344.434 274.765 343.657 275.216 342.94C278.008 338.108 282.239 335.624 287.871 336.091Z" fill="#2F2E41"/>
<path d="M69.6105 180.414C68.7008 181.367 67.9954 182.495 67.5375 183.73C59.9879 200.745 55.5286 218.968 54.3685 237.546C54.3889 238.452 54.1801 239.348 53.7615 240.152C53.3487 240.687 52.8892 241.184 52.3885 241.637C51.9519 242.155 51.6216 242.753 51.4163 243.398C51.211 244.044 51.1348 244.723 51.1921 245.398C51.2493 246.072 51.4389 246.729 51.75 247.33C52.0611 247.932 52.4876 248.466 53.0051 248.903C53.09 248.974 53.1771 249.043 53.2665 249.109C54.8075 246.209 58.4965 245.261 61.7755 245.009C77.4755 243.767 92.8115 251.071 108.558 250.52C107.447 246.681 105.849 242.992 104.943 239.107C100.936 221.856 110.93 203.074 104.803 186.458C103.579 183.133 101.534 179.864 98.3125 178.407C96.9783 177.869 95.5822 177.499 94.1565 177.307C90.1775 176.588 82.2565 173.515 78.4095 174.748C76.9895 175.206 76.4295 176.541 75.2525 177.348C73.4645 178.49 71.0925 178.91 69.6105 180.414Z" fill="#3F3D56"/>
<path d="M287.651 237.419C282.916 235.392 273.959 236.634 268.775 236.485C261.65 236.317 254.122 237.074 248.275 241.155C241.167 246.126 237.898 255.249 237.954 263.926C238.01 272.603 240.924 280.969 244.044 289.069C245.781 293.636 247.612 298.166 248.219 302.976C248.219 302.976 186.098 310.341 182.348 313.362C178.598 316.383 176.922 322.426 179.798 326.162C182.674 329.898 272.413 333.649 284.228 331.149C285.217 331.174 286.176 330.805 286.894 330.124C287.612 329.443 288.03 328.505 288.057 327.516C289.251 320.549 290.213 313.572 290.857 306.539C291.198 302.915 291.446 299.291 291.698 295.658L294.382 257.112C294.681 254.4 294.644 251.661 294.27 248.958C293.57 245.289 291.398 239.069 287.651 237.419Z" fill="#BF8D62"/>
<path d="M272.981 177.348C271.804 176.541 271.244 175.206 269.824 174.748C265.977 173.515 258.056 176.588 254.077 177.307C252.652 177.499 251.255 177.869 249.921 178.407C246.699 179.864 244.654 183.133 243.43 186.458C237.303 203.074 247.297 221.856 243.29 239.107C242.384 242.992 240.786 246.681 239.675 250.52C255.422 251.071 270.758 243.767 286.458 245.009C289.737 245.261 293.426 246.209 294.967 249.109C295.057 249.043 295.144 248.974 295.229 248.903C295.746 248.466 296.173 247.932 296.484 247.33C296.795 246.729 296.984 246.072 297.042 245.398C297.099 244.723 297.023 244.044 296.818 243.398C296.612 242.753 296.282 242.155 295.845 241.637C295.345 241.184 294.885 240.687 294.472 240.152C294.054 239.348 293.845 238.452 293.865 237.546C292.705 218.968 288.246 200.745 280.696 183.73C280.238 182.495 279.533 181.367 278.623 180.414C277.141 178.91 274.769 178.49 272.981 177.348Z" fill="#3F3D56"/>
<path d="M299.243 430.378L296.513 450.921L215.975 450.166L220.005 419.846L299.243 430.378Z" fill="#BF8D62"/>
<path d="M319.853 427.785L311.049 494.025L310.211 493.914C303.374 493.005 297.177 489.417 292.984 483.939C288.792 478.462 286.947 471.543 287.855 464.705L287.855 464.704L293.232 424.247L319.853 427.785Z" fill="#2F2E41"/>
<path d="M109.769 346.487C109.769 347.421 108.303 346.487 108.169 345.487C107.142 337.931 101.145 331.701 94.1593 328.675C87.1733 325.649 79.2153 325.49 71.6503 326.209C60.2093 327.292 47.3663 331.673 43.1823 342.367C42.1923 344.867 32.9183 367.127 33.8233 372.133C36.2613 385.489 45.3953 396.912 56.4633 404.823C67.5313 412.734 80.4633 417.46 93.3633 421.723C127.469 432.971 162.462 441.329 197.97 446.707C203.723 447.576 209.533 448.379 215.043 450.228C219.974 451.881 224.588 454.356 229.408 456.299C240.616 460.799 252.674 462.407 264.619 463.986C266.655 464.248 268.99 464.434 270.494 463.052C272.437 461.252 271.794 458.111 271.241 455.524C269.214 445.687 270.915 435.448 276.014 426.795C278.014 423.433 280.614 419.986 280.236 416.095C279.788 411.556 275.267 408.343 270.765 407.614C266.263 406.885 261.687 407.96 257.165 408.548C255.616 408.904 253.992 408.743 252.542 408.09C251.87 407.636 251.261 407.097 250.73 406.484C247.616 403.48 243.631 401.539 239.345 400.94C235.06 400.341 230.695 401.115 226.876 403.15C225.204 404.084 222.676 402.001 220.936 401.217L201.294 392.325C178.729 382.117 156.052 371.861 132.179 365.398C130.274 365.023 128.464 364.271 126.855 363.184C125.669 362.25 124.819 360.984 123.726 359.943C121.344 357.692 118.026 356.795 115.171 355.198C112.316 353.601 109.115 349.69 109.769 346.487Z" fill="#2F2E41"/>
<path d="M160.617 332.99C168.349 332.99 174.617 326.722 174.617 318.99C174.617 311.258 168.349 304.99 160.617 304.99C152.885 304.99 146.617 311.258 146.617 318.99C146.617 326.722 152.885 332.99 160.617 332.99Z" fill="#FBBEBE"/>
<path d="M191.617 332.99C199.349 332.99 205.617 326.722 205.617 318.99C205.617 311.258 199.349 304.99 191.617 304.99C183.885 304.99 177.617 311.258 177.617 318.99C177.617 326.722 183.885 332.99 191.617 332.99Z" fill="#FBBEBE"/>
<path d="M278.035 350.537H85.6965C83.451 350.535 81.2981 349.641 79.7102 348.054C78.1223 346.466 77.229 344.313 77.2263 342.067V225.381C77.229 223.135 78.1223 220.982 79.7102 219.395C81.2981 217.807 83.451 216.914 85.6965 216.911H278.035C280.281 216.914 282.434 217.807 284.022 219.395C285.61 220.982 286.503 223.135 286.506 225.381V342.067C286.503 344.313 285.61 346.466 284.022 348.054C282.434 349.641 280.281 350.535 278.035 350.537Z" fill="#484848"/>
<path d="M141.635 48.0204C146.935 54.2883 155.901 56.0561 164.174 56.775C180.976 58.2481 205.405 55.8591 221.825 52.0711C223.004 63.4217 219.803 75.6612 226.491 85C229.627 73.6951 231.45 62.0671 231.925 50.3454C232.127 45.3183 232.048 40.1177 230.005 35.5031C227.962 30.8884 223.503 26.9707 218.37 26.9303C222.184 24.0394 226.651 22.1314 231.378 21.3746L215.124 13.211L219.298 8.92797L189.871 7.12823L198.394 1.71728C185.561 -0.0439141 172.578 -0.451905 159.66 0.500094C153.663 0.941175 147.393 1.78466 142.535 5.25785C137.676 8.73105 134.868 15.632 137.885 20.7299C134.109 21.3497 130.553 22.9227 127.556 25.3C124.558 27.6773 122.217 30.7801 120.755 34.3145C118.589 39.803 118.787 45.8992 119.454 51.7479C120.563 61.1017 122.738 70.2981 125.937 79.1581" fill="#2F2E41"/>
<path d="M184 297C181.824 297 179.698 296.325 177.889 295.062C176.08 293.798 174.67 292.002 173.837 289.901C173.005 287.799 172.787 285.487 173.211 283.257C173.636 281.026 174.683 278.977 176.222 277.368C177.76 275.76 179.72 274.665 181.854 274.221C183.988 273.777 186.2 274.005 188.209 274.875C190.219 275.746 191.937 277.22 193.146 279.111C194.355 281.002 195 283.226 195 285.5C194.997 288.549 193.837 291.472 191.775 293.628C189.712 295.784 186.916 296.997 184 297ZM184 275.982C182.199 275.982 180.439 276.54 178.942 277.586C177.445 278.632 176.278 280.119 175.589 281.858C174.9 283.597 174.72 285.511 175.071 287.357C175.422 289.203 176.289 290.899 177.563 292.23C178.836 293.561 180.458 294.468 182.224 294.835C183.99 295.202 185.82 295.014 187.484 294.293C189.147 293.573 190.569 292.353 191.57 290.788C192.57 289.223 193.104 287.382 193.104 285.5C193.101 282.977 192.141 280.557 190.434 278.773C188.728 276.989 186.414 275.985 184 275.982Z" fill="white"/>
<path d="M180 292C185.523 292 190 287.523 190 282C190 276.477 185.523 272 180 272C174.477 272 170 276.477 170 282C170 287.523 174.477 292 180 292Z" fill="white"/>
<path d="M236.771 67.2777H233.109C233.109 39.596 205.713 21.4563 178.075 21.4417C174.055 21.4299 170.044 21.82 166.101 22.6061C161.664 23.4922 157.057 24.554 152.531 25.9381C134.685 31.4086 118.134 41.9833 118.134 67.2777C118.13 72.1901 118.756 77.0827 119.994 81.8363L116.45 82.759C115.135 77.7037 114.471 72.5013 114.473 67.2777C114.473 45.1762 123.546 29.9952 139.218 20.9437C147.456 16.1836 157.511 13.1152 169.031 11.6212C173.824 10.9835 178.671 10.8363 183.494 11.1818C215.277 13.4667 236.771 37.8384 236.771 67.2777Z" fill="black"/>
<path d="M242.871 69.306L241.428 58.6433C241.072 55.9506 239.775 53.4706 237.766 51.6423C236.477 50.4505 234.933 49.5674 233.252 49.0599C231.571 48.5524 229.797 48.4338 228.063 48.7131L225.771 49.0279C225.144 49.1105 224.539 49.3168 223.992 49.6348C223.445 49.9529 222.967 50.3764 222.585 50.8807C222.2 51.3834 221.918 51.9573 221.756 52.5694C221.594 53.1816 221.555 53.8197 221.641 54.4471L224.973 79.0092C225.11 80.0103 225.559 80.9429 226.255 81.675C226.952 82.407 227.861 82.9014 228.854 83.0883C229.148 83.1472 229.447 83.1767 229.747 83.1761C229.963 83.1761 230.178 83.1614 230.392 83.1322L232.955 82.788C234.518 82.5806 236.022 82.056 237.374 81.2462C238.727 80.4364 239.899 79.3587 240.82 78.0792C241.018 77.8009 241.208 77.5153 241.384 77.2223C242.757 74.8261 243.28 72.0369 242.871 69.306Z" fill="black"/>
<path d="M224.292 49.4749C223.619 49.8015 223.035 50.2835 222.585 50.8809C222.2 51.3836 221.918 51.9575 221.756 52.5696C221.594 53.1817 221.555 53.8199 221.641 54.4473L224.973 79.0094C225.11 80.0105 225.559 80.9431 226.255 81.6751C226.952 82.4072 227.861 82.9016 228.854 83.0884L224.292 49.4749Z" fill="#2D2D2D"/>
<path d="M242.871 69.3059L241.428 58.6433C241.072 55.9506 239.775 53.4706 237.766 51.6423L241.084 76.0799C241.134 76.4722 241.234 76.8563 241.384 77.2224C242.757 74.8261 243.28 72.0369 242.871 69.3059Z" fill="black"/>
<path d="M231.469 76.9888C232.471 76.8529 232.974 74.4684 232.594 71.6629C232.213 68.8575 231.093 66.6934 230.091 66.8293C229.089 66.9653 228.585 69.3497 228.965 72.1552C229.346 74.9606 230.467 77.1247 231.469 76.9888Z" fill="black"/>
<path d="M229.272 63.8069C230.274 63.671 230.777 61.2865 230.397 58.4811C230.016 55.6756 228.895 53.5115 227.894 53.6474C226.892 53.7834 226.388 56.1678 226.768 58.9733C227.149 61.7787 228.27 63.9428 229.272 63.8069Z" fill="black"/>
<path d="M243.186 68.9331C244.188 68.7972 244.691 66.4127 244.311 63.6073C243.93 60.8018 242.81 58.6377 241.808 58.7737C240.806 58.9096 240.302 61.294 240.683 64.0995C241.063 66.905 242.184 69.069 243.186 68.9331Z" fill="black"/>
<path d="M178.075 21.4417C174.055 21.4299 170.044 21.82 166.102 22.6061C161.664 23.4922 157.057 24.554 152.532 25.9381C145.465 25.5939 140.265 23.7631 139.218 20.9437C147.457 16.1836 157.511 13.1152 169.031 11.6212C173.825 10.9835 178.671 10.8363 183.494 11.1818C184.005 11.4812 184.446 11.8852 184.79 12.3674C185.133 12.8495 185.37 13.3989 185.486 13.9793C185.83 16.5278 182.923 19.2374 178.075 21.4417Z" fill="black"/>
<path d="M131.324 92.6892L125.685 69.2476C125.484 68.4019 125.037 67.6344 124.401 67.0416C123.766 66.4487 122.969 66.057 122.111 65.9155C121.869 65.8778 121.624 65.8582 121.379 65.8569C121.033 65.8582 120.689 65.8999 120.353 65.9814L118.171 66.5087C115.361 67.1883 112.936 68.9547 111.427 71.4205C109.918 73.8863 109.449 76.85 110.123 79.6612L112.649 90.1774C113.226 92.6531 114.6 94.871 116.56 96.49C116.878 96.7464 117.21 96.9836 117.556 97.2004C118.783 97.9697 120.153 98.4853 121.583 98.7168C123.013 98.9482 124.475 98.8908 125.882 98.5479L128.057 98.0206C128.633 97.8864 129.174 97.6345 129.647 97.2809C130.35 96.7681 130.885 96.0578 131.184 95.2402C131.482 94.4225 131.531 93.5346 131.324 92.6892Z" fill="black"/>
<path d="M119.502 88.3277C120.485 88.0911 120.745 85.668 120.083 82.9154C119.42 80.1628 118.086 78.1232 117.103 78.3597C116.12 78.5963 115.86 81.0195 116.523 83.7721C117.185 86.5246 118.519 88.5643 119.502 88.3277Z" fill="black"/>
<path d="M112.179 90.5247C113.162 90.2882 113.422 87.865 112.759 85.1124C112.097 82.3598 110.763 80.3202 109.78 80.5568C108.797 80.7933 108.537 83.2165 109.199 85.9691C109.862 88.7217 111.196 90.7613 112.179 90.5247Z" fill="black"/>
<path d="M131.682 92.6013L126.043 69.1597C125.824 68.2446 125.339 67.4147 124.65 66.7738C123.961 66.1329 123.098 65.7095 122.169 65.5566L129.866 97.5738C130.626 97.0171 131.204 96.2477 131.528 95.3627C131.851 94.4778 131.905 93.5169 131.682 92.6013Z" fill="#2D2D2D"/>
<path d="M111.397 75.0183C111.241 74.3664 110.949 73.7549 110.54 73.2241C109.747 75.277 109.602 77.5232 110.123 79.6612L112.649 90.1774C113.226 92.6532 114.6 94.871 116.56 96.49L111.397 75.0183Z" fill="black"/>
</svg>
