<svg width="893" height="749" viewBox="0 0 893 749" fill="none" xmlns="http://www.w3.org/2000/svg">
<path d="M145.471 498.959C193.412 498.959 232.276 419.663 232.276 321.846C232.276 224.03 193.412 144.734 145.471 144.734C97.5299 144.734 58.666 224.03 58.666 321.846C58.666 419.663 97.5299 498.959 145.471 498.959Z" fill="#3F3D56"/>
<path d="M144.673 323.683C149.003 246.587 157.728 194.512 157.815 193.995L155.922 193.674C155.835 194.191 147.095 246.351 142.758 323.546C138.756 394.792 137.79 502.557 155.922 611.346L157.816 611.031C139.715 502.427 140.678 394.825 144.673 323.683Z" fill="#3F3D56"/>
<path d="M223.055 285.928L144.569 327.934L145.475 329.627L223.961 287.621L223.055 285.928Z" fill="#3F3D56"/>
<path d="M62.6195 306.982L61.7139 308.675L140.211 350.66L141.116 348.967L62.6195 306.982Z" fill="#3F3D56"/>
<path d="M747.385 480.547C809.581 480.547 860 377.674 860 250.773C860 123.873 809.581 21 747.385 21C685.19 21 634.771 123.873 634.771 250.773C634.771 377.674 685.19 480.547 747.385 480.547Z" fill="#3F3D56"/>
<path d="M746.017 253.127C751.636 153.092 762.956 85.5225 763.07 84.8515L761.276 84.5475C761.162 85.219 749.827 152.868 744.202 252.997C739.009 345.411 737.757 485.19 761.275 626.295L763.071 625.996C739.582 485.066 740.832 345.442 746.017 253.127Z" fill="#3F3D56"/>
<path d="M848.196 204.471L746.374 258.968L747.233 260.572L849.055 206.076L848.196 204.471Z" fill="#3F3D56"/>
<path d="M639.742 231.784L638.884 233.39L740.72 287.859L741.579 286.253L639.742 231.784Z" fill="#3F3D56"/>
<path d="M824.898 645.145C600.785 574.202 397.566 577.981 266.551 593.645C124.613 610.614 34.5461 644.784 33.6533 645.127L33 643.428C33.8955 643.084 124.175 608.833 266.336 591.837C349.957 581.852 434.329 579.693 518.352 585.39C622.66 592.45 725.754 611.928 825.448 643.41L824.898 645.145Z" fill="#3F3D56"/>
<path d="M796.644 585.953L834.105 641.497L799.227 676.373L794.706 667.331L802.457 649.247C802.457 649.247 801.165 632.455 796.644 627.934C792.123 623.413 772.101 596.287 772.101 596.287L796.644 585.953Z" fill="#FFB8B8"/>
<path d="M748.848 406.403C748.848 406.403 755.951 417.646 741.096 466.085C741.096 466.085 810.387 583.028 799.407 590.778C788.428 598.528 758.715 615.681 750.964 610.514C743.214 605.347 686.844 430.3 686.844 430.3L748.848 406.403Z" fill="#2F2E41"/>
<path d="M827.323 631.486L838.626 642.789C844.439 648.601 848.314 656.997 837.334 664.102C826.354 671.206 788.247 697.687 775.33 689.291C762.412 680.894 790.831 673.144 790.831 673.144C790.831 673.144 795.53 655.721 798.024 659.589C800.519 663.456 800.519 671.206 800.519 671.206L827.323 631.486Z" fill="#2F2E41"/>
<path d="M690.719 616.308C690.719 616.308 670.051 654.414 670.051 658.935C670.051 663.456 671.343 676.373 671.343 676.373L631.944 686.061L618.381 679.603L622.902 667.977C622.902 667.977 647.445 659.581 652.612 643.434C657.779 627.288 663.592 610.495 663.592 610.495L690.719 616.308Z" fill="#FFB8B8"/>
<path d="M714.617 237.188C729.599 237.188 741.744 225.043 741.744 210.062C741.744 195.08 729.599 182.936 714.617 182.936C699.635 182.936 687.49 195.08 687.49 210.062C687.49 225.043 699.635 237.188 714.617 237.188Z" fill="#FFB8B8"/>
<path d="M707.513 233.313L720.464 270.524L748.849 257.855C748.849 257.855 729.473 228.146 729.473 224.271L707.513 233.313Z" fill="#FFB8B8"/>
<path d="M703.637 365.714H737.868C737.868 365.714 762.412 403.174 748.202 442.572C746.027 448.605 743.866 457.056 741.71 467.047C736.752 490.026 731.816 521.152 726.757 549.754C719.651 589.929 712.303 625.125 704.316 625.764C688.169 627.056 656.77 626.84 656.77 620.381C656.77 613.923 677.802 427.071 677.802 427.071L682.323 419.321L683.177 385.561C683.312 380.234 685.53 375.172 689.355 371.461C693.18 367.751 698.308 365.687 703.637 365.714V365.714Z" fill="#2F2E41"/>
<path d="M669.728 658.612C669.728 658.612 677.156 671.206 675.218 680.248C673.28 689.29 670.051 687.999 655.842 689.29C641.632 690.582 593.191 690.582 593.191 681.54C593.191 672.498 630.979 660.756 631.139 664.366C631.298 667.977 632.59 675.082 628.715 676.373C624.839 677.665 628.392 676.696 628.392 676.696L669.728 658.612Z" fill="#2F2E41"/>
<path d="M707.518 446.328C707.518 446.328 704.708 492.207 685.969 478.549C667.23 464.891 693.272 440.219 693.272 440.219L707.518 446.328Z" fill="white"/>
<path d="M744.919 385.904C745.82 386.31 746.814 386.463 747.795 386.347C748.776 386.231 749.707 385.85 750.488 385.245C751.621 384.355 752.376 383.069 752.601 381.646C755.31 366.027 758.609 322.729 760.509 300.834C762.893 273.36 750.984 252.081 750.884 251.952L743.866 242.303C743.138 241.294 742.089 240.563 740.891 240.227C739.693 239.89 738.417 239.97 737.27 240.451C737.27 240.451 715.361 263.182 715.28 264.059C714.936 267.828 712.329 276.179 698.738 289.77C683.867 304.641 683.784 317.619 684.113 321.243C684.135 321.481 684.146 321.719 684.146 321.957C684.118 323.583 684.339 325.203 684.801 326.762C691.03 346.399 686.152 369.909 678.319 394.449C678.022 395.558 678.078 396.732 678.477 397.808C678.877 398.884 679.601 399.809 680.55 400.455C682.838 402.011 680.094 399.702 680.91 400.702C686.309 407.317 694.078 398.097 702.964 388.038C706.06 384.533 709.569 380.561 713.704 376.426C719.389 370.741 730.253 383.715 735.304 383.715C738.628 383.755 741.905 384.501 744.919 385.904V385.904Z" fill="#575A89"/>
<path d="M747.931 261.97C747.931 261.97 762.119 273.935 754.059 289.453C745.998 304.97 747.07 316.415 747.07 316.415C747.07 316.415 744.924 423.016 719.737 417.836L708.28 449.466L687.589 441.998L699.554 414.1C699.554 414.1 689.97 413.504 692.771 406.975C694.737 402.389 705.334 352.622 711.467 323.404C714.066 311.022 715.864 302.33 715.864 302.33C715.864 302.33 724.016 258.742 747.931 261.97Z" fill="#575A89"/>
<path opacity="0.2" d="M750.907 316.142L742.93 368.484L747.234 312.516L750.907 316.142Z" fill="black"/>
<path d="M685.02 198.043C685.02 198.043 680.46 162.551 717.671 174.19C717.671 174.19 744.247 169.314 752.963 202.556L761.788 237.402L757.487 235.061L755.482 239.443L748.512 241.208L745.53 235.289L744.087 242.477L687.004 248.168C687.004 248.168 712.571 233.049 712.976 205.951L708.106 211.097L685.02 198.043Z" fill="#2F2E41"/>
<path opacity="0.2" d="M727.471 551.795L740.199 466.982L729.847 558.541L727.471 551.795Z" fill="black"/>
<path d="M748.273 188.891C756.201 188.891 762.627 182.464 762.627 174.537C762.627 166.61 756.201 160.184 748.273 160.184C740.346 160.184 733.92 166.61 733.92 174.537C733.92 182.464 740.346 188.891 748.273 188.891Z" fill="#2F2E41"/>
<path d="M733.484 171.024C733.72 167.382 735.335 163.967 738 161.475C740.666 158.982 744.181 157.6 747.831 157.609C747.534 157.571 747.24 157.525 746.938 157.506C745.057 157.384 743.169 157.634 741.384 158.241C739.599 158.849 737.952 159.802 736.535 161.047C735.119 162.292 733.962 163.803 733.129 165.495C732.297 167.187 731.807 169.026 731.686 170.908C731.565 172.79 731.816 174.677 732.424 176.461C733.033 178.246 733.987 179.893 735.232 181.309C736.478 182.725 737.99 183.881 739.683 184.712C741.375 185.543 743.215 186.033 745.096 186.153C745.399 186.172 745.696 186.165 745.995 186.165C742.374 185.707 739.065 183.885 736.74 181.072C734.416 178.259 733.251 174.665 733.484 171.024V171.024Z" fill="#2F2E41"/>
<path opacity="0.2" d="M707.312 332.453L694.684 400.136L711.052 325.379L707.312 332.453Z" fill="black"/>
<path d="M708.1 229.61L700.739 235.159C693.159 231.345 687.474 222.519 685.407 214.095L693.428 210.048C694.058 218.64 700.157 224.352 708.1 229.61Z" fill="white"/>
<path d="M711.156 211.271H692.816C692.654 211.271 692.499 211.206 692.384 211.092C692.27 210.977 692.205 210.822 692.205 210.659C692.205 210.497 692.27 210.342 692.384 210.227C692.499 210.113 692.654 210.048 692.816 210.048H711.156C711.318 210.048 711.474 210.113 711.588 210.227C711.703 210.342 711.767 210.497 711.767 210.659C711.767 210.822 711.703 210.977 711.588 211.092C711.474 211.206 711.318 211.271 711.156 211.271V211.271Z" fill="white"/>
<path d="M707.488 229.61C707.388 229.61 707.29 229.585 707.202 229.539C707.113 229.492 707.038 229.424 706.982 229.341C706.926 229.259 706.891 229.163 706.88 229.064C706.87 228.965 706.884 228.864 706.921 228.772L711.811 216.546C711.841 216.471 711.885 216.403 711.941 216.345C711.997 216.287 712.064 216.241 712.138 216.209C712.212 216.178 712.291 216.161 712.371 216.16C712.452 216.159 712.532 216.173 712.606 216.203C712.681 216.233 712.749 216.277 712.806 216.334C712.864 216.39 712.91 216.457 712.941 216.531C712.973 216.605 712.989 216.684 712.99 216.765C712.991 216.845 712.976 216.925 712.946 216.999L708.055 229.225C708.01 229.339 707.932 229.436 707.831 229.505C707.729 229.573 707.61 229.61 707.488 229.61V229.61Z" fill="white"/>
<path d="M712.39 218.494C714.867 218.494 716.875 215.682 716.875 212.214C716.875 208.746 714.867 205.935 712.39 205.935C709.913 205.935 707.904 208.746 707.904 212.214C707.904 215.682 709.913 218.494 712.39 218.494Z" fill="#FFB8B8"/>
<path d="M396.331 231.13L444.102 242.062L464.286 203.995L423.439 188.048L396.331 231.13Z" fill="#2F2E41"/>
<path d="M421.712 436.05C421.712 436.05 406.356 471.24 406.356 481.477C406.356 481.477 412.435 509.308 410.515 516.986L403.797 531.382L389.721 525.624L385.882 487.235L386.522 425.813L421.712 436.05Z" fill="#FFB9B9"/>
<path d="M430.35 225.551C430.35 225.551 431.629 246.665 429.07 253.063C426.51 259.461 438.667 271.618 438.667 271.618L457.862 246.665C457.862 246.665 445.066 233.869 448.265 219.793L430.35 225.551Z" fill="#FFB9B9"/>
<path d="M390.361 371.749C390.361 371.749 371.805 406.299 389.721 403.739C407.636 401.18 401.558 370.789 401.558 370.789" fill="#E6E6E6"/>
<path d="M401.557 370.789L407.635 310.326L407.316 273.537L393.239 276.096V310.006L390.36 371.748" fill="#FFB9B9"/>
<path d="M386.201 521.145L413.714 510.268L416.913 564.652C416.913 564.652 422.672 581.288 420.752 587.686C420.752 587.686 422.032 598.563 418.833 599.202C415.634 599.842 406.676 601.122 406.036 600.482C405.396 599.842 405.396 597.923 405.396 597.923C405.396 597.923 398.998 602.401 398.358 607.52C398.358 607.52 371.485 615.838 370.845 608.16C370.206 600.482 384.282 594.084 384.282 594.084L395.159 577.449L386.201 521.145Z" fill="#2F2E41"/>
<path d="M478.977 436.05C478.977 436.05 463.621 471.24 463.621 481.477C463.621 481.477 469.7 509.308 467.78 516.986L461.062 531.382L446.985 525.624L443.146 487.235L443.786 425.813L478.977 436.05Z" fill="#FFB9B9"/>
<path d="M444.426 521.145L471.939 510.268L475.138 564.652C475.138 564.652 480.896 581.288 478.977 587.686C478.977 587.686 480.257 598.563 477.057 599.202C473.858 599.842 464.901 601.122 464.261 600.482C463.621 599.842 463.621 597.923 463.621 597.923C463.621 597.923 457.223 602.401 456.583 607.52C456.583 607.52 429.71 615.838 429.07 608.16C428.43 600.482 442.506 594.084 442.506 594.084L453.384 577.449L444.426 521.145Z" fill="#2F2E41"/>
<path d="M457.227 210.838C457.225 215.877 455.365 220.738 452.003 224.491C448.641 228.244 444.013 230.626 439.005 231.18C433.997 231.735 428.96 230.423 424.859 227.497C420.757 224.57 417.878 220.234 416.774 215.318C416.437 213.849 416.269 212.346 416.273 210.838C416.276 205.41 418.435 200.205 422.275 196.368C426.115 192.531 431.321 190.375 436.75 190.375C442.178 190.375 447.385 192.531 451.225 196.368C455.065 200.205 457.224 205.41 457.227 210.838V210.838Z" fill="#FFB9B9"/>
<path d="M439.307 251.783L455.195 243.533L462.341 249.224C462.341 249.224 479.616 248.584 486.015 256.262C492.413 263.94 495.932 283.454 495.932 283.454C495.932 283.454 474.818 278.975 477.377 296.89L473.538 286.653L470.019 295.291L427.15 310.006L407.955 277.376C407.955 277.376 395.159 273.537 390.68 282.494C390.68 282.494 391.639 250.184 404.116 249.224C412.507 248.579 418.832 248.584 418.832 248.584L425.87 247.305L430.378 245.705L439.307 251.783Z" fill="#575A89"/>
<path d="M466.5 321.843C466.5 321.843 500.091 422.614 490.494 436.69C490.494 436.69 454.663 454.604 383.002 430.292L412.114 317.364C429.997 313.707 448.125 315.2 466.5 321.843Z" fill="#2F2E41"/>
<path d="M466.501 321.843L475.955 289.356C464.614 277.023 474.402 249.676 474.402 249.676L460.718 246.744C460.718 246.744 446.986 283.774 432.91 279.295C418.833 274.817 426.511 246.025 426.511 246.025L413.715 247.305L407.956 269.698L412.115 317.364C429.46 315.877 447.651 317.608 466.501 321.843Z" fill="#575A89"/>
<path d="M483.135 370.789L487.614 310.006L488.894 273.537L474.818 276.096V310.006L471.938 371.748" fill="#FFB9B9"/>
<path d="M471.939 371.749C471.939 371.749 453.384 406.299 471.299 403.739C489.214 401.18 483.136 370.789 483.136 370.789" fill="white"/>
<path d="M495.933 283.454C495.933 283.454 493.658 250.596 474.641 250.71V288.709C474.641 288.709 488.894 280.255 495.933 283.454Z" fill="#575A89"/>
<path d="M443.297 216.122C443.189 216.122 443.083 216.089 442.995 216.026C442.906 215.963 442.84 215.875 442.804 215.773C442.768 215.671 442.765 215.56 442.795 215.456C442.825 215.352 442.886 215.26 442.971 215.192L453.413 206.838C453.466 206.795 453.528 206.763 453.594 206.743C453.66 206.724 453.729 206.717 453.798 206.725C453.866 206.732 453.933 206.753 453.993 206.786C454.053 206.819 454.107 206.864 454.15 206.918C454.193 206.972 454.225 207.033 454.244 207.1C454.263 207.166 454.269 207.235 454.261 207.304C454.253 207.372 454.232 207.438 454.198 207.498C454.165 207.559 454.12 207.612 454.065 207.654L443.623 216.008C443.531 216.082 443.415 216.122 443.297 216.122Z" fill="white"/>
<path d="M444.087 228.652C443.857 228.934 443.628 229.216 443.388 229.477C440.617 230.733 437.601 231.356 434.56 231.301C431.518 231.246 428.527 230.514 425.804 229.158C423.081 227.802 420.694 225.856 418.817 223.462C416.94 221.068 415.62 218.286 414.953 215.318L424.848 213.498L444.087 215.318C439.68 220.685 440.213 222.544 444.087 228.652Z" fill="white"/>
<path d="M425.188 182.178C425.188 182.178 414.605 184.169 412.158 197.367C411.775 199.592 411.705 201.861 411.951 204.106C412.195 206.646 411.841 212.012 406.324 218.33C402.725 222.428 399.371 226.735 396.28 231.229V231.229L407.338 234.172L412.279 215.852C414.674 206.97 418.364 198.489 423.23 190.682L423.332 190.519C423.332 190.519 427.004 200.332 436.848 201.678L433.813 197.682C433.813 197.682 445.32 204.333 451.839 206.366C452.583 206.598 453.25 207.028 453.767 207.611C454.285 208.194 454.633 208.907 454.776 209.673C454.918 210.439 454.848 211.23 454.574 211.96C454.301 212.689 453.833 213.33 453.222 213.814C453.175 213.85 453.128 213.887 453.08 213.923C448.285 217.565 438.502 226.256 442.367 234.662C446.232 243.069 441.725 244.602 441.725 244.602L450.036 241.44L453.84 239.811L453.455 242.624L472.025 243.013C472.025 243.013 477.043 242.982 468.129 229.588C468.129 229.588 465.979 224.566 467.744 220.729C469.161 217.823 469.867 214.622 469.803 211.39C469.241 197.887 463.553 170.415 425.188 182.178Z" fill="#2F2E41"/>
<path d="M164.698 566.825C164.698 566.825 164.698 653.709 144.757 676.498C144.757 676.498 140.484 687.893 139.059 692.166C138.263 694.598 137.311 696.977 136.21 699.287V704.984C136.21 704.984 97.7526 700.711 93.4795 690.741L100.601 682.195C100.601 682.195 102.026 680.771 100.601 676.498C99.177 672.225 103.45 672.225 103.45 672.225L113.421 649.436L111.996 555.43L119.118 425.816L180.366 422.968L164.698 566.825Z" fill="#2F2E41"/>
<path d="M133.362 696.438C133.362 696.438 143.333 726.349 133.362 727.774C123.391 729.198 36.5051 730.622 37.9294 719.228C39.3538 707.833 67.8411 709.257 67.8411 709.257L97.7529 690.741L133.362 696.438Z" fill="#2F2E41"/>
<path d="M221.673 425.816C221.673 425.816 224.521 444.332 213.126 464.273C201.731 484.214 208.853 551.157 208.853 551.157L309.983 639.465C309.983 639.465 290.042 673.649 282.92 672.225C275.799 670.801 163.274 579.644 163.274 579.644L119.118 431.513L221.673 425.816Z" fill="#2F2E41"/>
<path d="M308.593 635.691C308.593 635.691 339.195 643.283 335.061 652.467C330.926 661.65 285.615 735.798 276.753 728.495C267.891 721.192 284.344 697.894 284.344 697.894L284.718 662.717L308.593 635.691Z" fill="#2F2E41"/>
<path d="M198.882 160.894C198.893 168.397 196.314 175.675 191.579 181.496C187.835 186.136 182.894 189.663 177.289 191.696C171.685 193.729 165.631 194.189 159.783 193.028C156.855 192.463 154.021 191.487 151.365 190.132C147.147 188.006 143.438 184.992 140.494 181.297C137.55 177.602 135.441 173.314 134.311 168.727C133.675 166.165 133.355 163.534 133.359 160.894C133.359 152.205 136.811 143.872 142.955 137.729C149.099 131.585 157.432 128.133 166.121 128.133C174.809 128.133 183.142 131.585 189.286 137.729C195.43 143.872 198.882 152.205 198.882 160.894V160.894Z" fill="#A0616A"/>
<path d="M191.899 172.45L190.45 214.605L162.884 225.497C162.884 225.497 160.181 182.332 156.365 179.939C152.549 177.546 191.899 172.45 191.899 172.45Z" fill="#A0616A"/>
<path d="M156.152 230.683C156.152 230.683 194.61 192.226 204.58 193.651C214.551 195.075 214.551 199.348 214.551 202.197C214.551 205.045 211.702 206.47 214.551 207.894C217.4 209.318 220.248 207.894 220.248 212.167C220.248 216.44 245.887 259.17 237.341 306.173C228.795 353.176 218.824 375.965 223.097 401.603C227.37 427.241 224.521 432.938 224.521 432.938C224.521 432.938 117.694 441.484 116.27 431.514C114.845 421.543 120.543 427.241 113.421 420.119C106.299 412.997 109.148 412.997 109.148 408.724C109.148 404.451 140.484 230.683 156.152 230.683Z" fill="#575A89"/>
<path d="M176.093 424.392C176.093 424.392 159 465.698 146.181 455.727C133.362 445.757 151.878 411.573 151.878 411.573L176.093 424.392Z" fill="white"/>
<path d="M217.4 233.532C217.4 233.532 250.865 237.363 238.405 298.83C225.946 360.297 177.517 431.514 177.517 431.514L144.757 415.846L187.488 331.811L177.517 279.111C177.517 279.111 171.82 229.259 217.4 233.532Z" fill="#575A89"/>
<path opacity="0.2" d="M188.2 332.523L141.195 410.861L145.469 415.134L188.2 332.523Z" fill="black"/>
<path opacity="0.2" d="M213.079 369.029L175.38 430.801H188.2L213.079 369.029Z" fill="black"/>
<path opacity="0.2" d="M127.921 481.287L126.027 482.009L163.51 580.281L165.403 579.559L127.921 481.287Z" fill="black"/>
<path d="M156.353 238.504C157.472 238.504 158.38 237.596 158.38 236.477C158.38 235.358 157.472 234.451 156.353 234.451C155.234 234.451 154.327 235.358 154.327 236.477C154.327 237.596 155.234 238.504 156.353 238.504Z" fill="#D0CDE1"/>
<path d="M139.131 293.211C139.347 293.211 139.558 293.142 139.732 293.013C139.906 292.885 140.034 292.704 140.098 292.497L157.321 236.777C157.361 236.65 157.375 236.516 157.363 236.383C157.351 236.251 157.313 236.122 157.251 236.004C157.189 235.886 157.104 235.782 157.002 235.697C156.899 235.611 156.781 235.547 156.654 235.508C156.526 235.469 156.393 235.455 156.26 235.467C156.128 235.48 155.999 235.518 155.881 235.58C155.763 235.642 155.659 235.727 155.574 235.83C155.489 235.933 155.425 236.051 155.386 236.178L138.163 291.899C138.116 292.051 138.106 292.211 138.133 292.367C138.159 292.524 138.222 292.672 138.316 292.799C138.41 292.927 138.533 293.03 138.674 293.102C138.816 293.174 138.972 293.211 139.131 293.211V293.211Z" fill="#D0CDE1"/>
<path d="M159.552 185.984L151.365 193.772C142.934 189.529 134.79 178.097 132.491 168.727L143.233 164.225C143.934 173.782 150.718 180.136 159.552 185.984Z" fill="white"/>
<path d="M161.594 168.305C161.561 168.305 161.529 168.303 161.497 168.299L142.458 165.579C142.369 165.566 142.284 165.536 142.207 165.491C142.13 165.445 142.063 165.385 142.009 165.314C141.956 165.243 141.917 165.161 141.894 165.075C141.872 164.988 141.867 164.898 141.88 164.81C141.892 164.721 141.922 164.636 141.968 164.559C142.013 164.483 142.073 164.415 142.145 164.362C142.216 164.308 142.297 164.269 142.384 164.247C142.47 164.225 142.56 164.22 142.649 164.232L161.688 166.952C161.858 166.976 162.013 167.064 162.121 167.197C162.23 167.331 162.283 167.501 162.271 167.672C162.259 167.844 162.183 168.005 162.057 168.122C161.931 168.239 161.766 168.305 161.594 168.305V168.305Z" fill="white"/>
<path d="M158.872 185.984C158.754 185.984 158.637 185.953 158.534 185.894C158.431 185.835 158.345 185.75 158.285 185.648C158.225 185.545 158.193 185.429 158.192 185.31C158.192 185.191 158.222 185.074 158.28 184.971L164.589 173.741C164.632 173.663 164.691 173.594 164.761 173.539C164.831 173.483 164.912 173.442 164.998 173.418C165.084 173.394 165.174 173.387 165.263 173.398C165.351 173.408 165.437 173.436 165.515 173.48C165.593 173.524 165.662 173.583 165.717 173.653C165.772 173.724 165.813 173.804 165.837 173.89C165.861 173.976 165.867 174.066 165.856 174.155C165.846 174.244 165.817 174.33 165.773 174.408L159.465 185.637C159.406 185.743 159.32 185.83 159.216 185.891C159.112 185.952 158.993 185.984 158.872 185.984V185.984Z" fill="white"/>
<path d="M180.95 180.576C178.298 179.174 175.217 178.885 172.347 178.013C162.076 174.895 155.196 163.285 157.393 152.779C157.799 151.432 157.981 150.027 157.932 148.621C157.548 145.509 154.364 143.501 151.311 142.788C148.258 142.076 145.01 142.179 142.092 141.033C137.586 139.263 134.593 134.632 133.944 129.835C133.296 125.038 134.719 120.146 137.034 115.895L138.137 119.068C139.819 117.644 141.067 115.777 141.74 113.679C142.994 113.89 144.172 114.418 145.162 115.215C146.153 116.011 146.922 117.048 147.397 118.227C149.167 119.271 149.422 114.985 151.377 114.352C152.196 114.087 153.038 114.59 153.818 114.954C157.758 116.792 162.335 115.221 166.562 114.202C173.88 112.447 181.509 112.438 188.832 114.176C193.697 115.336 198.512 117.357 201.993 120.948C204.852 123.897 206.634 127.71 208.15 131.527C211.884 140.924 214.351 151.091 213.118 161.126C212.092 169.339 208.656 177.063 203.244 183.325C200.425 186.573 191.227 197.904 186.184 195.972C179.847 193.545 188.417 184.524 180.95 180.576Z" fill="#2F2E41"/>
</svg>
