<svg width="681" height="856" viewBox="0 0 681 856" fill="none" xmlns="http://www.w3.org/2000/svg">
<g clip-path="url(#clip0_319_685)">
<path d="M153.471 826.628L166.947 832.37L195.51 783.126L175.621 774.651L153.471 826.628Z" fill="#A0616A"/>
<path d="M264.83 839.381L279.478 839.38L286.447 782.879L264.827 782.881L264.83 839.381Z" fill="#A0616A"/>
<path d="M264.315 854.661L309.359 854.659V854.09C309.359 849.44 307.512 844.981 304.224 841.693C300.936 838.405 296.477 836.558 291.827 836.557H291.826L283.598 830.315L268.246 836.558L264.314 836.558L264.315 854.661Z" fill="#2F2E41"/>
<path d="M145.277 836.41L186.716 854.069L186.94 853.545C188.762 849.268 188.811 844.441 187.076 840.128C185.34 835.814 181.962 832.366 177.685 830.543L177.684 830.542L172.562 821.574L155.991 821.298L152.374 819.757L145.277 836.41Z" fill="#2F2E41"/>
<path d="M279.199 504.992L301.461 640.548L295.403 660.748L303.353 675.054L291.678 800.696L296.417 811.13L283.176 819.296H256.232L254.802 705.551L248.147 688.851V679.647L234.598 610.288L233.153 696.423L228.827 704.766L190.077 806.204H159.865L162.202 788.203C156.789 785.462 170.329 777.452 171.63 771.526L167.181 761.517L171.63 742.61L181.877 690.028L171.407 627.682L175.157 587.553L173.204 573.825L173.352 569.386C173.352 569.386 178.517 567.393 173.585 562.42C166.757 523.715 175.157 515.316 175.157 515.316L208.774 495.641L279.199 504.992Z" fill="#2F2E41"/>
<path d="M224.985 326.474C241.847 326.474 255.517 312.804 255.517 295.942C255.517 279.079 241.847 265.41 224.985 265.41C208.123 265.41 194.453 279.079 194.453 295.942C194.453 312.804 208.123 326.474 224.985 326.474Z" fill="#A0616A"/>
<path d="M186.706 237.373C186.85 239.123 186.608 240.884 185.998 242.531C185.388 244.178 184.424 245.672 183.174 246.906C181.924 248.14 180.419 249.085 178.764 249.675C177.11 250.265 175.346 250.484 173.598 250.319L155.857 289.156L144.084 270.349L162.736 236.352C163.209 233.433 164.736 230.789 167.029 228.921C169.321 227.053 172.219 226.09 175.174 226.216C178.129 226.342 180.934 227.547 183.06 229.603C185.185 231.66 186.482 234.424 186.706 237.373V237.373Z" fill="#A0616A"/>
<path d="M281.2 507.911C281.264 508.369 281.216 508.835 281.06 509.27C280.905 509.705 280.646 510.097 280.307 510.411C279.968 510.724 279.558 510.952 279.112 511.073C278.666 511.195 278.198 511.207 277.746 511.108C261.76 507.654 195.793 515.944 173.944 538.211C173.53 538.637 172.996 538.926 172.413 539.037C171.83 539.148 171.226 539.076 170.685 538.832C170.144 538.588 169.692 538.183 169.389 537.672C169.087 537.162 168.949 536.57 168.995 535.978C169.381 531.191 176.338 509.534 176.338 509.534L178.458 496.038C178.506 495.724 178.506 495.405 178.458 495.09L176.514 483.925C176.409 483.341 176.129 482.803 175.711 482.382L175.052 481.724C174.512 481.182 174.209 480.448 174.209 479.683C174.209 478.918 174.512 478.185 175.052 477.643L177.607 475.104C177.916 474.787 178.151 474.405 178.293 473.985C178.434 473.565 178.48 473.118 178.426 472.678L175.036 447.616C175.02 447.567 175.02 447.503 175.004 447.455L160.031 368.378C159.914 367.754 160.007 367.109 160.295 366.542C160.582 365.976 161.048 365.52 161.621 365.246L187.07 353.084C187.334 352.961 187.578 352.798 187.793 352.602L205.562 336.118C206.091 335.638 206.775 335.364 207.49 335.347L239.429 335.106C239.872 335.106 240.31 335.207 240.708 335.402C241.106 335.597 241.454 335.88 241.726 336.23L251.446 348.874C251.792 349.321 252.261 349.656 252.796 349.838L259.383 352.071L278.405 358.53L279.289 358.835C279.835 359.024 280.311 359.374 280.655 359.838C280.999 360.302 281.195 360.86 281.216 361.438C281.23 361.523 281.235 361.609 281.232 361.695L276.477 460.115C276.463 460.549 276.539 460.981 276.702 461.384L278.983 466.702C279.211 467.241 279.269 467.837 279.152 468.41C279.034 468.984 278.746 469.508 278.325 469.915C277.65 470.558 276.879 471.297 276.397 471.843C275.417 472.919 277.505 481.45 277.826 482.687C277.856 482.793 277.877 482.9 277.891 483.009L279.064 491.829C279.132 492.347 279.057 492.874 278.847 493.352C278.638 493.831 278.302 494.243 277.875 494.544C277.55 494.776 277.277 495.073 277.073 495.415C276.869 495.758 276.739 496.14 276.691 496.536C276.643 496.932 276.677 497.333 276.792 497.715C276.908 498.097 277.101 498.45 277.361 498.753L279.931 501.79C280.282 502.219 280.509 502.736 280.59 503.284L281.2 507.911Z" fill="#3F3D56"/>
<path d="M217.174 324.979C217.044 324.691 216.914 324.403 216.784 324.114C216.834 324.116 216.883 324.123 216.933 324.124L217.174 324.979Z" fill="#2F2E41"/>
<path d="M325.885 497.867C326.033 496.117 325.796 494.355 325.19 492.707C324.584 491.058 323.624 489.562 322.378 488.325C321.131 487.087 319.628 486.138 317.975 485.544C316.322 484.951 314.559 484.726 312.81 484.888L295.169 446.005L283.348 464.782L301.912 498.826C302.378 501.746 303.899 504.394 306.186 506.268C308.474 508.142 311.37 509.112 314.324 508.994C317.279 508.876 320.088 507.678 322.219 505.627C324.349 503.576 325.654 500.815 325.885 497.867V497.867Z" fill="#A0616A"/>
<path d="M301.974 457.046L300.994 458.878L290.663 478.189L289.217 480.888L279.128 466.991L246.016 421.396L250.723 392.799L259.383 356.971L272.219 356.232L281.216 359.912C285.049 361.604 288.192 364.549 290.13 368.263C292.069 371.977 292.687 376.24 291.884 380.352L283.916 421.155L301.974 457.046Z" fill="#3F3D56"/>
<path d="M251.567 268.469C251.11 265.933 250.088 263.532 248.578 261.443C247.817 260.539 246.874 259.805 245.81 259.29C244.746 258.775 243.586 258.49 242.404 258.455C241.223 258.419 240.047 258.632 238.954 259.082C237.861 259.531 236.875 260.206 236.06 261.063C236.538 259.675 236.677 258.193 236.466 256.741C234.236 257.811 231.85 258.52 229.398 258.843L234.816 253.186L207.847 255.664C205.063 255.92 202.053 256.282 200.009 258.396C197.965 260.511 197.852 265.024 200.435 266.203C195.345 264.286 189.499 267.069 186.14 271.731C182.782 276.393 181.545 282.543 181.318 288.509C181.024 296.245 182.466 304.481 187.188 310.177C190.276 313.901 194.486 316.224 197.903 319.575L198.006 319.676C201.748 323.514 206.44 326.294 211.605 327.733C216.769 329.172 222.223 329.218 227.411 327.867C227.994 327.707 228.572 327.529 229.154 327.363C232.06 328.678 235.68 326.881 237.514 323.958C239.471 320.841 239.857 316.853 239.94 313.055C240.048 308.087 239.742 303.119 239.025 298.202C238.216 292.665 237.487 285.574 241.872 282.793C245.286 280.628 249.528 282.765 252.965 284.885C253.295 279.374 252.824 273.845 251.567 268.469Z" fill="#2F2E41"/>
<path d="M186.461 409.812L166.117 408.343L130.809 365.114L104.6 327.548L110.636 312.276L139.167 271.401L138.872 267.87L142.029 267.301L142.085 263.05L144.705 263.466L151.724 253.411L167.79 266.263L158.704 292.954L158.151 298.395L155.007 303.814L156.544 311.248L150.536 316.949L147.643 325.447C160.123 333.655 171.959 345.934 183.498 361.302L186.461 409.812Z" fill="#3F3D56"/>
<path d="M463.721 456.825L461.515 477.277L462.814 504.098L403.408 497.04L397.825 456.825L404.937 456.895L463.721 456.825Z" fill="#FFB6B6"/>
<path d="M411.996 389.606L426.112 381.136L432.88 370.692L453.765 373.905L479.297 391.02L479.047 429.837L463.217 470.096L396.871 461.627L394.351 447.426C394.351 447.426 376 422.779 395.762 408.663L411.996 389.606Z" fill="#3F3D56"/>
<path d="M327.272 274.344C326.603 275.771 326.255 277.326 326.252 278.901C326.25 280.477 326.592 282.033 327.256 283.462C327.92 284.891 328.89 286.156 330.096 287.17C331.302 288.183 332.715 288.92 334.237 289.328L380.196 376.046L398.747 361.728L347.737 280.989C348.253 278.388 347.797 275.687 346.455 273.399C345.113 271.112 342.979 269.396 340.456 268.577C337.933 267.758 335.198 267.892 332.768 268.955C330.338 270.018 328.383 271.936 327.272 274.344V274.344Z" fill="#FFB6B6"/>
<path d="M402.663 405.348C402.663 405.348 398.404 409.125 392.347 398.696C387.499 390.346 363.317 352.957 359.893 339.996C358.015 340.049 356.172 339.476 354.656 338.366C353.14 337.257 352.035 335.674 351.517 333.868L377.492 323.786C383.138 326.61 381.571 330.523 380.139 332.547L389.813 347.057L421.991 383.168L405.79 402.673L402.663 405.348Z" fill="#3F3D56"/>
<path d="M494.534 828.161H481.546L475.364 778.064H494.534V828.161Z" fill="#FFB6B6"/>
<path d="M501.389 850.663H492.075L490.412 841.87L486.154 850.663H461.45C460.266 850.664 459.113 850.285 458.159 849.583C457.206 848.882 456.501 847.893 456.149 846.763C455.796 845.632 455.814 844.419 456.201 843.299C456.587 842.18 457.321 841.213 458.295 840.541L478.022 826.916V818.026L498.772 819.264L501.389 850.663Z" fill="#2F2E41"/>
<path d="M421.578 828.161H408.591L402.409 778.064H421.578V828.161Z" fill="#FFB6B6"/>
<path d="M428.433 850.663H419.119L417.456 841.87L413.198 850.663H388.495C387.311 850.664 386.158 850.285 385.204 849.583C384.25 848.882 383.545 847.893 383.193 846.763C382.841 845.632 382.859 844.419 383.245 843.299C383.631 842.18 384.365 841.213 385.339 840.541L405.067 826.916V818.026L425.817 819.264L428.433 850.663Z" fill="#2F2E41"/>
<path d="M500.138 784.959H499.996L497.499 703.504C499.115 700.386 499.935 696.917 499.887 693.405C499.838 689.894 498.921 686.449 497.219 683.377L496.861 682.729L497.789 678.431C498.98 672.909 498.433 667.154 496.224 661.954L493.894 585.972C502.219 532.019 462.544 496.833 462.544 496.833H403.111L398.864 511.426L394.321 515.285L396.041 521.124L391.108 528.138L390.351 540.672C381.916 622.853 383.447 702.936 396.832 780.523L396.467 780.707C395.775 781.094 395.258 781.731 395.024 782.488C394.789 783.245 394.855 784.064 395.208 784.773C395.827 786.565 397.393 787.65 398.707 787.197L430.095 786.105C430.787 785.719 431.304 785.081 431.538 784.324C431.773 783.567 431.707 782.749 431.354 782.039C430.735 780.247 429.169 779.162 427.855 779.616L425.721 780.695L430.272 702.094L429.767 687.737L430.808 671.45L435.619 598.188L453.83 688.279L472.431 785.866C471.918 786.331 471.558 786.94 471.398 787.613C471.239 788.287 471.287 788.993 471.537 789.638C471.787 790.283 472.227 790.838 472.798 791.228C473.37 791.618 474.046 791.826 474.739 791.824H500.138C501.048 791.824 501.921 791.463 502.565 790.819C503.208 790.175 503.57 789.302 503.57 788.392C503.57 787.481 503.208 786.608 502.565 785.965C501.921 785.321 501.048 784.959 500.138 784.959V784.959Z" fill="#2F2E41"/>
<path d="M565.227 530.348C565.854 528.903 566.157 527.338 566.113 525.763C566.07 524.189 565.682 522.643 564.977 521.234C564.271 519.825 563.265 518.589 562.03 517.611C560.795 516.633 559.361 515.938 557.828 515.574L509.357 430.235L491.232 445.088L544.576 524.303C544.137 526.919 544.671 529.605 546.08 531.852C547.488 534.1 549.671 535.753 552.217 536.498C554.762 537.243 557.493 537.029 559.89 535.895C562.288 534.762 564.187 532.788 565.227 530.348V530.348Z" fill="#FFB6B6"/>
<path d="M475.256 390.96C475.256 390.96 479.403 387.06 485.761 397.308C490.852 405.513 526.903 452.821 530.704 465.676C532.58 465.569 534.438 466.088 535.986 467.153C537.534 468.217 538.684 469.767 539.255 471.557L513.585 482.393C507.859 479.735 505.191 474.765 506.563 472.7L496.47 458.478L458.629 414.791L472.209 393.725L475.256 390.96Z" fill="#3F3D56"/>
<path d="M667.094 853.505C667.095 853.833 667.031 854.158 666.906 854.461C666.781 854.764 666.597 855.039 666.365 855.271C666.133 855.503 665.858 855.687 665.555 855.812C665.251 855.937 664.926 856.001 664.598 856H2.59822C1.9364 856 1.30168 855.737 0.833697 855.269C0.365718 854.801 0.102814 854.166 0.102814 853.505C0.102814 852.843 0.365718 852.208 0.833697 851.74C1.30168 851.272 1.9364 851.009 2.59822 851.009H664.598C664.926 851.008 665.251 851.072 665.555 851.197C665.858 851.322 666.133 851.506 666.365 851.738C666.597 851.97 666.781 852.245 666.906 852.549C667.031 852.852 667.095 853.177 667.094 853.505V853.505Z" fill="#CCCCCC"/>
<path d="M422.728 314.358C414.086 331.392 419.732 351.122 435.769 361.498C453.11 372.717 475.625 370.261 482.908 348.458C491.018 324.178 484.355 313.762 469.868 301.318C452.89 286.736 432.066 295.954 422.728 314.358Z" fill="#2F2E41"/>
<path d="M465.27 352.304C460.87 358.067 454.362 361.849 447.176 362.817C439.99 363.786 432.713 361.863 426.944 357.47C421.175 353.077 417.386 346.574 416.408 339.389C415.431 332.205 417.345 324.926 421.731 319.151L421.968 318.839C426.45 313.23 432.958 309.606 440.087 308.751C447.216 307.896 454.396 309.877 460.078 314.268C465.759 318.659 469.487 325.107 470.457 332.222C471.427 339.336 469.562 346.547 465.263 352.299L465.27 352.304Z" fill="#FFB6B6"/>
<path d="M414.353 311.601C418.8 315.832 424.22 318.903 430.136 320.543C431.321 319.171 432.727 318.007 434.295 317.096C433.544 318.658 433.03 320.322 432.768 322.035C435.406 327.51 446.181 331.445 456.479 335.47L470.119 311.398L452.065 301.168C437.558 291.139 420.48 295.42 414.353 311.601Z" fill="#2F2E41"/>
<path d="M480.408 301.348C481.724 300.863 483.141 300.715 484.53 300.918C485.919 301.121 487.234 301.668 488.357 302.509C490.555 304.18 492.332 306.342 493.547 308.821C495.755 312.833 497.341 317.157 498.252 321.645C499.031 325.528 498.899 330.222 495.415 332.248C492.508 333.939 488.352 332.874 485.681 330.618C483.204 328.251 481.326 325.329 480.2 322.094C479.095 318.882 477.454 315.88 475.347 313.215L477.754 314.339C476.993 312.029 476.639 309.605 476.706 307.174C476.761 305.965 477.132 304.791 477.781 303.769C478.431 302.747 479.336 301.912 480.408 301.348V301.348Z" fill="#2F2E41"/>
<path d="M449.182 304.503L468.551 315.478C471.144 316.948 473.422 318.914 475.256 321.264C477.089 323.614 478.442 326.302 479.237 329.175C480.032 332.047 480.253 335.049 479.888 338.007C479.522 340.965 478.578 343.822 477.109 346.416C472.786 354.043 465.774 359.785 457.443 362.519C449.113 365.253 440.063 364.782 432.061 361.199L449.76 345.575L425.75 357.808L420.623 354.904C446.373 350.222 451.341 330.023 449.182 304.503Z" fill="#2F2E41"/>
<path d="M262.136 0L198.415 106.088L262.353 143.837L262.136 0Z" fill="#8C8C8C"/>
<path d="M326.137 106.088L262.136 0L262.353 143.837L326.137 106.088Z" fill="#333333"/>
<path d="M198.415 106.088L262.276 76.9816L262.353 143.837L198.415 106.088Z" fill="#383838"/>
<path d="M326.137 106.088L262.276 76.9816L262.414 141.393L326.137 106.088Z" fill="#141414"/>
<path d="M325.981 118.237L262.197 155.986V208.054L325.981 118.237Z" fill="#333333"/>
<path d="M198.412 118.237L262.197 155.986V208.054L198.412 118.237Z" fill="#8C8C8C"/>
</g>
<defs>
<clipPath id="clip0_319_685">
<rect width="681" height="856" fill="white"/>
</clipPath>
</defs>
</svg>
