<svg width="893" height="749" viewBox="0 0 893 749" fill="none" xmlns="http://www.w3.org/2000/svg">
<g clip-path="url(#clip0_331_723)">
<path d="M294.554 705.603L305.754 710.373L329.494 669.471L312.963 662.431L294.554 705.603Z" fill="#A0616A"/>
<path d="M387.109 716.196L399.283 716.195L405.076 669.265L387.106 669.266L387.109 716.196Z" fill="#A0616A"/>
<path d="M386.68 728.888L424.118 728.886V728.413C424.118 724.551 422.583 720.847 419.85 718.116C417.117 715.385 413.411 713.851 409.546 713.851H409.546L402.707 708.666L389.948 713.852L386.68 713.852L386.68 728.888Z" fill="#2F2E41"/>
<path d="M287.744 713.729L322.185 728.396L322.371 727.961C323.886 724.408 323.927 720.399 322.484 716.816C321.042 713.233 318.234 710.369 314.679 708.855L314.678 708.855L310.421 701.405L296.649 701.176L293.643 699.896L287.744 713.729Z" fill="#2F2E41"/>
<path d="M399.051 438.45L417.553 551.044L412.518 567.822L419.125 579.705L409.422 684.064L413.361 692.731L402.356 699.513H379.962L378.774 605.036L373.242 591.165V583.52L361.981 525.91L360.78 597.454L357.185 604.384L324.979 688.639H299.868L301.81 673.687C297.311 671.411 308.565 664.758 309.646 659.836L305.949 651.522L309.646 635.817L318.163 592.143L309.461 540.357L312.578 507.026L310.955 495.624L311.078 491.936C311.078 491.936 315.37 490.281 311.271 486.15C305.597 454.002 312.578 447.025 312.578 447.025L340.518 430.683L399.051 438.45Z" fill="#2F2E41"/>
<path d="M353.992 290.171C368.007 290.171 379.368 278.817 379.368 264.811C379.368 250.805 368.007 239.451 353.992 239.451C339.977 239.451 328.616 250.805 328.616 264.811C328.616 278.817 339.977 290.171 353.992 290.171Z" fill="#A0616A"/>
<path d="M322.177 216.164C322.296 217.618 322.096 219.08 321.588 220.448C321.081 221.816 320.28 223.057 319.242 224.082C318.203 225.107 316.952 225.892 315.577 226.382C314.202 226.872 312.736 227.054 311.282 226.917L296.538 259.175L286.753 243.554L302.255 215.316C302.648 212.891 303.918 210.695 305.823 209.143C307.728 207.592 310.137 206.792 312.592 206.897C315.048 207.001 317.38 208.002 319.147 209.71C320.913 211.418 321.991 213.714 322.177 216.164V216.164Z" fill="#A0616A"/>
<path d="M400.714 440.875C400.767 441.255 400.727 441.642 400.598 442.004C400.468 442.365 400.254 442.69 399.972 442.951C399.69 443.212 399.349 443.4 398.979 443.501C398.608 443.602 398.219 443.612 397.843 443.53C384.557 440.661 329.73 447.547 311.57 466.042C311.226 466.396 310.782 466.636 310.297 466.728C309.813 466.82 309.312 466.761 308.862 466.558C308.412 466.355 308.036 466.019 307.785 465.595C307.533 465.17 307.419 464.679 307.457 464.188C307.778 460.211 313.56 442.223 313.56 442.223L315.322 431.013C315.362 430.752 315.362 430.487 315.322 430.226L313.706 420.951C313.619 420.467 313.386 420.02 313.039 419.67L312.491 419.123C312.042 418.673 311.79 418.064 311.79 417.429C311.79 416.793 312.042 416.184 312.491 415.734L314.614 413.625C314.872 413.362 315.067 413.044 315.184 412.695C315.302 412.347 315.34 411.976 315.295 411.61L312.478 390.793C312.465 390.753 312.465 390.699 312.451 390.659L300.006 324.978C299.91 324.459 299.987 323.923 300.226 323.453C300.465 322.982 300.852 322.604 301.328 322.376L322.479 312.274C322.699 312.172 322.902 312.037 323.08 311.874L337.849 298.182C338.288 297.783 338.857 297.556 339.451 297.542L365.997 297.341C366.365 297.341 366.729 297.425 367.06 297.587C367.391 297.749 367.68 297.985 367.906 298.276L375.985 308.778C376.272 309.149 376.662 309.427 377.106 309.578L382.581 311.433L398.391 316.798L399.125 317.051C399.579 317.208 399.975 317.498 400.261 317.884C400.547 318.27 400.71 318.733 400.728 319.213C400.739 319.284 400.743 319.355 400.741 319.426L396.788 401.175C396.777 401.535 396.84 401.894 396.975 402.229L398.872 406.646C399.061 407.094 399.109 407.589 399.012 408.065C398.914 408.542 398.674 408.977 398.324 409.315C397.763 409.849 397.122 410.463 396.722 410.916C395.907 411.81 397.643 418.896 397.91 419.924C397.934 420.011 397.952 420.101 397.964 420.191L398.938 427.517C398.995 427.947 398.933 428.385 398.759 428.782C398.584 429.18 398.305 429.522 397.95 429.772C397.68 429.964 397.453 430.211 397.284 430.496C397.115 430.78 397.007 431.097 396.966 431.426C396.926 431.755 396.955 432.089 397.051 432.406C397.146 432.723 397.307 433.017 397.523 433.268L399.659 435.79C399.951 436.147 400.14 436.576 400.207 437.031L400.714 440.875Z" fill="#3F3D56"/>
<path d="M347.5 288.93C347.392 288.691 347.284 288.452 347.176 288.212C347.217 288.213 347.258 288.219 347.3 288.22L347.5 288.93Z" fill="#2F2E41"/>
<path d="M437.853 432.532C437.976 431.078 437.779 429.615 437.275 428.246C436.772 426.877 435.974 425.634 434.938 424.606C433.902 423.578 432.653 422.79 431.279 422.297C429.905 421.804 428.439 421.617 426.986 421.751L412.324 389.455L402.499 405.051L417.928 433.329C418.315 435.754 419.579 437.954 421.481 439.51C423.382 441.067 425.788 441.872 428.244 441.774C430.7 441.676 433.035 440.681 434.806 438.978C436.576 437.274 437.661 434.981 437.853 432.532V432.532Z" fill="#A0616A"/>
<path d="M417.98 398.626L417.166 400.147L408.58 416.187L407.378 418.429L398.992 406.886L371.472 369.015L375.384 345.261L382.581 315.503L393.25 314.889L400.728 317.945C403.913 319.351 406.526 321.797 408.137 324.882C409.748 327.967 410.262 331.508 409.594 334.923L402.971 368.814L417.98 398.626Z" fill="#3F3D56"/>
<path d="M376.085 241.992C375.705 239.886 374.857 237.891 373.601 236.157C372.969 235.406 372.185 234.796 371.301 234.368C370.416 233.941 369.452 233.704 368.47 233.674C367.488 233.644 366.511 233.822 365.602 234.195C364.694 234.569 363.874 235.129 363.197 235.841C363.594 234.688 363.71 233.457 363.534 232.251C361.681 233.139 359.698 233.729 357.66 233.997L362.163 229.298L339.748 231.356C337.435 231.569 334.933 231.87 333.234 233.626C331.535 235.382 331.441 239.131 333.588 240.111C329.357 238.518 324.499 240.829 321.707 244.702C318.916 248.574 317.888 253.682 317.699 258.638C317.455 265.064 318.653 271.905 322.578 276.635C325.144 279.729 328.644 281.658 331.484 284.441L331.569 284.525C334.679 287.713 338.579 290.022 342.871 291.217C347.164 292.412 351.696 292.451 356.009 291.329C356.493 291.196 356.974 291.048 357.457 290.91C359.873 292.002 362.881 290.51 364.406 288.082C366.032 285.493 366.353 282.181 366.422 279.026C366.512 274.899 366.257 270.773 365.661 266.689C364.989 262.09 364.383 256.2 368.028 253.89C370.865 252.092 374.391 253.867 377.247 255.627C377.522 251.05 377.13 246.457 376.085 241.992Z" fill="#2F2E41"/>
<path d="M321.973 359.393L305.065 358.173L275.719 322.267L253.936 291.063L258.952 278.379L282.666 244.427L282.42 241.495L285.044 241.022L285.091 237.491L287.269 237.837L293.102 229.485L306.455 240.16L298.904 262.33L298.444 266.849L295.831 271.35L297.108 277.525L292.115 282.26L289.71 289.319C300.083 296.136 309.92 306.335 319.51 319.1L321.973 359.393Z" fill="#3F3D56"/>
<path d="M552.413 398.443L550.58 415.43L551.659 437.707L502.285 431.845L497.645 398.443L503.556 398.5L552.413 398.443Z" fill="#FFB6B6"/>
<path d="M509.422 342.61L521.154 335.575L526.779 326.899L544.138 329.568L565.358 343.784L565.15 376.025L551.993 409.466L496.852 402.431L494.756 390.635C494.756 390.635 479.504 370.163 495.93 358.438L509.422 342.61Z" fill="#3F3D56"/>
<path d="M439.006 246.872C438.45 248.057 438.16 249.349 438.158 250.658C438.156 251.966 438.441 253.259 438.993 254.446C439.545 255.632 440.35 256.683 441.353 257.525C442.355 258.367 443.53 258.979 444.794 259.318L482.993 331.346L498.411 319.454L456.015 252.392C456.444 250.231 456.065 247.988 454.949 246.088C453.834 244.188 452.06 242.762 449.963 242.082C447.867 241.402 445.593 241.514 443.574 242.396C441.554 243.279 439.929 244.872 439.006 246.872V246.872Z" fill="#FFB6B6"/>
<path d="M501.666 355.685C501.666 355.685 498.126 358.823 493.092 350.16C489.062 343.224 468.964 312.169 466.119 301.403C464.558 301.447 463.026 300.971 461.766 300.05C460.506 299.128 459.588 297.814 459.157 296.313L480.746 287.939C485.439 290.284 484.136 293.535 482.946 295.216L490.986 307.268L517.73 337.262L504.265 353.463L501.666 355.685Z" fill="#3F3D56"/>
<path d="M578.023 706.876H567.228L562.09 665.266H578.023V706.876Z" fill="#FFB6B6"/>
<path d="M583.72 725.567H575.978L574.597 718.263L571.058 725.567H550.526C549.542 725.567 548.583 725.253 547.79 724.67C546.998 724.087 546.412 723.267 546.119 722.328C545.826 721.389 545.842 720.381 546.162 719.451C546.483 718.521 547.093 717.718 547.903 717.159L564.299 705.843V698.458L581.545 699.487L583.72 725.567Z" fill="#2F2E41"/>
<path d="M517.387 706.876H506.592L501.454 665.266H517.387V706.876Z" fill="#FFB6B6"/>
<path d="M523.084 725.567H515.343L513.961 718.263L510.422 725.567H489.89C488.906 725.567 487.947 725.253 487.155 724.67C486.362 724.087 485.776 723.267 485.484 722.328C485.191 721.389 485.206 720.381 485.527 719.451C485.848 718.521 486.458 717.718 487.267 717.159L503.664 705.843V698.458L520.909 699.487L523.084 725.567Z" fill="#2F2E41"/>
<path d="M582.679 670.993H582.562L580.486 603.336C581.83 600.746 582.511 597.864 582.471 594.948C582.43 592.031 581.669 589.169 580.254 586.618L579.957 586.08L580.727 582.51C581.717 577.923 581.263 573.143 579.427 568.824L577.49 505.713C584.409 460.899 551.435 431.673 551.435 431.673H502.038L498.508 443.794L494.732 447L496.161 451.85L492.062 457.675L491.433 468.086C484.422 536.346 485.694 602.864 496.819 667.308L496.516 667.461C495.941 667.782 495.511 668.312 495.316 668.94C495.121 669.569 495.176 670.249 495.47 670.838C495.984 672.327 497.286 673.228 498.378 672.851L524.465 671.944C525.04 671.624 525.47 671.094 525.665 670.465C525.86 669.837 525.805 669.157 525.511 668.567C524.997 667.079 523.695 666.178 522.603 666.555L520.829 667.451L524.612 602.165L524.192 590.24L525.057 576.711L529.056 515.859L544.191 590.69L559.652 671.746C559.225 672.132 558.926 672.638 558.793 673.197C558.661 673.757 558.701 674.343 558.909 674.879C559.116 675.415 559.482 675.876 559.957 676.2C560.432 676.524 560.994 676.697 561.57 676.695H582.679C583.436 676.695 584.162 676.395 584.697 675.86C585.232 675.325 585.532 674.6 585.532 673.844C585.532 673.088 585.232 672.363 584.697 671.828C584.162 671.293 583.436 670.993 582.679 670.993V670.993Z" fill="#2F2E41"/>
<path d="M636.777 459.511C637.298 458.311 637.55 457.011 637.514 455.703C637.478 454.395 637.155 453.111 636.569 451.941C635.983 450.771 635.147 449.744 634.12 448.931C633.094 448.119 631.901 447.542 630.627 447.24L590.342 376.356L575.277 388.693L619.614 454.49C619.248 456.663 619.693 458.894 620.863 460.761C622.033 462.627 623.848 464 625.964 464.619C628.079 465.238 630.349 465.06 632.342 464.118C634.335 463.177 635.913 461.538 636.777 459.511V459.511Z" fill="#FFB6B6"/>
<path d="M562 343.734C562 343.734 565.446 340.495 570.731 349.007C574.962 355.822 604.925 395.116 608.084 405.794C609.643 405.705 611.188 406.136 612.474 407.02C613.761 407.905 614.717 409.192 615.191 410.679L593.856 419.679C589.097 417.472 586.88 413.343 588.02 411.628L579.632 399.815L548.181 363.528L559.467 346.031L562 343.734Z" fill="#3F3D56"/>
<path d="M721.443 727.927C721.444 728.2 721.39 728.47 721.286 728.722C721.183 728.973 721.03 729.202 720.837 729.395C720.644 729.587 720.415 729.74 720.163 729.844C719.911 729.948 719.641 730.001 719.369 730H169.16C168.61 730 168.082 729.782 167.693 729.393C167.304 729.004 167.086 728.477 167.086 727.927C167.086 727.378 167.304 726.85 167.693 726.462C168.082 726.073 168.61 725.855 169.16 725.855H719.369C719.641 725.854 719.911 725.907 720.163 726.011C720.415 726.115 720.644 726.267 720.837 726.46C721.03 726.653 721.183 726.881 721.286 727.133C721.39 727.385 721.444 727.655 721.443 727.927V727.927Z" fill="#CCCCCC"/>
<path d="M518.342 280.108C511.16 294.257 515.852 310.645 529.18 319.263C543.593 328.582 562.307 326.541 568.359 308.432C575.1 288.265 569.562 279.613 557.521 269.277C543.411 257.165 526.103 264.822 518.342 280.108Z" fill="#2F2E41"/>
<path d="M553.7 311.626C550.043 316.413 544.634 319.554 538.662 320.359C532.689 321.163 526.641 319.566 521.846 315.917C517.052 312.269 513.902 306.867 513.09 300.899C512.277 294.932 513.868 288.886 517.513 284.089L517.711 283.83C521.436 279.171 526.844 276.161 532.77 275.451C538.695 274.741 544.662 276.386 549.384 280.033C554.106 283.68 557.205 289.036 558.011 294.946C558.817 300.855 557.267 306.845 553.694 311.622L553.7 311.626Z" fill="#FFB6B6"/>
<path d="M511.382 277.818C515.078 281.332 519.583 283.883 524.499 285.245C525.484 284.106 526.653 283.139 527.956 282.383C527.332 283.68 526.904 285.062 526.687 286.485C528.88 291.032 537.835 294.3 546.394 297.644L557.73 277.65L542.725 269.153C530.668 260.822 516.474 264.378 511.382 277.818Z" fill="#2F2E41"/>
<path d="M566.282 269.302C567.376 268.899 568.554 268.776 569.708 268.945C570.862 269.113 571.956 269.568 572.889 270.267C574.716 271.654 576.193 273.45 577.202 275.509C579.037 278.842 580.356 282.433 581.113 286.161C581.76 289.386 581.65 293.285 578.755 294.968C576.339 296.372 572.885 295.488 570.664 293.614C568.606 291.647 567.045 289.221 566.11 286.533C565.191 283.866 563.827 281.372 562.076 279.159L564.077 280.092C563.444 278.174 563.15 276.16 563.206 274.141C563.251 273.137 563.559 272.161 564.099 271.312C564.639 270.464 565.391 269.771 566.282 269.302V269.302Z" fill="#2F2E41"/>
<path d="M540.328 271.923L556.427 281.039C558.582 282.259 560.476 283.892 562 285.844C563.524 287.796 564.648 290.029 565.308 292.415C565.969 294.801 566.153 297.294 565.849 299.751C565.546 302.208 564.761 304.581 563.539 306.736C559.946 313.071 554.119 317.84 547.195 320.111C540.271 322.382 532.749 321.991 526.099 319.015L540.809 306.037L520.853 316.198L516.593 313.786C537.994 309.897 542.123 293.119 540.328 271.923Z" fill="#2F2E41"/>
<path d="M384.87 19L331.909 107.118L385.05 138.472L384.87 19Z" fill="#8C8C8C"/>
<path d="M438.062 107.118L384.869 19L385.049 138.472L438.062 107.118Z" fill="#333333"/>
<path d="M331.909 107.118L384.986 82.9414L385.05 138.472L331.909 107.118Z" fill="#383838"/>
<path d="M438.062 107.118L384.985 82.9414L385.1 136.442L438.062 107.118Z" fill="#141414"/>
<path d="M437.932 117.209L384.92 148.563V191.811L437.932 117.209Z" fill="#333333"/>
<path d="M331.906 117.209L384.92 148.563V191.811L331.906 117.209Z" fill="#8C8C8C"/>
</g>
<defs>
<clipPath id="clip0_331_723">
<rect width="566" height="711" fill="white" transform="translate(167 19)"/>
</clipPath>
</defs>
</svg>
