<svg width="883" height="741" viewBox="0 0 883 741" fill="none" xmlns="http://www.w3.org/2000/svg">
<path d="M574.806 732.714L409.394 434.312C409.348 433.582 409.122 432.874 408.737 432.252C408.352 431.63 407.819 431.113 407.187 430.745C406.461 430.329 405.632 430.129 404.797 430.168C404.771 430.166 404.743 430.167 404.716 430.166C404.689 430.167 404.662 430.166 404.636 430.168C403.504 430.115 402.396 430.502 401.543 431.247C400.69 431.993 400.158 433.04 400.058 434.169L224.746 732.714C224.454 733.22 224.264 733.779 224.188 734.358C224.111 734.938 224.15 735.526 224.301 736.091C224.452 736.656 224.712 737.185 225.068 737.649C225.423 738.112 225.867 738.501 226.372 738.793C226.878 739.086 227.437 739.275 228.016 739.352C228.595 739.428 229.183 739.389 229.747 739.238C230.311 739.086 230.84 738.825 231.303 738.469C231.767 738.113 232.155 737.669 232.447 737.163L404.598 444.002L567.105 737.163C567.397 737.669 567.786 738.113 568.249 738.469C568.712 738.825 569.241 739.086 569.805 739.238C570.369 739.389 570.958 739.428 571.537 739.352C572.116 739.275 572.674 739.086 573.18 738.793C573.686 738.501 574.129 738.112 574.485 737.649C574.84 737.185 575.101 736.656 575.252 736.091C575.403 735.526 575.441 734.938 575.365 734.358C575.288 733.779 575.098 733.22 574.806 732.714Z" fill="#3F3D56"/>
<path d="M377.308 681.517L396.004 677.224L388.356 603.025L360.762 609.359L377.308 681.517Z" fill="#FFB6B6"/>
<path d="M391.762 645.672L365.155 651.779L356.647 635.144L356.166 634.554C352.392 629.919 350.297 624.142 350.222 618.164L328.107 559.631L326.299 558.771C324.9 558.105 323.659 557.148 322.659 555.965C321.659 554.781 320.923 553.397 320.5 551.906C320.077 550.415 319.977 548.851 320.206 547.318C320.436 545.785 320.989 544.318 321.83 543.017L319.489 536.82L253.426 536.942L253.36 536.923L172.235 514.154L180.753 463.347L203.574 477.71C211.093 477.222 339.905 469.309 351.805 498.193C362.401 523.914 377.672 567.858 388.616 600.193C389.162 601.644 389.84 603.043 390.642 604.37C392.345 606.993 393.344 610.011 393.544 613.133C393.673 614.492 393.932 615.834 394.317 617.143C398.866 630.749 391.936 645.313 391.866 645.459L391.762 645.672Z" fill="#2F2E41"/>
<path d="M370.991 675.313L377.07 673.917L398.589 658.813L413.523 665.549L413.524 665.548C420.713 663.899 428.262 665.174 434.511 669.093C440.76 673.012 445.197 679.254 446.847 686.447L447.049 687.328L377.412 703.314L370.991 675.313Z" fill="#2F2E41"/>
<path d="M94.9369 676.979C96.8378 656.276 108.958 635.549 128.396 628.207C121.327 649.68 122.076 672.963 130.511 693.937C133.794 702.014 138.285 710.655 135.709 718.985C134.106 724.167 129.908 728.228 125.153 730.836C120.398 733.443 115.071 734.785 109.811 736.1L108.796 736.996C99.7771 718.267 93.036 697.682 94.9369 676.979Z" fill="#F0F0F0"/>
<path d="M128.604 628.59C117.57 641.79 110.973 658.133 109.751 675.298C109.422 678.988 109.677 682.707 110.506 686.318C111.427 689.81 113.265 692.991 115.831 695.531C118.175 697.948 120.852 700.148 122.569 703.092C123.425 704.613 123.95 706.297 124.11 708.035C124.27 709.773 124.061 711.524 123.497 713.176C122.199 717.327 119.487 720.763 116.718 724.032C113.644 727.661 110.393 731.382 109.189 736.101C109.043 736.672 108.164 736.412 108.31 735.841C110.406 727.631 118.15 722.757 121.678 715.31C123.324 711.835 123.934 707.842 122.172 704.286C120.631 701.177 117.872 698.906 115.477 696.479C112.938 694.038 111.036 691.012 109.935 687.665C108.925 684.108 108.528 680.405 108.76 676.714C109.149 668.397 110.843 660.193 113.78 652.402C117.082 643.492 121.883 635.213 127.976 627.923C128.353 627.472 128.978 628.142 128.603 628.59L128.604 628.59Z" fill="white"/>
<path d="M109.819 669.748C106.969 669.151 104.423 667.561 102.637 665.26C100.85 662.959 99.9391 660.098 100.066 657.187C100.073 657.068 100.125 656.957 100.212 656.876C100.299 656.795 100.413 656.751 100.532 656.753C100.651 656.755 100.764 656.803 100.848 656.887C100.932 656.971 100.98 657.085 100.982 657.203C100.859 659.914 101.708 662.579 103.376 664.718C105.044 666.857 107.421 668.329 110.078 668.869C110.656 668.987 110.393 669.865 109.819 669.748H109.819Z" fill="white"/>
<path d="M114.481 694.463C119.491 691.247 123.106 686.259 124.604 680.495C124.752 679.924 125.63 680.184 125.483 680.754C123.912 686.75 120.14 691.932 114.919 695.267C114.421 695.585 113.986 694.778 114.481 694.463H114.481Z" fill="white"/>
<path d="M117.96 644.332C119.015 644.793 120.167 644.984 121.314 644.889C122.461 644.794 123.567 644.415 124.531 643.787C125.025 643.463 125.459 644.27 124.969 644.591C123.9 645.281 122.679 645.698 121.412 645.806C120.145 645.914 118.871 645.71 117.701 645.211C117.587 645.174 117.491 645.094 117.434 644.988C117.376 644.882 117.361 644.759 117.391 644.642C117.426 644.526 117.505 644.428 117.612 644.37C117.718 644.312 117.843 644.299 117.96 644.332H117.96Z" fill="white"/>
<path d="M189.488 663.112C189.185 663.323 188.883 663.534 188.58 663.752C184.528 666.609 180.715 669.79 177.178 673.264C176.9 673.528 176.623 673.8 176.353 674.072C167.921 682.533 161.133 692.487 156.332 703.428C154.426 707.784 152.854 712.278 151.629 716.872C149.938 723.217 148.609 730.231 145.028 735.491C144.66 736.044 144.259 736.574 143.826 737.077L109.968 738.166C109.89 738.129 109.811 738.101 109.733 738.065L108.383 738.17C108.429 737.929 108.483 737.679 108.53 737.438C108.556 737.298 108.59 737.158 108.617 737.017C108.637 736.924 108.657 736.83 108.67 736.745C108.676 736.714 108.683 736.683 108.69 736.659C108.703 736.574 108.724 736.496 108.737 736.418C109.032 735.023 109.338 733.629 109.654 732.233C109.654 732.226 109.654 732.226 109.661 732.218C111.968 721.564 115.529 711.222 120.271 701.407C120.416 701.116 120.561 700.818 120.722 700.526C122.924 696.179 125.478 692.018 128.357 688.087C129.941 685.939 131.632 683.873 133.425 681.897C138.066 676.799 143.48 672.463 149.468 669.048C161.405 662.243 175.385 659.333 188.489 662.834C188.824 662.924 189.152 663.014 189.488 663.112Z" fill="#F0F0F0"/>
<path d="M189.425 663.544C172.673 667.437 157.572 676.511 146.268 689.48C143.785 692.229 141.75 695.352 140.239 698.734C138.873 702.077 138.427 705.724 138.947 709.298C139.365 712.64 140.179 716.009 139.777 719.394C139.546 721.124 138.952 722.785 138.034 724.269C137.116 725.753 135.895 727.026 134.451 728.005C130.917 730.537 126.684 731.647 122.506 732.589C117.868 733.635 113.034 734.647 109.232 737.689C108.772 738.058 108.227 737.321 108.687 736.953C115.301 731.66 124.416 732.434 131.715 728.613C135.12 726.83 138.01 724.009 138.742 720.108C139.383 716.697 138.546 713.222 138.094 709.842C137.536 706.363 137.838 702.801 138.973 699.466C140.307 696.017 142.218 692.821 144.624 690.014C149.94 683.608 156.229 678.078 163.261 673.627C171.259 668.502 180.075 664.784 189.326 662.633C189.898 662.5 189.994 663.412 189.425 663.544V663.544Z" fill="white"/>
<path d="M149.662 685.09C147.745 682.897 146.669 680.093 146.627 677.18C146.585 674.267 147.58 671.433 149.433 669.186C149.809 668.732 150.531 669.297 150.154 669.751C148.425 671.84 147.499 674.48 147.543 677.192C147.588 679.905 148.6 682.513 150.398 684.544C150.788 684.986 150.05 685.529 149.662 685.09V685.09Z" fill="white"/>
<path d="M138.511 707.632C144.447 708.082 150.334 706.277 154.999 702.578C155.461 702.211 156.006 702.947 155.544 703.314C150.683 707.155 144.553 709.02 138.377 708.538C137.788 708.492 137.926 707.585 138.511 707.632V707.632Z" fill="white"/>
<path d="M171.454 669.701C172.019 670.704 172.824 671.551 173.797 672.166C174.77 672.781 175.881 673.144 177.029 673.224C177.618 673.263 177.479 674.169 176.894 674.13C175.626 674.037 174.4 673.634 173.324 672.957C172.247 672.28 171.352 671.349 170.718 670.247C170.65 670.148 170.621 670.026 170.639 669.907C170.657 669.788 170.719 669.68 170.813 669.606C170.911 669.534 171.033 669.504 171.153 669.521C171.273 669.539 171.381 669.604 171.454 669.701H171.454Z" fill="white"/>
<path d="M648.886 676.979C646.985 656.276 634.866 635.549 615.427 628.207C622.497 649.68 621.747 672.963 613.312 693.937C610.029 702.014 605.538 710.655 608.114 718.985C609.717 724.167 613.915 728.228 618.67 730.836C623.425 733.443 628.752 734.785 634.012 736.1L635.027 736.996C644.046 718.267 650.787 697.682 648.886 676.979Z" fill="#F0F0F0"/>
<path d="M615.22 628.59C626.254 641.79 632.85 658.133 634.072 675.298C634.401 678.988 634.146 682.707 633.318 686.318C632.397 689.81 630.558 692.991 627.993 695.531C625.649 697.948 622.971 700.148 621.255 703.092C620.398 704.613 619.873 706.297 619.713 708.035C619.553 709.773 619.762 711.524 620.326 713.176C621.625 717.327 624.337 720.763 627.105 724.032C630.18 727.661 633.43 731.382 634.635 736.101C634.781 736.672 635.659 736.412 635.513 735.841C633.417 727.631 625.674 722.757 622.145 715.31C620.499 711.835 619.889 707.842 621.652 704.286C623.192 701.177 625.952 698.906 628.346 696.479C630.885 694.038 632.788 691.012 633.888 687.665C634.898 684.108 635.296 680.405 635.064 676.714C634.674 668.397 632.98 660.193 630.044 652.402C626.741 643.492 621.94 635.213 615.848 627.923C615.47 627.472 614.845 628.142 615.22 628.59L615.22 628.59Z" fill="white"/>
<path d="M634.004 669.748C636.854 669.151 639.4 667.561 641.186 665.26C642.973 662.959 643.884 660.098 643.756 657.187C643.75 657.068 643.698 656.957 643.611 656.876C643.524 656.795 643.409 656.751 643.291 656.753C643.172 656.755 643.059 656.803 642.975 656.887C642.891 656.971 642.843 657.085 642.841 657.203C642.964 659.914 642.115 662.579 640.447 664.718C638.779 666.857 636.402 668.329 633.745 668.869C633.167 668.987 633.43 669.865 634.004 669.748V669.748Z" fill="white"/>
<path d="M629.343 694.463C624.332 691.247 620.718 686.259 619.219 680.495C619.071 679.924 618.193 680.184 618.341 680.754C619.911 686.75 623.684 691.932 628.905 695.267C629.403 695.585 629.838 694.778 629.343 694.463H629.343Z" fill="white"/>
<path d="M625.864 644.332C624.809 644.793 623.656 644.984 622.51 644.889C621.363 644.794 620.257 644.415 619.293 643.787C618.799 643.463 618.364 644.27 618.855 644.591C619.924 645.281 621.145 645.698 622.412 645.806C623.679 645.914 624.953 645.71 626.123 645.211C626.237 645.174 626.333 645.094 626.39 644.988C626.448 644.882 626.463 644.759 626.433 644.642C626.398 644.526 626.318 644.428 626.212 644.37C626.105 644.312 625.98 644.299 625.864 644.332H625.864Z" fill="white"/>
<path d="M554.336 663.112C554.638 663.323 554.941 663.534 555.243 663.752C559.295 666.609 563.108 669.79 566.645 673.264C566.923 673.528 567.2 673.8 567.47 674.072C575.902 682.533 582.691 692.487 587.491 703.428C589.397 707.784 590.97 712.278 592.194 716.872C593.885 723.217 595.214 730.231 598.796 735.491C599.163 736.044 599.565 736.574 599.998 737.077L633.856 738.166C633.934 738.129 634.012 738.101 634.091 738.065L635.441 738.17C635.394 737.929 635.341 737.679 635.294 737.438C635.267 737.298 635.233 737.158 635.207 737.017C635.187 736.924 635.167 736.83 635.154 736.745C635.147 736.714 635.14 736.683 635.134 736.659C635.121 736.574 635.1 736.496 635.087 736.418C634.791 735.023 634.486 733.629 634.17 732.233C634.17 732.226 634.17 732.226 634.163 732.218C631.856 721.564 628.294 711.222 623.552 701.407C623.407 701.117 623.262 700.818 623.101 700.526C620.899 696.179 618.346 692.018 615.466 688.087C613.882 685.939 612.191 683.873 610.399 681.897C605.758 676.799 600.344 672.463 594.356 669.048C582.418 662.243 568.438 659.333 555.334 662.834C554.999 662.924 554.671 663.014 554.336 663.112Z" fill="#F0F0F0"/>
<path d="M554.399 663.544C571.151 667.437 586.252 676.511 597.556 689.48C600.04 692.229 602.074 695.352 603.585 698.734C604.951 702.077 605.397 705.724 604.877 709.298C604.46 712.64 603.646 716.009 604.047 719.394C604.278 721.124 604.872 722.785 605.79 724.269C606.708 725.753 607.929 727.026 609.373 728.005C612.908 730.537 617.141 731.647 621.318 732.589C625.956 733.635 630.791 734.647 634.592 737.689C635.053 738.058 635.597 737.321 635.137 736.953C628.523 731.66 619.408 732.434 612.11 728.613C608.704 726.83 605.815 724.009 605.082 720.109C604.441 716.698 605.278 713.222 605.73 709.842C606.288 706.363 605.986 702.801 604.851 699.466C603.517 696.017 601.606 692.821 599.2 690.014C593.885 683.608 587.595 678.078 580.563 673.627C572.565 668.502 563.75 664.784 554.499 662.633C553.926 662.5 553.83 663.412 554.399 663.544V663.544Z" fill="white"/>
<path d="M594.162 685.09C596.079 682.897 597.154 680.093 597.196 677.18C597.238 674.267 596.244 671.433 594.391 669.186C594.014 668.732 593.292 669.297 593.669 669.751C595.399 671.84 596.325 674.48 596.28 677.192C596.236 679.905 595.223 682.513 593.426 684.544C593.036 684.986 593.774 685.529 594.162 685.09V685.09Z" fill="white"/>
<path d="M605.311 707.632C599.376 708.082 593.489 706.277 588.824 702.578C588.362 702.211 587.817 702.947 588.279 703.314C593.14 707.155 599.27 709.02 605.446 708.538C606.035 708.492 605.897 707.585 605.311 707.632V707.632Z" fill="white"/>
<path d="M572.37 669.701C571.805 670.704 571 671.551 570.027 672.166C569.053 672.781 567.943 673.144 566.795 673.224C566.206 673.263 566.344 674.169 566.929 674.13C568.198 674.037 569.423 673.634 570.5 672.957C571.577 672.28 572.471 671.349 573.106 670.247C573.174 670.148 573.202 670.026 573.185 669.907C573.167 669.788 573.105 669.68 573.01 669.606C572.913 669.534 572.791 669.504 572.671 669.521C572.551 669.539 572.443 669.604 572.37 669.701H572.37Z" fill="white"/>
<path d="M883 739.824C882.999 740.135 882.875 740.434 882.654 740.655C882.434 740.875 882.135 740.999 881.824 741H1.17578C0.863945 741 0.564877 740.876 0.344376 740.655C0.123875 740.435 0 740.136 0 739.824C0 739.512 0.123875 739.212 0.344376 738.992C0.564877 738.771 0.863945 738.647 1.17578 738.647H881.824C882.135 738.648 882.434 738.772 882.654 738.992C882.875 739.213 882.999 739.512 883 739.824V739.824Z" fill="#3F3D56"/>
<path d="M567.251 284.723C569.706 284.723 571.697 282.731 571.697 280.274C571.697 277.817 569.706 275.825 567.251 275.825C564.795 275.825 562.805 277.817 562.805 280.274C562.805 282.731 564.795 284.723 567.251 284.723Z" fill="#3F3D56"/>
<path d="M511.575 314.541L571.517 276.861C572.059 276.52 572.665 276.292 573.297 276.192C573.93 276.092 574.576 276.121 575.197 276.278C575.818 276.435 576.401 276.716 576.91 277.104C577.42 277.492 577.845 277.98 578.161 278.537C578.476 279.095 578.676 279.711 578.747 280.347C578.819 280.984 578.76 281.629 578.576 282.242C578.391 282.856 578.084 283.426 577.673 283.917C577.262 284.409 576.756 284.812 576.185 285.102L513.08 317.198C512.729 317.376 512.324 317.412 511.947 317.299C511.571 317.185 511.253 316.931 511.059 316.589C510.865 316.247 510.811 315.843 510.907 315.462C511.003 315.08 511.242 314.751 511.575 314.541V314.541Z" fill="#E4E4E4"/>
<path d="M391.319 395.677C390.847 394.974 390.601 394.145 390.613 393.298C390.625 392.452 390.895 391.629 391.388 390.941C392.402 389.582 393.753 388.51 395.306 387.832C398.514 386.198 401.968 385.106 405.531 384.599C408.239 384.214 411.194 384.091 413.294 382.339C415.381 380.598 416.544 377.343 419.247 377.071C421.861 376.808 423.87 379.67 426.491 379.848C429.721 380.067 431.836 376.284 434.979 375.508C437.083 374.989 439.247 375.906 441.22 376.801L453.064 382.178L459.135 384.934C461.256 385.896 463.647 387.192 464.047 389.488C464.597 392.641 461.092 394.866 458.095 395.986C436.693 403.889 413.176 403.892 391.772 395.994" fill="#3F3D56"/>
<path d="M409.163 453.776C495.108 453.776 564.78 443.817 564.78 431.532C564.78 419.247 495.108 409.288 409.163 409.288C323.217 409.288 253.545 419.247 253.545 431.532C253.545 443.817 323.217 453.776 409.163 453.776Z" fill="#3F3D56"/>
<path d="M724.844 569.445H618.135C613.223 569.445 609.242 573.428 609.242 578.342C609.242 583.256 613.223 587.24 618.135 587.24H724.844C729.755 587.24 733.736 583.256 733.736 578.342C733.736 573.428 729.755 569.445 724.844 569.445Z" fill="#3F3D56"/>
<path d="M776.558 410.811L741.315 578.332L750.494 621.209L767.824 702.127V738.499C767.826 738.548 767.822 738.598 767.814 738.647C767.808 739.451 767.661 740.247 767.379 741H753.448C753.166 740.247 753.019 739.451 753.013 738.647C753.005 738.598 753.002 738.548 753.003 738.499V703.69L737.274 630.245L734.092 615.416L727.936 586.676L726.158 578.352V578.342L727.917 569.998L729.27 563.563L762.054 407.766C762.253 406.812 762.638 405.907 763.187 405.102C763.736 404.298 764.438 403.609 765.253 403.076C766.068 402.543 766.98 402.175 767.936 401.995C768.893 401.815 769.876 401.825 770.829 402.025C771.782 402.225 772.686 402.611 773.49 403.161C774.294 403.711 774.982 404.414 775.514 405.23C776.046 406.046 776.412 406.959 776.591 407.916C776.77 408.874 776.759 409.858 776.558 410.811L776.558 410.811Z" fill="#3F3D56"/>
<path d="M625.546 578.342V738.499C625.547 738.548 625.544 738.598 625.536 738.647C625.53 739.451 625.383 740.247 625.101 741H611.17C610.888 740.247 610.741 739.451 610.735 738.647C610.727 738.598 610.723 738.548 610.725 738.499V578.342C610.725 576.376 611.506 574.49 612.895 573.099C614.285 571.709 616.17 570.928 618.135 570.928C620.101 570.928 621.986 571.709 623.375 573.099C624.765 574.49 625.546 576.376 625.546 578.342Z" fill="#3F3D56"/>
<path d="M635.919 551.65H707.059C714.134 551.65 720.92 554.462 725.923 559.468C730.926 564.474 733.736 571.263 733.736 578.342V578.342H609.242C609.242 571.263 612.053 564.474 617.056 559.468C622.059 554.462 628.844 551.65 635.919 551.65V551.65Z" fill="#3F3D56"/>
<path d="M742.629 630.245H618.135C616.17 630.245 614.285 629.464 612.895 628.073C611.505 626.683 610.725 624.797 610.725 622.83C610.725 620.864 611.505 618.978 612.895 617.587C614.285 616.197 616.17 615.416 618.135 615.416H742.629C744.595 615.416 746.479 616.197 747.869 617.587C749.259 618.978 750.04 620.864 750.04 622.83C750.04 624.797 749.259 626.683 747.869 628.073C746.479 629.464 744.595 630.245 742.629 630.245Z" fill="#3F3D56"/>
<path d="M163.542 587.51H289.114C294.026 587.51 298.007 583.526 298.007 578.612V575.916C298.007 571.002 294.026 567.018 289.114 567.018H163.542C158.631 567.018 154.65 571.002 154.65 575.916V578.612C154.65 583.526 158.631 587.51 163.542 587.51Z" fill="#3F3D56"/>
<path d="M162.249 577.384L159.976 586.756L151.637 621.081L148.041 635.91L131.342 704.698V734.544C131.347 736.006 130.913 737.435 130.098 738.647C129.456 739.627 128.585 740.435 127.559 741H120.306C119.28 740.435 118.408 739.627 117.767 738.647C116.951 737.435 116.517 736.006 116.522 734.544V702.918L135.077 626.498L147.053 577.146L106.444 384.118C106.243 383.166 106.232 382.183 106.41 381.225C106.589 380.268 106.955 379.356 107.487 378.54C108.018 377.725 108.705 377.022 109.509 376.472C110.312 375.923 111.216 375.537 112.168 375.337C113.12 375.136 114.103 375.126 115.059 375.306C116.015 375.486 116.927 375.853 117.742 376.386C118.556 376.919 119.258 377.607 119.806 378.411C120.355 379.216 120.739 380.12 120.938 381.073L158.475 559.45L160.204 567.675L162.219 577.265L162.249 577.384Z" fill="#3F3D56"/>
<path d="M295.181 577.265V734.544C295.186 736.006 294.752 737.435 293.936 738.647C293.295 739.627 292.423 740.435 291.397 741H284.135C283.113 740.432 282.245 739.625 281.605 738.647C280.79 737.435 280.356 736.006 280.36 734.544V577.265C280.36 575.298 281.141 573.412 282.531 572.022C283.921 570.631 285.805 569.85 287.771 569.85C289.736 569.85 291.621 570.631 293.011 572.022C294.4 573.412 295.181 575.298 295.181 577.265Z" fill="#3F3D56"/>
<path d="M298.007 577.264H154.65V573.22C154.65 569.714 155.34 566.243 156.68 563.005C158.021 559.766 159.986 556.824 162.463 554.345C164.941 551.866 167.881 549.9 171.118 548.559C174.355 547.217 177.824 546.527 181.327 546.527H271.33C278.405 546.527 285.19 549.339 290.193 554.345C295.196 559.351 298.007 566.14 298.007 573.22V577.264H298.007Z" fill="#3F3D56"/>
<path d="M287.767 635.907H144.41C142.445 635.907 140.56 635.126 139.17 633.735C137.781 632.345 137 630.459 137 628.492C137 626.526 137.781 624.64 139.17 623.249C140.56 621.859 142.445 621.077 144.41 621.077H287.767C289.733 621.077 291.618 621.859 293.007 623.249C294.397 624.64 295.178 626.526 295.178 628.492C295.178 630.459 294.397 632.345 293.007 633.735C291.618 635.126 289.733 635.907 287.767 635.907Z" fill="#3F3D56"/>
<path d="M472.004 700.586L456.43 693.133L477.824 627.994L500.812 638.993L472.004 700.586Z" fill="#9E616A"/>
<path d="M577.556 694.686L560.808 698.82L536.543 634.712L561.262 628.609L577.556 694.686Z" fill="#9E616A"/>
<path d="M513.365 417.461C515.587 421.071 519.131 423.669 523.24 424.701C527.35 425.733 531.699 425.116 535.361 422.983C536.097 422.537 536.795 422.031 537.448 421.469L586.689 449.744L584.55 420.719L538.118 398.319C535.592 395.78 532.295 394.151 528.743 393.689C525.192 393.226 521.588 393.955 518.496 395.762C516.716 396.832 515.167 398.247 513.942 399.925C512.716 401.602 511.839 403.508 511.361 405.53C510.882 407.552 510.814 409.649 511.158 411.698C511.502 413.748 512.253 415.707 513.365 417.461V417.461Z" fill="#9E616A"/>
<path d="M565.52 439.097L574.224 444.404L613.315 468.256C615.883 469.863 618.742 470.949 621.729 471.45C624.716 471.951 627.773 471.858 630.724 471.177C633.675 470.495 636.463 469.238 638.929 467.478C641.394 465.717 643.489 463.488 645.093 460.917C647.987 456.146 649.011 450.47 647.967 444.987L630.593 358.135C629.951 354.725 628.581 351.494 626.576 348.663C624.572 345.833 621.98 343.468 618.978 341.732C615.976 339.995 612.635 338.928 609.183 338.602C605.73 338.277 602.249 338.701 598.975 339.846C593.474 341.781 588.915 345.74 586.227 350.918C583.539 356.097 582.924 362.105 584.506 367.721L602.674 429.359L574.826 416.368L565.52 439.097Z" fill="#E6E6E6"/>
<path d="M544.939 676.72L518.14 622.94L518.143 622.817L520.789 524.176C520.822 523.299 520.893 522.418 521 521.551C521.467 517.596 522.717 513.773 524.676 510.306C526.635 506.839 529.264 503.797 532.41 501.357C535.423 498.999 538.876 497.264 542.566 496.254C546.256 495.244 550.11 494.98 553.904 495.476L630.537 505.399L633.195 494.525L633.69 494.345L707.116 467.42L707.539 468.109C717.155 483.765 723.878 515.038 725.709 524.25L725.736 524.383C725.774 524.577 725.797 524.695 725.805 524.729C729.585 540.449 713.967 566.49 698.408 570.403C665.634 578.762 636.323 572.242 602.383 564.691C590.213 561.983 577.636 559.184 563.781 556.764L564.193 564.923C564.531 571.202 565.834 577.392 568.059 583.274C570.529 590.513 572.48 596.231 568.354 608.152L566.358 613.92C567.393 616.783 567.75 619.847 567.399 622.872C567.049 625.896 566.001 628.798 564.338 631.348L563.937 631.961L581.61 676.71L544.939 676.72Z" fill="#2F2E41"/>
<path d="M500.907 652.937L468.948 649.965L480.27 613.735C482.607 590.078 488.494 566.909 497.733 545.009L513.177 508.388C513.213 507.573 513.281 506.753 513.381 505.95C513.848 501.995 515.097 498.172 517.056 494.705C519.015 491.238 521.645 488.196 524.791 485.757C527.804 483.399 531.257 481.665 534.947 480.655C538.637 479.645 542.491 479.38 546.284 479.876L622.804 489.784L626.137 461.795L699.583 451.961L699.919 452.509C712.757 473.408 720.907 489.77 725.568 503.999C725.802 504.725 726.01 505.466 726.187 506.203C729.993 522.029 720.493 538.074 705.01 541.97C665.552 552.036 618.104 551.756 555.719 541.086L525.527 612.978C522.642 619.845 519.069 626.402 514.863 632.549L500.907 652.937Z" fill="#2F2E41"/>
<path d="M612.383 290.001C632.828 290.001 649.403 273.047 649.403 252.134C649.403 231.221 632.828 214.268 612.383 214.268C591.938 214.268 575.363 231.221 575.363 252.134C575.363 273.047 591.938 290.001 612.383 290.001Z" fill="#9E616A"/>
<path d="M623.072 491.106L617.76 472.066L616.454 462.674L608.819 462.929L593.836 428.324L588.016 419.199C586.829 417.949 585.754 416.746 584.79 415.592C578.727 408.734 573.864 400.9 570.409 392.421C567.988 386.329 566.567 379.886 566.199 373.34C565.113 354.005 573.259 333.549 591.104 310.805C590.811 310 590.616 309.163 590.522 308.312C590.203 305.549 590.988 302.772 592.704 300.584C594.421 298.397 596.932 296.977 599.69 296.632L616.901 294.698C618.239 294.547 619.594 294.663 620.888 295.04C622.181 295.417 623.386 296.048 624.433 296.896C625.526 297.773 626.434 298.858 627.104 300.09C627.774 301.321 628.192 302.674 628.334 304.068C628.564 306.226 628.14 308.403 627.117 310.316C635.89 311.43 644.155 315.053 650.921 320.75C657.688 326.447 662.668 333.977 665.265 342.435C675.564 361.672 683.772 381.957 689.75 402.945C690.928 407.055 690.403 411.291 689.896 415.387C689.427 419.17 688.943 423.083 689.758 426.982C690.587 430.948 692.581 434.927 694.692 439.139C697.11 443.964 699.611 448.952 700.287 454.037L700.334 454.394L623.072 491.106Z" fill="#E4E4E4"/>
<path opacity="0.2" d="M570.866 392.234C574.306 400.664 579.141 408.453 585.169 415.274C586.201 416.508 587.292 417.719 588.433 418.933L594.289 428.127C615.876 411.937 633.366 348.19 633.366 348.19L609.01 343.449L570.866 392.234Z" fill="black"/>
<path d="M556.121 293.538C558.253 297.204 558.873 301.558 557.846 305.673C556.82 309.789 554.229 313.341 550.625 315.574C549.885 316.017 549.11 316.397 548.308 316.712L550.032 373.493L525.457 358.014L527.587 306.467C526.542 303.036 526.66 299.356 527.925 296.001C529.189 292.645 531.529 289.803 534.577 287.917C536.353 286.842 538.326 286.134 540.38 285.835C542.434 285.536 544.527 285.652 546.535 286.176C548.543 286.7 550.426 287.622 552.073 288.886C553.719 290.151 555.095 291.733 556.121 293.538V293.538Z" fill="#9E616A"/>
<path d="M552.192 352.06L525.167 355.905L526.329 411.902C526.396 415.896 527.483 419.808 529.487 423.263C531.491 426.719 534.344 429.605 537.777 431.647V431.647C541.97 434.115 546.851 435.153 551.685 434.604C556.519 434.055 561.044 431.948 564.577 428.602L628.381 367.197C632.87 362.936 635.556 357.116 635.888 350.933C636.22 344.751 634.171 338.676 630.163 333.959V333.959C628.18 331.61 625.746 329.684 623.004 328.295C620.263 326.905 617.27 326.081 614.205 325.871C611.139 325.661 608.062 326.069 605.157 327.072C602.252 328.074 599.578 329.651 597.293 331.707C596.663 332.271 596.063 332.869 595.497 333.497L553.367 381.991L552.192 352.06Z" fill="#E6E6E6"/>
<path d="M326.159 717.311L345.341 717.31L354.467 643.278L326.156 643.279L326.159 717.311Z" fill="#FFB6B6"/>
<path d="M217.431 291.1C238.575 291.1 255.716 273.949 255.716 252.793C255.716 231.636 238.575 214.485 217.431 214.485C196.286 214.485 179.146 231.636 179.146 252.793C179.146 273.949 196.286 291.1 217.431 291.1Z" fill="#FFB6B6"/>
<path d="M351.601 694.505H324.438L317.513 685.217L315.638 676.466L314.025 674.904C311.836 672.802 310.421 670.022 310.009 667.015C309.597 664.007 310.212 660.949 311.754 658.335L292.068 566.431C286.912 565.977 228.764 560.776 188.344 553.618C177.999 551.786 169.923 546.755 164.339 538.664C150.617 518.782 156.495 486.612 156.556 486.29L156.624 485.931L156.986 485.89L251.399 475.287L251.526 475.347C254.659 476.832 328.398 511.859 340.448 523.916C345.889 529.36 358.029 561.708 360.747 596.098C361.234 602.259 359.482 608.533 357.787 614.601C356.202 620.279 354.563 626.149 354.886 631.699C355.386 640.262 355.86 649.245 356.294 658.397C356.364 659.855 357.462 661.365 358.524 662.824C359.633 664.349 360.681 665.789 360.748 667.296C361.393 681.912 351.846 694.195 351.75 694.317L351.601 694.505Z" fill="#2F2E41"/>
<path d="M357.787 354.824C355.731 354.262 353.576 354.157 351.474 354.518C349.373 354.879 347.376 355.696 345.624 356.913C343.873 358.129 342.409 359.715 341.337 361.559C340.264 363.403 339.608 365.46 339.416 367.584L307.605 377.532L308.933 398.349L353.658 383.669C357.247 383.756 360.743 382.523 363.483 380.203C366.224 377.883 368.018 374.637 368.527 371.082C369.036 367.526 368.224 363.908 366.245 360.911C364.265 357.915 361.256 355.749 357.787 354.824V354.824Z" fill="#FFB6B6"/>
<path d="M337.031 389.272L313.256 398.276L312.649 399.456C311.191 402.285 308.67 404.419 305.64 405.388C302.61 406.358 299.319 406.083 296.491 404.625V404.625L243.053 424.862C243.053 424.862 219.189 400.966 202.198 379.641L207.989 344.004C209.33 335.735 212.181 327.784 216.398 320.548C251.243 328.193 271.245 376.931 271.245 376.931L334.044 364.942L337.031 389.272Z" fill="#3F3D56"/>
<path d="M211.991 289.052C202.406 291.643 191.839 288.199 184.359 281.667C176.88 275.135 172.201 265.879 169.505 256.318C167.53 249.316 166.594 241.544 169.71 234.971C172.826 228.397 181.211 223.962 187.681 227.283C183.69 222.63 185.684 214.935 190.345 210.954C195.006 206.974 201.407 205.833 207.503 205.209C216.35 204.304 225.489 204.203 233.908 207.071C242.326 209.938 249.976 216.208 252.611 224.707C255.302 225.961 258.332 226.286 261.228 225.632C264.123 224.978 266.72 223.382 268.612 221.093C269.099 223.721 268.708 226.438 267.497 228.821C266.287 231.205 264.325 233.123 261.915 234.279L274.814 230.094C277.032 234.793 273.145 240.608 268.175 242.112C263.204 243.617 257.838 241.972 253.121 239.798C248.404 237.625 243.833 234.877 238.709 234.029C233.585 233.181 227.567 234.828 225.197 239.452C223.956 241.874 223.891 244.71 223.17 247.334C222.449 249.959 220.624 252.68 217.912 252.894C216.199 253.03 214.522 252.117 212.813 252.304C210.695 252.535 209.074 254.455 208.51 256.51C208.085 258.605 208.08 260.764 208.495 262.861L211.772 287.92" fill="#2F2E41"/>
<path d="M164.559 543.242C164.551 543.242 164.544 543.241 164.537 543.239L164.234 543.188L164.147 542.893C163.046 539.189 161.645 535.397 160.291 531.73C158.296 526.651 156.611 521.456 155.247 516.172C154.173 511.121 153.428 506.006 153.017 500.858C152.64 497.121 152.249 493.256 151.584 489.452C151.289 487.763 152.407 486.163 153.489 484.616C154.491 483.182 155.438 481.827 155.24 480.545C155.036 479.234 153.584 477.795 152.179 476.403C150.639 474.877 149.047 473.299 148.821 471.638C145.752 448.979 144.324 426.127 144.547 403.262C144.864 371.625 146.293 350.062 148.794 339.168C155.518 309.879 186.586 304.533 191.449 303.874C191.966 302.493 192.763 301.234 193.788 300.175C194.813 299.116 196.045 298.28 197.407 297.717C198.77 297.155 200.233 296.88 201.706 296.908C203.18 296.936 204.631 297.267 205.971 297.881L228.045 307.992C232.523 310.05 236.529 313.007 239.816 316.68C243.103 320.353 245.6 324.664 247.152 329.343L250.431 339.346L252.073 406.492L242.971 453.776L260.756 480.469C165.969 532.54 164.864 543.242 164.559 543.242Z" fill="#3F3D56"/>
<path d="M315.837 709.851L322.074 709.851L346.423 699.943L359.473 709.849H359.475C366.85 709.849 373.923 712.781 379.138 717.999C384.353 723.217 387.283 730.294 387.284 737.673V738.577L315.838 738.58L315.837 709.851Z" fill="#2F2E41"/>
<path d="M365.751 402.74C363.913 401.66 361.86 400.997 359.737 400.797C357.614 400.596 355.473 400.864 353.465 401.582C351.457 402.299 349.631 403.448 348.115 404.948C346.598 406.448 345.429 408.262 344.689 410.263L311.387 411.562L306.899 427.084L354.244 429.509C357.686 430.529 361.382 430.251 364.633 428.727C367.883 427.203 370.462 424.538 371.881 421.239C373.299 417.939 373.458 414.234 372.329 410.824C371.199 407.415 368.859 404.539 365.751 402.74V402.74Z" fill="#FFB6B6"/>
<path d="M338.396 431.182L304.187 430.756L299.857 430.697L230.258 429.82C230.258 429.82 211.358 411.778 194.9 393.203L197.207 376.509C199.457 360.126 207.58 345.118 220.063 334.279C243.634 350.039 257.303 381.232 257.303 381.232L280.223 391.493C296.352 392.215 312.069 396.821 326.04 404.919L333.577 409.288L338.396 431.182Z" fill="#3F3D56"/>
<path d="M589.777 726.264L578.394 729.074L573.711 718.824L571.159 730.861L540.971 738.315C539.524 738.673 538 738.558 536.623 737.988C535.246 737.418 534.087 736.422 533.315 735.146C532.544 733.87 532.2 732.381 532.334 730.895C532.468 729.41 533.074 728.007 534.062 726.89L554.06 704.278L551.379 693.407L577.11 688.66L589.777 726.264Z" fill="#2F2E41"/>
<path d="M469.194 729.778L458.339 725.345L460.585 714.3L451.44 722.527L422.651 710.77C421.271 710.206 420.108 709.216 419.33 707.944C418.552 706.672 418.201 705.184 418.328 703.698C418.455 702.212 419.054 700.806 420.036 699.684C421.019 698.563 422.334 697.785 423.789 697.464L453.26 690.967L457.489 680.601L481.081 691.921L469.194 729.778Z" fill="#2F2E41"/>
<path d="M431.394 427.578H422.501C412.94 427.567 403.773 423.762 397.012 416.997C390.251 410.232 386.448 401.06 386.438 391.493V390.999H467.458V391.493C467.447 401.06 463.644 410.232 456.883 416.997C450.122 423.762 440.955 427.567 431.394 427.578V427.578Z" fill="#E4E4E4"/>
<path d="M422.502 378.147C422.502 380.604 418.056 382.596 418.056 382.596C418.056 382.596 413.609 380.604 413.609 378.147C413.609 375.69 418.056 373.698 418.056 373.698C418.056 373.698 422.502 375.69 422.502 378.147Z" fill="#3F3D56"/>
<path d="M449.179 378.147C449.179 380.604 444.732 382.596 444.732 382.596C444.732 382.596 440.286 380.604 440.286 378.147C440.286 375.69 444.732 373.698 444.732 373.698C444.732 373.698 449.179 375.69 449.179 378.147Z" fill="#3F3D56"/>
<path d="M431.393 387.045C431.393 389.502 426.947 391.493 426.947 391.493C426.947 391.493 422.501 389.502 422.501 387.045C422.501 384.588 426.947 382.596 426.947 382.596C426.947 382.596 431.393 384.587 431.393 387.045Z" fill="#3F3D56"/>
<path d="M400.27 368.755C402.726 368.755 404.717 366.763 404.717 364.306C404.717 361.849 402.726 359.857 400.27 359.857C397.815 359.857 395.824 361.849 395.824 364.306C395.824 366.763 397.815 368.755 400.27 368.755Z" fill="#3F3D56"/>
<path d="M335.607 354.746L405.731 364.436C406.365 364.524 406.976 364.739 407.524 365.069C408.073 365.399 408.55 365.837 408.925 366.357C409.3 366.876 409.565 367.466 409.706 368.091C409.847 368.716 409.859 369.364 409.743 369.994C409.627 370.624 409.384 371.224 409.03 371.757C408.675 372.291 408.216 372.747 407.681 373.099C407.145 373.45 406.544 373.689 405.913 373.801C405.283 373.913 404.636 373.896 404.012 373.752L335.053 357.748C334.67 357.66 334.336 357.426 334.12 357.097C333.905 356.768 333.824 356.369 333.895 355.982C333.967 355.595 334.185 355.251 334.503 355.021C334.822 354.79 335.217 354.692 335.607 354.746V354.746Z" fill="#E4E4E4"/>
<path d="M420.82 133.674V0H411.928V133.674C399.778 134.783 388.481 140.396 380.255 149.412C372.029 158.427 367.467 170.193 367.466 182.4V195.747H398.589C398.589 200.466 400.463 204.993 403.798 208.33C407.134 211.667 411.657 213.542 416.374 213.542C421.091 213.542 425.615 211.667 428.95 208.33C432.285 204.993 434.159 200.466 434.159 195.747H465.283V182.4C465.281 170.193 460.72 158.427 452.493 149.412C444.267 140.396 432.97 134.783 420.82 133.674V133.674Z" fill="#F0F0F0"/>
<path d="M535.31 100.256V0H528.641V100.256C519.528 101.087 511.056 105.297 504.886 112.059C498.716 118.82 495.295 127.645 495.294 136.8V146.81H518.637C518.637 150.35 520.042 153.744 522.543 156.247C525.045 158.75 528.438 160.156 531.975 160.156C535.513 160.156 538.906 158.75 541.407 156.247C543.909 153.744 545.314 150.35 545.314 146.81H568.657V136.8C568.655 127.645 565.234 118.82 559.065 112.059C552.895 105.297 544.422 101.087 535.31 100.256V100.256Z" fill="#F0F0F0"/>
<path d="M310.036 100.256V0H303.366V100.256C294.254 101.087 285.781 105.297 279.611 112.059C273.442 118.82 270.021 127.645 270.02 136.8V146.81H293.362C293.362 150.35 294.768 153.744 297.269 156.247C299.77 158.75 303.163 160.156 306.701 160.156C310.238 160.156 313.631 158.75 316.133 156.247C318.634 153.744 320.04 150.35 320.04 146.81H343.382V136.8C343.381 127.645 339.96 118.82 333.79 112.059C327.621 105.297 319.148 101.087 310.036 100.256V100.256Z" fill="#F0F0F0"/>
<path d="M711.444 235.712C705.151 228.369 702.159 218.628 697.129 210.29C692.099 201.953 683.345 194.49 674.097 196.431C667.722 197.768 662.795 203.397 660.301 209.672C657.807 215.948 657.339 222.868 656.902 229.648C657.057 215.715 647.883 202.209 635.246 197.763C622.609 193.317 607.486 198.276 599.546 209.469C596.08 206.256 591.557 204.426 586.834 204.327C582.11 204.227 577.514 205.866 573.917 208.931C566.815 215.283 565.243 227.372 570.466 235.474C575.69 243.575 587.002 246.594 595.303 242.1L598.238 244.801C596.586 250.582 599.789 257.411 605.174 259.587C609.541 261.352 615.706 261.058 617.34 265.643C618.482 268.847 616.347 272.267 614.077 274.729C611.807 277.191 609.112 279.733 608.839 283.14C608.427 288.28 613.736 291.881 618.562 292.965C630.198 295.58 643.11 290.188 649.817 279.913C649.946 279.715 650.087 279.516 650.239 279.318C654.002 274.503 656.744 268.971 658.298 263.06C659.852 257.149 660.185 250.983 659.277 244.938C658.9 242.563 659.28 240.797 660.917 240.235C667.99 237.803 687.807 242.906 693.804 247.517C699.802 252.128 704.605 258.231 710.381 263.14C716.159 268.049 723.52 271.835 730.855 270.498C736.73 269.428 741.728 265.16 745.09 260.013C748.451 254.866 750.385 248.866 752.118 242.903C739.127 250.412 721.348 247.268 711.444 235.712Z" fill="#2F2E41"/>
</svg>
