<svg width="893" height="749" viewBox="0 0 893 749" fill="none" xmlns="http://www.w3.org/2000/svg">
<path d="M855.704 591.427L847.163 595.067L829.061 563.844L841.666 558.47L855.704 591.427Z" fill="#FFB6B6"/>
<path d="M785.128 599.512L775.845 599.511L771.429 563.687H785.13L785.128 599.512Z" fill="#FFB6B6"/>
<path d="M785.455 609.201L756.907 609.2V608.838C756.907 605.89 758.078 603.063 760.162 600.978C762.246 598.893 765.072 597.722 768.019 597.722H768.02L773.234 593.764L782.963 597.722L785.456 597.723L785.455 609.201Z" fill="#2F2E41"/>
<path d="M860.897 597.629L834.634 608.825L834.493 608.493C833.338 605.781 833.307 602.721 834.407 599.985C835.507 597.25 837.647 595.064 840.358 593.908L840.359 593.908L843.605 588.222L854.107 588.047L856.399 587.069L860.897 597.629Z" fill="#2F2E41"/>
<path d="M776.022 387.491L761.913 473.441L765.752 486.249L760.714 495.32L768.113 574.984L765.11 581.599L773.501 586.777H790.577L791.483 514.657L795.701 504.068V498.232L804.288 454.255L805.869 504.559L808.367 515.165L806.269 522.716L809.01 528.006L832.504 578.476H851.651L850.17 567.062C853.601 565.325 845.02 560.246 844.195 556.489L847.015 550.142L844.195 538.154L841.61 514.729L844.336 465.283L843.053 398.698C836.625 390.075 829.493 383.424 820.654 381.562L776.022 387.491Z" fill="#2F2E41"/>
<path d="M810.38 274.301C821.067 274.301 829.73 265.633 829.73 254.942C829.73 244.25 821.067 235.583 810.38 235.583C799.694 235.583 791.03 244.25 791.03 254.942C791.03 265.633 799.694 274.301 810.38 274.301Z" fill="#FFB6B6"/>
<path d="M730.601 407.798C730.36 406.711 730.36 405.584 730.601 404.497C730.842 403.41 731.319 402.389 731.997 401.506C732.676 400.623 733.539 399.899 734.528 399.386C735.516 398.873 736.604 398.583 737.716 398.537L745.511 372.612L754.523 383.412L745.739 406.375C745.693 408.249 744.962 410.042 743.683 411.413C742.405 412.784 740.668 413.638 738.802 413.813C736.936 413.989 735.071 413.473 733.559 412.365C732.047 411.256 730.995 409.632 730.601 407.798Z" fill="#FFB6B6"/>
<path d="M781.165 301.239L777.671 294.854L773.17 296.358C773.17 296.358 768.2 299.566 761.242 311.677C758.024 317.278 751.067 353.198 751.067 353.198L734.806 396.276L751.384 399.08L765.216 363.579L781.252 329.605L781.165 301.239Z" fill="#3F3D56"/>
<path d="M809.663 387.22C823.287 387.22 837.034 389.904 842.663 399.497C842.516 397.411 842.147 393.794 841.764 390.475L840.356 381.558L841.782 373.382L843.669 371.495L840.291 368.115L842.595 351.048L850.203 310.843C850.799 307.68 850.334 304.409 848.88 301.538C847.426 298.667 845.064 296.357 842.161 294.967L834.852 291.451L823.004 280.456L801.57 280.295L794.578 289.39L776.171 295.645L779.261 359.592L777.235 364.32C777.69 364.737 778.647 365.629 779.166 366.203C779.9 367.015 778.965 371.195 778.343 373.615L777.487 380.061L780.18 381.986L776.679 386.124L775.979 391.375C779.456 390.553 794.484 387.22 809.663 387.22Z" fill="#3F3D56"/>
<path d="M815.331 273.353C815.414 273.171 815.496 272.988 815.579 272.804C815.547 272.805 815.516 272.81 815.484 272.811L815.331 273.353Z" fill="#2F2E41"/>
<path d="M830.269 236.463C829.35 235.596 828.156 235.079 826.895 235.004C825.644 235.044 824.375 236.175 824.635 237.4C822.336 233.329 818.678 230.198 814.302 228.556C809.926 226.914 805.112 226.867 800.705 228.423C797.595 229.521 794.545 231.717 793.831 234.938C793.761 235.783 793.509 236.604 793.092 237.342C792.73 237.737 792.261 238.018 791.742 238.149C791.223 238.281 790.677 238.258 790.171 238.083L790.141 238.073C789.967 238.014 789.781 238.009 789.604 238.057C789.428 238.105 789.27 238.205 789.151 238.344C789.032 238.483 788.957 238.655 788.937 238.837C788.916 239.019 788.951 239.203 789.036 239.365L789.916 241.007C788.807 241.254 787.654 241.229 786.556 240.935C786.374 240.887 786.181 240.897 786.005 240.963C785.828 241.029 785.676 241.148 785.57 241.304C785.464 241.46 785.408 241.645 785.411 241.833C785.414 242.022 785.475 242.205 785.586 242.357C787.049 244.359 788.958 245.991 791.162 247.125C793.366 248.258 795.804 248.861 798.282 248.886C801.798 248.865 805.35 247.652 808.772 248.461C810.095 248.774 811.332 249.38 812.391 250.233C813.451 251.087 814.306 252.167 814.893 253.394C815.481 254.621 815.787 255.964 815.788 257.325C815.789 258.686 815.486 260.03 814.9 261.258C815.951 260.108 817.983 260.38 819.058 261.508C819.553 262.111 819.919 262.81 820.134 263.561C820.348 264.312 820.406 265.099 820.304 265.874C820.017 268.245 819.313 270.547 818.225 272.673C822.382 272.545 826.401 271.144 829.737 268.658C833.073 266.172 835.566 262.722 836.879 258.774C838.192 254.825 838.263 250.568 837.081 246.579C835.899 242.589 833.521 239.058 830.269 236.463H830.269Z" fill="#2F2E41"/>
<path d="M219.207 273.715C234.392 266.554 246.321 253.93 252.615 238.36C253.237 236.817 255.598 237.865 254.977 239.406C248.396 255.596 235.956 268.708 220.138 276.125C218.63 276.831 217.707 274.418 219.207 273.715L219.207 273.715Z" fill="white"/>
<path d="M624.823 215.205C640.008 208.043 651.937 195.419 658.231 179.85C658.854 178.307 661.214 179.354 660.593 180.895C654.012 197.085 641.572 210.197 625.754 217.615C624.246 218.321 623.323 215.907 624.823 215.205L624.823 215.205Z" fill="white"/>
<path d="M167.641 596.883L176.552 603.787L211.198 609.801L249.707 514.032C249.707 514.032 273.289 440.225 339.32 455.324L551.561 451.549C551.561 451.549 616.727 444.867 627.496 475.614C629.536 481.438 684.565 610.095 684.565 610.095L723.148 604.647L718.524 494.961L626.887 282.151L467.608 272.201L303.475 283.567L167.641 596.883Z" fill="#3F3D56"/>
<path d="M344.037 461.93C377.9 461.93 405.351 434.466 405.351 400.588C405.351 366.71 377.9 339.246 344.037 339.246C310.174 339.246 282.723 366.71 282.723 400.588C282.723 434.466 310.174 461.93 344.037 461.93Z" fill="#2F2E41"/>
<path d="M549.674 461.93C583.537 461.93 610.988 434.466 610.988 400.588C610.988 366.71 583.537 339.246 549.674 339.246C515.812 339.246 488.36 366.71 488.36 400.588C488.36 434.466 515.812 461.93 549.674 461.93Z" fill="#2F2E41"/>
<path d="M272.346 199.575L297.591 194.623C297.591 194.623 487.669 167.489 607.813 199.575L598.725 225.056L280.835 223.168L272.346 199.575Z" fill="#E6E6E6"/>
<path d="M528.629 331.225H367.317C347.731 331.225 330.803 317.656 327.067 298.962L309.414 210.626C309.023 208.698 309.039 206.71 309.459 204.789C309.88 202.867 310.697 201.055 311.857 199.467C313.071 197.801 314.614 196.403 316.391 195.358C318.167 194.314 320.139 193.646 322.185 193.397C407.263 182.831 491.508 182.813 572.582 193.342C574.599 193.589 576.543 194.249 578.294 195.28C580.045 196.311 581.566 197.692 582.76 199.336C583.913 200.901 584.732 202.686 585.165 204.582C585.599 206.477 585.638 208.441 585.28 210.351L568.984 298.417C565.466 317.427 548.495 331.225 528.629 331.225Z" fill="#3F3D56"/>
<path d="M200.59 213.957L201.292 201.316C201.402 199.346 201.987 197.433 202.997 195.739C204.007 194.045 205.412 192.621 207.092 191.59C217.278 185.338 244.752 171.575 279.813 178.79C282.275 179.3 284.521 180.556 286.244 182.387C287.968 184.218 289.086 186.536 289.446 189.026L290.385 195.603L200.59 213.957Z" fill="#3F3D56"/>
<path d="M695.008 213.957L605.213 195.603L606.721 185.036C606.895 183.788 607.438 182.621 608.281 181.684C609.123 180.748 610.226 180.085 611.448 179.78C651.882 169.628 682.832 187.657 691.356 193.424C692.164 193.973 692.836 194.701 693.319 195.552C693.802 196.402 694.083 197.352 694.14 198.329L695.008 213.957Z" fill="#3F3D56"/>
<path d="M172.078 605.126C169.914 605.15 167.789 604.551 165.955 603.403C141.911 589.357 126.922 563.616 121.437 526.918C116.906 496.605 118.798 458.556 127.06 413.829C141.708 334.531 172.409 255.268 184.929 224.871C186.588 220.859 189.165 217.292 192.454 214.459C195.742 211.626 199.65 209.605 203.862 208.559C229.672 202.208 274.729 191.554 286.495 191.554C302.621 191.554 311.346 206.74 311.432 206.894L311.481 207.019L325.642 268.456V269.343C333.455 295.788 327.65 314.891 321.4 326.261C314.617 338.602 305.84 344.764 305.752 344.825C291.97 355.322 269.516 389.138 247.169 433.066C223.946 478.715 206.731 523.759 201.119 553.559C194.25 590.033 184.181 601.199 176.944 604.143C175.401 604.785 173.749 605.119 172.078 605.126V605.126Z" fill="#E6E6E6"/>
<path d="M523.311 323.675H370.893C361.898 323.662 353.185 320.526 346.244 314.801C339.303 309.075 334.564 301.117 332.837 292.284L316.156 206.372C315.786 204.47 315.809 202.512 316.224 200.62C316.64 198.728 317.438 196.94 318.571 195.369C319.704 193.798 321.147 192.475 322.81 191.483C324.474 190.492 326.323 189.852 328.244 189.603C408.635 179.328 488.239 179.31 564.846 189.55C566.739 189.807 568.561 190.446 570.201 191.428C571.842 192.409 573.266 193.712 574.389 195.259C575.512 196.806 576.31 198.565 576.736 200.429C577.161 202.293 577.205 204.224 576.864 206.105L561.467 291.755C559.863 300.71 555.162 308.815 548.186 314.651C541.21 320.486 532.404 323.681 523.311 323.675V323.675Z" fill="#E6E6E6"/>
<path d="M723.522 605.127C721.85 605.119 720.197 604.785 718.653 604.143C711.416 601.199 701.347 590.033 694.478 553.559C688.866 523.759 671.651 478.715 648.428 433.066C626.081 389.138 603.627 355.322 589.828 344.812C589.757 344.764 580.98 338.602 574.197 326.261C567.947 314.891 562.142 295.788 569.955 269.343L569.967 268.35L584.132 206.953L584.165 206.894C584.251 206.74 592.976 191.554 609.102 191.554C620.868 191.554 665.925 202.208 691.735 208.559C695.947 209.605 699.855 211.626 703.143 214.46C706.431 217.293 709.009 220.859 710.668 224.871V224.871C723.188 255.268 753.889 334.531 768.537 413.829C776.799 458.556 778.691 496.605 774.16 526.918C768.675 563.616 753.686 589.357 729.609 603.424C727.784 604.561 725.672 605.152 723.522 605.127V605.127Z" fill="#E6E6E6"/>
<path d="M344.036 427.012C364.354 427.012 380.825 410.534 380.825 390.207C380.825 369.88 364.354 353.402 344.036 353.402C323.719 353.402 307.248 369.88 307.248 390.207C307.248 410.534 323.719 427.012 344.036 427.012Z" fill="#3F3D56"/>
<path d="M344.036 414.744C357.581 414.744 368.562 403.759 368.562 390.207C368.562 376.656 357.581 365.67 344.036 365.67C330.491 365.67 319.511 376.656 319.511 390.207C319.511 403.759 330.491 414.744 344.036 414.744Z" fill="#2F2E41"/>
<path d="M549.674 427.012C569.992 427.012 586.463 410.534 586.463 390.207C586.463 369.88 569.992 353.402 549.674 353.402C529.356 353.402 512.886 369.88 512.886 390.207C512.886 410.534 529.356 427.012 549.674 427.012Z" fill="#3F3D56"/>
<path d="M549.674 414.744C563.219 414.744 574.2 403.759 574.2 390.207C574.2 376.656 563.219 365.67 549.674 365.67C536.129 365.67 525.148 376.656 525.148 390.207C525.148 403.759 536.129 414.744 549.674 414.744Z" fill="#2F2E41"/>
<path d="M424.217 345.852C425.779 345.852 427.046 344.585 427.046 343.021C427.046 341.458 425.779 340.19 424.217 340.19C422.654 340.19 421.387 341.458 421.387 343.021C421.387 344.585 422.654 345.852 424.217 345.852Z" fill="#2F2E41"/>
<path d="M436.479 345.852C438.042 345.852 439.309 344.585 439.309 343.021C439.309 341.458 438.042 340.19 436.479 340.19C434.916 340.19 433.649 341.458 433.649 343.021C433.649 344.585 434.916 345.852 436.479 345.852Z" fill="#2F2E41"/>
<path d="M430.819 356.233C432.382 356.233 433.649 354.966 433.649 353.402C433.649 351.838 432.382 350.571 430.819 350.571C429.256 350.571 427.989 351.838 427.989 353.402C427.989 354.966 429.256 356.233 430.819 356.233Z" fill="#2F2E41"/>
<path d="M442.138 356.233C443.701 356.233 444.968 354.966 444.968 353.402C444.968 351.838 443.701 350.571 442.138 350.571C440.576 350.571 439.309 351.838 439.309 353.402C439.309 354.966 440.576 356.233 442.138 356.233Z" fill="#2F2E41"/>
<path d="M453.458 356.233C455.021 356.233 456.288 354.966 456.288 353.402C456.288 351.838 455.021 350.571 453.458 350.571C451.895 350.571 450.628 351.838 450.628 353.402C450.628 354.966 451.895 356.233 453.458 356.233Z" fill="#2F2E41"/>
<path d="M464.778 356.233C466.341 356.233 467.608 354.966 467.608 353.402C467.608 351.838 466.341 350.571 464.778 350.571C463.215 350.571 461.948 351.838 461.948 353.402C461.948 354.966 463.215 356.233 464.778 356.233Z" fill="#2F2E41"/>
<path d="M448.742 345.852C450.305 345.852 451.572 344.585 451.572 343.021C451.572 341.458 450.305 340.19 448.742 340.19C447.179 340.19 445.912 341.458 445.912 343.021C445.912 344.585 447.179 345.852 448.742 345.852Z" fill="#2F2E41"/>
<path d="M461.005 345.852C462.568 345.852 463.835 344.585 463.835 343.021C463.835 341.458 462.568 340.19 461.005 340.19C459.442 340.19 458.175 341.458 458.175 343.021C458.175 344.585 459.442 345.852 461.005 345.852Z" fill="#2F2E41"/>
<path d="M473.267 345.852C474.83 345.852 476.097 344.585 476.097 343.021C476.097 341.458 474.83 340.19 473.267 340.19C471.704 340.19 470.438 341.458 470.438 343.021C470.438 344.585 471.704 345.852 473.267 345.852Z" fill="#2F2E41"/>
<path d="M460.061 430.315H435.536C434.41 430.315 433.33 429.868 432.534 429.072C431.738 428.275 431.291 427.195 431.291 426.069C431.291 424.942 431.738 423.862 432.534 423.066C433.33 422.269 434.41 421.822 435.536 421.822H460.061C461.187 421.822 462.267 422.269 463.063 423.066C463.859 423.862 464.306 424.942 464.306 426.069C464.306 427.195 463.859 428.275 463.063 429.072C462.267 429.868 461.187 430.315 460.061 430.315Z" fill="#2F2E41"/>
<path d="M297.668 245.71C296.085 245.706 294.55 245.168 293.31 244.184C292.07 243.199 291.198 241.825 290.835 240.284L287.073 224.309C286.648 222.493 286.96 220.582 287.942 218.997C288.924 217.411 290.494 216.28 292.309 215.852C294.124 215.425 296.034 215.735 297.62 216.716C299.206 217.696 300.338 219.267 300.767 221.082L304.528 237.057C304.77 238.091 304.775 239.167 304.543 240.203C304.311 241.24 303.848 242.21 303.188 243.043C302.529 243.875 301.689 244.547 300.733 245.009C299.778 245.471 298.73 245.711 297.668 245.71V245.71Z" fill="#3F3D56"/>
<path d="M598.873 244.767C597.811 244.767 596.763 244.527 595.807 244.065C594.851 243.603 594.012 242.931 593.352 242.099C592.693 241.267 592.229 240.296 591.997 239.26C591.765 238.223 591.771 237.148 592.013 236.114L595.774 220.138C596.203 218.323 597.335 216.753 598.921 215.772C600.507 214.792 602.417 214.481 604.232 214.909C606.046 215.336 607.617 216.467 608.599 218.053C609.58 219.639 609.893 221.549 609.467 223.365L605.706 239.341C605.342 240.882 604.47 242.256 603.23 243.24C601.991 244.224 600.455 244.762 598.873 244.767V244.767Z" fill="#3F3D56"/>
<path d="M245.773 292.866C243.458 292.866 241.199 292.153 239.304 290.824L231.408 285.295C229.923 284.253 228.71 282.87 227.873 281.26C227.035 279.651 226.597 277.863 226.597 276.049V259.115C226.601 255.715 227.952 252.455 230.356 250.05C232.759 247.646 236.018 246.293 239.416 246.289H251.509C254.908 246.293 258.166 247.646 260.569 250.05C262.973 252.455 264.325 255.715 264.328 259.115V276.215C264.325 277.983 263.908 279.725 263.111 281.302C262.314 282.88 261.16 284.249 259.739 285.3L252.464 290.663C250.526 292.094 248.181 292.866 245.773 292.866V292.866Z" fill="#3F3D56"/>
<path d="M251.509 354.818H239.416C236.018 354.814 232.759 353.461 230.356 351.057C227.952 348.652 226.601 345.392 226.597 341.992V325.059C226.597 323.244 227.035 321.456 227.873 319.847C228.71 318.238 229.923 316.854 231.408 315.813L239.304 310.283C241.237 308.928 243.548 308.214 245.91 308.242C248.271 308.271 250.564 309.041 252.464 310.444L259.739 315.807C261.16 316.858 262.314 318.227 263.111 319.805C263.908 321.382 264.325 323.125 264.328 324.892V341.992C264.325 345.392 262.973 348.652 260.569 351.057C258.166 353.461 254.908 354.814 251.509 354.818V354.818Z" fill="#3F3D56"/>
<path d="M289.24 319.428H272.314C270.501 319.427 268.714 318.989 267.105 318.151C265.496 317.313 264.113 316.1 263.073 314.614L257.546 306.715C256.191 304.781 255.477 302.469 255.506 300.106C255.534 297.744 256.304 295.45 257.706 293.549L263.067 286.271C264.118 284.849 265.486 283.694 267.063 282.897C268.64 282.099 270.381 281.682 272.148 281.679H289.24C292.639 281.683 295.897 283.035 298.301 285.44C300.704 287.844 302.056 291.104 302.06 294.505V306.602C302.056 310.003 300.704 313.263 298.301 315.667C295.897 318.072 292.639 319.424 289.24 319.428V319.428Z" fill="#3F3D56"/>
<path d="M217.666 319.428H200.741C197.342 319.424 194.083 318.072 191.68 315.667C189.277 313.263 187.925 310.003 187.921 306.602V294.505C187.925 291.104 189.277 287.844 191.68 285.44C194.083 283.035 197.342 281.683 200.741 281.679H217.833C219.599 281.682 221.341 282.099 222.918 282.897C224.495 283.694 225.863 284.849 226.914 286.271L232.275 293.549C233.677 295.45 234.446 297.744 234.475 300.106C234.504 302.469 233.79 304.781 232.435 306.715L226.908 314.614C225.868 316.1 224.484 317.313 222.876 318.151C221.267 318.989 219.48 319.427 217.666 319.428V319.428Z" fill="#3F3D56"/>
<path d="M650.607 274.129C662.589 274.129 672.303 264.411 672.303 252.424C672.303 240.436 662.589 230.718 650.607 230.718C638.625 230.718 628.911 240.436 628.911 252.424C628.911 264.411 638.625 274.129 650.607 274.129Z" fill="#3F3D56"/>
<path d="M698.714 324.147C710.697 324.147 720.41 314.429 720.41 302.441C720.41 290.453 710.697 280.735 698.714 280.735C686.732 280.735 677.019 290.453 677.019 302.441C677.019 314.429 686.732 324.147 698.714 324.147Z" fill="#3F3D56"/>
<path d="M650.607 371.333C662.589 371.333 672.303 361.615 672.303 349.627C672.303 337.639 662.589 327.922 650.607 327.922C638.625 327.922 628.911 337.639 628.911 349.627C628.911 361.615 638.625 371.333 650.607 371.333Z" fill="#3F3D56"/>
<path d="M602.499 323.203C614.481 323.203 624.194 313.485 624.194 301.497C624.194 289.51 614.481 279.792 602.499 279.792C590.516 279.792 580.803 289.51 580.803 301.497C580.803 313.485 590.516 323.203 602.499 323.203Z" fill="#3F3D56"/>
<path d="M698.715 316.597C695.916 316.597 693.181 315.767 690.854 314.211C688.527 312.656 686.713 310.445 685.643 307.858C684.572 305.272 684.291 302.425 684.837 299.679C685.383 296.933 686.731 294.411 688.71 292.431C690.689 290.452 693.21 289.103 695.954 288.557C698.699 288.011 701.544 288.291 704.13 289.363C706.715 290.434 708.925 292.249 710.48 294.576C712.034 296.904 712.864 299.641 712.864 302.441C712.86 306.194 711.368 309.792 708.715 312.446C706.063 315.1 702.466 316.593 698.715 316.597V316.597ZM698.715 290.173C696.289 290.173 693.919 290.892 691.902 292.24C689.885 293.588 688.314 295.504 687.385 297.746C686.457 299.988 686.215 302.455 686.688 304.834C687.161 307.214 688.329 309.4 690.044 311.116C691.759 312.832 693.944 314 696.323 314.474C698.701 314.947 701.167 314.704 703.408 313.776C705.648 312.847 707.564 311.274 708.911 309.257C710.259 307.239 710.978 304.867 710.978 302.441C710.974 299.188 709.681 296.07 707.382 293.77C705.083 291.47 701.966 290.176 698.715 290.173V290.173Z" fill="#E6E6E6"/>
<path d="M665.767 262.955L637.332 262.553L651.898 238.117L665.767 262.955ZM640.626 260.712L662.526 261.022L651.845 241.892L640.626 260.712Z" fill="#E6E6E6"/>
<path d="M613.818 312.822H591.179V290.173H613.818V312.822ZM593.065 310.935H611.931V292.06H593.065V310.935Z" fill="#E6E6E6"/>
<path d="M662.314 359.372L651.942 349.016L661.088 339.882L659.755 338.546L650.607 347.681L641.458 338.546L640.125 339.882L649.271 349.016L638.899 359.372L640.232 360.708L650.607 350.349L660.981 360.708L662.314 359.372Z" fill="#E6E6E6"/>
<path opacity="0.2" d="M831.248 358.592L794.634 386.161L835.964 368.03L831.248 358.592Z" fill="black"/>
<path d="M153.963 392.566L107.742 394.454L102.082 363.311L141.7 351.043L153.963 392.566Z" fill="#A0616A"/>
<path d="M136.97 316.242L126.66 305.74L139.301 286.403L160.936 250.373C160.229 248.821 160.01 247.09 160.307 245.411C160.605 243.731 161.405 242.182 162.602 240.967C163.799 239.752 165.336 238.93 167.01 238.608C168.685 238.286 170.417 238.481 171.979 239.166C173.54 239.851 174.857 240.994 175.755 242.444C176.653 243.893 177.09 245.582 177.008 247.286C176.926 248.989 176.329 250.628 175.296 251.985C174.262 253.342 172.842 254.353 171.222 254.884L153.364 293.35L136.97 316.242Z" fill="#A0616A"/>
<path d="M125.549 340.217C124.338 342.093 122.614 343.58 120.581 344.5C118.548 345.421 116.293 345.737 114.086 345.41C111.985 345.162 110.002 344.305 108.381 342.946C106.759 341.586 105.57 339.782 104.959 337.756C104.509 336.318 104.378 334.799 104.575 333.305C104.772 331.811 105.293 330.377 106.1 329.105C112.997 317.474 125.717 302.113 125.844 301.959L126.047 301.715L147.501 306.365L125.549 340.217Z" fill="#3F3D56"/>
<path d="M142.946 597.629L155.765 597.628L161.862 548.163L142.943 548.164L142.946 597.629Z" fill="#A0616A"/>
<path d="M139.676 593.442L164.92 593.441H164.921C169.188 593.441 173.279 595.137 176.296 598.155C179.313 601.174 181.008 605.267 181.009 609.536V610.059L139.677 610.06L139.676 593.442Z" fill="#2F2E41"/>
<path d="M43.1367 592.078L55.8108 593.994L69.232 545.997L52.6168 543.168L43.1367 592.078Z" fill="#A0616A"/>
<path d="M40.5292 587.449L65.49 591.223L65.491 591.223C69.7097 591.862 73.5021 594.15 76.0342 597.586C78.5662 601.021 79.6306 605.322 78.9931 609.543L78.9149 610.06L38.0469 603.88L40.5292 587.449Z" fill="#2F2E41"/>
<path d="M105.855 385.017L150.19 377.467L163.908 405.756L164.43 590.383L140.098 590.231L129.927 440.799L65.1012 578.877L38.9619 575.739L95.9455 427.723C95.9455 427.723 92.8088 401.572 102.742 388.496L105.855 385.017Z" fill="#2F2E41"/>
<path d="M89.3961 329.282C88.7186 327.245 88.6466 325.056 89.189 322.979C89.7314 320.903 90.8647 319.028 92.4515 317.584L98.7522 311.854L116.515 308.86L127.622 306.841L145.473 358.592L102.117 378.521C98.3117 377.699 96.7918 375.617 99.0058 371.477L89.3961 329.282Z" fill="#3F3D56"/>
<path d="M129.187 346.744L141.589 338.825L157.884 355.198L188.644 383.828C190.308 383.457 192.046 383.601 193.627 384.239C195.208 384.878 196.558 385.981 197.498 387.404C198.438 388.827 198.925 390.502 198.893 392.207C198.861 393.913 198.312 395.568 197.32 396.955C196.327 398.342 194.937 399.394 193.333 399.973C191.729 400.552 189.988 400.631 188.339 400.198C186.69 399.765 185.211 398.842 184.097 397.55C182.984 396.258 182.289 394.658 182.105 392.963L148.182 367.526L129.187 346.744Z" fill="#A0616A"/>
<path d="M108.103 330.605C106.519 329.033 105.422 327.037 104.942 324.857C104.462 322.677 104.62 320.405 105.396 318.312C106.074 316.307 107.322 314.544 108.987 313.238C110.652 311.933 112.661 311.142 114.769 310.962C116.268 310.819 117.781 311.005 119.201 311.507C120.622 312.009 121.915 312.815 122.992 313.868C132.94 323.025 145.331 338.653 145.455 338.81L145.652 339.058L136.667 359.095L108.103 330.605Z" fill="#3F3D56"/>
<path d="M108.719 302.564C119.488 302.564 128.218 293.83 128.218 283.056C128.218 272.283 119.488 263.549 108.719 263.549C97.9506 263.549 89.2207 272.283 89.2207 283.056C89.2207 293.83 97.9506 302.564 108.719 302.564Z" fill="#A0616A"/>
<path d="M92.9332 310.847C89.9095 310.847 86.8886 310.662 83.8872 310.296L83.4756 310.245L80.3349 293.186C79.0028 285.955 80.488 278.488 84.4856 272.317C88.4832 266.146 94.69 261.741 101.832 260.004C102.309 259.884 102.809 259.897 103.279 260.042C103.749 260.187 104.169 260.46 104.494 260.829L105.243 260.568C108.111 259.567 111.148 259.141 114.18 259.315C117.212 259.489 120.181 260.258 122.916 261.579C125.651 262.901 128.099 264.748 130.12 267.016C132.142 269.284 133.697 271.928 134.697 274.797L134.883 275.33L129.884 277.074C128.326 277.618 126.909 278.502 125.736 279.662C124.563 280.822 123.663 282.229 123.102 283.781C122.541 285.333 122.332 286.99 122.492 288.633C122.651 290.275 123.175 291.862 124.024 293.276L129.135 301.789L128.591 302.061C117.56 307.752 105.344 310.761 92.9332 310.847V310.847Z" fill="#2F2E41"/>
<path d="M762.821 392.48C763.046 391.389 763.508 390.362 764.174 389.469C764.839 388.576 765.693 387.84 766.673 387.313C767.654 386.786 768.738 386.481 769.85 386.418C770.961 386.356 772.073 386.538 773.106 386.952L790.84 366.504L794.634 380.05L777.211 397.391C776.402 399.082 775 400.417 773.272 401.143C771.544 401.869 769.61 401.936 767.836 401.33C766.062 400.725 764.572 399.49 763.647 397.859C762.723 396.227 762.429 394.314 762.821 392.48H762.821Z" fill="#FFB6B6"/>
<path d="M841.955 302.582L849.22 302.189L850.314 306.809C850.314 306.809 850.206 312.725 843.582 325.022C836.958 337.319 785.632 392.069 785.632 392.069L774.517 379.448L801.991 351.136L818.629 321.462L841.955 302.582Z" fill="#3F3D56"/>
<path d="M14.1763 611.108H876.611C876.923 611.108 877.223 610.984 877.443 610.764C877.664 610.543 877.788 610.244 877.788 609.931C877.788 609.619 877.664 609.32 877.443 609.099C877.223 608.879 876.923 608.755 876.611 608.755H14.1763C13.8643 608.755 13.5651 608.879 13.3445 609.099C13.1239 609.32 13 609.619 13 609.931C13 610.244 13.1239 610.543 13.3445 610.764C13.5651 610.984 13.8643 611.108 14.1763 611.108Z" fill="#CCCCCC"/>
</svg>
