<svg width="720" height="688" viewBox="0 0 720 688" fill="none" xmlns="http://www.w3.org/2000/svg">
<g clip-path="url(#clip0_317_203)">
<path d="M668.77 182.587V144H662.77V182.587C661.048 183.283 659.623 184.556 658.738 186.188C657.852 187.82 657.562 189.709 657.917 191.531C658.271 193.354 659.249 194.996 660.682 196.177C662.114 197.357 663.913 198.003 665.77 198.003C667.626 198.003 669.425 197.357 670.858 196.177C672.29 194.996 673.268 193.354 673.622 191.531C673.977 189.709 673.687 187.82 672.801 186.188C671.916 184.556 670.491 183.283 668.77 182.587Z" fill="#E6E6E6"/>
<path d="M682.77 572H641.77V74H625.77V572H584.769C579.911 572 575.099 572.957 570.61 574.816C566.121 576.676 562.042 579.401 558.607 582.837C555.171 586.273 552.445 590.352 550.586 594.841C548.727 599.33 547.77 604.141 547.77 609V609H719.77V609C719.77 604.141 718.813 599.33 716.953 594.841C715.094 590.352 712.368 586.273 708.932 582.837C705.497 579.401 701.418 576.676 696.929 574.816C692.44 572.957 687.628 572 682.77 572V572Z" fill="#E6E6E6"/>
<path d="M547.853 148H719.687L709.179 16.6597C708.795 12.1308 706.73 7.90958 703.39 4.82651C700.05 1.74343 695.678 0.0216901 691.133 0H576.406C571.861 0.0216925 567.489 1.74343 564.149 4.82651C560.809 7.90958 558.744 12.1308 558.36 16.6597L547.853 148Z" fill="#3F3D56"/>
<path d="M61.0977 457.536H585.576V403.989C585.576 259.391 467.936 141.75 323.337 141.75C178.738 141.75 61.0977 259.391 61.0977 403.989V457.536Z" fill="#3F3D56"/>
<path opacity="0.2" d="M61.0977 457.536H585.576V403.989C585.576 259.391 467.936 141.75 323.337 141.75C178.738 141.75 61.0977 259.391 61.0977 403.989V457.536Z" fill="black"/>
<path d="M129.072 476.071H532.705C532.321 454.835 523.622 434.598 508.477 419.707C493.332 404.817 472.95 396.462 451.711 396.438H210.066C188.827 396.462 168.445 404.817 153.3 419.707C138.155 434.598 129.456 454.835 129.072 476.071V476.071Z" fill="#3F3D56"/>
<path d="M81.0059 467.833C125.744 467.833 162.012 431.565 162.012 386.827C162.012 342.089 125.744 305.821 81.0059 305.821C36.2676 305.821 0 342.089 0 386.827C0 431.565 36.2676 467.833 81.0059 467.833Z" fill="#3F3D56"/>
<path d="M572.533 467.833C617.272 467.833 653.539 431.565 653.539 386.827C653.539 342.089 617.272 305.821 572.533 305.821C527.795 305.821 491.527 342.089 491.527 386.827C491.527 431.565 527.795 467.833 572.533 467.833Z" fill="#3F3D56"/>
<path d="M511.436 428.017V458.222H137.298V428.017H53.5464V575.239C53.5464 584.259 57.1297 592.91 63.508 599.288C69.8863 605.667 78.5371 609.25 87.5574 609.25H561.176C565.643 609.25 570.065 608.37 574.192 606.661C578.318 604.952 582.067 602.447 585.226 599.289C588.384 596.13 590.889 592.381 592.598 588.255C594.308 584.128 595.187 579.705 595.187 575.239V428.017H511.436Z" fill="#3F3D56"/>
<path opacity="0.2" d="M81.006 403.303C90.1054 403.303 97.4818 395.926 97.4818 386.827C97.4818 377.728 90.1054 370.351 81.006 370.351C71.9067 370.351 64.5303 377.728 64.5303 386.827C64.5303 395.926 71.9067 403.303 81.006 403.303Z" fill="black"/>
<path opacity="0.2" d="M572.533 403.303C581.632 403.303 589.009 395.926 589.009 386.827C589.009 377.728 581.632 370.351 572.533 370.351C563.434 370.351 556.057 377.728 556.057 386.827C556.057 395.926 563.434 403.303 572.533 403.303Z" fill="black"/>
<path d="M353.178 132.496C353.178 132.496 354.797 163.271 366.135 169.75C377.473 176.229 366.135 219.961 366.135 219.961L312.685 221.581L309.445 169.75C309.445 169.75 315.924 148.694 312.685 138.975C309.445 129.257 353.178 132.496 353.178 132.496Z" fill="#FFB8B8"/>
<path d="M413.107 560.102L393.671 582.778L424.446 611.933L440.643 579.539L413.107 560.102Z" fill="#FFB8B8"/>
<path d="M275.431 560.102L294.868 582.778L264.093 611.933L247.896 579.539L275.431 560.102Z" fill="#FFB8B8"/>
<path d="M402.579 345.49C402.579 345.49 519.199 384.363 512.72 421.616C506.241 458.87 456.03 590.067 456.03 590.067C456.03 590.067 428.495 590.067 407.438 560.912L422.016 528.518C422.016 528.518 415.537 510.701 426.875 507.461C438.213 504.222 444.692 447.532 444.692 447.532C444.692 447.532 362.086 441.053 344.269 410.278L311.875 332.532L402.579 345.49Z" fill="#2F2E41"/>
<path d="M285.96 345.49C285.96 345.49 169.34 384.363 175.819 421.616C182.298 458.87 232.509 590.067 232.509 590.067C232.509 590.067 260.044 590.067 281.101 560.912L266.523 528.518C266.523 528.518 273.002 510.701 261.664 507.461C250.326 504.222 243.847 447.532 243.847 447.532C243.847 447.532 326.453 441.053 344.27 410.278L376.664 332.532L285.96 345.49Z" fill="#2F2E41"/>
<path d="M418.777 599.785C418.777 599.785 434.974 585.208 436.593 596.546C438.213 607.884 434.974 653.236 434.974 653.236C434.974 653.236 451.171 687.25 426.875 687.25C402.579 687.25 391.241 661.334 394.481 635.419C397.72 609.503 383.143 599.785 383.143 599.785C383.143 599.785 365.326 564.151 383.143 560.912C400.96 557.673 407.439 565.771 407.439 565.771C407.439 565.771 400.96 594.926 418.777 599.785Z" fill="#2F2E41"/>
<path d="M269.762 599.785C269.762 599.785 253.565 585.208 251.946 596.546C250.326 607.884 253.565 653.236 253.565 653.236C253.565 653.236 237.368 687.25 261.664 687.25C285.96 687.25 297.298 661.334 294.058 635.419C290.819 609.503 305.396 599.785 305.396 599.785C305.396 599.785 323.213 564.151 305.396 560.912C287.579 557.673 281.1 565.771 281.1 565.771C281.1 565.771 287.579 594.926 269.762 599.785Z" fill="#2F2E41"/>
<path d="M328.072 151.123C348.647 151.123 365.326 134.444 365.326 113.87C365.326 93.2952 348.647 76.6162 328.072 76.6162C307.498 76.6162 290.819 93.2952 290.819 113.87C290.819 134.444 307.498 151.123 328.072 151.123Z" fill="#FFB8B8"/>
<path d="M333.741 177.849L311.065 160.032L255.995 185.947L254.375 333.342C254.375 333.342 220.361 349.539 230.079 370.595C230.079 370.595 259.234 377.074 272.192 390.032C285.15 402.989 358.037 385.173 388.812 375.454C419.586 365.736 427.685 354.398 427.685 354.398L396.91 310.666L414.727 198.905L359.663 161.884L333.741 177.849Z" fill="#E6E6E6"/>
<path d="M373.363 88.5141C372.552 87.4127 371.81 86.2615 371.142 85.0672C369.987 82.2539 371.812 78.9385 370.107 76.3115C368.367 73.6297 363.948 73.0642 360.942 71.2423C356.311 68.4357 355.47 62.9286 351.131 59.8358C348.005 57.6074 343.547 57.0067 339.369 57.1338C335.192 57.261 331.07 58.0162 326.891 58.0991C321.25 58.225 315.652 57.0804 310.514 54.75L313.597 60.7808C310.171 60.0341 306.898 58.7074 303.919 56.858C302.555 58.5494 305.05 61.1166 303.503 62.703C302.869 63.2148 302.119 63.5626 301.319 63.7159C295.372 65.4057 289.773 68.1375 284.781 71.7841C283.625 72.5191 282.669 73.5284 281.998 74.722C281.194 76.5029 281.907 78.4698 281.846 80.3634C281.735 83.8041 279.109 86.8044 277.245 89.9039C275.381 93.0035 274.374 97.0219 277.139 99.6526C277.811 100.187 278.456 100.756 279.07 101.356C281.84 104.623 276.937 109.408 279.3 112.875C280.327 114.38 282.43 115.142 284.258 116.031C287.759 117.668 290.704 120.294 292.732 123.584L291.311 113.156C291.237 112.898 291.223 112.627 291.272 112.363C291.322 112.099 291.432 111.851 291.594 111.637C292.282 110.936 293.723 111.215 294.673 110.751C295.718 110.24 295.797 109.067 295.756 108.085L295.436 100.514C295.292 97.1097 295.252 96.6576 297.76 93.9095C299.511 91.9895 302.267 90.8311 305.035 89.9792C311.36 88.0324 318.163 87.359 324.888 86.701C332.697 85.9368 341.49 82.1477 347.554 86.1707C352.519 89.4639 354.169 94.877 356.561 99.6777C358.711 103.993 364.229 116.698 368.823 109.82C371.708 105.501 376.12 93.323 373.363 88.5141Z" fill="#2F2E41"/>
<path d="M334.468 103.063C334.314 103.063 334.167 103.124 334.059 103.233C333.95 103.341 333.889 103.488 333.889 103.642V119.239C333.889 119.392 333.95 119.539 334.059 119.648C334.167 119.756 334.314 119.817 334.468 119.817H361.317C361.471 119.817 361.618 119.756 361.727 119.648C361.835 119.539 361.896 119.392 361.896 119.239V103.642C361.896 103.488 361.835 103.341 361.727 103.233C361.618 103.124 361.471 103.063 361.317 103.063L334.468 103.063Z" fill="#3F3D56"/>
<path d="M337.468 104.438C337.182 104.439 336.908 104.553 336.706 104.755C336.504 104.957 336.39 105.231 336.39 105.517V117.363C336.39 117.649 336.504 117.923 336.706 118.126C336.908 118.328 337.182 118.442 337.468 118.442H358.317C358.603 118.442 358.877 118.328 359.079 118.126C359.281 117.923 359.395 117.649 359.396 117.363V105.517C359.395 105.231 359.281 104.957 359.079 104.755C358.877 104.553 358.603 104.439 358.317 104.438H337.468Z" fill="#FF6584"/>
<path d="M334.77 108.201H320.784V111.44H334.77V108.201Z" fill="#3F3D56"/>
<path d="M296.447 103.063C296.293 103.063 296.146 103.124 296.038 103.233C295.929 103.341 295.868 103.488 295.868 103.642V119.239C295.868 119.392 295.929 119.539 296.038 119.648C296.146 119.756 296.293 119.817 296.447 119.817H323.297C323.45 119.817 323.597 119.756 323.706 119.648C323.814 119.539 323.875 119.392 323.875 119.239V103.642C323.875 103.488 323.814 103.341 323.706 103.233C323.597 103.124 323.45 103.063 323.297 103.063L296.447 103.063Z" fill="#3F3D56"/>
<path d="M299.448 104.438C299.162 104.439 298.887 104.552 298.685 104.755C298.483 104.957 298.369 105.231 298.369 105.517V117.363C298.369 117.649 298.483 117.924 298.685 118.126C298.887 118.328 299.162 118.442 299.448 118.442H320.296C320.582 118.442 320.856 118.328 321.058 118.126C321.261 117.924 321.375 117.649 321.375 117.363V105.517C321.375 105.231 321.261 104.957 321.058 104.755C320.856 104.552 320.582 104.439 320.296 104.438H299.448Z" fill="#3F3D56"/>
<path d="M281.77 297.75H374.77C378.483 297.75 382.044 299.225 384.669 301.85C387.295 304.476 388.77 308.037 388.77 311.75V311.75H267.77C267.77 308.037 269.245 304.476 271.87 301.85C274.496 299.225 278.057 297.75 281.77 297.75V297.75Z" fill="#3F3D56"/>
<path d="M381.27 296.75C380.725 296.752 380.185 296.844 379.67 297.022C379.494 296.312 379.064 295.691 378.461 295.277C377.858 294.862 377.124 294.683 376.398 294.772C375.672 294.862 375.003 295.214 374.519 295.763C374.035 296.311 373.768 297.018 373.77 297.75C373.77 297.765 373.773 297.779 373.774 297.794C373.399 297.829 373.029 297.906 372.67 298.022C372.569 297.618 372.385 297.24 372.129 296.911C371.874 296.582 371.553 296.31 371.187 296.111C372.149 295.58 372.909 294.748 373.352 293.743C373.914 293.799 374.481 293.735 375.018 293.557C375.554 293.379 376.046 293.09 376.463 292.708C376.88 292.327 377.212 291.862 377.437 291.344C377.662 290.825 377.775 290.266 377.769 289.701C377.764 289.136 377.639 288.578 377.403 288.065C377.168 287.551 376.826 287.093 376.402 286.721C375.977 286.348 375.479 286.069 374.939 285.901C374.399 285.734 373.831 285.683 373.27 285.75C372.725 285.752 372.185 285.844 371.671 286.022C371.578 285.629 371.407 285.259 371.168 284.933C370.928 284.608 370.625 284.335 370.277 284.13C369.929 283.925 369.543 283.792 369.143 283.74C368.742 283.689 368.335 283.719 367.946 283.829C367.558 283.938 367.195 284.126 366.881 284.38C366.567 284.634 366.307 284.948 366.118 285.305C365.929 285.662 365.814 286.054 365.78 286.456C365.746 286.859 365.794 287.264 365.922 287.647C365.802 287.73 365.69 287.824 365.579 287.917C365.013 287.43 364.278 287.186 363.534 287.236C363.149 286.132 362.388 285.198 361.384 284.598C360.38 283.999 359.197 283.771 358.043 283.956C356.888 284.141 355.835 284.727 355.069 285.61C354.302 286.493 353.871 287.618 353.851 288.787C353.449 288.819 353.053 288.898 352.67 289.022C352.627 288.853 352.57 288.688 352.498 288.529C352.893 288.18 353.21 287.753 353.429 287.274C353.648 286.796 353.764 286.276 353.77 285.75C353.7 284.624 353.187 283.572 352.344 282.823C351.501 282.073 350.396 281.688 349.27 281.75C348.725 281.752 348.185 281.844 347.67 282.022C347.578 281.629 347.407 281.259 347.168 280.933C346.928 280.608 346.625 280.335 346.277 280.13C345.929 279.925 345.543 279.792 345.142 279.74C344.742 279.689 344.335 279.719 343.946 279.829C343.558 279.938 343.195 280.126 342.881 280.38C342.567 280.634 342.307 280.948 342.118 281.305C341.929 281.662 341.814 282.054 341.78 282.456C341.746 282.859 341.794 283.264 341.922 283.647C341.292 284.085 340.771 284.661 340.401 285.332C340.03 286.003 339.819 286.751 339.784 287.516C339.742 287.554 339.693 287.585 339.653 287.624C339.728 287.339 339.767 287.045 339.77 286.75C339.7 285.624 339.187 284.572 338.344 283.823C337.501 283.073 336.396 282.688 335.27 282.75C334.725 282.752 334.185 282.844 333.67 283.022C333.578 282.629 333.407 282.259 333.168 281.933C332.928 281.608 332.625 281.335 332.277 281.13C331.929 280.925 331.543 280.792 331.142 280.74C330.742 280.689 330.335 280.719 329.946 280.829C329.557 280.938 329.195 281.126 328.881 281.38C328.567 281.634 328.307 281.948 328.118 282.305C327.929 282.662 327.814 283.054 327.78 283.456C327.746 283.859 327.794 284.264 327.921 284.647C327.258 285.106 326.715 285.719 326.34 286.434C325.965 287.148 325.77 287.943 325.77 288.75C325.77 289.557 325.965 290.352 326.34 291.066C326.715 291.781 327.258 292.394 327.921 292.853C327.719 293.434 327.719 294.066 327.921 294.647C327.42 294.997 326.987 295.435 326.642 295.939C326.457 295.267 326.042 294.682 325.471 294.284C324.899 293.886 324.205 293.701 323.511 293.761C322.817 293.821 322.166 294.122 321.671 294.612C321.176 295.102 320.868 295.751 320.8 296.444C320.4 296.209 319.966 296.034 319.515 295.925C320.325 295.39 320.963 294.632 321.351 293.743C321.914 293.799 322.481 293.735 323.017 293.557C323.554 293.379 324.046 293.09 324.463 292.708C324.88 292.327 325.212 291.862 325.437 291.344C325.662 290.825 325.775 290.266 325.769 289.701C325.764 289.136 325.639 288.578 325.403 288.065C325.167 287.551 324.826 287.093 324.402 286.721C323.977 286.348 323.479 286.069 322.939 285.901C322.399 285.734 321.831 285.683 321.27 285.75C320.725 285.752 320.185 285.844 319.67 286.022C319.578 285.629 319.407 285.259 319.167 284.933C318.928 284.608 318.625 284.335 318.277 284.13C317.929 283.925 317.543 283.792 317.142 283.74C316.742 283.689 316.335 283.719 315.946 283.829C315.557 283.938 315.195 284.126 314.881 284.38C314.567 284.634 314.307 284.948 314.118 285.305C313.929 285.662 313.814 286.054 313.78 286.456C313.746 286.859 313.794 287.264 313.921 287.647C313.857 287.692 313.8 287.744 313.738 287.792C313.582 287.777 313.43 287.75 313.27 287.75C312.725 287.752 312.185 287.844 311.67 288.022C311.651 287.947 311.62 287.877 311.596 287.804C311.693 287.359 311.685 286.897 311.573 286.455C311.462 286.014 311.249 285.604 310.952 285.258C310.656 284.912 310.283 284.64 309.863 284.463C309.443 284.286 308.988 284.208 308.534 284.236C308.273 283.511 307.849 282.856 307.293 282.322C306.737 281.788 306.066 281.39 305.331 281.159C304.596 280.928 303.817 280.87 303.056 280.99C302.295 281.11 301.572 281.404 300.943 281.849C300.315 282.295 299.798 282.88 299.433 283.558C299.068 284.237 298.865 284.991 298.84 285.761C298.815 286.531 298.968 287.296 299.288 287.997C299.607 288.698 300.085 289.316 300.683 289.802C300.339 289.841 300 289.915 299.67 290.022C299.552 289.535 299.312 289.085 298.974 288.715C298.635 288.345 298.208 288.067 297.733 287.906C297.257 287.746 296.749 287.708 296.255 287.797C295.761 287.886 295.298 288.098 294.909 288.414C294.463 287.885 293.905 287.461 293.276 287.173C292.647 286.885 291.961 286.741 291.27 286.75C290.725 286.752 290.185 286.844 289.67 287.022C289.578 286.629 289.407 286.259 289.167 285.933C288.928 285.608 288.625 285.335 288.277 285.13C287.929 284.925 287.543 284.792 287.142 284.74C286.742 284.689 286.335 284.719 285.946 284.829C285.557 284.938 285.195 285.126 284.881 285.38C284.566 285.634 284.307 285.948 284.118 286.305C283.928 286.662 283.814 287.054 283.78 287.456C283.746 287.859 283.794 288.264 283.921 288.647C283.258 289.106 282.715 289.719 282.34 290.434C281.966 291.148 281.77 291.943 281.77 292.75C281.77 292.765 281.774 292.78 281.774 292.795C281.065 292.688 280.34 292.766 279.67 293.022C279.578 292.629 279.407 292.259 279.167 291.933C278.928 291.608 278.625 291.335 278.277 291.13C277.929 290.925 277.543 290.792 277.142 290.74C276.742 290.689 276.335 290.719 275.946 290.829C275.557 290.938 275.195 291.126 274.881 291.38C274.566 291.634 274.307 291.948 274.118 292.305C273.928 292.662 273.813 293.054 273.78 293.456C273.746 293.859 273.794 294.264 273.921 294.647C272.957 295.3 272.252 296.27 271.929 297.389C271.606 298.508 271.685 299.705 272.153 300.771C272.621 301.838 273.448 302.707 274.49 303.227C275.532 303.746 276.723 303.885 277.857 303.617C278.037 304.66 278.546 305.619 279.308 306.354C280.07 307.089 281.046 307.562 282.095 307.705C283.145 307.847 284.212 307.652 285.143 307.147C286.073 306.642 286.819 305.853 287.271 304.896C290.873 305.364 294.528 305.2 298.073 304.409C298.404 305.357 299.013 306.182 299.82 306.777C300.627 307.373 301.596 307.711 302.598 307.747C303.601 307.783 304.591 307.515 305.439 306.979C306.287 306.443 306.954 305.664 307.351 304.743C308.08 304.728 308.797 304.551 309.449 304.224C309.905 305.03 310.577 305.693 311.39 306.138C312.203 306.583 313.124 306.793 314.049 306.743C314.974 306.693 315.867 306.385 316.628 305.855C317.388 305.325 317.985 304.594 318.351 303.743C319.464 303.532 320.615 303.717 321.604 304.267C322.594 304.816 323.36 305.695 323.77 306.75C324.438 305.834 325.299 305.076 326.291 304.527C327.283 303.978 328.382 303.652 329.513 303.571C330.518 303.851 331.587 303.802 332.561 303.429C333.536 303.057 334.365 302.382 334.928 301.503C334.614 302.721 334.77 304.013 335.366 305.12C335.962 306.228 336.953 307.07 338.143 307.479C339.332 307.887 340.632 307.833 341.782 307.326C342.933 306.819 343.851 305.896 344.351 304.743C345.08 304.728 345.797 304.551 346.449 304.224C346.905 305.03 347.577 305.693 348.39 306.138C349.203 306.583 350.124 306.793 351.049 306.743C351.974 306.693 352.867 306.385 353.628 305.855C354.388 305.325 354.985 304.594 355.351 303.743C356.08 303.728 356.797 303.551 357.449 303.224C357.8 303.85 358.284 304.393 358.867 304.813C359.45 305.234 360.117 305.523 360.822 305.66C361.528 305.796 362.254 305.778 362.952 305.605C363.649 305.433 364.301 305.11 364.861 304.66C365.035 305.617 365.485 306.502 366.155 307.206C366.826 307.91 367.688 308.402 368.635 308.621C369.582 308.841 370.573 308.778 371.485 308.442C372.397 308.105 373.19 307.508 373.767 306.726C374.368 307.186 375.065 307.502 375.806 307.652C376.547 307.801 377.313 307.78 378.044 307.588C378.776 307.397 379.454 307.041 380.027 306.548C380.6 306.055 381.053 305.437 381.351 304.743C381.914 304.798 382.481 304.735 383.017 304.557C383.554 304.379 384.046 304.09 384.463 303.708C384.88 303.327 385.212 302.862 385.437 302.344C385.662 301.825 385.775 301.266 385.769 300.701C385.764 300.136 385.639 299.578 385.403 299.065C385.167 298.551 384.826 298.093 384.402 297.72C383.977 297.348 383.479 297.069 382.939 296.901C382.399 296.734 381.83 296.683 381.27 296.75L381.27 296.75ZM291.891 294.686C291.886 294.71 291.883 294.735 291.878 294.759C291.841 294.758 291.807 294.75 291.77 294.75C291.62 294.754 291.471 294.769 291.324 294.795C291.332 294.777 291.344 294.761 291.352 294.743C291.532 294.734 291.713 294.715 291.891 294.686V294.686ZM333.67 293.022C333.656 292.964 333.631 292.91 333.613 292.854C334.377 292.324 334.978 291.594 335.352 290.743C336.009 290.739 336.659 290.597 337.258 290.326C337.857 290.055 338.392 289.66 338.828 289.168C338.79 289.36 338.77 289.555 338.77 289.75C338.774 290.055 338.825 290.358 338.922 290.647C338.063 291.246 337.413 292.098 337.063 293.084C335.975 292.661 334.773 292.639 333.67 293.022V293.022ZM363.621 293.395C363.619 293.334 363.626 293.271 363.622 293.21C363.75 293.209 363.877 293.201 364.004 293.184C364.198 293.831 364.522 294.431 364.956 294.949C364.862 294.975 364.762 294.991 364.67 295.022C364.509 294.379 364.14 293.807 363.621 293.395V293.395Z" fill="#F9A825"/>
<path d="M277.843 302.75C276.424 302.75 275.021 303.039 273.718 303.599C272.415 304.159 271.239 304.979 270.263 306.009C269.288 307.038 268.532 308.256 268.043 309.587C267.553 310.919 267.34 312.336 267.416 313.752L274.187 406.867C274.33 409.536 275.491 412.049 277.431 413.887C279.371 415.726 281.942 416.75 284.614 416.75H371.925C374.597 416.75 377.168 415.726 379.108 413.887C381.048 412.049 382.209 409.536 382.351 406.867L389.123 313.752C389.199 312.336 388.986 310.919 388.496 309.587C388.007 308.256 387.251 307.038 386.275 306.009C385.3 304.979 384.124 304.159 382.821 303.599C381.518 303.039 380.115 302.75 378.696 302.75H277.843Z" fill="#3F3D56"/>
<path d="M288.77 302.75H282.77V416.75H288.77V302.75Z" fill="#3F3D56"/>
<path d="M305.77 302.75H299.77V416.75H305.77V302.75Z" fill="#3F3D56"/>
<path d="M322.77 302.75H316.77V416.75H322.77V302.75Z" fill="#3F3D56"/>
<path d="M339.77 302.75H333.77V416.75H339.77V302.75Z" fill="#3F3D56"/>
<path d="M356.77 302.75H350.77V416.75H356.77V302.75Z" fill="#3F3D56"/>
<path d="M373.77 302.75H367.77V416.75H373.77V302.75Z" fill="#3F3D56"/>
<path d="M367.755 359.257L348.319 370.595C348.319 370.595 301.347 409.468 333.741 415.947C366.136 422.426 374.234 388.412 374.234 388.412L385.572 375.454L367.755 359.257Z" fill="#FFB8B8"/>
<path d="M275.431 351.158L294.868 362.496C294.868 362.496 341.84 401.37 309.445 407.849C277.051 414.327 268.952 380.313 268.952 380.313L257.614 367.356L275.431 351.158Z" fill="#FFB8B8"/>
<path d="M393.671 197.285L414.727 198.905C414.727 198.905 430.924 213.482 429.305 232.919C429.305 232.919 443.882 275.032 440.643 292.849C440.643 292.849 443.882 322.003 439.023 333.342C434.164 344.68 393.671 388.412 393.671 388.412C393.671 388.412 356.417 359.257 358.037 357.637L406.629 309.046L382.333 276.651L393.671 197.285Z" fill="#E6E6E6"/>
<path d="M255.995 185.947L255.185 186.757C255.185 186.757 218.741 202.144 220.361 221.581C220.361 221.581 205.784 263.694 209.023 281.511C209.023 281.511 205.784 310.665 210.643 322.004C215.502 333.342 255.995 377.074 255.995 377.074C255.995 377.074 293.248 347.919 291.629 346.299L243.037 297.708L267.333 265.313L255.995 185.947Z" fill="#E6E6E6"/>
</g>
<defs>
<clipPath id="clip0_317_203">
<rect width="719.769" height="687.25" fill="white"/>
</clipPath>
</defs>
</svg>
