<svg width="24" height="24" viewBox="0 0 24 24" fill="none" xmlns="http://www.w3.org/2000/svg">
<style>
        path {
            fill: withe;
        }

        @media (prefers-color-scheme: dark) {
            path {
                fill: black;
                stroke: black
                opacity: 0.5;
            }
        }
</style>
<rect x="0.5" y="0.5" width="23" height="23" fill="white" stroke="black"/>
<path d="M2.711 21H4.034V17.535C4.403 17.166 4.664 16.968 5.078 16.968C5.573 16.968 5.789 17.238 5.789 18.021V21H7.112V17.859C7.112 16.59 6.644 15.834 5.555 15.834C4.871 15.834 4.376 16.194 3.971 16.572L4.034 15.627V13.818H2.711V21ZM8.65684 23.547H9.52084V13.341H8.65684V23.547ZM12.2649 21H13.7949L15.4779 15.96H14.2089L13.4709 18.471C13.3359 18.966 13.2009 19.488 13.0659 20.001H13.0209C12.8859 19.488 12.7509 18.966 12.6159 18.471L11.8779 15.96H10.5459L12.2649 21ZM18.4422 21.126C19.0632 21.126 19.7022 20.91 20.1972 20.568L19.7472 19.758C19.3872 19.983 19.0272 20.109 18.6132 20.109C17.8662 20.109 17.3262 19.677 17.2182 18.849H20.3232C20.3592 18.732 20.3862 18.489 20.3862 18.237C20.3862 16.851 19.6662 15.834 18.2802 15.834C17.0832 15.834 15.9312 16.851 15.9312 18.48C15.9312 20.145 17.0292 21.126 18.4422 21.126ZM17.2002 17.967C17.2992 17.238 17.7672 16.86 18.2982 16.86C18.9462 16.86 19.2522 17.292 19.2522 17.967H17.2002Z" fill="black"/>
</svg>
