<svg width="571" height="474" viewBox="0 0 571 474" fill="none" xmlns="http://www.w3.org/2000/svg">
<rect x="5.5" y="5.5" width="559.651" height="463" fill="white" stroke="black" stroke-width="11"/>
<path d="M57.2416 332.805H91.0516V244.255C100.482 234.825 107.152 229.765 117.732 229.765C130.382 229.765 135.902 236.665 135.902 256.675V332.805H169.712V252.535C169.712 220.105 157.752 200.785 129.922 200.785C112.442 200.785 99.7916 209.985 89.4416 219.645L91.0516 195.495V149.265H57.2416V332.805ZM209.191 397.895H231.271V137.075H209.191V397.895ZM301.397 332.805H340.497L383.507 204.005H351.077L332.217 268.175C328.767 280.825 325.317 294.165 321.867 307.275H320.717C317.267 294.165 313.817 280.825 310.367 268.175L291.507 204.005H257.467L301.397 332.805ZM459.26 336.025C475.13 336.025 491.46 330.505 504.11 321.765L492.61 301.065C483.41 306.815 474.21 310.035 463.63 310.035C444.54 310.035 430.74 298.995 427.98 277.835H507.33C508.25 274.845 508.94 268.635 508.94 262.195C508.94 226.775 490.54 200.785 455.12 200.785C424.53 200.785 395.09 226.775 395.09 268.405C395.09 310.955 423.15 336.025 459.26 336.025ZM427.52 255.295C430.05 236.665 442.01 227.005 455.58 227.005C472.14 227.005 479.96 238.045 479.96 255.295H427.52Z" fill="black"/>
</svg>
