<svg width="24" height="24" viewBox="0 0 24 24" fill="none" xmlns="http://www.w3.org/2000/svg">
<path d="M23.5 0.5H0.5V23.5H23.5V0.5Z" stroke="black"/>
<path d="M2.71094 21.0001H4.03394V17.5351C4.40294 17.1661 4.66394 16.9681 5.07794 16.9681C5.57294 16.9681 5.78894 17.2381 5.78894 18.0211V21.0001H7.11194V17.8591C7.11194 16.5901 6.64394 15.8341 5.55494 15.8341C4.87094 15.8341 4.37594 16.1941 3.97094 16.5721L4.03394 15.6271V13.8181H2.71094V21.0001ZM8.65678 23.5471H9.52078V13.3411H8.65678V23.5471ZM12.2648 21.0001H13.7948L15.4778 15.9601H14.2088L13.4708 18.4711C13.3358 18.9661 13.2008 19.4881 13.0658 20.0011H13.0208C12.8858 19.4881 12.7508 18.9661 12.6158 18.4711L11.8778 15.9601H10.5458L12.2648 21.0001ZM18.4421 21.1261C19.0631 21.1261 19.7021 20.9101 20.1971 20.5681L19.7471 19.7581C19.3871 19.9831 19.0271 20.1091 18.6131 20.1091C17.8661 20.1091 17.3261 19.6771 17.2181 18.8491H20.3231C20.3591 18.7321 20.3861 18.4891 20.3861 18.2371C20.3861 16.8511 19.6661 15.8341 18.2801 15.8341C17.0831 15.8341 15.9311 16.8511 15.9311 18.4801C15.9311 20.1451 17.0291 21.1261 18.4421 21.1261ZM17.2001 17.9671C17.2991 17.2381 17.7671 16.8601 18.2981 16.8601C18.9461 16.8601 19.2521 17.2921 19.2521 17.9671H17.2001Z" fill="black"/>
</svg>
