<svg width="664" height="330" viewBox="0 0 664 330" fill="none" xmlns="http://www.w3.org/2000/svg">
<path d="M87.4832 240.041V79.8478L243.983 16.4678V177.148L87.4832 240.041Z" stroke="black" stroke-width="4"/>
<path d="M163.982 289.541V129.348L320.482 65.9678V226.648L163.982 289.541Z" stroke="black" stroke-width="4"/>
<line x1="245.066" y1="15.3191" x2="321.066" y2="64.3191" stroke="black" stroke-width="4"/>
<line x1="243.072" y1="176.323" x2="320.072" y2="226.323" stroke="black" stroke-width="4"/>
<line x1="87.0724" y1="79.3226" x2="164.072" y2="129.323" stroke="black" stroke-width="4"/>
<path d="M145.746 327.238L80.1452 280.987L229.259 221.245L297.685 266.075L145.746 327.238Z" stroke="black" stroke-width="4"/>
<path d="M70.8525 104.699L139.352 149.579L139.353 301.168L70.8525 253.454L70.8525 104.699Z" stroke="black" stroke-width="4"/>
<path d="M366.1 228V105.5H372.4V163.6H445.55V105.5H451.85V228H445.55V169.55H372.4V228H366.1ZM507.47 228L473.17 105.5H479.47L512.02 222.05H523.22L555.77 105.5H562.07L527.77 228H507.47ZM583.483 228V105.5H655.058V111.45H589.783V162.375H644.558V168.325H589.783V222.05H655.058V228H583.483Z" fill="black"/>
</svg>
