<svg width="24" height="24" viewBox="0 0 24 24" fill="none" xmlns="http://www.w3.org/2000/svg">
<path d="M23.5 0.5H0.5V23.5H23.5V0.5Z" stroke="#3F3D56"/>
<path d="M2.71094 21H4.03394V17.535C4.40294 17.166 4.66394 16.968 5.07794 16.968C5.57294 16.968 5.78894 17.238 5.78894 18.021V21H7.11194V17.859C7.11194 16.59 6.64394 15.834 5.55494 15.834C4.87094 15.834 4.37594 16.194 3.97094 16.572L4.03394 15.627V13.818H2.71094V21ZM8.65678 23.547H9.52078V13.341H8.65678V23.547ZM12.2648 21H13.7948L15.4778 15.96H14.2088L13.4708 18.471C13.3358 18.966 13.2008 19.488 13.0658 20.001H13.0208C12.8858 19.488 12.7508 18.966 12.6158 18.471L11.8778 15.96H10.5458L12.2648 21ZM18.4421 21.126C19.0631 21.126 19.7021 20.91 20.1971 20.568L19.7471 19.758C19.3871 19.983 19.0271 20.109 18.6131 20.109C17.8661 20.109 17.3261 19.677 17.2181 18.849H20.3231C20.3591 18.732 20.3861 18.489 20.3861 18.237C20.3861 16.851 19.6661 15.834 18.2801 15.834C17.0831 15.834 15.9311 16.851 15.9311 18.48C15.9311 20.145 17.0291 21.126 18.4421 21.126ZM17.2001 17.967C17.2991 17.238 17.7671 16.86 18.2981 16.86C18.9461 16.86 19.2521 17.292 19.2521 17.967H17.2001Z" fill="#3F3D56"/>
</svg>
