<svg width="24" height="24" viewBox="0 0 24 24" fill="none" xmlns="http://www.w3.org/2000/svg">
<g clip-path="url(#clip0_314_5)">
<path d="M23.5 0.5H0.5V23.5H23.5V0.5Z" stroke="#3F3D56"/>
<path d="M4.88 12.616V16.624C5.08 16.256 5.344 15.996 5.672 15.844C6.008 15.692 6.392 15.616 6.824 15.616C7.176 15.616 7.456 15.66 7.664 15.748C7.88 15.836 8.044 15.948 8.156 16.084C8.284 16.236 8.376 16.432 8.432 16.672C8.488 16.912 8.516 17.236 8.516 17.644V20.884C8.516 21.22 8.568 21.448 8.672 21.568C8.784 21.688 8.972 21.748 9.236 21.748V22C9.084 21.992 8.848 21.984 8.528 21.976C8.216 21.96 7.908 21.952 7.604 21.952C7.284 21.952 6.972 21.96 6.668 21.976C6.364 21.984 6.132 21.992 5.972 22V21.748C6.196 21.748 6.352 21.688 6.44 21.568C6.528 21.448 6.572 21.22 6.572 20.884V17.068C6.572 16.884 6.552 16.728 6.512 16.6C6.472 16.464 6.404 16.364 6.308 16.3C6.22 16.228 6.088 16.192 5.912 16.192C5.728 16.192 5.556 16.24 5.396 16.336C5.244 16.424 5.12 16.556 5.024 16.732C4.928 16.9 4.88 17.096 4.88 17.32V20.884C4.88 21.22 4.924 21.448 5.012 21.568C5.108 21.688 5.264 21.748 5.48 21.748V22C5.336 21.992 5.12 21.984 4.832 21.976C4.544 21.96 4.248 21.952 3.944 21.952C3.624 21.952 3.296 21.96 2.96 21.976C2.632 21.984 2.384 21.992 2.216 22V21.748C2.48 21.748 2.664 21.688 2.768 21.568C2.88 21.448 2.936 21.22 2.936 20.884V14.056C2.936 13.696 2.884 13.432 2.78 13.264C2.684 13.088 2.496 13 2.216 13V12.748C2.472 12.772 2.72 12.784 2.96 12.784C3.328 12.784 3.672 12.772 3.992 12.748C4.312 12.716 4.608 12.672 4.88 12.616ZM15.4102 15.784V16.036C15.2582 16.084 15.1142 16.184 14.9782 16.336C14.8422 16.488 14.7062 16.752 14.5702 17.128L12.8782 22.012C12.7182 21.996 12.5582 21.988 12.3982 21.988C12.2382 21.988 12.0742 21.996 11.9062 22.012L9.79419 16.708C9.67419 16.404 9.55019 16.216 9.42219 16.144C9.29419 16.072 9.18619 16.036 9.09819 16.036V15.784C9.38619 15.8 9.68619 15.816 9.99819 15.832C10.3102 15.84 10.6502 15.844 11.0182 15.844C11.2662 15.844 11.5262 15.84 11.7982 15.832C12.0782 15.816 12.3382 15.8 12.5782 15.784V16.036C12.4262 16.036 12.2862 16.044 12.1582 16.06C12.0382 16.076 11.9502 16.12 11.8942 16.192C11.8462 16.264 11.8502 16.396 11.9062 16.588L13.2742 20.32L13.1422 20.524L13.9462 18.208C14.1142 17.72 14.1862 17.32 14.1622 17.008C14.1382 16.696 14.0462 16.46 13.8862 16.3C13.7342 16.14 13.5302 16.052 13.2742 16.036V15.784C13.3942 15.792 13.5262 15.8 13.6702 15.808C13.8222 15.816 13.9702 15.824 14.1142 15.832C14.2662 15.832 14.3902 15.832 14.4862 15.832C14.6382 15.832 14.8062 15.828 14.9902 15.82C15.1742 15.812 15.3142 15.8 15.4102 15.784ZM18.627 15.616C19.331 15.616 19.883 15.824 20.283 16.24C20.683 16.656 20.883 17.34 20.883 18.292H17.031L17.019 18.064H19.251C19.267 17.672 19.251 17.312 19.203 16.984C19.155 16.648 19.075 16.38 18.963 16.18C18.859 15.98 18.719 15.88 18.543 15.88C18.303 15.88 18.099 16.052 17.931 16.396C17.763 16.74 17.659 17.324 17.619 18.148L17.667 18.232C17.651 18.32 17.643 18.412 17.643 18.508C17.643 18.596 17.643 18.692 17.643 18.796C17.643 19.348 17.715 19.788 17.859 20.116C18.011 20.444 18.199 20.676 18.423 20.812C18.647 20.948 18.879 21.016 19.119 21.016C19.255 21.016 19.407 20.996 19.575 20.956C19.743 20.916 19.919 20.832 20.103 20.704C20.287 20.576 20.463 20.388 20.631 20.14L20.835 20.212C20.747 20.524 20.595 20.832 20.379 21.136C20.171 21.432 19.903 21.68 19.575 21.88C19.247 22.072 18.851 22.168 18.387 22.168C17.859 22.168 17.387 22.06 16.971 21.844C16.555 21.62 16.223 21.272 15.975 20.8C15.735 20.32 15.615 19.696 15.615 18.928C15.615 18.168 15.747 17.544 16.011 17.056C16.275 16.568 16.635 16.208 17.091 15.976C17.547 15.736 18.059 15.616 18.627 15.616Z" fill="#3F3D56"/>
</g>
<defs>
<clipPath id="clip0_314_5">
<rect width="24" height="24" fill="white"/>
</clipPath>
</defs>
</svg>
