<svg width="835" height="487" viewBox="0 0 835 487" fill="none" xmlns="http://www.w3.org/2000/svg">
<g clip-path="url(#clip0_317_62)">
<path d="M332.891 105.106C314.867 105.103 300.143 108.718 284.258 116.915C277.422 120.443 269.685 124.504 262.151 126.174C256.859 127.347 251.944 126.7 246.692 127.067C242.277 127.375 227.062 128.6 232.032 136.411C234.261 139.916 241.798 140.573 245.308 142.298C242.799 149.329 221.076 148.825 221.654 158.263C222.016 164.168 228.789 158.97 231.608 161.786C235.103 165.274 228.005 170.212 226.015 172.594C224.926 173.895 221.56 177.835 222.001 179.795C222.725 183.022 225.892 181.214 227.582 182.605C231.019 185.432 227.816 188.607 226.452 192.021C225.603 194.148 224.075 198.019 223.934 200.214C223.831 201.827 225.331 203.153 224.965 204.995C224.569 206.985 222.155 208.996 221.02 210.665C217.307 216.126 215.173 222.919 215.315 229.365C215.374 232.06 216.465 234.973 215.135 237.216C220.635 241.333 226.183 245.807 231.811 249.923C243.556 258.515 254.624 256.694 268.193 259.001C292.658 263.164 315.619 267.628 340.635 266.438C370.111 265.036 399.203 261.914 428.199 255.894C437.724 253.916 452.631 251.834 459.619 244.258C463.17 240.407 467.055 232.286 466.577 226.955C465.952 219.986 460.724 213.968 457.496 208.061C456.27 205.821 455.12 204.256 455.094 201.635C455.072 199.458 456.91 197.647 456.467 195.376C455.135 188.546 445.127 187.653 453.318 182.037C455.745 180.372 457.719 181.491 458 178.012C458.266 174.702 453.536 172.122 451.778 169.894C445.313 161.701 456.42 165.609 458.941 160.025C461.953 153.353 451.549 152.183 447.724 150.312C446.123 149.53 436.386 144.176 436.525 142.68C436.846 139.217 446.288 139.686 448.467 136.947C452.763 131.548 443.521 128.864 439.106 127.92C426.326 125.185 413.626 122.803 400.888 119.707C391.181 117.348 384.031 111.509 374.98 107.834C362.471 102.751 348.96 103.528 332.891 105.106Z" fill="#FEC368"/>
<path d="M206.384 251.587C194.513 251.901 181.822 249.885 170.256 247.41C162.706 245.795 152.17 241.494 145.039 246.436C146.641 249.047 154.664 251.935 152.632 254.92C150.934 257.415 138.412 258.225 135.23 259.476C133.707 260.074 126.953 262.046 126.225 263.715C124.962 266.608 127.769 266.17 129.359 268.233C133.737 273.909 127.344 273.123 122.284 274.392C118.311 275.389 105.195 280.878 105.115 285.946C105.014 292.443 116.664 286.258 118.638 291.758C119.902 295.278 91.9997 320.766 109.076 317.606C114.347 316.631 122.713 310.178 125.672 316.838C127.714 321.434 125.633 327.898 127.412 332.804C133.578 349.812 149.684 330.116 159.558 335.745C164.316 338.458 160.57 343.954 162.249 348.034C164.64 353.843 171.381 350.891 175.754 349.151C188.86 343.936 182.921 359.01 193.028 361.867C199.38 363.663 204.7 356.653 210.556 356.217C216.72 355.759 218.194 357.686 220.757 362.434C227.298 374.554 236.363 363.038 245.344 366.837C249.187 368.463 250.294 374.204 254.153 375.714C258.7 377.492 264.878 373.141 269.636 373.312C275.345 373.517 279.532 377.203 285.214 377.985C291.63 378.868 297.975 379.34 304.403 380.245C319.278 382.338 332.879 383.048 347.764 381.04C363.163 378.963 378.722 381.346 393.774 378.199C404.204 376.018 414.419 376.002 424.79 374.491C428.58 373.94 430.496 371.884 433.874 370.532C438.597 368.641 441.65 370.821 446.197 370.89C450.011 370.948 453.361 368.561 455.587 365.634C457.702 362.855 458.895 358.396 462.37 356.645C467.314 354.155 469.899 358.265 473.892 360.27C477.509 362.087 482.538 362.721 486.388 361.018C491.749 358.644 491.152 353.249 494.569 350.096C501.161 344.013 510.35 361.85 516.512 346.847C518.654 341.63 516.407 336.725 523.34 335.759C528.295 335.07 532.042 338.369 536.322 340.07C541.514 342.132 547.997 340.938 551.666 336.147C555.211 331.519 552.661 327.739 551.637 322.66C547.888 304.062 567.373 320.381 575.836 316.207C584.526 311.921 564.144 299.034 562.647 294.855C560.216 288.066 583.429 292.525 573.558 282.371C567.247 275.879 553.926 278.727 547.766 273.039C550.502 268.537 561.261 266.777 553.731 261.593C546.125 256.357 534.685 257.942 526.34 255.914C525.993 250.662 539.564 249.636 535.878 244.421C533.485 241.034 521.106 244.463 518.094 245.036C507.741 247.007 497.298 248.468 486.954 250.496C481.417 251.581 475.805 252.221 473.997 258.123C470.816 268.503 478.257 280.779 468.574 289.053C457.933 298.146 440.48 302.994 427.475 306.863C414.304 310.782 400.51 313.28 386.888 315.102C369.637 317.407 352.237 315.878 334.876 315.81C316.246 315.737 297.496 315.453 279.131 311.987C254.523 307.343 202.946 304.02 205.405 267.895C205.668 264.087 209.121 255.724 206.384 251.587Z" fill="#FEC368"/>
<path d="M355.681 266.65C345.069 266.129 334.428 267.839 323.746 267.167C313.885 266.547 304.159 264.318 294.391 262.951C275.139 260.256 254.294 257.028 236.526 248.763C233.456 247.335 230.56 245.582 227.593 243.962C224.716 242.392 222.919 240.043 220.252 238.299C214.717 234.678 210.633 238.655 209.061 244.548C206.654 253.571 205.814 264.245 205.625 273.522C205.404 284.448 209.619 286.961 219.031 291.167C246.567 303.472 274.961 313.561 305.408 314.685C321.923 315.295 338.304 317.055 354.834 316.393C371.545 315.724 387.915 312.839 404.497 310.861C427.194 308.154 454.752 302.741 470.54 284.507C478.605 275.192 475.399 258.076 472.92 247.005C471.942 242.637 472.75 236.807 466.692 238.487C462.015 239.786 457.146 243.288 452.528 245.162C445.712 247.927 439.226 251.239 432.289 253.741C420.102 258.138 408.058 258.277 395.451 260.097C382.507 261.967 369.956 265.687 355.681 266.65Z" fill="#A82232"/>
<path d="M217.422 326.685C215.335 329.766 211.423 332.967 207.863 330.51C205.531 328.899 205.903 326.54 204.834 324.142C204.093 322.48 201.988 322.744 200.846 323.628C198.84 325.18 196.147 329.522 193.521 325.625C192.127 323.558 193.111 319.615 192.838 317.238C192.669 315.773 191.776 314.716 190.229 314.63C186.244 314.407 183.81 318.606 180.657 320.34C178.235 321.671 175.952 321.058 175.588 318.012C175.456 316.908 175.975 314.353 176.215 313.444C176.866 310.97 178.586 309.307 178.5 306.681C178.443 304.961 176.933 303.898 175.294 304.238C172.951 304.726 170.829 305.858 168.472 306.353C166.89 306.685 163.592 307.532 162.059 306.729C160.201 305.755 160.459 305.742 161.811 303.924C164.679 300.069 168.636 297.865 172.429 295.184C173.795 294.219 173.977 291.438 171.898 291.121C166.972 290.366 161.824 291.229 156.842 291.056C154.291 290.967 151.712 290.846 149.163 290.68C147.639 290.581 144.971 290.726 144.547 288.942C144.125 287.162 146.395 285.497 147.775 284.515C151.87 281.597 157.377 279.976 162.357 279.034C164.595 278.83 166.838 278.633 169.092 278.678C173.231 278.763 178.501 280.326 182.516 279.31C183.865 278.968 184.179 276.944 182.913 276.278C179.027 274.233 172.509 274.933 168.297 275.036C165.235 275.11 162.529 275.378 159.916 276.185C159.365 276.291 158.81 276.41 158.251 276.55C152.249 278.064 145.154 280.28 141.527 285.707C135.417 294.848 153.466 295.233 164.037 295.254C159.628 298.247 155.236 302.113 155.585 306.864C156.115 314.061 165.526 312.077 171.976 310.35C171.815 310.669 171.668 310.988 171.567 311.307C171.014 313.062 170.797 314.954 170.605 316.783C170.279 319.89 170.461 323.164 173.157 325.223C175.701 327.166 178.809 326.764 181.615 325.619C183.149 324.993 185.726 322.407 187.838 320.917C187.959 325.285 188.018 329.596 192.378 332.333C194.552 333.698 196.989 333.827 199.294 332.743C200.43 332.21 201.142 331.52 201.734 330.759C202.023 331.802 202.399 332.826 203.15 333.762C204.573 335.532 206.377 336.34 208.624 336.562C214.415 337.134 218.803 333.975 221.194 328.892C222.387 326.354 219.013 324.336 217.422 326.685Z" fill="black"/>
<path d="M258.775 188.716C258.125 189.219 257.511 189.719 256.985 190.222C255.261 191.87 253.64 193.621 252.211 195.533C249.77 198.798 247.231 203.256 249.065 207.395C250.453 210.527 253.505 211.504 256.71 210.852C258.117 210.566 259.412 209.982 260.641 209.279C257.395 215.53 254.019 223.055 258.599 228.201C261.419 231.37 265.629 230.595 268.767 228.346C270.752 226.922 272.188 225.018 273.555 223.027C273.563 223.016 273.575 222.995 273.584 222.98C273.054 226.735 272.973 230.413 277.159 231.88C283.184 233.993 288.69 228.406 292.066 224.359C293.771 222.315 291.161 219.641 289.129 221.422C287.934 222.469 286.749 223.561 285.494 224.538C284.229 225.673 282.785 226.485 281.157 226.976C279.639 227.863 278.773 227.414 278.559 225.628C276.591 223.015 278.929 218.462 278.519 215.275C278.337 213.87 277.218 212.646 275.661 213.099C272.411 214.043 265.12 228.796 261.984 222.731C261.085 220.993 263.279 216.024 263.878 214.353C265.16 210.778 267.321 207.659 268.628 204.124C269.123 202.786 268.059 201.544 266.909 201.095C263.175 199.638 255.383 209.885 253.108 204.454C251.798 201.329 258.259 195.203 260.139 193.376C262.709 190.877 266.155 189.011 268.104 185.974C269.155 184.337 267.415 182.181 265.597 182.712C261.415 183.935 257.171 185.299 252.768 185.295C250.324 185.292 249.418 185.674 249.149 183.067C248.858 180.253 251.192 179.595 253.291 178.359C261.336 173.617 269.432 169.911 278.886 169.222C280.567 169.099 280.611 166.587 278.886 166.572C271.144 166.506 263.79 168.362 256.873 171.83C252.512 174.017 246.057 176.558 243.959 181.373C240.175 190.058 250.627 189.985 258.775 188.716Z" fill="black"/>
<path d="M279.674 196.734C281.929 197.65 283.724 196.963 285.653 196.347C284.678 202.206 284.074 210.87 291.559 210.756C296.868 210.674 300.901 202.963 301.524 198.425C301.749 196.779 299.864 195.179 298.471 196.648C296.676 198.543 295.734 201.12 294.277 203.261C292.812 205.411 290.918 207.168 289.349 203.45C288.178 200.673 289.76 196.95 290.282 194.191C290.505 193.011 289.727 191.378 288.268 191.548C284.885 191.943 278.921 195.898 281.15 188.145C282.27 184.253 286.889 180.526 290.145 178.539C291.377 177.788 290.272 175.886 289.013 176.602C284.05 179.424 276.353 184.966 276.202 191.47C276.148 193.861 277.484 195.844 279.674 196.734Z" fill="black"/>
<path d="M583.976 315.497C583.391 306.868 575.662 300.811 568.747 295.365C569.078 295.339 569.408 295.311 569.738 295.273C572.468 294.959 575.252 294.39 577.603 292.895C581.672 290.306 583.142 285.171 579.783 281.342C576.054 277.088 569.887 274.115 564.602 272.477C562.002 271.671 559.298 270.949 556.559 270.318C557.684 269.685 558.708 268.906 559.499 267.828C563.327 262.605 557.356 259.448 553.298 257.738C546.89 255.037 540.157 253.253 533.218 252.621C534.315 251.834 535.325 251.03 536.038 250.544C539.946 247.878 543.393 242.648 537.584 239.486C532.572 236.759 525.23 237.348 519.927 238.564C512.228 240.33 505.089 243.773 497.193 244.9C495.793 245.1 494.414 245.353 493.041 245.621C490.928 245.776 488.806 245.916 486.708 245.912C483.396 245.906 480.065 245.366 476.854 246.129C476.471 243.704 475.869 241.371 474.829 239.272C474.075 237.753 472.825 235.813 471.278 234.463C472.642 229.802 472.069 224.735 469.905 219.814C467.975 215.428 465.508 211.249 462.746 207.343C461.736 205.913 460.722 204.496 459.73 203.061C461.219 201.815 461.886 199.683 461.016 196.54C460.065 193.108 457.738 190.316 455.7 187.487C455.635 187.398 455.577 187.304 455.513 187.214C455.907 187.21 456.296 187.198 456.669 187.174C460.147 186.955 463.705 185.364 464.793 181.766C466.574 175.878 461.152 170.351 455.748 165.997C457.525 165.615 459.284 165.14 460.717 163.967C464.047 161.243 463.457 156.933 461.177 153.722C458.223 149.564 453.085 147.126 448.526 145.208C446.009 144.15 443.443 143.179 440.863 142.282C440.629 142.201 440.327 142.132 439.987 142.069C440.771 141.927 441.49 141.793 442.043 141.636C444.506 140.935 446.999 140.17 449.361 139.189C453.394 137.515 456.005 133.493 453.236 129.343C450.146 124.711 441.925 123.458 436.865 122.965C429.818 122.278 422.877 121.459 415.878 120.344C402.652 118.235 392.18 108.386 379.592 104.277C377.488 103.591 375.366 102.983 373.227 102.454C360.46 98.0119 346.558 97.8988 332.817 98.7444C328.328 99.0211 323.935 99.6917 319.575 100.544C313.366 100.986 307.321 102.347 301.408 104.277C288.82 108.386 278.348 118.235 265.122 120.344C258.123 121.459 251.182 122.278 244.134 122.965C239.075 123.458 230.854 124.711 227.764 129.343C224.995 133.493 227.606 137.515 231.639 139.189C234.001 140.17 236.494 140.935 238.957 141.636C239.51 141.793 240.229 141.927 241.013 142.069C240.673 142.132 240.371 142.201 240.137 142.282C237.557 143.179 234.991 144.15 232.474 145.208C227.915 147.126 222.777 149.564 219.823 153.722C217.543 156.933 216.953 161.243 220.283 163.967C221.716 165.139 223.475 165.615 225.252 165.997C219.847 170.351 214.426 175.878 216.207 181.766C217.295 185.364 220.853 186.955 224.331 187.174C224.704 187.198 225.093 187.21 225.487 187.214C225.423 187.305 225.365 187.398 225.3 187.487C223.262 190.316 220.935 193.109 219.984 196.54C219.114 199.682 219.781 201.815 221.27 203.061C220.279 204.496 219.265 205.913 218.255 207.343C215.494 211.249 213.026 215.429 211.096 219.814C208.931 224.735 208.359 229.802 209.723 234.463C208.176 235.813 206.925 237.753 206.172 239.272C205.132 241.371 204.529 243.704 204.147 246.129C200.936 245.366 197.605 245.906 194.293 245.912C192.194 245.916 190.073 245.776 187.96 245.621C186.586 245.353 185.208 245.1 183.808 244.9C175.912 243.773 168.773 240.331 161.074 238.564C155.771 237.348 148.429 236.759 143.417 239.486C137.608 242.647 141.055 247.878 144.963 250.544C145.676 251.031 146.686 251.834 147.783 252.621C140.843 253.253 134.111 255.037 127.703 257.738C123.645 259.448 117.675 262.605 121.502 267.828C122.293 268.906 123.317 269.686 124.442 270.318C121.703 270.948 119 271.671 116.399 272.477C111.114 274.115 104.947 277.088 101.218 281.342C97.8589 285.171 99.3294 290.307 103.398 292.895C105.748 294.39 108.533 294.959 111.263 295.273C111.593 295.311 111.923 295.339 112.254 295.365C105.34 300.81 97.6107 306.868 97.0247 315.497C96.591 321.887 102.006 325.238 107.874 324.39C111.51 323.865 115.109 322.946 118.664 322.037C120.623 321.535 122.585 321.046 124.546 320.55C123.984 321.938 123.465 323.335 123.146 324.761C122.209 328.949 122.073 333.397 123.85 337.391C127.367 345.3 138.235 345.98 145.58 344.153C147.739 343.617 149.818 342.849 151.873 342.011C153.035 341.538 157.41 339.086 157.783 339.17L157.835 338.72C157.844 339.262 157.858 339.804 157.877 340.345C157.928 341.238 157.93 342.135 157.984 343.028C158.116 345.264 158.319 347.405 159.393 349.421C163.784 357.665 173.475 357.26 180.971 354.32C181.42 354.144 181.874 353.943 182.334 353.757C182.397 354.013 182.475 354.355 182.563 354.834C182.883 356.582 183.945 358.701 184.934 360.155C187.449 363.851 191.561 366.043 195.889 366.733C200.503 367.47 205.185 366.721 209.344 364.615C210.966 363.794 213.72 361.094 215.577 360.913C215.852 360.886 215.97 360.779 216.005 360.648C216.161 360.897 216.384 361.226 216.72 361.68C217.515 362.755 217.754 364.573 218.333 365.786C222.066 373.601 230.14 376.758 238.258 374.117C239.652 373.664 242.508 372.028 243.988 372.467C244.457 372.606 246.344 375.345 247.215 376.206C250.581 379.531 254.924 381.279 259.662 381.279C262.417 381.28 265.146 380.653 267.718 379.712C269.831 378.939 272.408 377.593 274.743 377.979C277.278 378.399 279.612 380.369 281.97 381.414C284.567 382.565 287.111 383.335 289.932 383.7C291.007 383.839 292.073 383.915 293.136 383.97C294.602 384.151 296.059 384.266 297.474 384.336C298.517 384.387 299.578 384.302 300.639 384.21C302.313 384.3 303.992 384.458 305.687 384.803C306.766 385.023 307.848 385.214 308.931 385.377C309.537 385.639 310.143 385.91 310.759 386.167C314.475 387.716 318.092 388.842 322.172 388.645C326.449 388.437 329.729 386.635 333.733 385.675C337.745 384.713 342.881 386.277 346.843 387.056C351.432 387.958 355.2 386.487 359.702 385.948C360.909 385.803 362.099 385.707 363.276 385.602C367.266 386.146 371.315 385.619 375.317 384.804C380.612 383.724 385.75 384.391 391.071 383.7C393.891 383.334 396.436 382.565 399.032 381.414C401.39 380.369 403.725 378.399 406.26 377.979C408.595 377.592 411.172 378.938 413.285 379.712C415.857 380.654 418.586 381.28 421.34 381.279C426.08 381.278 430.422 379.53 433.788 376.206C434.659 375.344 436.546 372.606 437.015 372.467C438.495 372.028 441.351 373.664 442.745 374.117C450.863 376.758 458.936 373.602 462.67 365.786C463.249 364.573 463.488 362.755 464.284 361.68C464.62 361.226 464.842 360.897 464.998 360.648C465.034 360.778 465.153 360.886 465.426 360.913C467.284 361.094 470.038 363.794 471.659 364.615C475.819 366.721 480.501 367.47 485.115 366.733C489.443 366.043 493.554 363.851 496.07 360.155C497.06 358.701 498.121 356.582 498.441 354.834C498.528 354.355 498.606 354.013 498.671 353.757C499.13 353.944 499.585 354.145 500.034 354.32C507.53 357.26 517.221 357.665 521.611 349.421C522.685 347.405 522.889 345.264 523.021 343.028C523.074 342.135 523.075 341.238 523.128 340.345C523.147 339.804 523.161 339.261 523.169 338.72L523.222 339.17C523.595 339.086 527.97 341.538 529.131 342.011C531.186 342.849 533.266 343.617 535.424 344.153C542.77 345.98 553.638 345.3 557.155 337.391C558.932 333.397 558.795 328.948 557.859 324.761C557.54 323.334 557.02 321.937 556.459 320.55C558.419 321.046 560.381 321.535 562.341 322.037C565.895 322.946 569.496 323.865 573.131 324.39C578.996 325.238 584.41 321.887 583.976 315.497ZM223.172 217.671C224.705 214.666 226.489 211.819 228.176 208.902C229.559 206.51 231.41 204.1 232.505 201.615C233.564 199.213 232.281 195.737 229.713 195.301C230.345 194.211 230.893 192.937 231.437 191.942C232.829 189.401 233.534 186.158 235.841 184.264C237.364 183.014 236.935 180.712 235.841 179.403C234.345 177.613 232.452 177.155 230.205 177.168C229.975 177.169 229.547 177.155 229.085 177.15C230.564 175.302 232.308 173.044 232.65 172.674C234.835 170.306 237.199 168.156 239.089 165.544C240.341 163.81 239.498 160.671 237.575 159.772C234.907 158.524 232.651 158.945 229.825 158.747C227.35 158.575 225.288 159.103 227.142 156.797C228.368 155.273 230.693 154.146 232.378 153.192C238.022 149.994 245.486 148.402 250.441 144.178C251.497 143.278 251.234 141.678 250.441 140.742C248.156 138.048 244.188 138.021 241.017 137.037C239.514 136.57 238.096 135.935 236.638 135.357C236.234 135.15 235.829 134.944 235.423 134.741C235.401 134.727 235.393 134.724 235.372 134.711C236.976 133.358 242.315 133.381 244.132 133.257C255.126 132.501 266.41 131.382 276.408 126.465C284.288 122.589 291.034 117.401 298.71 113.506C300.748 112.885 302.804 112.332 304.87 111.944C314.28 110.176 324.165 108.722 333.739 108.774C342.556 108.821 351.402 108.721 360.107 109.807C366.737 110.633 374.174 113.04 381.081 112.912C389.263 116.86 396.299 122.388 404.588 126.465C414.585 131.383 425.869 132.501 436.865 133.257C438.681 133.381 444.021 133.358 445.624 134.711C445.604 134.724 445.595 134.727 445.574 134.741C445.168 134.945 444.763 135.151 444.359 135.357C442.901 135.934 441.483 136.57 439.98 137.037C436.808 138.022 432.84 138.048 430.556 140.742C429.763 141.678 429.501 143.278 430.556 144.178C435.511 148.402 442.976 149.994 448.619 153.192C450.304 154.147 452.629 155.273 453.855 156.797C455.709 159.103 453.647 158.575 451.173 158.747C448.346 158.944 446.091 158.524 443.423 159.772C441.501 160.671 440.657 163.81 441.91 165.544C443.8 168.157 446.163 170.307 448.348 172.674C448.691 173.044 450.434 175.302 451.912 177.15C451.45 177.155 451.023 177.169 450.792 177.168C448.546 177.155 446.652 177.613 445.156 179.403C444.062 180.712 443.633 183.013 445.156 184.264C447.464 186.158 448.168 189.401 449.56 191.942C450.105 192.937 450.652 194.211 451.284 195.301C448.716 195.737 447.432 199.212 448.492 201.615C449.588 204.101 451.438 206.51 452.821 208.902C454.508 211.819 456.293 214.666 457.826 217.671C460.34 222.599 462.33 227.081 461.057 231.781C459.289 235.244 456.479 238.466 453.429 240.501C449.371 243.21 445.294 245.527 440.469 246.483C435.087 247.548 429.734 248.49 424.475 250.102C418.735 251.862 413.737 253.393 407.713 253.775C402.831 254.084 398.068 254.906 393.526 256.736C390.607 257.912 387.573 258.897 384.484 259.641C375.816 259.805 367.143 260.808 358.532 261.397C346.093 262.25 333.239 262.123 320.819 261.417C317.095 261.206 313.172 261.215 309.323 261.299C307.48 261.156 305.619 261.091 303.809 260.908C298.222 260.344 292.665 258.829 287.469 256.735C282.926 254.905 278.164 254.083 273.282 253.774C267.259 253.392 262.26 251.86 256.521 250.101C251.262 248.489 245.908 247.547 240.527 246.482C235.701 245.526 231.625 243.209 227.566 240.5C224.517 238.465 221.706 235.244 219.938 231.78C218.668 227.082 220.658 222.6 223.172 217.671ZM209.725 268.166C210.296 262.243 210.95 256.325 211.167 250.363C211.291 246.942 211.484 243.816 212.944 240.663C213.352 241.185 213.781 241.7 214.255 242.2C214.51 242.468 214.782 242.691 215.066 242.879C215.069 242.884 215.073 242.889 215.077 242.894C222.787 251.77 232.115 256.055 243.532 258.289C249.534 259.463 255.375 261.106 261.334 262.438C264.174 263.072 266.983 263.203 269.793 263.205C274.103 264.233 278.617 264.478 282.983 265.119C294.638 266.83 305.607 269.744 317.457 269.888C323.705 269.965 329.908 270.607 336.211 270.603C343.327 270.598 350.511 270.896 357.609 270.365C370.373 269.411 383.462 269.329 395.695 265.186C396.544 264.899 397.085 264.353 397.364 263.72C398.744 263.494 400.125 263.314 401.506 263.232C407.64 262.87 413.58 263.798 419.664 262.438C425.622 261.106 431.464 259.463 437.466 258.289C448.884 256.055 458.211 251.769 465.921 242.894C465.925 242.889 465.929 242.884 465.933 242.879C466.217 242.691 466.489 242.468 466.744 242.2C467.218 241.699 467.648 241.184 468.055 240.663C469.516 243.816 469.709 246.941 469.832 250.363C470.049 256.326 470.703 262.243 471.274 268.166C471.91 274.749 472.137 279.796 467.065 284.557C462.947 288.422 457.494 291.261 452.353 293.503C440.386 298.723 427.96 302.449 415 304.311C401.285 306.281 387.158 307.743 373.625 310.731C368.923 310.883 364.215 310.922 359.549 311.401C353.114 312.061 346.208 312.093 339.739 311.847C333.217 311.598 326.793 311.515 320.257 311.384C316.259 311.305 312.217 311.154 308.163 310.939C308.038 310.894 307.916 310.845 307.78 310.815C294.124 307.767 279.849 306.3 265.998 304.31C253.039 302.447 240.612 298.721 228.645 293.502C223.503 291.26 218.05 288.421 213.933 284.556C208.862 279.797 209.089 274.749 209.725 268.166ZM570.199 312.64C568.535 312.31 566.886 311.911 565.236 311.523C560.458 310.4 554.132 307.981 549.156 309.088C543.632 310.317 543.889 315.347 545.536 319.41C546.673 322.213 547.854 325.534 548.134 328.58C548.419 331.686 548.037 333.423 544.996 334.254C539.1 335.865 534.196 333.242 528.621 331.89C524.148 330.805 518.24 329.77 515.503 334.5C513.442 338.062 515.61 345.404 510.19 346.082C504.879 346.747 500.406 341.182 494.932 343.192C488.872 345.417 490.445 353.306 485.417 355.751C478.881 358.929 472.462 351.552 466.471 350.36C461.795 349.431 458.09 351.685 455.981 355.814C454.607 358.507 453.892 362.382 450.981 363.869C448.594 365.089 446.469 363.735 444.149 362.963C439.609 361.452 433.688 360.143 429.752 363.774C427.73 365.639 426.845 368.701 424.172 369.887C420.957 371.314 417.701 369.535 414.672 368.602C409.86 367.121 404.338 366.899 399.909 369.503C396.362 371.59 393.361 373.713 389.136 374.26C386.118 374.651 383.077 374.276 380.051 374.482C377.334 374.666 374.681 375.367 372.024 375.977C368.171 374.092 363.93 374.122 359.7 374.492C355.828 374.831 352.237 376.233 348.399 375.696C344.132 375.1 339.626 373.926 335.293 374.05C331.123 374.169 327.922 376.628 323.985 377.524C323.616 377.608 323.257 377.669 322.903 377.719C321.988 376.831 320.65 376.335 319.006 376.663C317.998 376.864 317.003 376.944 316.014 376.951C314.623 376.514 313.216 375.978 311.696 375.472C308.488 374.405 305.681 374.354 302.562 374.654C302.026 374.581 301.489 374.518 300.949 374.482C297.922 374.275 294.882 374.651 291.864 374.26C287.639 373.713 284.638 371.59 281.091 369.503C276.662 366.899 271.141 367.121 266.328 368.602C263.299 369.535 260.044 371.314 256.828 369.887C254.155 368.702 253.271 365.639 251.249 363.774C247.312 360.143 241.392 361.453 236.852 362.963C234.532 363.734 232.407 365.088 230.02 363.869C227.108 362.382 226.394 358.507 225.02 355.814C222.912 351.684 219.206 349.43 214.53 350.36C208.539 351.551 202.12 358.929 195.584 355.751C190.555 353.307 192.129 345.417 186.069 343.192C180.595 341.182 176.122 346.747 170.811 346.082C165.39 345.403 167.559 338.061 165.498 334.5C162.76 329.77 156.853 330.805 152.38 331.89C146.805 333.242 141.901 335.866 136.005 334.254C132.965 333.423 132.582 331.686 132.867 328.58C133.147 325.533 134.328 322.213 135.465 319.41C137.112 315.348 137.369 310.317 131.845 309.088C126.87 307.981 120.543 310.399 115.765 311.523C114.114 311.911 112.465 312.309 110.802 312.64C110.516 312.695 110.23 312.741 109.945 312.794C110.112 312.466 110.245 312.212 110.316 312.108C112.969 308.165 116.658 305.102 120.065 301.837C123.661 298.39 130.518 294.41 126.024 288.765C124.246 286.53 121.883 286.235 119.188 285.94C118.238 285.837 113.499 285.966 110.781 285.53C113.851 283.058 118.716 281.531 121.655 280.641C127.023 279.013 132.471 277.472 137.899 276.062C139.638 275.61 140.792 273.945 140.841 272.197C141.008 266.197 134.135 266.753 129.97 264.835C131.898 264.107 134.56 263.24 135.075 263.056C138.022 262.007 141.034 261.253 144.102 260.645C146.941 260.082 149.783 259.698 152.668 259.476C154.328 259.348 156.03 259.498 157.571 258.721C160.547 257.22 160.852 253.779 158.858 251.293C157.744 249.904 156.19 249.199 154.658 248.383C153.714 247.88 151.723 246.953 150.059 245.913C151.229 245.924 152.374 245.998 152.73 246.024C155.281 246.218 157.911 246.866 160.355 247.63C165.649 249.285 170.73 251.198 176.167 252.438C176.229 252.452 176.294 252.461 176.357 252.474C178.724 253.342 181.17 253.964 183.435 254.436C189.278 255.652 197.297 257.188 203.441 255.847C203.386 257.63 203.329 259.378 203.203 261.037C202.695 267.704 200.768 274.658 202.402 281.272C203.992 287.716 209.27 292.272 214.714 295.662C227.526 303.644 242.419 309.839 257.153 313.296C262.987 314.665 269.053 315.636 275.056 316.548C277.094 316.903 279.13 317.255 281.16 317.609C293.492 319.761 306.032 320.73 318.473 321.743C324.698 322.25 330.886 321.732 337.121 322.356C343.751 323.02 350.802 322.824 357.457 322.519C370.569 321.918 385.237 322.914 397.575 317.878C397.651 317.847 397.721 317.802 397.795 317.766C398.401 317.681 399.003 317.604 399.615 317.51C407.629 316.274 415.956 315.149 423.853 313.296C438.588 309.839 453.482 303.644 466.293 295.662C471.737 292.272 477.015 287.716 478.605 281.272C480.237 274.658 478.311 267.704 477.804 261.037C477.678 259.377 477.621 257.63 477.565 255.847C483.71 257.188 491.728 255.652 497.571 254.436C499.836 253.964 502.282 253.342 504.65 252.474C504.712 252.46 504.778 252.451 504.839 252.438C510.275 251.198 515.357 249.284 520.652 247.63C523.095 246.866 525.725 246.218 528.276 246.024C528.633 245.998 529.777 245.924 530.947 245.913C529.284 246.953 527.293 247.88 526.348 248.383C524.817 249.199 523.263 249.904 522.149 251.293C520.154 253.779 520.46 257.22 523.436 258.721C524.977 259.498 526.678 259.348 528.339 259.476C531.224 259.697 534.065 260.082 536.904 260.645C539.972 261.253 542.983 262.007 545.932 263.056C546.447 263.24 549.108 264.106 551.036 264.835C546.871 266.754 539.998 266.197 540.165 272.197C540.214 273.945 541.367 275.609 543.107 276.062C548.534 277.472 553.983 279.013 559.35 280.641C562.289 281.532 567.155 283.059 570.225 285.53C567.507 285.966 562.768 285.837 561.818 285.94C559.123 286.235 556.759 286.53 554.982 288.765C550.488 294.41 557.344 298.39 560.941 301.837C564.348 305.101 568.035 308.165 570.69 312.108C570.76 312.212 570.894 312.466 571.061 312.794C570.771 312.741 570.485 312.695 570.199 312.64Z" fill="black"/>
<path d="M530.644 279.057C525.35 276.251 519.704 275.157 513.594 275.074C509.999 275.026 502.995 274.418 499.61 276.969C499.531 276.976 499.454 276.983 499.375 276.99C498.365 277.069 498.235 278.388 499.031 278.707C499.271 279.119 499.617 279.363 500.142 279.405C505.174 279.802 510.298 279.137 515.37 279.488C520.071 279.813 524.646 281.763 529.278 282.266C530.681 282.918 532.018 283.656 533.225 284.515C534.604 285.497 536.875 287.162 536.453 288.942C536.029 290.727 533.361 290.581 531.837 290.68C529.288 290.846 526.709 290.967 524.158 291.056C519.176 291.229 514.028 290.366 509.102 291.121C507.023 291.439 507.204 294.219 508.571 295.184C512.364 297.865 516.321 300.069 519.189 303.924C520.541 305.742 520.799 305.755 518.941 306.729C517.408 307.532 514.111 306.685 512.528 306.353C510.171 305.859 508.049 304.726 505.706 304.238C504.067 303.897 502.557 304.961 502.499 306.681C502.413 309.307 504.133 310.969 504.784 313.444C505.024 314.353 505.543 316.909 505.411 318.012C505.047 321.059 502.764 321.671 500.342 320.34C497.189 318.606 494.755 314.407 490.77 314.63C489.223 314.716 488.33 315.773 488.161 317.238C487.888 319.615 488.871 323.558 487.479 325.624C484.852 329.522 482.16 325.179 480.154 323.628C479.011 322.744 476.906 322.48 476.165 324.142C475.096 326.54 475.467 328.899 473.136 330.51C469.576 332.967 465.664 329.766 463.577 326.685C461.986 324.337 458.612 326.354 459.806 328.89C462.198 333.973 466.585 337.132 472.376 336.56C474.623 336.339 476.427 335.53 477.85 333.76C478.601 332.825 478.978 331.801 479.266 330.757C479.857 331.519 480.57 332.208 481.706 332.741C484.011 333.825 486.447 333.696 488.622 332.331C492.982 329.594 493.041 325.283 493.162 320.915C495.274 322.405 497.852 324.991 499.385 325.617C502.191 326.762 505.299 327.165 507.843 325.221C510.539 323.163 510.72 319.888 510.394 316.781C510.202 314.952 509.985 313.06 509.432 311.305C509.331 310.986 509.183 310.667 509.023 310.348C515.473 312.075 524.883 314.059 525.414 306.863C525.764 302.112 521.372 298.245 516.962 295.252C527.533 295.232 545.582 294.846 539.472 285.705C537.388 282.587 534.155 280.531 530.644 279.057Z" fill="black"/>
<path d="M402.114 169.22C411.568 169.909 419.664 173.615 427.709 178.357C429.808 179.593 432.142 180.252 431.851 183.065C431.582 185.672 430.676 185.29 428.232 185.293C423.829 185.298 419.585 183.933 415.403 182.71C413.585 182.18 411.845 184.335 412.896 185.972C414.846 189.009 418.291 190.874 420.862 193.374C422.741 195.201 429.202 201.327 427.893 204.452C425.618 209.884 417.826 199.636 414.092 201.093C412.942 201.542 411.878 202.784 412.373 204.122C413.68 207.656 415.841 210.776 417.123 214.351C417.722 216.022 419.916 220.99 419.017 222.729C415.881 228.794 408.59 214.042 405.34 213.097C403.783 212.644 402.664 213.868 402.482 215.273C402.071 218.46 404.409 223.013 402.442 225.626C402.227 227.412 401.362 227.861 399.844 226.974C398.216 226.483 396.772 225.671 395.507 224.536C394.252 223.56 393.067 222.468 391.872 221.42C389.84 219.64 387.23 222.313 388.935 224.357C392.31 228.403 397.816 233.991 403.842 231.878C408.028 230.411 407.947 226.733 407.417 222.978C407.426 222.992 407.438 223.014 407.446 223.025C408.813 225.016 410.249 226.92 412.234 228.344C415.372 230.594 419.582 231.368 422.402 228.199C426.983 223.053 423.606 215.528 420.36 209.277C421.589 209.98 422.884 210.563 424.291 210.85C427.496 211.503 430.548 210.525 431.936 207.393C433.77 203.253 431.23 198.796 428.79 195.531C427.361 193.62 425.74 191.868 424.016 190.22C423.49 189.717 422.876 189.218 422.226 188.714C430.374 189.983 440.826 190.056 437.041 181.369C434.944 176.554 428.488 174.013 424.128 171.826C417.212 168.358 409.857 166.503 402.115 166.568C400.389 166.585 400.433 169.097 402.114 169.22Z" fill="black"/>
<path d="M379.476 198.424C380.099 202.962 384.132 210.674 389.441 210.755C396.926 210.87 396.322 202.205 395.347 196.346C397.276 196.962 399.072 197.649 401.326 196.733C403.516 195.842 404.852 193.859 404.797 191.469C404.647 184.965 396.95 179.423 391.986 176.601C390.727 175.885 389.623 177.787 390.854 178.539C394.11 180.525 398.728 184.252 399.849 188.144C402.079 195.897 396.115 191.942 392.731 191.547C391.272 191.377 390.494 193.011 390.717 194.19C391.239 196.949 392.821 200.672 391.65 203.449C390.082 207.168 388.187 205.41 386.722 203.26C385.265 201.119 384.324 198.542 382.528 196.647C381.136 195.178 379.25 196.778 379.476 198.424Z" fill="black"/>
<path d="M362.65 346.605C360.412 350.635 357.876 357.767 352.068 354.209C349.632 352.717 348.954 349.92 346.199 348.85C345.195 348.459 344.084 349.288 343.798 350.214C342.563 354.212 340.543 359.704 335.596 355.185C333.555 353.321 333.388 350.367 331.428 348.716C330.16 347.649 328.423 348.074 327.863 349.658C326.725 352.873 325.477 359.021 321.383 358.995C315.672 358.957 316.843 352.017 314.576 348.615C313.865 347.549 312.478 347.072 311.315 347.76C309.333 348.933 308.623 350.398 307.717 352.374C306.988 353.962 305.548 356.381 303.378 355.814C302.552 355.598 301.951 354.846 301.682 354.035C301.128 352.368 301.294 349.904 301.438 348.183C301.567 346.653 301.854 345.588 301.609 344.07C301.41 342.832 299.684 342.234 298.698 342.885C295.832 344.78 294.414 348.456 291.342 350.154C290.942 350.376 290.167 350.778 289.447 350.86C289.375 350.564 289.23 350.136 289.266 349.633C289.321 348.864 289.663 347.718 289.862 346.972C290.234 345.581 290.943 344.417 291.637 343.179C292.166 342.236 292.78 341.345 293.313 340.41C293.763 339.619 293.754 339.417 293.972 339.181C294.065 339.081 294.104 338.968 294.1 338.855L294.106 338.857C294.124 338.582 294.029 338.342 293.875 338.134C294.042 337.896 293.781 337.598 293.509 337.727C293.495 337.734 293.482 337.742 293.467 337.749C293.048 337.465 292.501 337.31 292.065 337.318C290.198 337.354 288.765 339.616 287.802 340.938C286.177 343.17 285.618 345.375 284.906 347.996C284.146 350.793 284.571 352.45 286.448 354.677C286.645 354.911 286.893 355.075 287.164 355.177C290.23 357.172 294.203 352.995 297.283 349.654C296.854 353.877 296.795 358.33 301.179 360.379C303.738 361.574 306.703 360.868 308.801 359.122C310.08 358.059 310.703 356.38 311.438 354.843C311.527 355.516 311.637 356.174 311.861 356.756C312.401 358.158 313.262 359.251 314.243 360.371C316.4 362.832 319.071 364.694 322.494 364.219C327.024 363.591 329.195 359.748 330.567 355.712C331.083 356.416 331.655 357.108 332.183 357.679C333.986 359.628 336.362 361.291 339.141 361.254C343.452 361.196 345.503 357.639 346.747 353.994C347.895 355.461 348.925 357.585 350.322 358.441C352.187 359.584 354.723 359.891 356.85 359.633C362.795 358.913 364.839 353.18 366.425 348.198C367.135 345.963 363.784 344.563 362.65 346.605Z" fill="black"/>
<path d="M420.132 335.936C419.272 339.008 418.663 341.927 416.823 344.638C414.282 348.383 410.147 348.019 407.449 344.606C406.074 342.867 404.624 340.851 402.213 342.557C399.57 344.428 400.816 349.199 397.806 351.105C393.308 353.953 393.704 347.221 393.79 345.084C393.86 343.334 393.656 340.646 394.747 339.26C394.987 338.953 394.767 338.558 394.375 338.621C390.608 339.239 390.153 349.157 390.953 351.786C392.899 358.188 399.608 356.316 402.499 351.911C403.229 350.798 404.097 349.394 404.407 348.076C405.486 350.9 410.396 353.236 413.069 353.066C420.363 352.601 424.985 342.147 423.815 335.936C423.454 334.02 420.614 334.218 420.132 335.936Z" fill="black"/>
<path d="M357.543 221.916C356.248 226.499 355.261 233.527 351.484 236.8C345.814 241.712 344.409 230.051 343.184 226.431C342.62 224.765 340.405 223.919 339.082 225.348C337.469 227.09 331.451 235.713 329.906 231.721C328.915 229.158 330.282 225.37 329.744 222.571C329.349 220.52 326.887 220.412 325.552 221.464C324.408 222.367 317.428 228.877 315.571 225.607C314.857 224.351 317.282 220.407 317.793 219.471C318.585 218.021 323.296 209.47 325.374 210.131C325.889 210.294 326.16 209.649 325.862 209.293C322.188 204.901 313.275 219.31 312.267 221.691C310.895 224.935 310.546 228.874 314.319 230.683C317.83 232.367 321.652 230.422 324.878 228.173C324.552 232.051 324.084 236.239 328.245 237.902C333.193 239.88 337.05 236.095 340.051 232.225C341.843 238 344.164 245.595 351.205 243.002C358.672 240.252 361.437 229.412 361.152 222.405C361.07 220.365 358.121 219.872 357.543 221.916Z" fill="black"/>
<path d="M298.172 152.003C300.084 153.298 302.435 153.253 304.618 152.969C305.597 152.842 306.634 152.482 307.676 152.099C305.393 156.869 303.384 162.371 306.706 166.759C311.155 172.636 317.186 167.277 321.632 163.035C321.574 165.807 320.837 169.071 321.199 171.207C321.772 174.598 323.593 176.752 326.736 178.083C329.336 179.183 331.728 179.1 334.09 177.427C335.489 176.435 336.688 175.071 337.641 173.649C337.816 173.387 337.987 173.044 338.156 172.653C339.787 177.251 342.439 181.274 348.254 180.346C357.922 178.802 359.88 166.342 360.647 158.62C360.838 156.694 357.802 155.909 356.977 157.626C354.488 162.802 354.335 169.661 349.686 173.619C343.686 178.727 342.246 169.002 341.183 165.141C340.66 163.243 338.397 162.825 337.013 164.041C335.488 165.379 335.271 166.949 334.484 168.747C332.548 173.167 327.414 176.174 326.096 169.129C325.327 165.013 327.466 160.811 325.366 156.897C324.77 155.787 322.967 155.185 321.896 155.987C319.551 157.744 311.996 166.74 310.166 161.652C308.87 158.049 312.593 152.806 313.951 149.775C314.618 148.286 313.868 146.203 311.952 146.292C310.087 146.378 308.789 147.252 307.06 147.823C305.25 148.42 300.378 149.609 300.227 145.839C300.173 144.495 301.97 142.447 302.748 141.5C304.693 139.131 307.25 137.107 310.021 135.796C310.939 135.362 314.889 133.531 316.022 134.052C317.285 134.633 318.366 132.896 317.131 132.156C314.318 130.472 309.819 131.792 307.092 133.162C302.834 135.301 298.794 138.7 296.769 143.091C295.351 146.17 295.023 149.869 298.172 152.003Z" fill="black"/>
<path d="M353.46 146.594C355.724 147.35 357.953 146.217 359.696 144.813C361.459 143.392 362.151 141.205 363.344 139.472C364.998 141.241 365.811 143.63 368.521 144.483C370.899 145.23 373.271 144.411 375.269 143.083C379.888 140.012 382.584 133.428 381.194 128.058C380.637 125.902 377.615 126.061 376.982 128.058C375.836 131.672 376.362 136.784 372.448 138.97C368.418 141.22 367.193 136.377 364.207 134.61C363.315 134.083 362.321 134.327 361.574 134.95C359.839 136.399 359.679 138.728 358.214 140.317C356.496 142.18 353.843 142.612 352.725 139.78C351.913 137.727 352.879 135.38 353.494 133.433C353.909 132.119 351.798 131.173 351.225 132.477C349.435 136.555 347.502 144.607 353.46 146.594Z" fill="black"/>
<path d="M265.728 336.621C263.792 337.979 262.779 339.429 261.528 341.403C259.976 343.852 256.049 348.851 252.451 347.173C249.201 345.657 252.018 338.455 251.979 335.581C251.949 333.426 249.352 332.414 247.814 333.855C246.381 335.196 238.566 343.675 236.322 338.33C234.592 334.214 243.998 325.379 247.355 324.293C248.771 323.834 248.187 321.813 246.746 322.083C239.942 323.359 228.745 333.832 232.597 341.614C234.117 344.684 237.717 345.127 240.706 344.318C242.544 343.821 244.475 342.907 246.134 341.989C246.202 341.951 246.258 341.91 246.324 341.872C245.765 345.892 245.752 349.857 250.135 351.775C253.728 353.347 257.74 352.1 260.854 350.036C264.877 347.372 266.013 343.324 268.702 339.594C269.958 337.85 267.469 335.4 265.728 336.621Z" fill="black"/>
</g>
<path d="M417.5 429.996C648.079 429.996 835 425.655 835 420.299C835 414.943 648.079 410.602 417.5 410.602C186.921 410.602 0 414.943 0 420.299C0 425.655 186.921 429.996 417.5 429.996Z" fill="#3F3D56"/>
<path d="M623.014 243.395L621.641 272.217L687.52 294.177C687.52 294.177 684.089 257.806 686.148 254.375L623.014 243.395Z" fill="#9E616A"/>
<path d="M515.96 371.722L509.784 395.74H538.606V371.722H515.96Z" fill="#9E616A"/>
<path d="M665.561 378.107L678.599 382.702L685.461 365.471L673.795 356.281L665.561 378.107Z" fill="#A0616A"/>
<path d="M688.665 348.199C688.665 348.199 708.107 345.645 708.107 362.114C708.107 378.584 710.852 419.072 683.403 414.269C683.403 414.269 671.05 415.641 675.854 401.23C675.854 401.23 680.744 395.368 678.985 391.78C677.227 388.191 666.933 385.447 668.305 383.388C669.678 381.329 684.775 364.859 684.775 364.859L688.665 348.199Z" fill="#2F2E41"/>
<path d="M688.893 290.745L621.641 267.413L617.524 283.883C617.524 283.883 516.646 225.553 510.47 265.354C510.47 265.354 504.98 297.608 513.215 340.155L513.901 374.467C513.901 374.467 531.057 378.584 539.292 375.153L539.979 338.096C539.979 338.096 546.841 314.078 543.41 295.549C543.41 295.549 594.878 336.037 618.21 340.841C618.21 340.841 536.547 403.975 546.155 423.876C555.762 443.777 567.428 447.208 582.525 443.777C592.929 441.412 639.508 403.851 667.462 380.727C677.043 372.877 684.651 362.89 689.676 351.569C694.701 340.247 697.002 327.906 696.395 315.534C695.895 306.431 693.794 297.608 688.893 290.745Z" fill="#2F2E41"/>
<path d="M514.588 386.819C514.588 386.819 513.901 378.584 509.784 382.015C505.666 385.447 491.255 398.485 491.255 398.485C491.255 398.485 439.101 404.21 470.668 417.248C485.085 419.416 499.821 417.515 513.215 411.759C513.215 411.759 548.29 420.763 547.565 412.026C546.841 403.289 538.606 388.697 538.606 388.697C538.606 388.697 528.999 395.74 518.019 386.133L514.588 386.819Z" fill="#2F2E41"/>
<path d="M650.463 164.477C664.486 164.477 675.854 153.109 675.854 139.086C675.854 125.063 664.486 113.695 650.463 113.695C636.44 113.695 625.072 125.063 625.072 139.086C625.072 153.109 636.44 164.477 650.463 164.477Z" fill="#9E616A"/>
<path d="M671.05 140.459C671.05 140.459 675.168 161.046 682.717 165.85L640.856 215.259L625.072 200.162L636.738 179.574C636.738 179.574 649.777 172.026 645.66 161.732L671.05 140.459Z" fill="#9E616A"/>
<path d="M686.148 167.908C686.148 167.908 716.342 174.084 719.774 193.985C723.205 213.886 716.342 250.257 716.342 250.257L701.931 357.311C701.931 357.311 701.245 402.602 683.403 395.054C665.561 387.505 688.206 353.193 688.206 353.193L694.383 285.942C694.383 285.942 697.128 228.984 691.638 222.121L669.678 215.259C669.678 215.259 674.482 169.967 686.148 167.908Z" fill="#9E616A"/>
<path d="M636.738 179.574C636.738 179.574 616.151 178.888 603.113 195.358C590.074 211.828 558.507 224.18 558.507 224.18L479.589 255.061C479.589 255.061 465.178 229.67 456.257 238.591C447.336 247.512 472.727 270.158 484.393 267.413C496.059 264.668 566.742 243.395 566.742 243.395L623.014 218.004L636.738 179.574Z" fill="#9E616A"/>
<path d="M681.653 164.214C681.653 164.214 655.267 199.475 643.601 198.789C631.935 198.103 639.792 177.253 639.792 177.253L631.557 179.312C631.557 179.312 620.269 200.848 618.896 202.22C618.896 202.22 602.426 228.984 620.955 235.16L621.641 249.571C621.641 249.571 667.619 247.512 687.52 257.806L691.638 222.121C691.638 222.121 665.561 209.083 679.972 183.692C679.972 183.692 685.084 170.391 690.574 169.018L681.653 164.214Z" fill="#3F3D56"/>
<path opacity="0.1" d="M688.55 352.85L583.555 429.709C583.555 429.709 689.236 367.261 688.55 352.85Z" fill="black"/>
<path d="M676.883 141.488C677.978 141.488 678.866 139.491 678.866 137.027C678.866 134.564 677.978 132.567 676.883 132.567C675.789 132.567 674.901 134.564 674.901 137.027C674.901 139.491 675.789 141.488 676.883 141.488Z" fill="#9E616A"/>
<path d="M622.469 125.602C622.469 125.602 615.352 77.5363 666.173 92.3671C666.173 92.3671 702.126 85.0542 714.825 129.958L727.714 177.036L721.814 173.97L719.206 179.972L709.79 182.55L705.587 174.592L703.816 184.388L626.469 193.602C626.469 193.602 660.783 172.409 660.627 135.61L654.15 142.723L622.469 125.602Z" fill="#2F2E41"/>
<defs>
<clipPath id="clip0_317_62">
<rect width="487" height="487" fill="white" transform="translate(97)"/>
</clipPath>
</defs>
</svg>
