<svg width="893" height="749" viewBox="0 0 893 749" fill="none" xmlns="http://www.w3.org/2000/svg">
<g clip-path="url(#clip0_331_715)">
<path d="M358.243 229.638C339.442 229.635 324.083 233.406 307.513 241.956C300.382 245.636 292.312 249.873 284.453 251.615C278.933 252.839 273.806 252.163 268.328 252.546C263.722 252.867 247.851 254.145 253.035 262.293C255.361 265.949 263.223 266.635 266.884 268.434C264.267 275.768 241.607 275.242 242.211 285.088C242.588 291.247 249.653 285.825 252.594 288.762C256.239 292.401 248.835 297.552 246.759 300.036C245.624 301.393 242.112 305.503 242.572 307.548C243.328 310.915 246.631 309.028 248.394 310.479C251.979 313.428 248.638 316.74 247.215 320.302C246.329 322.52 244.736 326.557 244.589 328.847C244.481 330.53 246.045 331.913 245.663 333.834C245.251 335.911 242.732 338.008 241.549 339.75C237.675 345.446 235.45 352.531 235.598 359.255C235.659 362.067 236.797 365.105 235.41 367.445C241.147 371.74 246.934 376.406 252.805 380.7C265.057 389.663 276.602 387.763 290.755 390.17C316.275 394.512 340.226 399.168 366.321 397.927C397.068 396.464 427.414 393.208 457.66 386.928C467.596 384.866 483.146 382.694 490.434 374.791C494.139 370.773 498.191 362.302 497.693 356.742C497.041 349.472 491.587 343.194 488.22 337.033C486.942 334.696 485.742 333.063 485.714 330.33C485.692 328.059 487.609 326.169 487.147 323.801C485.757 316.676 475.318 315.745 483.862 309.887C486.394 308.15 488.453 309.317 488.746 305.688C489.023 302.235 484.089 299.544 482.256 297.22C475.512 288.674 487.098 292.75 489.728 286.925C492.869 279.966 482.017 278.746 478.027 276.794C476.357 275.977 466.2 270.393 466.345 268.833C466.68 265.22 476.529 265.709 478.802 262.852C483.284 257.22 473.643 254.421 469.038 253.436C455.707 250.583 442.459 248.098 429.172 244.869C419.046 242.409 411.588 236.318 402.147 232.484C389.099 227.182 375.005 227.992 358.243 229.638Z" fill="#FEC368"/>
<path d="M226.282 382.436C213.899 382.763 200.661 380.661 188.596 378.079C180.721 376.394 169.731 371.908 162.292 377.063C163.963 379.787 172.332 382.799 170.213 385.912C168.441 388.515 155.38 389.36 152.06 390.665C150.471 391.289 143.426 393.346 142.667 395.086C141.349 398.104 144.277 397.648 145.936 399.799C150.503 405.72 143.835 404.9 138.556 406.224C134.412 407.264 120.731 412.989 120.647 418.277C120.541 425.053 132.693 418.602 134.753 424.339C136.072 428.011 106.966 454.598 124.779 451.302C130.276 450.285 139.004 443.553 142.09 450.5C144.221 455.294 142.05 462.037 143.905 467.155C150.337 484.896 167.137 464.351 177.437 470.223C182.4 473.053 178.493 478.785 180.244 483.042C182.738 489.101 189.77 486.021 194.332 484.207C208.002 478.767 201.807 494.491 212.35 497.471C218.976 499.345 224.525 492.032 230.634 491.578C237.063 491.1 238.601 493.11 241.274 498.063C248.097 510.705 257.554 498.693 266.922 502.656C270.93 504.351 272.085 510.34 276.111 511.915C280.853 513.77 287.298 509.231 292.261 509.409C298.217 509.624 302.583 513.468 308.51 514.284C315.203 515.205 321.822 515.698 328.527 516.641C344.044 518.825 358.231 519.565 373.757 517.471C389.82 515.304 406.05 517.79 421.751 514.507C432.631 512.232 443.286 512.215 454.105 510.64C458.057 510.064 460.057 507.92 463.58 506.509C468.506 504.537 471.691 506.811 476.435 506.883C480.412 506.944 483.907 504.453 486.229 501.4C488.435 498.501 489.679 493.851 493.305 492.024C498.461 489.427 501.158 493.714 505.323 495.805C509.096 497.701 514.342 498.362 518.357 496.585C523.95 494.109 523.327 488.481 526.891 485.192C533.768 478.847 543.354 497.454 549.781 481.804C552.015 476.361 549.671 471.245 556.903 470.238C562.072 469.518 565.98 472.96 570.445 474.734C575.86 476.885 582.623 475.639 586.45 470.643C590.148 465.815 587.488 461.872 586.42 456.573C582.509 437.174 602.835 454.196 611.662 449.842C620.727 445.371 599.467 431.928 597.905 427.569C595.369 420.488 619.583 425.139 609.286 414.547C602.703 407.775 588.807 410.746 582.382 404.813C585.237 400.117 596.459 398.281 588.604 392.874C580.671 387.412 568.738 389.065 560.032 386.949C559.67 381.471 573.826 380.401 569.982 374.961C567.485 371.427 554.573 375.004 551.431 375.602C540.632 377.658 529.739 379.182 518.949 381.298C513.172 382.43 507.318 383.097 505.432 389.253C502.114 400.081 509.876 412.886 499.776 421.517C488.676 431.002 470.471 436.06 456.905 440.095C443.166 444.183 428.777 446.789 414.568 448.689C396.574 451.094 378.423 449.499 360.313 449.428C340.88 449.352 321.323 449.055 302.165 445.44C276.497 440.596 222.695 437.129 225.261 399.447C225.535 395.475 229.137 386.751 226.282 382.436Z" fill="#FEC368"/>
<path d="M382.015 398.148C370.945 397.605 359.846 399.388 348.704 398.688C338.418 398.041 328.272 395.716 318.083 394.289C298.001 391.478 276.257 388.111 257.723 379.49C254.52 378.001 251.5 376.172 248.405 374.482C245.404 372.844 243.53 370.394 240.748 368.575C234.973 364.797 230.714 368.946 229.074 375.093C226.564 384.505 225.687 395.64 225.49 405.317C225.259 416.714 229.656 419.335 239.474 423.723C268.197 436.558 297.815 447.082 329.575 448.255C346.802 448.891 363.889 450.727 381.132 450.037C398.564 449.338 415.639 446.329 432.936 444.266C456.612 441.442 485.358 435.796 501.826 416.775C510.239 407.059 506.894 389.204 504.309 377.656C503.289 373.1 504.131 367.018 497.813 368.771C492.933 370.126 487.855 373.779 483.037 375.733C475.928 378.618 469.163 382.072 461.927 384.683C449.214 389.269 436.651 389.415 423.5 391.313C409.998 393.263 396.906 397.144 382.015 398.148Z" fill="#A82232"/>
<path d="M237.795 460.772C235.618 463.986 231.537 467.325 227.825 464.762C225.392 463.082 225.78 460.62 224.664 458.119C223.891 456.386 221.696 456.662 220.504 457.583C218.413 459.203 215.603 463.732 212.863 459.666C211.41 457.51 212.436 453.397 212.151 450.918C211.975 449.39 211.044 448.287 209.43 448.197C205.273 447.965 202.734 452.345 199.445 454.153C196.919 455.542 194.538 454.902 194.158 451.725C194.02 450.573 194.562 447.908 194.812 446.96C195.491 444.379 197.285 442.645 197.195 439.905C197.135 438.112 195.561 437.002 193.851 437.357C191.407 437.866 189.194 439.047 186.735 439.563C185.084 439.909 181.644 440.793 180.046 439.956C178.107 438.94 178.376 438.926 179.787 437.03C182.778 433.009 186.906 430.71 190.863 427.913C192.287 426.906 192.477 424.006 190.309 423.674C185.17 422.887 179.8 423.787 174.604 423.607C171.943 423.514 169.252 423.387 166.594 423.215C165.003 423.112 162.22 423.262 161.779 421.402C161.338 419.545 163.707 417.808 165.145 416.783C169.417 413.74 175.161 412.049 180.356 411.066C182.691 410.854 185.031 410.648 187.382 410.695C191.699 410.784 197.196 412.414 201.385 411.354C202.792 410.998 203.119 408.887 201.799 408.191C197.744 406.059 190.946 406.789 186.553 406.896C183.359 406.974 180.536 407.252 177.809 408.095C177.235 408.205 176.657 408.329 176.073 408.476C169.812 410.054 162.412 412.366 158.629 418.027C152.255 427.563 171.081 427.964 182.109 427.986C177.51 431.108 172.928 435.141 173.292 440.097C173.845 447.604 183.661 445.534 190.39 443.732C190.222 444.066 190.069 444.398 189.964 444.731C189.386 446.562 189.16 448.536 188.96 450.443C188.619 453.684 188.81 457.099 191.622 459.247C194.276 461.274 197.517 460.855 200.444 459.66C202.045 459.007 204.732 456.309 206.936 454.756C207.062 459.312 207.124 463.808 211.672 466.664C213.939 468.088 216.481 468.222 218.886 467.091C220.071 466.535 220.814 465.816 221.431 465.022C221.732 466.11 222.124 467.178 222.908 468.154C224.393 470.001 226.274 470.843 228.618 471.075C234.659 471.671 239.236 468.376 241.73 463.074C242.974 460.427 239.455 458.321 237.795 460.772Z" fill="black"/>
<path d="M280.931 316.854C280.253 317.379 279.612 317.9 279.064 318.424C277.266 320.144 275.574 321.971 274.084 323.965C271.538 327.37 268.889 332.02 270.803 336.338C272.25 339.605 275.433 340.625 278.777 339.944C280.244 339.645 281.596 339.036 282.878 338.303C279.491 344.824 275.97 352.674 280.747 358.042C283.689 361.347 288.081 360.539 291.354 358.192C293.425 356.707 294.922 354.721 296.349 352.644C296.357 352.633 296.369 352.61 296.378 352.595C295.826 356.512 295.741 360.348 300.108 361.879C306.392 364.083 312.136 358.255 315.657 354.033C317.435 351.902 314.713 349.112 312.594 350.97C311.347 352.063 310.111 353.202 308.801 354.221C307.483 355.404 305.976 356.252 304.278 356.764C302.695 357.688 301.792 357.22 301.567 355.358C299.516 352.631 301.954 347.883 301.526 344.558C301.336 343.092 300.169 341.815 298.545 342.288C295.155 343.273 287.55 358.662 284.279 352.336C283.341 350.523 285.629 345.34 286.254 343.596C287.592 339.867 289.846 336.613 291.209 332.926C291.725 331.53 290.616 330.234 289.415 329.766C285.521 328.247 277.393 338.936 275.02 333.271C273.653 330.01 280.393 323.621 282.354 321.715C285.035 319.108 288.629 317.161 290.662 313.993C291.759 312.286 289.943 310.036 288.047 310.591C283.684 311.866 279.258 313.29 274.665 313.285C272.115 313.282 271.171 313.681 270.89 310.961C270.587 308.025 273.021 307.34 275.21 306.05C283.602 301.104 292.047 297.238 301.909 296.519C303.663 296.391 303.709 293.77 301.909 293.755C293.833 293.686 286.162 295.622 278.947 299.239C274.398 301.52 267.665 304.172 265.477 309.194C261.529 318.254 272.432 318.177 280.931 316.854Z" fill="black"/>
<path d="M302.732 325.217C305.083 326.172 306.956 325.456 308.968 324.814C307.951 330.925 307.321 339.963 315.129 339.844C320.666 339.758 324.873 331.715 325.523 326.981C325.758 325.265 323.792 323.596 322.339 325.128C320.466 327.104 319.484 329.793 317.964 332.025C316.436 334.269 314.46 336.101 312.823 332.223C311.602 329.327 313.253 325.443 313.796 322.565C314.03 321.333 313.218 319.63 311.696 319.808C308.167 320.219 301.946 324.345 304.271 316.258C305.439 312.198 310.257 308.31 313.653 306.238C314.938 305.454 313.786 303.47 312.473 304.217C307.296 307.161 299.267 312.942 299.11 319.726C299.054 322.221 300.447 324.289 302.732 325.217Z" fill="black"/>
<path d="M620.153 449.102C619.543 440.101 611.48 433.783 604.267 428.101C604.612 428.074 604.957 428.046 605.301 428.006C608.149 427.678 611.053 427.084 613.505 425.524C617.749 422.825 619.283 417.468 615.779 413.473C611.889 409.036 605.457 405.935 599.943 404.226C597.232 403.386 594.411 402.633 591.553 401.975C592.727 401.314 593.796 400.501 594.62 399.377C598.614 393.929 592.385 390.636 588.152 388.852C581.468 386.034 574.445 384.174 567.206 383.514C568.351 382.694 569.404 381.855 570.148 381.348C574.225 378.567 577.82 373.111 571.76 369.813C566.532 366.968 558.874 367.582 553.342 368.852C545.311 370.693 537.864 374.285 529.628 375.461C528.168 375.669 526.73 375.933 525.297 376.213C523.094 376.374 520.88 376.52 518.691 376.516C515.236 376.51 511.762 375.947 508.412 376.742C508.013 374.213 507.385 371.779 506.3 369.59C505.514 368.005 504.209 365.981 502.596 364.573C504.019 359.711 503.421 354.426 501.163 349.292C499.15 344.717 496.577 340.359 493.696 336.284C492.642 334.793 491.585 333.314 490.55 331.817C492.104 330.517 492.799 328.294 491.891 325.015C490.899 321.435 488.472 318.523 486.346 315.572C486.279 315.479 486.218 315.38 486.151 315.287C486.562 315.283 486.968 315.27 487.357 315.245C490.985 315.017 494.696 313.357 495.831 309.604C497.689 303.462 492.033 297.696 486.397 293.155C488.25 292.756 490.085 292.261 491.58 291.038C495.053 288.196 494.437 283.7 492.059 280.351C488.978 276.013 483.618 273.47 478.863 271.47C476.238 270.366 473.561 269.353 470.87 268.417C470.626 268.333 470.31 268.261 469.956 268.196C470.774 268.047 471.524 267.907 472.1 267.743C474.67 267.012 477.27 266.214 479.734 265.191C483.941 263.445 486.664 259.249 483.776 254.92C480.553 250.089 471.977 248.781 466.7 248.267C459.349 247.551 452.108 246.697 444.807 245.533C431.011 243.333 420.088 233.06 406.957 228.774C404.763 228.058 402.549 227.424 400.318 226.872C387.001 222.238 372.499 222.12 358.166 223.002C353.483 223.291 348.901 223.991 344.352 224.88C337.875 225.341 331.57 226.761 325.402 228.774C312.271 233.06 301.348 243.333 287.552 245.533C280.251 246.697 273.01 247.551 265.659 248.267C260.382 248.781 251.806 250.089 248.583 254.92C245.695 259.249 248.418 263.445 252.625 265.191C255.089 266.214 257.689 267.012 260.259 267.743C260.835 267.907 261.585 268.047 262.403 268.196C262.049 268.261 261.733 268.333 261.489 268.417C258.798 269.353 256.121 270.366 253.496 271.47C248.741 273.47 243.381 276.013 240.3 280.351C237.922 283.7 237.306 288.196 240.779 291.038C242.275 292.26 244.109 292.756 245.963 293.155C240.325 297.696 234.67 303.462 236.528 309.604C237.663 313.357 241.374 315.017 245.002 315.245C245.391 315.27 245.797 315.283 246.208 315.287C246.141 315.381 246.081 315.479 246.013 315.572C243.887 318.523 241.46 321.436 240.468 325.015C239.56 328.293 240.255 330.517 241.809 331.817C240.775 333.314 239.718 334.793 238.664 336.284C235.784 340.359 233.21 344.718 231.197 349.292C228.939 354.426 228.341 359.711 229.764 364.573C228.151 365.981 226.846 368.005 226.06 369.59C224.976 371.779 224.347 374.213 223.948 376.742C220.598 375.947 217.124 376.51 213.669 376.516C211.479 376.52 209.267 376.374 207.063 376.213C205.63 375.933 204.193 375.669 202.732 375.461C194.496 374.285 187.049 370.694 179.018 368.852C173.486 367.582 165.828 366.968 160.6 369.813C154.54 373.11 158.135 378.567 162.212 381.348C162.956 381.856 164.009 382.694 165.154 383.514C157.914 384.174 150.892 386.034 144.208 388.852C139.975 390.636 133.747 393.929 137.74 399.377C138.564 400.501 139.633 401.315 140.807 401.975C137.949 402.632 135.13 403.386 132.417 404.226C126.903 405.935 120.471 409.036 116.581 413.473C113.077 417.468 114.611 422.826 118.855 425.524C121.306 427.084 124.212 427.678 127.059 428.006C127.403 428.046 127.748 428.074 128.093 428.101C120.881 433.782 112.818 440.101 112.207 449.102C111.755 455.767 117.403 459.263 123.524 458.378C127.317 457.83 131.072 456.872 134.779 455.923C136.823 455.4 138.869 454.889 140.915 454.372C140.329 455.82 139.787 457.278 139.454 458.765C138.477 463.134 138.335 467.773 140.189 471.94C143.858 480.189 155.194 480.899 162.856 478.994C165.107 478.434 167.276 477.633 169.42 476.759C170.632 476.265 175.196 473.708 175.585 473.796L175.639 473.326C175.648 473.892 175.663 474.456 175.683 475.021C175.737 475.953 175.739 476.888 175.794 477.82C175.932 480.153 176.144 482.386 177.265 484.488C181.845 493.088 191.953 492.665 199.772 489.598C200.241 489.415 200.715 489.205 201.194 489.012C201.261 489.279 201.342 489.635 201.433 490.135C201.767 491.959 202.875 494.168 203.907 495.685C206.53 499.541 210.819 501.827 215.334 502.547C220.147 503.315 225.03 502.534 229.369 500.338C231.061 499.481 233.933 496.665 235.871 496.476C236.158 496.448 236.281 496.336 236.317 496.199C236.48 496.459 236.712 496.803 237.063 497.276C237.892 498.397 238.141 500.294 238.745 501.559C242.64 509.711 251.061 513.004 259.53 510.25C260.983 509.776 263.963 508.07 265.507 508.528C265.996 508.673 267.964 511.531 268.873 512.429C272.383 515.897 276.914 517.72 281.857 517.72C284.73 517.721 287.577 517.067 290.26 516.086C292.464 515.279 295.152 513.875 297.588 514.278C300.232 514.716 302.667 516.771 305.126 517.861C307.835 519.061 310.489 519.865 313.431 520.246C314.552 520.391 315.664 520.47 316.774 520.527C318.303 520.716 319.823 520.836 321.298 520.909C322.387 520.962 323.493 520.873 324.6 520.778C326.346 520.871 328.098 521.036 329.866 521.396C330.991 521.625 332.12 521.825 333.25 521.995C333.882 522.268 334.514 522.551 335.156 522.819C339.032 524.435 342.806 525.61 347.061 525.403C351.523 525.187 354.944 523.307 359.121 522.306C363.306 521.303 368.663 522.934 372.796 523.747C377.583 524.687 381.514 523.153 386.21 522.591C387.469 522.44 388.71 522.34 389.937 522.229C394.1 522.797 398.323 522.247 402.497 521.397C408.021 520.271 413.381 520.966 418.931 520.246C421.873 519.864 424.527 519.061 427.236 517.861C429.695 516.771 432.13 514.716 434.774 514.278C437.21 513.874 439.899 515.278 442.102 516.086C444.785 517.068 447.632 517.721 450.505 517.72C455.449 517.719 459.979 515.896 463.489 512.429C464.398 511.53 466.366 508.673 466.855 508.528C468.399 508.07 471.379 509.776 472.832 510.25C481.301 513.004 489.721 509.712 493.617 501.559C494.221 500.294 494.47 498.397 495.3 497.276C495.651 496.803 495.883 496.459 496.046 496.199C496.082 496.335 496.206 496.447 496.492 496.476C498.43 496.665 501.302 499.481 502.994 500.338C507.333 502.534 512.216 503.315 517.029 502.547C521.544 501.827 525.832 499.541 528.456 495.685C529.489 494.168 530.596 491.959 530.93 490.135C531.021 489.635 531.102 489.279 531.17 489.012C531.649 489.206 532.123 489.416 532.592 489.598C540.411 492.665 550.519 493.088 555.099 484.488C556.22 482.385 556.432 480.153 556.57 477.82C556.625 476.888 556.626 475.953 556.681 475.021C556.701 474.456 556.716 473.891 556.725 473.326L556.779 473.796C557.168 473.708 561.732 476.265 562.944 476.759C565.087 477.633 567.257 478.434 569.508 478.994C577.171 480.899 588.507 480.189 592.175 471.94C594.029 467.773 593.886 463.133 592.91 458.765C592.577 457.277 592.034 455.819 591.449 454.372C593.494 454.889 595.541 455.4 597.585 455.923C601.293 456.872 605.048 457.83 608.84 458.378C614.958 459.263 620.605 455.767 620.153 449.102ZM243.793 347.057C245.392 343.923 247.253 340.953 249.012 337.91C250.455 335.415 252.386 332.901 253.529 330.309C254.633 327.804 253.295 324.177 250.616 323.723C251.276 322.586 251.847 321.257 252.415 320.219C253.866 317.568 254.601 314.186 257.008 312.209C258.597 310.906 258.15 308.504 257.008 307.139C255.448 305.272 253.473 304.794 251.13 304.808C250.89 304.809 250.443 304.795 249.961 304.789C251.504 302.861 253.323 300.506 253.68 300.119C255.959 297.65 258.424 295.408 260.396 292.682C261.703 290.874 260.822 287.599 258.817 286.661C256.034 285.36 253.681 285.799 250.733 285.593C248.151 285.413 246 285.964 247.934 283.559C249.213 281.968 251.639 280.793 253.396 279.797C259.284 276.462 267.069 274.802 272.238 270.395C273.339 269.457 273.065 267.787 272.238 266.811C269.854 264.001 265.715 263.973 262.408 262.946C260.839 262.459 259.361 261.797 257.84 261.194C257.418 260.977 256.996 260.763 256.572 260.551C256.549 260.537 256.541 260.533 256.519 260.52C258.192 259.108 263.761 259.133 265.656 259.003C277.125 258.214 288.895 257.047 299.324 251.919C307.544 247.876 314.581 242.463 322.588 238.4C324.714 237.752 326.858 237.176 329.013 236.771C338.829 234.926 349.141 233.41 359.127 233.464C368.325 233.514 377.552 233.409 386.631 234.542C393.548 235.404 401.306 237.914 408.51 237.781C417.045 241.9 424.384 247.665 433.031 251.919C443.459 257.048 455.229 258.214 466.699 259.003C468.594 259.133 474.164 259.108 475.836 260.52C475.815 260.533 475.806 260.537 475.784 260.551C475.361 260.764 474.938 260.978 474.516 261.194C472.995 261.796 471.517 262.459 469.948 262.946C466.64 263.974 462.501 264.001 460.119 266.811C459.291 267.787 459.017 269.457 460.119 270.395C465.287 274.802 473.074 276.462 478.96 279.797C480.717 280.794 483.143 281.968 484.422 283.559C486.356 285.964 484.205 285.413 481.624 285.593C478.675 285.798 476.323 285.36 473.54 286.661C471.535 287.599 470.655 290.874 471.961 292.682C473.933 295.408 476.398 297.651 478.677 300.119C479.035 300.506 480.853 302.861 482.395 304.789C481.913 304.794 481.467 304.809 481.226 304.808C478.884 304.794 476.908 305.272 475.348 307.139C474.207 308.504 473.759 310.905 475.348 312.209C477.755 314.186 478.49 317.568 479.941 320.219C480.51 321.257 481.08 322.586 481.74 323.723C479.061 324.177 477.722 327.803 478.827 330.309C479.971 332.902 481.901 335.415 483.344 337.91C485.103 340.953 486.965 343.923 488.563 347.057C491.186 352.198 493.262 356.873 491.934 361.775C490.09 365.388 487.159 368.749 483.978 370.872C479.744 373.697 475.491 376.114 470.458 377.112C464.844 378.223 459.26 379.205 453.775 380.887C447.788 382.722 442.574 384.32 436.29 384.718C431.198 385.04 426.23 385.897 421.492 387.806C418.447 389.034 415.282 390.061 412.06 390.837C403.018 391.008 393.972 392.054 384.989 392.669C372.014 393.558 358.605 393.426 345.65 392.69C341.766 392.47 337.673 392.479 333.659 392.567C331.736 392.417 329.795 392.35 327.907 392.159C322.079 391.571 316.283 389.99 310.862 387.805C306.124 385.896 301.156 385.039 296.064 384.717C289.78 384.319 284.566 382.72 278.58 380.886C273.094 379.204 267.51 378.222 261.896 377.111C256.863 376.113 252.61 373.696 248.376 370.871C245.196 368.748 242.264 365.388 240.42 361.774C239.095 356.874 241.17 352.199 243.793 347.057ZM229.766 399.73C230.362 393.551 231.044 387.378 231.27 381.159C231.4 377.591 231.602 374.329 233.124 371.04C233.549 371.585 233.997 372.123 234.492 372.644C234.758 372.923 235.042 373.157 235.337 373.352C235.341 373.357 235.345 373.363 235.349 373.368C243.392 382.626 253.122 387.097 265.031 389.427C271.292 390.651 277.385 392.365 283.6 393.755C286.563 394.416 289.493 394.552 292.425 394.554C296.92 395.627 301.629 395.883 306.183 396.552C318.34 398.336 329.782 401.376 342.143 401.526C348.661 401.606 355.131 402.275 361.706 402.272C369.128 402.267 376.622 402.577 384.026 402.023C397.34 401.028 410.994 400.943 423.754 396.621C424.64 396.321 425.205 395.752 425.495 395.092C426.935 394.856 428.376 394.668 429.815 394.583C436.214 394.205 442.41 395.173 448.757 393.755C454.971 392.365 461.065 390.651 467.326 389.427C479.236 387.097 488.965 382.625 497.008 373.368C497.012 373.363 497.016 373.357 497.021 373.352C497.317 373.157 497.6 372.923 497.866 372.644C498.361 372.122 498.81 371.584 499.234 371.04C500.757 374.329 500.959 377.59 501.088 381.159C501.314 387.379 501.996 393.551 502.592 399.73C503.255 406.596 503.492 411.861 498.202 416.827C493.905 420.859 488.217 423.821 482.855 426.16C470.372 431.605 457.41 435.491 443.891 437.433C429.585 439.489 414.849 441.014 400.732 444.13C395.828 444.289 390.917 444.33 386.05 444.829C379.338 445.517 372.134 445.551 365.386 445.294C358.582 445.035 351.881 444.948 345.064 444.812C340.894 444.728 336.677 444.572 332.448 444.347C332.318 444.3 332.19 444.249 332.048 444.217C317.804 441.038 302.914 439.508 288.466 437.432C274.948 435.489 261.985 431.603 249.502 426.159C244.139 423.82 238.451 420.858 234.155 416.826C228.866 411.862 229.103 406.596 229.766 399.73ZM605.782 446.121C604.046 445.777 602.326 445.361 600.605 444.957C595.621 443.785 589.022 441.262 583.831 442.417C578.069 443.698 578.337 448.945 580.056 453.183C581.241 456.107 582.474 459.572 582.765 462.749C583.063 465.989 582.664 467.801 579.492 468.667C573.342 470.348 568.227 467.612 562.411 466.201C557.746 465.069 551.583 463.99 548.728 468.924C546.578 472.64 548.84 480.298 543.185 481.006C537.646 481.699 532.98 475.894 527.27 477.991C520.948 480.311 522.589 488.541 517.345 491.091C510.527 494.406 503.831 486.711 497.581 485.468C492.704 484.498 488.839 486.85 486.64 491.157C485.206 493.966 484.461 498.008 481.424 499.56C478.934 500.832 476.717 499.42 474.297 498.614C469.561 497.039 463.385 495.672 459.279 499.461C457.171 501.406 456.247 504.6 453.459 505.837C450.105 507.326 446.709 505.469 443.549 504.497C438.53 502.952 432.77 502.72 428.15 505.437C424.45 507.613 421.319 509.828 416.913 510.399C413.765 510.806 410.593 510.415 407.436 510.63C404.602 510.822 401.835 511.553 399.063 512.189C395.043 510.223 390.62 510.255 386.208 510.641C382.169 510.994 378.422 512.456 374.419 511.897C369.968 511.275 365.268 510.05 360.748 510.179C356.399 510.303 353.059 512.869 348.952 513.804C348.567 513.891 348.193 513.955 347.824 514.007C346.87 513.08 345.474 512.563 343.759 512.905C342.707 513.115 341.67 513.198 340.638 513.205C339.187 512.75 337.719 512.19 336.133 511.663C332.788 510.549 329.86 510.497 326.606 510.809C326.047 510.733 325.487 510.667 324.924 510.63C321.765 510.414 318.594 510.806 315.446 510.399C311.04 509.828 307.91 507.613 304.209 505.437C299.589 502.72 293.83 502.952 288.81 504.497C285.65 505.469 282.255 507.326 278.9 505.837C276.112 504.601 275.189 501.406 273.081 499.461C268.974 495.672 262.799 497.04 258.063 498.614C255.643 499.419 253.426 500.831 250.936 499.56C247.899 498.008 247.154 493.966 245.72 491.157C243.522 486.849 239.656 484.497 234.779 485.468C228.529 486.71 221.834 494.406 215.015 491.091C209.77 488.542 211.412 480.311 205.09 477.991C199.38 475.894 194.714 481.699 189.175 481.006C183.52 480.297 185.783 472.639 183.632 468.924C180.777 463.99 174.615 465.069 169.949 466.201C164.133 467.612 159.018 470.349 152.868 468.667C149.697 467.801 149.297 465.989 149.595 462.749C149.886 459.571 151.119 456.107 152.304 453.183C154.023 448.946 154.291 443.698 148.529 442.417C143.339 441.262 136.74 443.784 131.755 444.957C130.033 445.361 128.313 445.776 126.578 446.121C126.28 446.179 125.982 446.227 125.684 446.282C125.859 445.94 125.997 445.675 126.071 445.567C128.839 441.453 132.687 438.258 136.241 434.852C139.992 431.257 147.144 427.105 142.457 421.216C140.602 418.886 138.137 418.578 135.326 418.271C134.335 418.162 129.392 418.297 126.556 417.842C129.759 415.264 134.834 413.671 137.9 412.742C143.499 411.044 149.182 409.437 154.843 407.966C156.658 407.494 157.861 405.758 157.912 403.934C158.087 397.676 150.917 398.256 146.572 396.255C148.584 395.496 151.361 394.591 151.897 394.399C154.972 393.305 158.113 392.518 161.314 391.884C164.276 391.297 167.24 390.896 170.249 390.665C171.981 390.532 173.756 390.688 175.364 389.877C178.468 388.311 178.787 384.723 176.706 382.129C175.544 380.68 173.923 379.945 172.326 379.094C171.34 378.569 169.264 377.602 167.528 376.517C168.749 376.528 169.942 376.606 170.314 376.633C172.975 376.835 175.719 377.511 178.268 378.308C183.79 380.035 189.09 382.03 194.762 383.324C194.826 383.338 194.894 383.347 194.959 383.361C197.429 384.266 199.981 384.915 202.343 385.407C208.438 386.676 216.802 388.279 223.212 386.88C223.154 388.739 223.095 390.563 222.963 392.293C222.433 399.247 220.424 406.501 222.127 413.401C223.786 420.123 229.292 424.875 234.97 428.412C248.335 436.737 263.869 443.199 279.239 446.806C285.324 448.234 291.653 449.247 297.914 450.198C300.04 450.568 302.164 450.936 304.281 451.305C317.145 453.55 330.226 454.56 343.203 455.617C349.696 456.146 356.152 455.606 362.655 456.257C369.571 456.949 376.926 456.745 383.867 456.426C397.544 455.799 412.845 456.838 425.716 451.585C425.795 451.553 425.867 451.506 425.945 451.468C426.577 451.38 427.205 451.3 427.843 451.201C436.203 449.913 444.889 448.739 453.127 446.806C468.497 443.199 484.032 436.737 497.396 428.412C503.074 424.875 508.58 420.123 510.239 413.401C511.941 406.501 509.932 399.247 509.403 392.293C509.271 390.562 509.212 388.739 509.154 386.88C515.564 388.279 523.928 386.676 530.023 385.407C532.385 384.915 534.936 384.266 537.407 383.361C537.471 383.346 537.54 383.338 537.604 383.324C543.275 382.03 548.575 380.034 554.098 378.308C556.647 377.511 559.391 376.835 562.052 376.633C562.424 376.606 563.617 376.528 564.838 376.517C563.102 377.602 561.026 378.569 560.04 379.094C558.443 379.945 556.822 380.68 555.66 382.129C553.579 384.723 553.898 388.311 557.002 389.877C558.61 390.688 560.385 390.532 562.117 390.665C565.126 390.895 568.09 391.297 571.052 391.884C574.252 392.518 577.393 393.305 580.469 394.399C581.005 394.591 583.781 395.495 585.793 396.255C581.448 398.257 574.278 397.676 574.453 403.934C574.504 405.758 575.707 407.493 577.522 407.966C583.183 409.437 588.866 411.044 594.465 412.742C597.531 413.672 602.606 415.265 605.809 417.842C602.973 418.297 598.03 418.162 597.039 418.271C594.228 418.578 591.763 418.886 589.908 421.216C585.221 427.105 592.373 431.257 596.124 434.852C599.678 438.257 603.525 441.453 606.294 445.567C606.367 445.675 606.506 445.94 606.681 446.282C606.378 446.227 606.08 446.179 605.782 446.121Z" fill="black"/>
<path d="M564.521 411.09C558.999 408.163 553.11 407.022 546.737 406.936C542.987 406.885 535.681 406.251 532.149 408.912C532.067 408.919 531.987 408.927 531.904 408.934C530.851 409.016 530.716 410.393 531.546 410.725C531.796 411.155 532.157 411.41 532.705 411.453C537.954 411.867 543.299 411.173 548.589 411.54C553.493 411.879 558.265 413.913 563.097 414.438C564.56 415.117 565.955 415.887 567.214 416.783C568.653 417.808 571.021 419.544 570.581 421.402C570.139 423.263 567.356 423.111 565.766 423.215C563.108 423.387 560.417 423.514 557.756 423.607C552.56 423.787 547.189 422.887 542.05 423.674C539.883 424.006 540.071 426.906 541.497 427.913C545.454 430.71 549.581 433.009 552.573 437.03C553.983 438.926 554.252 438.94 552.314 439.956C550.715 440.793 547.276 439.909 545.624 439.563C543.166 439.048 540.952 437.866 538.508 437.357C536.799 437.001 535.223 438.111 535.164 439.905C535.073 442.645 536.867 444.378 537.547 446.96C537.797 447.908 538.339 450.574 538.201 451.725C537.821 454.903 535.44 455.542 532.913 454.153C529.624 452.344 527.085 447.965 522.928 448.197C521.315 448.287 520.383 449.39 520.208 450.918C519.923 453.397 520.948 457.51 519.495 459.666C516.756 463.732 513.947 459.201 511.854 457.583C510.663 456.661 508.467 456.386 507.694 458.119C506.579 460.62 506.966 463.082 504.534 464.762C500.821 467.324 496.74 463.986 494.564 460.772C492.904 458.322 489.384 460.427 490.629 463.072C493.125 468.374 497.701 471.669 503.741 471.073C506.086 470.842 507.967 469.998 509.451 468.152C510.235 467.177 510.628 466.109 510.929 465.02C511.545 465.814 512.289 466.533 513.474 467.089C515.879 468.219 518.42 468.086 520.688 466.662C525.236 463.806 525.297 459.31 525.423 454.753C527.627 456.307 530.316 459.005 531.915 459.658C534.842 460.852 538.084 461.273 540.738 459.245C543.55 457.098 543.739 453.682 543.399 450.441C543.198 448.533 542.972 446.56 542.395 444.729C542.29 444.396 542.136 444.064 541.968 443.73C548.696 445.532 558.513 447.602 559.066 440.095C559.432 435.14 554.85 431.106 550.25 427.984C561.276 427.962 580.104 427.56 573.73 418.024C571.556 414.772 568.184 412.628 564.521 411.09Z" fill="black"/>
<path d="M430.45 296.517C440.312 297.236 448.757 301.102 457.149 306.048C459.338 307.338 461.773 308.024 461.469 310.959C461.188 313.679 460.244 313.28 457.694 313.283C453.101 313.289 448.675 311.864 444.312 310.589C442.415 310.035 440.6 312.284 441.697 313.991C443.731 317.159 447.324 319.105 450.006 321.713C451.967 323.619 458.706 330.008 457.341 333.269C454.967 338.934 446.839 328.245 442.945 329.764C441.744 330.232 440.635 331.528 441.151 332.924C442.514 336.61 444.769 339.865 446.106 343.594C446.731 345.338 449.019 350.52 448.082 352.334C444.81 358.66 437.205 343.272 433.815 342.286C432.191 341.813 431.024 343.09 430.834 344.556C430.406 347.881 432.845 352.629 430.793 355.356C430.568 357.218 429.666 357.686 428.082 356.762C426.384 356.25 424.877 355.402 423.559 354.219C422.249 353.2 421.013 352.061 419.767 350.968C417.647 349.111 414.925 351.9 416.703 354.031C420.223 358.252 425.967 364.081 432.252 361.877C436.619 360.347 436.535 356.51 435.982 352.594C435.991 352.607 436.004 352.631 436.012 352.642C437.438 354.719 438.936 356.705 441.006 358.19C444.279 360.538 448.671 361.345 451.613 358.04C456.391 352.672 452.869 344.822 449.483 338.301C450.764 339.034 452.116 339.642 453.583 339.942C456.927 340.624 460.11 339.603 461.557 336.336C463.471 332.017 460.821 327.368 458.276 323.963C456.786 321.97 455.094 320.142 453.296 318.422C452.748 317.898 452.107 317.378 451.429 316.852C459.928 318.175 470.831 318.252 466.883 309.19C464.696 304.168 457.961 301.516 453.414 299.235C446.199 295.618 438.527 293.683 430.451 293.751C428.651 293.768 428.696 296.389 430.45 296.517Z" fill="black"/>
<path d="M406.837 326.98C407.487 331.714 411.694 339.758 417.231 339.843C425.038 339.963 424.408 330.924 423.391 324.813C425.404 325.455 427.278 326.171 429.628 325.216C431.913 324.287 433.306 322.219 433.249 319.725C433.093 312.941 425.064 307.16 419.886 304.216C418.572 303.469 417.42 305.453 418.705 306.237C422.102 308.309 426.919 312.197 428.087 316.257C430.414 324.344 424.193 320.218 420.663 319.807C419.141 319.629 418.329 321.333 418.562 322.564C419.106 325.441 420.757 329.326 419.536 332.222C417.9 336.101 415.923 334.268 414.395 332.024C412.875 329.792 411.893 327.103 410.02 325.127C408.568 323.595 406.601 325.264 406.837 326.98Z" fill="black"/>
<path d="M389.285 481.551C386.951 485.755 384.305 493.194 378.247 489.483C375.706 487.926 374.999 485.009 372.125 483.893C371.078 483.485 369.919 484.35 369.62 485.316C368.332 489.486 366.225 495.215 361.064 490.501C358.936 488.556 358.762 485.476 356.717 483.753C355.394 482.64 353.582 483.084 352.998 484.736C351.811 488.089 350.51 494.503 346.239 494.475C340.282 494.436 341.504 487.196 339.138 483.648C338.397 482.536 336.95 482.038 335.737 482.756C333.669 483.98 332.929 485.507 331.984 487.569C331.224 489.225 329.721 491.748 327.458 491.157C326.596 490.932 325.969 490.147 325.688 489.302C325.111 487.562 325.284 484.993 325.434 483.198C325.568 481.601 325.868 480.49 325.613 478.906C325.404 477.616 323.605 476.992 322.576 477.671C319.586 479.648 318.107 483.482 314.903 485.253C314.485 485.485 313.677 485.904 312.926 485.99C312.851 485.681 312.699 485.235 312.737 484.71C312.795 483.907 313.151 482.713 313.359 481.934C313.747 480.483 314.486 479.269 315.211 477.978C315.762 476.994 316.402 476.065 316.959 475.088C317.428 474.264 317.419 474.054 317.646 473.807C317.743 473.702 317.783 473.584 317.779 473.467L317.786 473.469C317.805 473.183 317.706 472.931 317.545 472.715C317.719 472.466 317.447 472.156 317.163 472.291C317.148 472.297 317.135 472.306 317.12 472.313C316.682 472.017 316.112 471.855 315.657 471.864C313.709 471.902 312.214 474.261 311.21 475.64C309.516 477.968 308.932 480.268 308.189 483.002C307.396 485.919 307.84 487.648 309.797 489.971C310.004 490.215 310.262 490.386 310.544 490.493C313.743 492.574 317.888 488.217 321.1 484.732C320.653 489.137 320.591 493.781 325.164 495.919C327.833 497.166 330.926 496.43 333.115 494.608C334.448 493.499 335.099 491.747 335.865 490.144C335.958 490.846 336.072 491.533 336.306 492.14C336.87 493.603 337.768 494.743 338.791 495.911C341.041 498.477 343.827 500.42 347.398 499.925C352.123 499.269 354.388 495.261 355.819 491.051C356.358 491.785 356.954 492.507 357.505 493.103C359.386 495.136 361.864 496.87 364.762 496.831C369.259 496.771 371.399 493.061 372.697 489.259C373.894 490.789 374.968 493.004 376.425 493.897C378.371 495.09 381.016 495.41 383.235 495.141C389.436 494.39 391.568 488.41 393.223 483.213C393.963 480.882 390.468 479.421 389.285 481.551Z" fill="black"/>
<path d="M449.246 470.422C448.348 473.627 447.713 476.671 445.794 479.499C443.143 483.406 438.83 483.026 436.015 479.466C434.581 477.652 433.068 475.549 430.554 477.329C427.797 479.28 429.097 484.257 425.957 486.245C421.265 489.216 421.678 482.193 421.767 479.964C421.841 478.139 421.628 475.335 422.766 473.889C423.017 473.569 422.786 473.157 422.378 473.223C418.449 473.867 417.974 484.213 418.809 486.955C420.839 493.633 427.837 491.681 430.852 487.086C431.614 485.925 432.519 484.461 432.842 483.085C433.968 486.031 439.09 488.468 441.878 488.29C449.486 487.805 454.308 476.901 453.088 470.422C452.711 468.423 449.748 468.63 449.246 470.422Z" fill="black"/>
<path d="M383.957 351.485C382.606 356.266 381.577 363.597 377.637 367.011C371.723 372.135 370.257 359.971 368.979 356.195C368.391 354.457 366.08 353.575 364.7 355.065C363.017 356.883 356.74 365.877 355.128 361.713C354.095 359.04 355.52 355.088 354.96 352.169C354.548 350.029 351.979 349.917 350.587 351.014C349.394 351.956 342.113 358.746 340.175 355.336C339.431 354.025 341.96 349.912 342.493 348.935C343.319 347.422 348.234 338.502 350.402 339.192C350.938 339.363 351.221 338.689 350.911 338.318C347.078 333.737 337.781 348.767 336.729 351.251C335.298 354.634 334.934 358.743 338.87 360.63C342.532 362.386 346.518 360.358 349.884 358.012C349.543 362.057 349.055 366.426 353.396 368.161C358.557 370.224 362.581 366.276 365.711 362.239C367.58 368.263 370.001 376.186 377.346 373.48C385.135 370.612 388.019 359.305 387.722 351.995C387.636 349.867 384.561 349.353 383.957 351.485Z" fill="black"/>
<path d="M322.027 278.557C324.021 279.908 326.474 279.862 328.751 279.565C329.772 279.432 330.854 279.057 331.941 278.657C329.559 283.633 327.464 289.373 330.929 293.95C335.57 300.081 341.861 294.49 346.498 290.066C346.438 292.957 345.67 296.361 346.047 298.589C346.645 302.127 348.544 304.374 351.822 305.762C354.535 306.91 357.03 306.823 359.494 305.077C360.953 304.044 362.203 302.62 363.197 301.136C363.38 300.864 363.559 300.505 363.735 300.098C365.436 304.894 368.202 309.091 374.268 308.122C384.353 306.512 386.396 293.514 387.195 285.46C387.395 283.451 384.228 282.632 383.368 284.423C380.771 289.822 380.611 296.977 375.761 301.106C369.503 306.434 368.002 296.29 366.892 292.262C366.347 290.282 363.986 289.846 362.543 291.114C360.952 292.51 360.726 294.148 359.904 296.024C357.885 300.634 352.529 303.771 351.155 296.422C350.353 292.128 352.584 287.746 350.393 283.663C349.772 282.505 347.891 281.877 346.774 282.713C344.328 284.546 336.447 293.93 334.538 288.623C333.186 284.864 337.07 279.396 338.486 276.233C339.182 274.681 338.4 272.508 336.402 272.6C334.456 272.69 333.102 273.602 331.298 274.197C329.411 274.821 324.329 276.061 324.171 272.128C324.114 270.726 325.989 268.59 326.8 267.601C328.829 265.131 331.496 263.019 334.387 261.651C335.345 261.199 339.464 259.289 340.647 259.832C341.964 260.439 343.092 258.627 341.803 257.855C338.869 256.098 334.176 257.475 331.331 258.904C326.89 261.135 322.676 264.681 320.563 269.261C319.084 272.473 318.743 276.332 322.027 278.557Z" fill="black"/>
<path d="M379.698 272.916C382.06 273.703 384.385 272.522 386.203 271.057C388.043 269.575 388.764 267.294 390.009 265.486C391.734 267.332 392.582 269.824 395.409 270.713C397.889 271.493 400.364 270.639 402.448 269.252C407.266 266.05 410.078 259.182 408.628 253.58C408.047 251.331 404.895 251.497 404.235 253.58C403.039 257.35 403.588 262.682 399.505 264.962C395.301 267.31 394.024 262.257 390.909 260.415C389.978 259.864 388.942 260.119 388.163 260.769C386.353 262.28 386.185 264.71 384.657 266.367C382.865 268.311 380.098 268.761 378.931 265.808C378.085 263.666 379.092 261.218 379.734 259.187C380.167 257.816 377.965 256.829 377.368 258.189C375.5 262.443 373.483 270.843 379.698 272.916Z" fill="black"/>
<path d="M288.184 471.136C286.165 472.553 285.108 474.065 283.803 476.124C282.185 478.679 278.088 483.894 274.335 482.143C270.945 480.562 273.883 473.049 273.842 470.051C273.812 467.804 271.102 466.748 269.498 468.251C268.003 469.65 259.852 478.495 257.51 472.919C255.706 468.625 265.518 459.41 269.019 458.277C270.497 457.798 269.888 455.69 268.384 455.972C261.286 457.302 249.607 468.227 253.625 476.344C255.21 479.547 258.966 480.01 262.084 479.165C264.001 478.646 266.015 477.694 267.745 476.735C267.817 476.696 267.874 476.653 267.944 476.613C267.36 480.807 267.347 484.943 271.92 486.944C275.667 488.583 279.852 487.282 283.101 485.13C287.296 482.351 288.481 478.128 291.287 474.238C292.597 472.418 290 469.863 288.184 471.136Z" fill="black"/>
</g>
<path d="M446.5 568.538C687.02 568.538 882 564.009 882 558.423C882 552.836 687.02 548.307 446.5 548.307C205.98 548.307 11 552.836 11 558.423C11 564.009 205.98 568.538 446.5 568.538Z" fill="#3F3D56"/>
<path d="M660.874 373.89L659.442 403.955L728.162 426.862C728.162 426.862 724.583 388.923 726.73 385.344L660.874 373.89Z" fill="#9E616A"/>
<path d="M549.205 507.751L542.763 532.805H572.827V507.751H549.205Z" fill="#9E616A"/>
<path d="M705.256 514.411L718.856 519.205L726.014 501.231L713.845 491.644L705.256 514.411Z" fill="#A0616A"/>
<path d="M729.356 483.214C729.356 483.214 749.636 480.549 749.636 497.729C749.636 514.909 752.5 557.143 723.866 552.132C723.866 552.132 710.982 553.564 715.992 538.531C715.992 538.531 721.093 532.416 719.259 528.673C717.424 524.931 706.687 522.067 708.118 519.92C709.55 517.772 725.298 500.592 725.298 500.592L729.356 483.214Z" fill="#2F2E41"/>
<path d="M729.593 423.283L659.442 398.944L655.147 416.124C655.147 416.124 549.921 355.279 543.478 396.797C543.478 396.797 537.752 430.441 546.342 474.823L547.058 510.614C547.058 510.614 564.953 514.909 573.543 511.33L574.259 472.675C574.259 472.675 581.417 447.621 577.838 428.293C577.838 428.293 631.525 470.528 655.863 475.538C655.863 475.538 570.68 541.395 580.701 562.154C590.723 582.913 602.892 586.492 618.64 582.913C629.493 580.447 678.079 541.266 707.238 517.144C717.233 508.955 725.169 498.538 730.41 486.729C735.652 474.919 738.052 462.045 737.419 449.14C736.898 439.645 734.706 430.441 729.593 423.283Z" fill="#2F2E41"/>
<path d="M547.773 523.499C547.773 523.499 547.057 514.909 542.762 518.488C538.467 522.067 523.435 535.668 523.435 535.668C523.435 535.668 469.032 541.64 501.96 555.241C516.999 557.502 532.37 555.519 546.342 549.514C546.342 549.514 582.928 558.907 582.173 549.793C581.417 540.679 572.827 525.458 572.827 525.458C572.827 525.458 562.806 532.805 551.352 522.783L547.773 523.499Z" fill="#2F2E41"/>
<path d="M689.507 291.57C704.135 291.57 715.993 279.712 715.993 265.084C715.993 250.456 704.135 238.598 689.507 238.598C674.879 238.598 663.021 250.456 663.021 265.084C663.021 279.712 674.879 291.57 689.507 291.57Z" fill="#9E616A"/>
<path d="M710.982 266.515C710.982 266.515 715.277 287.99 723.151 293.001L679.486 344.541L663.021 328.793L675.191 307.318C675.191 307.318 688.791 299.444 684.496 288.706L710.982 266.515Z" fill="#9E616A"/>
<path d="M726.73 295.149C726.73 295.149 758.226 301.591 761.805 322.35C765.385 343.109 758.226 381.048 758.226 381.048L743.194 492.718C743.194 492.718 742.478 539.963 723.866 532.089C705.255 524.215 728.877 488.423 728.877 488.423L735.32 418.272C735.32 418.272 738.183 358.858 732.456 351.699L709.55 344.541C709.55 344.541 714.561 297.296 726.73 295.149Z" fill="#9E616A"/>
<path d="M675.19 307.318C675.19 307.318 653.715 306.602 640.115 323.782C626.514 340.962 593.586 353.847 593.586 353.847L511.266 386.059C511.266 386.059 496.233 359.574 486.928 368.879C477.622 378.185 504.107 401.808 516.277 398.944C528.446 396.081 602.176 373.89 602.176 373.89L660.874 347.404L675.19 307.318Z" fill="#9E616A"/>
<path d="M722.041 291.295C722.041 291.295 694.518 328.077 682.349 327.361C670.18 326.645 678.376 304.896 678.376 304.896L669.786 307.044C669.786 307.044 658.011 329.509 656.579 330.94C656.579 330.94 639.399 358.858 658.726 365.3L659.442 380.333C659.442 380.333 707.403 378.185 728.162 388.923L732.457 351.699C732.457 351.699 705.255 338.099 720.287 311.613C720.287 311.613 725.62 297.738 731.347 296.306L722.041 291.295Z" fill="#3F3D56"/>
<path opacity="0.1" d="M729.235 488.065L619.714 568.239C619.714 568.239 729.951 503.098 729.235 488.065Z" fill="black"/>
<path d="M717.066 267.589C718.208 267.589 719.134 265.506 719.134 262.936C719.134 260.366 718.208 258.283 717.066 258.283C715.924 258.283 714.998 260.366 714.998 262.936C714.998 265.506 715.924 267.589 717.066 267.589Z" fill="#9E616A"/>
<path d="M660.306 251.018C660.306 251.018 652.882 200.88 705.894 216.35C705.894 216.35 743.397 208.722 756.643 255.562L770.088 304.67L763.934 301.472L761.214 307.733L751.392 310.422L747.008 302.12L745.16 312.339L664.478 321.95C664.478 321.95 700.272 299.843 700.109 261.457L693.353 268.877L660.306 251.018Z" fill="#2F2E41"/>
<defs>
<clipPath id="clip0_331_715">
<rect width="507.996" height="508" fill="white" transform="translate(112.182 120)"/>
</clipPath>
</defs>
</svg>
