<svg width="893" height="749" viewBox="0 0 893 749" fill="none" xmlns="http://www.w3.org/2000/svg">
<g clip-path="url(#clip0_331_721)">
<path d="M440.75 253.389C439.846 258.352 436.791 268.83 426.92 268.569C419.386 268.378 413.581 261.799 413.78 254.262L416.621 151.629L417.548 118.158C417.548 118.158 422.433 108.898 427.296 150.411V150.564L440.803 249C441.02 250.457 441.002 251.938 440.75 253.389Z" fill="#D0D0D0"/>
<path d="M434.171 263.354H419.668V294.381H434.171V263.354Z" fill="#D0D0D0"/>
<path d="M432.609 287.013H421.452V300.631H432.609V287.013Z" fill="#D0D0D0"/>
<path d="M427.318 150.572C422.241 149.094 418.788 150.219 416.598 151.636L417.524 118.166C417.524 118.166 422.41 108.906 427.272 150.419L427.318 150.572Z" fill="#3F3D56"/>
<path d="M434.171 272.629V294.381H419.668V273.058C424.27 271.065 429.46 270.911 434.171 272.629V272.629Z" fill="#3F3D56"/>
<path d="M468.315 341.784C464.249 338.797 456.179 331.459 460.735 322.697C464.211 316.011 472.665 313.667 479.35 317.152L570.327 364.7L599.999 380.202C599.999 380.202 606.171 388.627 566.735 374.841L566.59 374.795L472.213 343.775C470.818 343.32 469.502 342.648 468.315 341.784V341.784Z" fill="#D0D0D0"/>
<path d="M440.731 304.871L434.373 317.909L462.254 331.511L468.611 318.473L440.731 304.871Z" fill="#D0D0D0"/>
<path d="M441.676 319.735L446.566 309.705L434.33 303.736L429.439 313.766L441.676 319.735Z" fill="#D0D0D0"/>
<path d="M566.59 374.787C570.143 370.866 570.648 367.266 570.327 364.7L599.999 380.202C599.999 380.202 606.171 388.627 566.735 374.841L566.59 374.787Z" fill="#3F3D56"/>
<path d="M453.919 327.438L434.37 317.902L440.726 304.882L459.869 314.226C459.646 319.228 457.517 323.956 453.919 327.438V327.438Z" fill="#3F3D56"/>
<path d="M385.524 341.784C389.59 338.797 397.661 331.459 393.105 322.697C389.629 316.011 381.175 313.667 374.49 317.152L283.513 364.7L253.841 380.202C253.841 380.202 247.669 388.627 287.104 374.841L287.25 374.795L381.627 343.783C383.023 343.325 384.338 342.651 385.524 341.784V341.784Z" fill="#D0D0D0"/>
<path d="M413.11 304.869L385.229 318.47L391.587 331.509L419.468 317.907L413.11 304.869Z" fill="#D0D0D0"/>
<path d="M424.398 313.762L419.507 303.732L407.27 309.701L412.161 319.732L424.398 313.762Z" fill="#D0D0D0"/>
<path d="M287.25 374.787C283.697 370.866 283.192 367.266 283.513 364.7L253.841 380.202C253.841 380.202 247.669 388.627 287.104 374.841L287.25 374.787Z" fill="#3F3D56"/>
<path d="M399.92 327.438L419.47 317.902L413.114 304.882L393.971 314.226C394.194 319.228 396.323 323.956 399.92 327.438V327.438Z" fill="#3F3D56"/>
<path d="M439.968 645.448H411.521L420.556 310.335H430.932L439.968 645.448Z" fill="#D0D0D0"/>
<path d="M426.92 315.689C432.156 315.689 436.4 311.444 436.4 306.207C436.4 300.97 432.156 296.725 426.92 296.725C421.685 296.725 417.44 300.97 417.44 306.207C417.44 311.444 421.685 315.689 426.92 315.689Z" fill="#3F3D56"/>
<path d="M651.387 235.727C650.782 239.082 648.714 246.166 642.037 245.99C639.579 245.877 637.264 244.797 635.598 242.985C633.931 241.173 633.048 238.777 633.139 236.317L635.069 166.878L635.689 144.238C635.689 144.238 638.997 137.972 642.29 166.059V166.158L651.425 232.793C651.566 233.767 651.553 234.757 651.387 235.727V235.727Z" fill="#D0D0D0"/>
<path d="M646.938 242.459H637.129V263.453H646.938V242.459Z" fill="#D0D0D0"/>
<path d="M645.881 258.467H638.331V267.681H645.881V258.467Z" fill="#D0D0D0"/>
<path d="M642.305 166.166C638.867 165.17 636.532 165.929 635.069 166.886L635.69 144.245C635.69 144.245 638.998 137.98 642.29 166.066L642.305 166.166Z" fill="#3F3D56"/>
<path d="M646.938 248.732V263.438H637.129V249.031C640.24 247.678 643.751 247.571 646.938 248.732Z" fill="#3F3D56"/>
<path d="M670.017 295.522C667.268 293.508 661.801 288.545 664.887 282.616C666.066 280.454 668.052 278.847 670.412 278.144C672.771 277.44 675.313 277.699 677.483 278.863L739.033 311.032L759.103 321.517C759.103 321.517 763.284 327.239 736.605 317.887H736.506L672.651 296.908C671.705 296.589 670.816 296.121 670.017 295.522V295.522Z" fill="#D0D0D0"/>
<path d="M651.373 270.554L647.073 279.372L665.938 288.576L670.238 279.757L651.373 270.554Z" fill="#D0D0D0"/>
<path d="M652.021 280.614L655.331 273.827L647.051 269.788L643.742 276.575L652.021 280.614Z" fill="#D0D0D0"/>
<path d="M736.529 317.856C738.934 315.206 739.278 312.771 739.056 311.032L759.126 321.517C759.126 321.517 763.307 327.239 736.629 317.887L736.529 317.856Z" fill="#3F3D56"/>
<path d="M660.301 285.826L647.046 279.369L651.342 270.553L664.306 276.872C664.161 280.258 662.728 283.461 660.301 285.826V285.826Z" fill="#3F3D56"/>
<path d="M614.027 295.522C616.776 293.508 622.243 288.545 619.157 282.616C617.978 280.454 615.992 278.847 613.632 278.144C611.272 277.44 608.731 277.699 606.561 278.863L545.011 311.032L524.941 321.517C524.941 321.517 520.76 327.239 547.438 317.887H547.538L611.393 296.908C612.338 296.589 613.228 296.121 614.027 295.522V295.522Z" fill="#D0D0D0"/>
<path d="M632.699 270.557L613.834 279.76L618.134 288.579L636.999 279.376L632.699 270.557Z" fill="#D0D0D0"/>
<path d="M640.328 276.57L637.019 269.782L628.739 273.821L632.049 280.609L640.328 276.57Z" fill="#D0D0D0"/>
<path d="M547.538 317.856C545.134 315.206 544.789 312.771 545.011 311.032L524.941 321.517C524.941 321.517 520.76 327.239 547.438 317.887L547.538 317.856Z" fill="#3F3D56"/>
<path d="M623.767 285.826L636.991 279.369L632.695 270.553L619.731 276.872C619.884 280.262 621.328 283.466 623.767 285.826V285.826Z" fill="#3F3D56"/>
<path d="M650.867 500.973L631.524 504.373L637.727 274.253H644.749L650.867 500.973Z" fill="#D0D0D0"/>
<path d="M642.038 277.875C645.582 277.875 648.455 275.002 648.455 271.457C648.455 267.912 645.582 265.039 642.038 265.039C638.494 265.039 635.621 267.912 635.621 271.457C635.621 275.002 638.494 277.875 642.038 277.875Z" fill="#3F3D56"/>
<path d="M212.498 235.727C211.894 239.082 209.826 246.166 203.149 245.99C200.691 245.877 198.377 244.796 196.712 242.984C195.047 241.173 194.165 238.776 194.259 236.317L196.181 166.878L196.801 144.238C196.801 144.238 200.109 137.972 203.402 166.059V166.158L212.544 232.793C212.679 233.768 212.664 234.757 212.498 235.727Z" fill="#D0D0D0"/>
<path d="M208.05 242.459H198.241V263.453H208.05V242.459Z" fill="#D0D0D0"/>
<path d="M206.994 258.467H199.443V267.681H206.994V258.467Z" fill="#D0D0D0"/>
<path d="M203.417 166.166C199.986 165.17 197.643 165.929 196.181 166.886L196.801 144.245C196.801 144.245 200.109 137.98 203.402 166.066L203.417 166.166Z" fill="#3F3D56"/>
<path d="M208.05 248.732V263.438H198.241V249.031C201.352 247.678 204.863 247.571 208.05 248.732Z" fill="#3F3D56"/>
<path d="M231.152 295.522C228.403 293.508 222.943 288.545 226.029 282.616C227.207 280.455 229.191 278.847 231.55 278.144C233.908 277.441 236.449 277.7 238.618 278.863L300.168 311.032L320.245 321.517C320.245 321.517 324.418 327.239 297.74 317.887H297.641L233.794 296.908C232.846 296.589 231.954 296.121 231.152 295.522V295.522Z" fill="#D0D0D0"/>
<path d="M212.488 270.556L208.188 279.375L227.052 288.578L231.352 279.759L212.488 270.556Z" fill="#D0D0D0"/>
<path d="M213.131 280.612L216.44 273.825L208.161 269.785L204.851 276.573L213.131 280.612Z" fill="#D0D0D0"/>
<path d="M297.641 317.856C300.045 315.206 300.39 312.771 300.168 311.032L320.245 321.517C320.245 321.517 324.418 327.239 297.74 317.887L297.641 317.856Z" fill="#3F3D56"/>
<path d="M221.412 285.826L208.188 279.369L212.491 270.553L225.447 276.872C225.298 280.263 223.853 283.468 221.412 285.826V285.826Z" fill="#3F3D56"/>
<path d="M175.139 295.522C177.896 293.508 183.355 288.545 180.269 282.616C179.09 280.454 177.104 278.847 174.745 278.144C172.385 277.44 169.843 277.699 167.673 278.863L106.123 311.032L86.0535 321.517C86.0535 321.517 81.8726 327.239 108.551 317.887H108.65L172.505 296.908C173.451 296.589 174.34 296.121 175.139 295.522Z" fill="#D0D0D0"/>
<path d="M193.808 270.555L174.943 279.758L179.243 288.576L198.108 279.373L193.808 270.555Z" fill="#D0D0D0"/>
<path d="M201.446 276.574L198.137 269.787L189.857 273.826L193.167 280.614L201.446 276.574Z" fill="#D0D0D0"/>
<path d="M108.65 317.856C106.254 315.206 105.909 312.771 106.123 311.032L86.0535 321.517C86.0535 321.517 81.8726 327.239 108.551 317.887L108.65 317.856Z" fill="#3F3D56"/>
<path d="M184.879 285.826L198.103 279.369L193.808 270.553L180.844 276.872C181 280.262 182.444 283.464 184.879 285.826Z" fill="#3F3D56"/>
<path d="M211.978 500.973H192.728L198.846 274.253H205.86L211.978 500.973Z" fill="#D0D0D0"/>
<path d="M203.149 277.875C206.693 277.875 209.566 275.002 209.566 271.457C209.566 267.912 206.693 265.039 203.149 265.039C199.605 265.039 196.732 267.912 196.732 271.457C196.732 275.002 199.605 277.875 203.149 277.875Z" fill="#3F3D56"/>
<path d="M852.025 562.913C845.473 586.824 831.249 607.92 811.542 622.958C791.834 637.996 767.734 646.142 742.947 646.145H166.295C139.643 646.129 113.518 638.725 90.8196 624.754C68.1213 610.783 49.7386 590.792 37.7129 567.003C37.7129 567.003 121.293 451.364 338.355 526.914C518.563 589.635 601.684 530.323 624.74 508.371C627.236 506.005 630.185 504.169 633.409 502.974C636.633 501.779 640.066 501.249 643.501 501.417C687.661 503.508 840.631 514.215 852.048 562.897L852.025 562.913Z" fill="#D0D0D0"/>
<path opacity="0.1" d="M160.138 652.992C211.698 652.992 253.496 648.085 253.496 642.032C253.496 635.979 211.698 631.072 160.138 631.072C108.577 631.072 66.7793 635.979 66.7793 642.032C66.7793 648.085 108.577 652.992 160.138 652.992Z" fill="#3F3D56"/>
<path d="M206.871 632.251C206.871 632.251 200.814 631.539 196.871 628.598L196.572 628.36C196.81 628.003 196.984 627.606 197.085 627.189C196.662 626.364 196.439 625.45 196.434 624.523C196.447 623.653 196.269 622.79 195.913 621.996V617.691C195.913 617.691 194.604 616.297 194.474 612.751C194.344 609.205 194.214 591.726 194.214 591.726C194.012 590.811 193.967 589.868 194.083 588.938C194.214 586.916 194.214 586.158 194.214 586.158C193.785 584.983 193.651 583.721 193.823 582.482C194.214 580.95 192.904 579.188 192.904 579.188L194.864 569.568C194.864 569.568 195.952 536.335 192.789 526.317V526.256C192.789 526.256 192.789 526.171 192.789 526.133C193.057 519.669 189.137 508.907 191.357 501.44C193.578 493.972 193.838 492.318 193.838 492.318C193.838 492.318 184.052 467.747 181.587 461.926C179.879 457.913 178.11 453.501 176.364 450.989C176.211 450.769 176.058 450.562 175.905 450.368C175.821 450.261 175.736 450.154 175.652 450.062C176.186 449.171 176.508 448.171 176.594 447.136C176.732 445.328 176.471 443.245 177.789 441.966C178.291 441.555 178.832 441.193 179.404 440.886C180.413 440.222 181.216 439.289 181.723 438.193C182.231 437.097 182.422 435.881 182.276 434.682C182 432.775 180.905 431.19 179.657 429.65C180.084 427.314 179.914 424.908 179.161 422.655C178.409 420.403 177.099 418.377 175.353 416.767V416.767C175.353 416.53 175.353 416.285 175.353 416.047C175.389 414.293 174.851 412.574 173.822 411.153L174.19 411.414C173.983 411.23 173.784 411.054 173.569 410.877C173.267 410.573 172.921 410.314 172.543 410.111C169.64 408.127 166.246 406.98 162.734 406.798C159.222 406.615 155.727 407.404 152.634 409.077C151.085 409.906 149.755 411.09 148.752 412.532C146.707 415.687 147.22 419.77 146.164 423.354C145.138 426.778 142.718 429.612 140.712 432.599C138.705 435.586 137.028 439.124 137.787 442.617C138.33 445.152 140.137 447.427 140.084 450.024C139.994 451.384 139.432 452.67 138.495 453.66C137.559 454.65 136.306 455.282 134.953 455.446H134.884C134.631 455.485 134.375 455.506 134.119 455.508C136.554 457.185 139.578 457.805 142.542 458.196C142.481 458.426 142.419 458.655 142.366 458.893C139.969 467.938 137.833 479.427 137.833 479.427C137.833 479.427 139.264 491.069 136.263 500.191C133.261 509.313 133.652 528.055 133.652 528.055C133.652 528.055 142.006 523.743 142.526 526.524C143.047 529.304 142.526 530.07 142.526 530.07C142.526 530.07 144.234 530.935 146.24 531.701L146.156 532.812L145.788 537.79C145.648 538.834 145.807 539.897 146.248 540.854C146.968 542.248 146.248 546.047 146.248 546.047C146.248 546.047 145.635 546.43 146.248 548.207C146.861 549.984 145.766 552.511 145.766 552.511C145.766 552.511 145 562.009 144.9 564C144.801 565.991 142.289 571.728 142.289 571.728C142.289 571.728 144.51 574.509 142.289 574.892C140.068 575.274 139.808 578.721 139.808 578.721C139.808 578.721 137.197 580.873 137.197 581.632C137.197 581.632 125.451 593.542 122.709 613.165C122.709 613.165 119.968 615.7 120.358 618.105C120.581 619.468 120.136 619.935 119.708 620.088C120.19 620.15 120.718 620.464 120.473 621.62C120.083 623.642 119.041 627.954 119.041 627.954H119.225C117.089 630.428 113.965 634.572 113.49 638.21C113.49 638.363 113.475 638.516 113.444 638.67L112.265 641.327L122.579 645.923L123.49 644.529C123.49 644.529 128.085 649.722 133.284 650.855C134.182 651.05 135.099 651.15 136.018 651.154C138.92 651.104 141.788 650.53 144.487 649.461C144.487 649.461 148.269 644.782 138.476 643.893C138.476 643.893 132.74 637.306 133.261 634.518C133.458 633.345 133.578 632.161 133.621 630.972C133.621 630.712 133.621 630.456 133.621 630.206L134.287 630.306L134.41 628.184C134.696 627.825 134.836 627.371 134.8 626.913C134.8 626.032 134.034 625.902 134.8 625.381C135.566 624.86 135.566 625.381 135.566 624.117C135.566 622.853 135.045 623.229 136.217 621.965C137.388 620.701 136.087 618.419 136.087 618.419C136.087 618.419 138.828 616.389 138.698 613.731C138.568 611.074 147.442 594.231 149.265 593.595C151.087 592.96 151.225 589.666 151.225 589.666C151.225 589.666 153.706 590.172 154.487 589.666C155.268 589.161 157.749 585.239 157.749 585.239C157.749 585.239 167.704 560.163 167.803 550.665L168.454 548.513C168.454 548.513 172.245 553.453 171.716 557C171.188 560.546 174.611 563.073 174.611 563.073V573.842C174.993 575.719 175.203 577.626 175.239 579.541C175.108 581.31 176.77 583.087 176.142 584.603C175.514 586.12 176.142 588.785 176.142 588.785C176.142 588.785 176.004 592.331 176.142 593.343C176.28 594.354 175.629 606.003 179.029 611.074C179.029 611.074 180.461 614.742 179.029 617.147C177.597 619.552 180.331 621.965 180.331 621.965C180.331 621.965 178.638 624.745 180.331 626.775C181.301 628.058 181.737 629.666 181.548 631.263C180.867 633.837 180.361 637.214 181.502 639.566V639.619L181.809 643.235L191.809 642.469V640.447C191.809 640.447 198.639 642.262 205.003 641.274C208.433 640.745 211.726 639.397 213.74 636.517C213.793 636.556 217.836 629.594 206.871 632.251Z" fill="url(#paint0_linear_331_721)"/>
<path d="M211.94 636.617C209.995 639.489 206.817 640.829 203.517 641.358C197.391 642.338 190.783 640.531 190.783 640.531V642.568L181.127 643.334L180.828 639.734V639.673C179.71 637.299 180.223 633.867 180.897 631.286C181.221 630.068 181.62 628.871 182.092 627.702C182.092 627.702 190.408 620.64 193.18 625.94C193.781 627.036 194.615 627.988 195.622 628.728C199.451 631.654 205.278 632.366 205.278 632.366C215.845 629.685 211.94 636.617 211.94 636.617Z" fill="#65617D"/>
<path opacity="0.1" d="M186.227 629.685C186.227 629.685 186.227 636.242 191.012 636.119C195.798 635.997 196.441 633.507 194.925 631.822C193.896 630.628 193.008 629.32 192.276 627.924L186.227 629.685Z" fill="black"/>
<path d="M145.015 649.461C142.409 650.526 139.628 651.097 136.814 651.146C135.925 651.141 135.04 651.043 134.172 650.855C129.133 649.714 124.723 644.544 124.723 644.544L123.842 645.938L113.888 641.396L115.013 638.739L115.059 638.287C115.519 634.664 118.536 630.536 120.603 628.069C121.729 626.729 122.579 625.886 122.579 625.886L134.555 627.648C134.555 627.648 134.601 629.18 134.555 631.049C134.515 632.232 134.397 633.412 134.203 634.58C133.705 637.352 139.241 643.909 139.241 643.909C148.667 644.812 145.015 649.461 145.015 649.461Z" fill="#65617D"/>
<path d="M121.062 620.188C120.86 620.256 120.644 620.272 120.435 620.234C120.64 620.183 120.852 620.167 121.062 620.188Z" fill="#444053"/>
<path opacity="0.1" d="M134.554 627.671C134.554 627.671 134.6 629.203 134.554 631.072L120.465 628.774C120.465 628.774 120.534 628.506 120.633 628.062C121.759 626.721 122.609 625.879 122.609 625.879L134.554 627.671Z" fill="black"/>
<path opacity="0.1" d="M195.599 628.697C193.47 633.622 180.805 632.458 180.805 632.458C180.868 632.06 180.891 631.658 180.874 631.256C181.197 630.037 181.596 628.84 182.068 627.671C182.068 627.671 190.384 620.609 193.156 625.909C193.758 627.006 194.591 627.957 195.599 628.697V628.697Z" fill="black"/>
<path d="M195.805 627.296C194.55 632.964 180.805 631.707 180.805 631.707C181.069 630.023 180.662 628.301 179.671 626.913C178.033 624.898 179.671 622.126 179.671 622.126C179.671 622.126 177.022 619.728 178.416 617.331C179.809 614.934 178.416 611.28 178.416 611.28C175.131 606.241 175.766 594.637 175.628 593.664C175.491 592.692 175.628 589.13 175.628 589.13C175.628 589.13 175.008 586.48 175.628 584.963C176.249 583.447 174.633 581.685 174.755 579.924C174.72 578.018 174.518 576.119 174.151 574.248V563.525C174.151 563.525 170.85 561.005 171.356 557.475C171.861 553.944 168.201 549.049 168.201 549.049L167.573 551.194C167.45 560.645 157.871 585.607 157.871 585.607C157.871 585.607 155.474 589.521 154.716 590.026C153.958 590.532 151.569 590.026 151.569 590.026C151.569 590.026 151.439 593.304 149.678 593.932C147.916 594.56 139.34 611.326 139.47 613.976C139.601 616.626 136.943 618.641 136.943 618.641C136.943 618.641 138.207 620.939 137.074 622.172C135.94 623.405 136.438 623.053 136.438 624.316C136.438 625.58 136.438 625.082 135.672 625.572C134.907 626.063 135.672 626.208 135.672 627.104C135.708 627.556 135.571 628.005 135.29 628.36L135.175 630.482L120.419 628.115C120.419 628.115 121.43 623.826 121.805 621.804C122.027 620.625 121.514 620.311 121.039 620.272C121.46 620.119 121.889 619.652 121.675 618.304C121.292 615.907 123.972 613.387 123.972 613.387C126.621 593.84 137.962 581.984 137.962 581.984C137.962 581.218 140.481 579.089 140.481 579.089C140.481 579.089 140.734 575.68 142.878 575.305C145.022 574.93 142.878 572.15 142.878 572.15C142.878 572.15 145.275 566.482 145.397 564.49C145.52 562.499 146.232 553.002 146.232 553.002C146.232 553.002 147.289 550.482 146.699 548.72C146.109 546.958 146.699 546.575 146.699 546.575C146.699 546.575 147.411 542.792 146.699 541.405C146.277 540.457 146.123 539.41 146.255 538.38L146.615 533.417L147.135 526.026C147.135 526.026 186.349 519.255 190.667 524.67C191.135 525.339 191.48 526.086 191.686 526.876C194.749 536.833 193.692 569.928 193.692 569.928L191.801 579.51C191.801 579.51 193.064 581.279 192.689 582.788C192.52 584.021 192.649 585.276 193.064 586.449C193.064 586.449 193.064 587.215 192.934 589.222C192.824 590.147 192.868 591.084 193.064 591.994C193.064 591.994 193.187 609.389 193.317 612.919C193.447 616.45 194.703 617.837 194.703 617.837V622.126C195.043 622.922 195.212 623.78 195.201 624.646C195.195 625.564 195.402 626.471 195.805 627.296V627.296Z" fill="#444053"/>
<path opacity="0.1" d="M136.814 651.162C135.925 651.156 135.04 651.059 134.172 650.871C129.133 649.73 124.723 644.56 124.723 644.56L123.842 645.953L113.888 641.412L115.013 638.739L115.059 638.287L125.351 643.533C125.351 643.533 133.567 647.47 136.814 651.162Z" fill="black"/>
<path opacity="0.1" d="M203.501 641.358C197.375 642.338 190.767 640.531 190.767 640.531V642.568L181.111 643.334L180.812 639.734C183.875 639.788 188.799 639.841 190.943 639.673C195.186 639.665 199.41 640.232 203.501 641.358V641.358Z" fill="black"/>
<path opacity="0.1" d="M125.994 616.941C126.498 616.895 127.005 616.96 127.48 617.132C127.977 617.429 128.448 617.767 128.889 618.143C129.22 618.319 129.532 618.527 129.823 618.763C130.191 619.123 130.344 619.659 130.711 620.019C131.385 620.686 132.495 620.533 133.391 620.854C133.491 620.854 133.598 620.939 133.613 621.038C133.629 621.138 133.545 621.222 133.46 621.283C133.239 621.409 132.988 621.476 132.733 621.476C132.478 621.476 132.227 621.409 132.005 621.283C131.561 621.031 131.152 620.722 130.788 620.364C130.088 619.743 129.288 619.246 128.422 618.894C127.235 618.426 125.167 618.296 124.417 617.132C124.769 616.864 125.535 616.948 125.994 616.941Z" fill="black"/>
<path opacity="0.1" d="M124.983 619.591C125.249 619.666 125.506 619.771 125.749 619.905L127.043 620.556C126.124 620.617 125.207 620.412 124.401 619.966C124.115 619.85 123.836 619.717 123.566 619.568C124.037 619.496 124.515 619.504 124.983 619.591Z" fill="black"/>
<path opacity="0.1" d="M126.691 621.796C126.973 621.785 127.256 621.808 127.533 621.865C128.02 622.036 128.472 622.296 128.865 622.631C129.809 623.394 130.99 623.803 132.204 623.788C131.965 623.9 131.7 623.945 131.438 623.918H128.727C128.022 623.964 127.319 623.802 126.706 623.451C126.246 623.229 124.347 622.685 124.332 622.049C124.317 621.414 126.231 621.796 126.691 621.796Z" fill="black"/>
<path opacity="0.1" d="M188.371 625.013C189.2 625.105 190.035 625.128 190.867 625.082C191.744 625.058 192.597 624.793 193.333 624.316C194.06 623.757 193.907 623.183 192.981 623.144C192.119 623.184 191.274 623.392 190.492 623.757C190.088 623.92 189.698 624.117 189.328 624.347C189.137 624.431 188.509 625.021 188.371 625.013Z" fill="black"/>
<path opacity="0.1" d="M191.388 626.392C191.311 626.698 190.99 626.867 190.699 626.982C189.986 627.251 189.238 627.416 188.478 627.472C188.287 627.472 187.751 627.472 187.82 627.173C187.888 626.874 188.685 626.966 188.876 626.943C189.725 626.816 190.564 626.632 191.388 626.392V626.392Z" fill="black"/>
<path opacity="0.1" d="M183.823 625.894C184.882 625.772 185.952 625.984 186.885 626.499C186.914 626.517 186.935 626.544 186.947 626.576C186.952 626.586 186.955 626.598 186.955 626.61C186.955 626.622 186.952 626.634 186.947 626.645C186.849 626.828 186.7 626.978 186.517 627.076C186.335 627.174 186.127 627.216 185.921 627.196C185.511 627.148 185.11 627.048 184.726 626.897C184.088 626.691 183.421 626.591 182.751 626.599C182.452 626.626 182.153 626.626 181.855 626.599C180.966 626.446 181.257 626.086 181.939 626.009C182.564 625.938 183.193 625.899 183.823 625.894V625.894Z" fill="black"/>
<path opacity="0.1" d="M149.196 576.354C147.933 575.469 146.435 574.979 144.893 574.945C146.454 574.848 147.994 575.352 149.196 576.354Z" fill="black"/>
<path opacity="0.1" d="M148.017 571.269C149.153 571.275 150.265 571.593 151.233 572.188L150.069 571.866C149.368 571.644 148.648 571.492 147.917 571.414C147.496 571.376 147.075 571.414 146.654 571.368C146.232 571.322 145.696 571.246 145.222 571.23C146.148 571.276 147.082 571.223 148.017 571.269Z" fill="black"/>
<path opacity="0.1" d="M151.806 573.689C152.159 573.758 152.572 573.911 152.649 574.271C152.649 574.057 150.152 573.352 149.846 573.252C149.333 573.069 147.687 572.349 147.312 572.846C148.759 573.237 150.321 573.383 151.806 573.689Z" fill="black"/>
<path opacity="0.1" d="M155.314 562.491C156.969 561.935 158.461 560.977 159.656 559.703C159.643 560.271 159.49 560.827 159.211 561.321C158.932 561.815 158.535 562.233 158.055 562.537C157.085 563.126 156.012 563.526 154.893 563.717C153.775 563.908 152.685 564.234 151.646 564.689C151.148 564.942 149.594 566.413 149.104 566.336C148.484 566.244 149.471 565.264 149.701 565.088C151.34 563.809 153.415 563.242 155.314 562.491Z" fill="black"/>
<path opacity="0.1" d="M186.196 578.844C185.66 578.66 179.152 579.924 179.55 578.66C179.795 577.894 181.908 578.17 182.437 578.193C183.715 578.229 184.981 578.448 186.196 578.844V578.844Z" fill="black"/>
<path d="M179.182 428.111C179.181 431.427 178.034 434.642 175.934 437.208C173.835 439.775 170.912 441.537 167.662 442.194C164.412 442.85 161.034 442.363 158.103 440.813C155.172 439.263 152.866 436.746 151.579 433.69C150.291 430.634 150.1 427.226 151.038 424.045C151.976 420.864 153.985 418.105 156.725 416.237C159.465 414.369 162.766 413.506 166.07 413.796C169.373 414.085 172.474 415.508 174.847 417.824C176.224 419.159 177.318 420.758 178.062 422.526C178.807 424.293 179.188 426.193 179.182 428.111V428.111Z" fill="#FBBEBE"/>
<path d="M172.237 434.031C172.237 434.031 167.573 447.649 170.223 450.422C172.872 453.194 151.187 454.834 151.187 454.834C151.187 454.834 160.26 438.573 159.38 434.537C158.499 430.5 172.237 434.031 172.237 434.031Z" stroke="#6C63FF" stroke-miterlimit="10"/>
<path opacity="0.1" d="M191.656 526.914C191.656 527.244 191.656 527.558 191.656 527.864C191.403 534.298 179.933 547.28 177.283 545.135C174.634 542.991 156.608 538.702 156.608 538.702C156.608 538.702 153.959 534.543 151.187 534.543C149.613 534.406 148.073 534.008 146.631 533.363L147.152 525.972C147.152 525.972 186.349 519.255 190.668 524.67C191.129 525.353 191.463 526.113 191.656 526.914V526.914Z" fill="black"/>
<path d="M191.648 526.692C191.518 529.917 188.585 534.78 185.346 538.564C182.107 542.348 178.6 545.028 177.275 543.925C176.306 543.293 175.255 542.795 174.151 542.447C168.186 540.249 156.608 537.492 156.608 537.492C156.608 537.492 153.958 533.333 151.187 533.333C148.415 533.333 143.123 530.56 143.123 530.56C143.123 530.56 143.629 529.794 143.123 527.029C142.618 524.264 134.555 528.561 134.555 528.561C134.555 528.561 134.172 509.903 137.074 500.819C139.976 491.736 138.606 480.139 138.606 480.139C138.606 480.139 140.681 468.712 142.932 459.682C144.287 454.267 145.712 449.725 146.799 449.005C149.701 447.113 164.824 449.005 164.824 449.005C164.824 449.005 171.126 449.127 173.523 449.771C174.267 450.062 174.902 450.579 175.338 451.249C175.483 451.448 175.636 451.655 175.782 451.877C177.467 454.405 179.182 458.77 180.828 462.761C183.225 468.559 192.682 493.015 192.682 493.015C192.682 493.015 192.429 494.654 190.285 502.091C188.141 509.528 191.901 520.266 191.648 526.692Z" fill="#65617D"/>
<path d="M180.805 534.129L185.346 538.556C185.346 538.556 189.504 552.91 184.082 551.653C178.661 550.397 174.128 542.462 174.128 542.462L180.805 534.129Z" fill="#FBBEBE"/>
<path opacity="0.1" d="M192.276 494.164C181.556 494.041 178.791 479.037 178.791 479.037C178.791 479.037 178.026 464.162 176.647 461.42C175.882 459.889 175.537 456.12 175.384 453.057C177.068 455.584 178.776 459.95 180.43 463.94C182.827 469.708 192.276 494.164 192.276 494.164Z" fill="black"/>
<path d="M192.659 493.03C181.939 492.907 179.182 477.895 179.182 477.895C179.182 477.895 178.416 463.021 177.038 460.279C176.272 458.747 175.928 454.979 175.774 451.915C177.459 454.443 179.174 458.809 180.821 462.799C183.202 468.574 192.659 493.03 192.659 493.03Z" fill="#65617D"/>
<path opacity="0.1" d="M173.469 456.021C173.469 456.021 170.314 447.45 165.145 456.021C159.977 464.591 159.854 475.437 159.854 475.437L158.974 499.134C158.974 499.134 160.612 502.29 160.551 504.052C160.49 505.813 163.614 510.861 163.614 510.861C163.614 510.861 164.38 520.818 167.267 522.457L170.038 530.652C170.038 530.652 170.169 536.075 172.06 538.219C173.951 540.364 172.956 543.673 172.956 543.673L184.159 539.751C184.159 539.751 182.895 540.203 184.159 536.818C185.422 533.432 183.393 529.013 183.393 529.013C183.393 529.013 176.21 513.38 175.33 511.113C174.449 508.846 173.186 506.196 173.691 503.546C174.196 500.896 173.791 472.787 174.457 468.505C175.123 464.224 173.469 456.021 173.469 456.021Z" fill="black"/>
<path d="M174.633 454.834C174.633 454.834 171.478 446.263 166.31 454.834C161.141 463.404 161.018 474.25 161.018 474.25L160.138 497.947C160.138 497.947 161.776 501.103 161.715 502.864C161.654 504.626 164.778 509.673 164.778 509.673C164.778 509.673 165.544 519.63 168.431 521.269L171.203 529.465C171.203 529.465 171.333 534.887 173.224 537.032C175.115 539.177 174.128 542.485 174.128 542.485L185.323 538.556C185.323 538.556 184.059 539.016 185.323 535.63C186.586 532.245 184.557 527.826 184.557 527.826C184.557 527.826 177.374 512.193 176.494 509.926C175.613 507.659 174.35 505.009 174.855 502.359C175.361 499.709 174.962 471.599 175.621 467.31C176.279 463.021 174.633 454.834 174.633 454.834Z" fill="#444053"/>
<path opacity="0.1" d="M174.848 528.967C175.324 529.024 175.788 529.161 176.218 529.373C176.563 529.557 176.861 529.825 177.198 530.016C177.594 530.239 178.039 530.36 178.492 530.369C177.987 530.369 177.482 530.422 176.961 530.43C176.648 530.446 176.334 530.407 176.034 530.315C175.759 530.176 175.502 530.004 175.269 529.802C174.962 529.572 174.624 529.387 174.266 529.25C173.998 529.135 173.707 529.097 173.592 528.821C174.014 528.836 174.434 528.884 174.848 528.967V528.967Z" fill="black"/>
<path opacity="0.1" d="M179.113 532.352C179.588 532.352 180.062 532.245 180.545 532.214C181.238 532.189 181.933 532.225 182.62 532.322C181.607 532.829 180.468 533.032 179.343 532.904C179.019 532.819 178.679 532.819 178.355 532.904C178.003 533.049 176.984 534.206 176.892 533.179C176.8 532.153 178.531 532.375 179.113 532.352Z" fill="black"/>
<path opacity="0.1" d="M173.316 412.984L171.524 411.651C171.721 411.718 171.91 411.803 172.091 411.904C172.473 412.117 172.819 412.388 173.117 412.708C173.316 412.876 173.515 413.06 173.707 413.236L173.316 412.984Z" fill="black"/>
<path opacity="0.1" d="M175.354 451.264C175.025 452.016 174.495 452.663 173.822 453.133C173.419 453.409 172.958 453.588 172.474 453.654C171.788 453.716 171.096 453.644 170.438 453.44C169.601 453.227 168.775 452.971 167.964 452.674C166.38 452.021 164.756 451.468 163.102 451.019C160.583 450.445 157.65 450.652 155.843 452.49C154.258 454.106 153.867 456.618 152.282 458.234C150.161 460.394 146.685 460.264 143.675 459.843L142.971 459.743C144.326 454.328 145.75 449.786 146.838 449.066C149.74 447.174 164.863 449.066 164.863 449.066C164.863 449.066 171.165 449.189 173.562 449.832C174.291 450.115 174.917 450.615 175.354 451.264V451.264Z" fill="black"/>
<path opacity="0.1" d="M150.437 428.111C150.436 425.284 151.27 422.52 152.832 420.164C154.395 417.809 156.618 415.967 159.222 414.869C161.826 413.771 164.696 413.466 167.473 413.991C170.25 414.517 172.81 415.85 174.833 417.824V417.824C174.879 420.329 174.335 422.895 175.04 425.307C175.69 427.551 177.337 429.359 178.822 431.228C178.052 434.68 176.036 437.728 173.16 439.786C170.284 441.844 166.749 442.769 163.234 442.382C159.718 441.996 156.469 440.327 154.108 437.693C151.746 435.06 150.439 431.648 150.437 428.111V428.111Z" fill="black"/>
<path d="M173.669 412.486C170.881 409.958 167.368 408.372 163.629 407.951C159.89 407.53 156.113 408.297 152.833 410.142C151.326 410.973 150.039 412.152 149.081 413.581C147.105 416.729 147.611 420.788 146.577 424.358C145.597 427.766 143.254 430.584 141.316 433.549C139.379 436.513 137.763 440.051 138.491 443.506C139.019 446.033 140.788 448.3 140.727 450.881C140.656 452.318 140.047 453.675 139.021 454.683C137.995 455.691 136.628 456.275 135.19 456.319C137.625 458.043 140.665 458.617 143.614 459.038C146.562 459.46 150.092 459.59 152.22 457.422C153.805 455.814 154.196 453.294 155.781 451.686C157.588 449.84 160.521 449.633 163.04 450.215C165.559 450.797 167.88 452.015 170.376 452.666C171.036 452.864 171.727 452.934 172.413 452.873C174.564 452.582 175.813 450.192 175.981 448.032C176.119 446.232 175.859 444.157 177.137 442.885C177.612 442.477 178.125 442.115 178.669 441.805C179.65 441.128 180.427 440.194 180.914 439.105C181.402 438.017 181.581 436.815 181.433 435.632C180.844 431.358 176.218 428.693 175.009 424.549C174.304 422.144 174.848 419.578 174.802 417.074C174.756 414.569 173.814 411.712 171.456 410.87" fill="#444053"/>
<path opacity="0.1" d="M181.234 435.655C180.637 431.381 176.012 428.716 174.802 424.572C174.098 422.167 174.641 419.601 174.603 417.097C174.623 415.351 174.087 413.645 173.072 412.225L173.424 412.486C173.235 412.302 173.036 412.126 172.827 411.957C172.539 411.652 172.206 411.394 171.839 411.191C171.624 411.031 171.402 410.885 171.188 410.74L171.533 411.054L171.18 410.793C172.196 412.212 172.733 413.919 172.712 415.664C172.712 418.161 172.206 420.735 172.911 423.14C174.121 427.283 178.746 429.949 179.343 434.223C179.489 435.407 179.307 436.608 178.818 437.696C178.33 438.784 177.553 439.718 176.571 440.396C176.027 440.705 175.514 441.067 175.04 441.476C173.769 442.747 174.021 444.823 173.883 446.623C173.715 448.783 172.467 451.172 170.323 451.463C169.634 451.525 168.94 451.455 168.278 451.257C165.782 450.606 163.462 449.38 160.942 448.806C158.423 448.231 155.498 448.43 153.683 450.276C152.098 451.885 151.708 454.397 150.123 456.013C148.002 458.181 144.525 458.043 141.523 457.629C139.55 457.404 137.608 456.957 135.734 456.296C135.481 456.337 135.225 456.357 134.969 456.358C137.404 458.081 140.444 458.655 143.392 459.077C146.34 459.498 149.87 459.628 151.991 457.461C153.576 455.852 153.967 453.332 155.552 451.724C157.366 449.878 160.299 449.671 162.811 450.253C165.322 450.835 167.65 452.053 170.147 452.704C170.809 452.902 171.503 452.972 172.191 452.911C174.335 452.62 175.583 450.23 175.752 448.07C175.89 446.271 175.637 444.195 176.908 442.923C177.384 442.517 177.897 442.155 178.44 441.843C179.428 441.168 180.212 440.233 180.705 439.141C181.198 438.05 181.381 436.844 181.234 435.655Z" fill="black"/>
</g>
<defs>
<linearGradient id="paint0_linear_331_721" x1="163.385" y1="651.162" x2="163.385" y2="406.741" gradientUnits="userSpaceOnUse">
<stop stop-color="#808080" stop-opacity="0.25"/>
<stop offset="0.54" stop-color="#808080" stop-opacity="0.12"/>
<stop offset="1" stop-color="#808080" stop-opacity="0.1"/>
</linearGradient>
<clipPath id="clip0_331_721">
<rect width="876" height="557" fill="white" transform="translate(0 96)"/>
</clipPath>
</defs>
</svg>
