<svg width="1144" height="728" viewBox="0 0 1144 728" fill="none" xmlns="http://www.w3.org/2000/svg">
<g clip-path="url(#clip0_317_335)">
<path d="M575.59 205.49C574.41 211.97 570.42 225.65 557.53 225.31C547.69 225.06 540.11 216.47 540.37 206.63L544.08 72.63L545.29 28.93C545.29 28.93 551.67 16.84 558.02 71.04V71.24L575.66 199.76C575.943 201.661 575.919 203.596 575.59 205.49Z" fill="#D0D0D0"/>
<path d="M567 218.5H548.06V259.01H567V218.5Z" fill="#D0D0D0"/>
<path d="M564.96 249.39H550.39V267.17H564.96V249.39Z" fill="#D0D0D0"/>
<path d="M558.05 71.25C551.42 69.32 546.91 70.79 544.05 72.64L545.26 28.94C545.26 28.94 551.64 16.85 557.99 71.05L558.05 71.25Z" fill="#3F3D56"/>
<path d="M567 230.61V259.01H548.06V231.17C554.069 228.568 560.847 228.367 567 230.61V230.61Z" fill="#3F3D56"/>
<path d="M611.59 320.9C606.28 317 595.74 307.42 601.69 295.98C606.23 287.25 617.27 284.19 626 288.74L744.81 350.82L783.56 371.06C783.56 371.06 791.62 382.06 740.12 364.06L739.93 364L616.68 323.5C614.857 322.906 613.14 322.028 611.59 320.9V320.9Z" fill="#D0D0D0"/>
<path d="M575.565 272.706L567.263 289.729L603.673 307.488L611.976 290.465L575.565 272.706Z" fill="#D0D0D0"/>
<path d="M576.801 292.113L583.188 279.018L567.207 271.224L560.82 284.319L576.801 292.113Z" fill="#D0D0D0"/>
<path d="M739.93 363.99C744.57 358.87 745.23 354.17 744.81 350.82L783.56 371.06C783.56 371.06 791.62 382.06 740.12 364.06L739.93 363.99Z" fill="#3F3D56"/>
<path d="M592.79 302.17L567.26 289.72L575.56 272.72L600.56 284.92C600.268 291.451 597.488 297.624 592.79 302.17V302.17Z" fill="#3F3D56"/>
<path d="M503.47 320.9C508.78 317 519.32 307.42 513.37 295.98C508.83 287.25 497.79 284.19 489.06 288.74L370.25 350.82L331.5 371.06C331.5 371.06 323.44 382.06 374.94 364.06L375.13 364L498.38 323.51C500.203 322.912 501.921 322.032 503.47 320.9V320.9Z" fill="#D0D0D0"/>
<path d="M539.495 272.703L503.084 290.461L511.387 307.484L547.797 289.726L539.495 272.703Z" fill="#D0D0D0"/>
<path d="M554.237 284.314L547.85 271.219L531.869 279.013L538.256 292.108L554.237 284.314Z" fill="#D0D0D0"/>
<path d="M375.13 363.99C370.49 358.87 369.83 354.17 370.25 350.82L331.5 371.06C331.5 371.06 323.44 382.06 374.94 364.06L375.13 363.99Z" fill="#3F3D56"/>
<path d="M522.27 302.17L547.8 289.72L539.5 272.72L514.5 284.92C514.791 291.451 517.572 297.624 522.27 302.17V302.17Z" fill="#3F3D56"/>
<path d="M574.57 717.37H537.42L549.22 279.84H562.77L574.57 717.37Z" fill="#D0D0D0"/>
<path d="M557.53 286.83C564.367 286.83 569.91 281.287 569.91 274.45C569.91 267.613 564.367 262.07 557.53 262.07C550.693 262.07 545.15 267.613 545.15 274.45C545.15 281.287 550.693 286.83 557.53 286.83Z" fill="#3F3D56"/>
<path d="M850.67 182.43C849.88 186.81 847.18 196.06 838.46 195.83C835.249 195.682 832.227 194.272 830.051 191.906C827.874 189.541 826.721 186.412 826.84 183.2L829.36 92.54L830.17 62.98C830.17 62.98 834.49 54.8 838.79 91.47V91.6L850.72 178.6C850.904 179.871 850.887 181.164 850.67 182.43V182.43Z" fill="#D0D0D0"/>
<path d="M844.86 191.22H832.05V218.63H844.86V191.22Z" fill="#D0D0D0"/>
<path d="M843.48 212.12H833.62V224.15H843.48V212.12Z" fill="#D0D0D0"/>
<path d="M838.81 91.61C834.32 90.31 831.27 91.3 829.36 92.55L830.17 62.99C830.17 62.99 834.49 54.81 838.79 91.48L838.81 91.61Z" fill="#3F3D56"/>
<path d="M844.86 199.41V218.61H832.05V199.8C836.112 198.034 840.697 197.894 844.86 199.41Z" fill="#3F3D56"/>
<path d="M875 260.5C871.41 257.87 864.27 251.39 868.3 243.65C869.84 240.827 872.434 238.728 875.515 237.81C878.597 236.892 881.916 237.23 884.75 238.75L965.13 280.75L991.34 294.44C991.34 294.44 996.8 301.91 961.96 289.7H961.83L878.44 262.31C877.205 261.892 876.044 261.281 875 260.5V260.5Z" fill="#D0D0D0"/>
<path d="M850.652 227.901L845.037 239.415L869.673 251.43L875.288 239.917L850.652 227.901Z" fill="#D0D0D0"/>
<path d="M851.498 241.036L855.82 232.174L845.008 226.9L840.685 235.763L851.498 241.036Z" fill="#D0D0D0"/>
<path d="M961.86 289.66C965 286.2 965.45 283.02 965.16 280.75L991.37 294.44C991.37 294.44 996.83 301.91 961.99 289.7L961.86 289.66Z" fill="#3F3D56"/>
<path d="M862.31 247.84L845 239.41L850.61 227.9L867.54 236.15C867.351 240.571 865.48 244.753 862.31 247.84V247.84Z" fill="#3F3D56"/>
<path d="M801.88 260.5C805.47 257.87 812.61 251.39 808.58 243.65C807.04 240.827 804.446 238.728 801.365 237.81C798.283 236.892 794.963 237.23 792.13 238.75L711.75 280.75L685.54 294.44C685.54 294.44 680.08 301.91 714.92 289.7H715.05L798.44 262.31C799.675 261.892 800.836 261.281 801.88 260.5V260.5Z" fill="#D0D0D0"/>
<path d="M826.264 227.905L801.628 239.921L807.243 251.435L831.879 239.419L826.264 227.905Z" fill="#D0D0D0"/>
<path d="M836.228 235.755L831.906 226.893L821.093 232.167L825.416 241.029L836.228 235.755Z" fill="#D0D0D0"/>
<path d="M715.05 289.66C711.91 286.2 711.46 283.02 711.75 280.75L685.54 294.44C685.54 294.44 680.08 301.91 714.92 289.7L715.05 289.66Z" fill="#3F3D56"/>
<path d="M814.6 247.84L831.87 239.41L826.26 227.9L809.33 236.15C809.529 240.577 811.415 244.759 814.6 247.84V247.84Z" fill="#3F3D56"/>
<path d="M849.99 528.74L824.73 533.18L832.83 232.73H842L849.99 528.74Z" fill="#D0D0D0"/>
<path d="M838.46 237.46C843.088 237.46 846.84 233.708 846.84 229.08C846.84 224.452 843.088 220.7 838.46 220.7C833.832 220.7 830.08 224.452 830.08 229.08C830.08 233.708 833.832 237.46 838.46 237.46Z" fill="#3F3D56"/>
<path d="M277.51 182.43C276.72 186.81 274.02 196.06 265.3 195.83C262.09 195.682 259.069 194.271 256.894 191.906C254.72 189.54 253.568 186.411 253.69 183.2L256.2 92.54L257.01 62.98C257.01 62.98 261.33 54.8 265.63 91.47V91.6L277.57 178.6C277.746 179.872 277.726 181.164 277.51 182.43Z" fill="#D0D0D0"/>
<path d="M271.7 191.22H258.89V218.63H271.7V191.22Z" fill="#D0D0D0"/>
<path d="M270.32 212.12H260.46V224.15H270.32V212.12Z" fill="#D0D0D0"/>
<path d="M265.65 91.61C261.17 90.31 258.11 91.3 256.2 92.55L257.01 62.99C257.01 62.99 261.33 54.81 265.63 91.48L265.65 91.61Z" fill="#3F3D56"/>
<path d="M271.7 199.41V218.61H258.89V199.8C262.953 198.034 267.538 197.894 271.7 199.41Z" fill="#3F3D56"/>
<path d="M301.87 260.5C298.28 257.87 291.15 251.39 295.18 243.65C296.718 240.828 299.31 238.729 302.39 237.811C305.47 236.893 308.788 237.23 311.62 238.75L392 280.75L418.22 294.44C418.22 294.44 423.67 301.91 388.83 289.7H388.7L305.32 262.31C304.082 261.892 302.917 261.282 301.87 260.5V260.5Z" fill="#D0D0D0"/>
<path d="M277.495 227.904L271.88 239.417L296.516 251.433L302.131 239.92L277.495 227.904Z" fill="#D0D0D0"/>
<path d="M278.335 241.033L282.657 232.171L271.845 226.898L267.522 235.76L278.335 241.033Z" fill="#D0D0D0"/>
<path d="M388.7 289.66C391.84 286.2 392.29 283.02 392 280.75L418.22 294.44C418.22 294.44 423.67 301.91 388.83 289.7L388.7 289.66Z" fill="#3F3D56"/>
<path d="M289.15 247.84L271.88 239.41L277.5 227.9L294.42 236.15C294.225 240.578 292.338 244.762 289.15 247.84V247.84Z" fill="#3F3D56"/>
<path d="M228.72 260.5C232.32 257.87 239.45 251.39 235.42 243.65C233.88 240.827 231.286 238.728 228.205 237.81C225.123 236.892 221.804 237.23 218.97 238.75L138.59 280.75L112.38 294.44C112.38 294.44 106.92 301.91 141.76 289.7H141.89L225.28 262.31C226.515 261.892 227.676 261.281 228.72 260.5Z" fill="#D0D0D0"/>
<path d="M253.101 227.902L228.465 239.918L234.081 251.432L258.717 239.416L253.101 227.902Z" fill="#D0D0D0"/>
<path d="M263.076 235.761L258.753 226.899L247.941 232.173L252.263 241.035L263.076 235.761Z" fill="#D0D0D0"/>
<path d="M141.89 289.66C138.76 286.2 138.31 283.02 138.59 280.75L112.38 294.44C112.38 294.44 106.92 301.91 141.76 289.7L141.89 289.66Z" fill="#3F3D56"/>
<path d="M241.44 247.84L258.71 239.41L253.1 227.9L236.17 236.15C236.374 240.575 238.259 244.756 241.44 247.84Z" fill="#3F3D56"/>
<path d="M276.83 528.74H251.69L259.68 232.73H268.84L276.83 528.74Z" fill="#D0D0D0"/>
<path d="M265.3 237.46C269.928 237.46 273.68 233.708 273.68 229.08C273.68 224.452 269.928 220.7 265.3 220.7C260.672 220.7 256.92 224.452 256.92 229.08C256.92 233.708 260.672 237.46 265.3 237.46Z" fill="#3F3D56"/>
<path d="M1112.69 609.61C1104.13 640.829 1085.56 668.373 1059.82 688.007C1034.08 707.641 1002.61 718.277 970.24 718.28H217.17C182.365 718.259 148.246 708.592 118.604 690.351C88.9614 672.11 64.9548 646.011 49.25 614.95C49.25 614.95 158.4 463.97 441.87 562.61C677.21 644.5 785.76 567.06 815.87 538.4C819.129 535.311 822.98 532.914 827.191 531.353C831.402 529.793 835.885 529.101 840.37 529.32C898.04 532.05 1097.81 546.03 1112.72 609.59L1112.69 609.61Z" fill="#D0D0D0"/>
<path opacity="0.1" d="M209.13 727.22C276.465 727.22 331.05 720.813 331.05 712.91C331.05 705.007 276.465 698.6 209.13 698.6C141.795 698.6 87.21 705.007 87.21 712.91C87.21 720.813 141.795 727.22 209.13 727.22Z" fill="#3F3D56"/>
<path d="M270.16 700.14C270.16 700.14 262.25 699.21 257.1 695.37L256.71 695.06C257.021 694.593 257.248 694.075 257.38 693.53C256.827 692.453 256.536 691.261 256.53 690.05C256.546 688.914 256.314 687.787 255.85 686.75V681.13C255.85 681.13 254.14 679.31 253.97 674.68C253.8 670.05 253.63 647.23 253.63 647.23C253.366 646.035 253.309 644.804 253.46 643.59C253.63 640.95 253.63 639.96 253.63 639.96C253.071 638.426 252.896 636.778 253.12 635.16C253.63 633.16 251.92 630.86 251.92 630.86L254.48 618.3C254.48 618.3 255.9 574.91 251.77 561.83V561.75C251.77 561.75 251.77 561.64 251.77 561.59C252.12 553.15 247 539.1 249.9 529.35C252.8 519.6 253.14 517.44 253.14 517.44C253.14 517.44 240.36 485.36 237.14 477.76C234.91 472.52 232.6 466.76 230.32 463.48C230.12 463.193 229.92 462.923 229.72 462.67C229.61 462.53 229.5 462.39 229.39 462.27C230.087 461.107 230.508 459.801 230.62 458.45C230.8 456.09 230.46 453.37 232.18 451.7C232.836 451.163 233.543 450.691 234.29 450.29C235.607 449.423 236.656 448.205 237.319 446.774C237.981 445.343 238.231 443.755 238.04 442.19C237.68 439.7 236.25 437.63 234.62 435.62C235.178 432.57 234.956 429.428 233.973 426.487C232.99 423.546 231.28 420.902 229 418.8V418.8C229 418.49 229 418.17 229 417.86C229.046 415.569 228.344 413.326 227 411.47L227.48 411.81C227.21 411.57 226.95 411.34 226.67 411.11C226.276 410.712 225.824 410.375 225.33 410.11C221.538 407.518 217.106 406.022 212.52 405.783C207.933 405.545 203.37 406.575 199.33 408.76C197.307 409.841 195.57 411.387 194.26 413.27C191.59 417.39 192.26 422.72 190.88 427.4C189.54 431.87 186.38 435.57 183.76 439.47C181.14 443.37 178.95 447.99 179.94 452.55C180.65 455.86 183.01 458.83 182.94 462.22C182.823 463.996 182.089 465.675 180.866 466.967C179.643 468.26 178.007 469.085 176.24 469.3H176.15C175.819 469.351 175.485 469.378 175.15 469.38C178.33 471.57 182.28 472.38 186.15 472.89C186.07 473.19 185.99 473.49 185.92 473.8C182.79 485.61 180 500.61 180 500.61C180 500.61 181.87 515.81 177.95 527.72C174.03 539.63 174.54 564.1 174.54 564.1C174.54 564.1 185.45 558.47 186.13 562.1C186.81 565.73 186.13 566.73 186.13 566.73C186.13 566.73 188.36 567.86 190.98 568.86L190.87 570.31L190.39 576.81C190.207 578.173 190.415 579.561 190.99 580.81C191.93 582.63 190.99 587.59 190.99 587.59C190.99 587.59 190.19 588.09 190.99 590.41C191.79 592.73 190.36 596.03 190.36 596.03C190.36 596.03 189.36 608.43 189.23 611.03C189.1 613.63 185.82 621.12 185.82 621.12C185.82 621.12 188.72 624.75 185.82 625.25C182.92 625.75 182.58 630.25 182.58 630.25C182.58 630.25 179.17 633.06 179.17 634.05C179.17 634.05 163.83 649.6 160.25 675.22C160.25 675.22 156.67 678.53 157.18 681.67C157.47 683.45 156.89 684.06 156.33 684.26C156.96 684.34 157.65 684.75 157.33 686.26C156.82 688.9 155.46 694.53 155.46 694.53H155.7C152.91 697.76 148.83 703.17 148.21 707.92C148.21 708.12 148.19 708.32 148.15 708.52L146.61 711.99L160.08 717.99L161.27 716.17C161.27 716.17 167.27 722.95 174.06 724.43C175.233 724.684 176.43 724.815 177.63 724.82C181.42 724.754 185.166 724.006 188.69 722.61C188.69 722.61 193.63 716.5 180.84 715.34C180.84 715.34 173.35 706.74 174.03 703.1C174.287 701.568 174.444 700.022 174.5 698.47C174.5 698.13 174.5 697.797 174.5 697.47L175.37 697.6L175.53 694.83C175.904 694.361 176.086 693.768 176.04 693.17C176.04 692.02 175.04 691.85 176.04 691.17C177.04 690.49 177.04 691.17 177.04 689.52C177.04 687.87 176.36 688.36 177.89 686.71C179.42 685.06 177.72 682.08 177.72 682.08C177.72 682.08 181.3 679.43 181.13 675.96C180.96 672.49 192.55 650.5 194.93 649.67C197.31 648.84 197.49 644.54 197.49 644.54C197.49 644.54 200.73 645.2 201.75 644.54C202.77 643.88 206.01 638.76 206.01 638.76C206.01 638.76 219.01 606.02 219.14 593.62L219.99 590.81C219.99 590.81 224.94 597.26 224.25 601.89C223.56 606.52 228.03 609.82 228.03 609.82V623.88C228.53 626.33 228.804 628.82 228.85 631.32C228.68 633.63 230.85 635.95 230.03 637.93C229.21 639.91 230.03 643.39 230.03 643.39C230.03 643.39 229.85 648.02 230.03 649.34C230.21 650.66 229.36 665.87 233.8 672.49C233.8 672.49 235.67 677.28 233.8 680.42C231.93 683.56 235.5 686.71 235.5 686.71C235.5 686.71 233.29 690.34 235.5 692.99C236.767 694.665 237.337 696.765 237.09 698.85C236.2 702.21 235.54 706.62 237.03 709.69V709.76L237.43 714.48L250.49 713.48V710.84C250.49 710.84 259.41 713.21 267.72 711.92C272.2 711.23 276.5 709.47 279.13 705.71C279.2 705.76 284.48 696.67 270.16 700.14Z" fill="url(#paint0_linear_317_335)"/>
<path d="M276.78 705.84C274.24 709.59 270.09 711.34 265.78 712.03C257.78 713.31 249.15 710.95 249.15 710.95V713.61L236.54 714.61L236.15 709.91V709.83C234.69 706.73 235.36 702.25 236.24 698.88C236.663 697.289 237.184 695.726 237.8 694.2C237.8 694.2 248.66 684.98 252.28 691.9C253.066 693.331 254.154 694.573 255.47 695.54C260.47 699.36 268.08 700.29 268.08 700.29C281.88 696.79 276.78 705.84 276.78 705.84Z" fill="#65617D"/>
<path opacity="0.1" d="M243.2 696.79C243.2 696.79 243.2 705.35 249.45 705.19C255.7 705.03 256.54 701.78 254.56 699.58C253.216 698.021 252.055 696.313 251.1 694.49L243.2 696.79Z" fill="black"/>
<path d="M189.38 722.61C185.977 724 182.345 724.746 178.67 724.81C177.51 724.803 176.354 724.675 175.22 724.43C168.64 722.94 162.88 716.19 162.88 716.19L161.73 718.01L148.73 712.08L150.2 708.61L150.26 708.02C150.86 703.29 154.8 697.9 157.5 694.68C158.97 692.93 160.08 691.83 160.08 691.83L175.72 694.13C175.72 694.13 175.78 696.13 175.72 698.57C175.667 700.115 175.514 701.655 175.26 703.18C174.61 706.8 181.84 715.36 181.84 715.36C194.15 716.54 189.38 722.61 189.38 722.61Z" fill="#65617D"/>
<path d="M158.1 684.39C157.836 684.479 157.554 684.5 157.28 684.45C157.548 684.383 157.825 684.363 158.1 684.39Z" fill="#444053"/>
<path opacity="0.1" d="M175.72 694.16C175.72 694.16 175.78 696.16 175.72 698.6L157.32 695.6C157.32 695.6 157.41 695.25 157.54 694.67C159.01 692.92 160.12 691.82 160.12 691.82L175.72 694.16Z" fill="black"/>
<path opacity="0.1" d="M255.44 695.5C252.66 701.93 236.12 700.41 236.12 700.41C236.202 699.891 236.232 699.365 236.21 698.84C236.633 697.249 237.154 695.686 237.77 694.16C237.77 694.16 248.63 684.94 252.25 691.86C253.036 693.291 254.124 694.533 255.44 695.5V695.5Z" fill="black"/>
<path d="M255.71 693.67C254.07 701.07 236.12 699.43 236.12 699.43C236.465 697.23 235.933 694.983 234.64 693.17C232.5 690.54 234.64 686.92 234.64 686.92C234.64 686.92 231.18 683.79 233 680.66C234.82 677.53 233 672.76 233 672.76C228.71 666.18 229.54 651.03 229.36 649.76C229.18 648.49 229.36 643.84 229.36 643.84C229.36 643.84 228.55 640.38 229.36 638.4C230.17 636.42 228.06 634.12 228.22 631.82C228.174 629.332 227.909 626.852 227.43 624.41V610.41C227.43 610.41 223.12 607.12 223.78 602.51C224.44 597.9 219.66 591.51 219.66 591.51L218.84 594.31C218.68 606.65 206.17 639.24 206.17 639.24C206.17 639.24 203.04 644.35 202.05 645.01C201.06 645.67 197.94 645.01 197.94 645.01C197.94 645.01 197.77 649.29 195.47 650.11C193.17 650.93 181.97 672.82 182.14 676.28C182.31 679.74 178.84 682.37 178.84 682.37C178.84 682.37 180.49 685.37 179.01 686.98C177.53 688.59 178.18 688.13 178.18 689.78C178.18 691.43 178.18 690.78 177.18 691.42C176.18 692.06 177.18 692.25 177.18 693.42C177.227 694.01 177.048 694.596 176.68 695.06L176.53 697.83L157.26 694.74C157.26 694.74 158.58 689.14 159.07 686.5C159.36 684.96 158.69 684.55 158.07 684.5C158.62 684.3 159.18 683.69 158.9 681.93C158.4 678.8 161.9 675.51 161.9 675.51C165.36 649.99 180.17 634.51 180.17 634.51C180.17 633.51 183.46 630.73 183.46 630.73C183.46 630.73 183.79 626.28 186.59 625.79C189.39 625.3 186.59 621.67 186.59 621.67C186.59 621.67 189.72 614.27 189.88 611.67C190.04 609.07 190.97 596.67 190.97 596.67C190.97 596.67 192.35 593.38 191.58 591.08C190.81 588.78 191.58 588.28 191.58 588.28C191.58 588.28 192.51 583.34 191.58 581.53C191.028 580.291 190.828 578.925 191 577.58L191.47 571.1L192.15 561.45C192.15 561.45 243.36 552.61 249 559.68C249.61 560.554 250.061 561.529 250.33 562.56C254.33 575.56 252.95 618.77 252.95 618.77L250.48 631.28C250.48 631.28 252.13 633.59 251.64 635.56C251.419 637.17 251.587 638.809 252.13 640.34C252.13 640.34 252.13 641.34 251.96 643.96C251.816 645.168 251.874 646.391 252.13 647.58C252.13 647.58 252.29 670.29 252.46 674.9C252.63 679.51 254.27 681.32 254.27 681.32V686.92C254.714 687.959 254.936 689.08 254.92 690.21C254.912 691.409 255.183 692.593 255.71 693.67V693.67Z" fill="#444053"/>
<path opacity="0.1" d="M178.67 724.83C177.51 724.823 176.354 724.695 175.22 724.45C168.64 722.96 162.88 716.21 162.88 716.21L161.73 718.03L148.73 712.1L150.2 708.61L150.26 708.02L163.7 714.87C163.7 714.87 174.43 720.01 178.67 724.83Z" fill="black"/>
<path opacity="0.1" d="M265.76 712.03C257.76 713.31 249.13 710.95 249.13 710.95V713.61L236.52 714.61L236.13 709.91C240.13 709.98 246.56 710.05 249.36 709.83C254.901 709.82 260.418 710.56 265.76 712.03V712.03Z" fill="black"/>
<path opacity="0.1" d="M164.54 680.15C165.197 680.091 165.859 680.176 166.48 680.4C167.129 680.788 167.745 681.229 168.32 681.72C168.752 681.95 169.16 682.221 169.54 682.53C170.02 683 170.22 683.7 170.7 684.17C171.58 685.04 173.03 684.84 174.2 685.26C174.33 685.26 174.47 685.37 174.49 685.5C174.51 685.63 174.4 685.74 174.29 685.82C174 685.985 173.673 686.071 173.34 686.071C173.007 686.071 172.679 685.985 172.39 685.82C171.81 685.491 171.275 685.088 170.8 684.62C169.887 683.809 168.842 683.16 167.71 682.7C166.16 682.09 163.46 681.92 162.48 680.4C162.94 680.05 163.94 680.16 164.54 680.15Z" fill="black"/>
<path opacity="0.1" d="M163.22 683.61C163.568 683.708 163.904 683.845 164.22 684.02L165.91 684.87C164.71 684.95 163.512 684.683 162.46 684.1C162.087 683.949 161.723 683.775 161.37 683.58C161.984 683.487 162.609 683.497 163.22 683.61Z" fill="black"/>
<path opacity="0.1" d="M165.45 686.49C165.819 686.475 166.188 686.505 166.55 686.58C167.187 686.803 167.777 687.142 168.29 687.58C169.523 688.576 171.065 689.11 172.65 689.09C172.338 689.236 171.993 689.295 171.65 689.26H168.11C167.189 689.32 166.271 689.108 165.47 688.65C164.87 688.36 162.39 687.65 162.37 686.82C162.35 685.99 164.85 686.49 165.45 686.49Z" fill="black"/>
<path opacity="0.1" d="M246 690.69C247.082 690.81 248.173 690.84 249.26 690.78C250.405 690.749 251.519 690.403 252.48 689.78C253.43 689.05 253.23 688.3 252.02 688.25C250.895 688.302 249.791 688.574 248.77 689.05C248.242 689.262 247.733 689.52 247.25 689.82C247 689.93 246.18 690.7 246 690.69Z" fill="black"/>
<path opacity="0.1" d="M249.94 692.49C249.84 692.89 249.42 693.11 249.04 693.26C248.109 693.612 247.132 693.828 246.14 693.9C245.89 693.9 245.19 693.9 245.28 693.51C245.37 693.12 246.41 693.24 246.66 693.21C247.768 693.044 248.864 692.803 249.94 692.49V692.49Z" fill="black"/>
<path opacity="0.1" d="M240.06 691.84C241.443 691.681 242.841 691.957 244.06 692.63C244.097 692.654 244.125 692.689 244.14 692.73C244.147 692.744 244.151 692.759 244.151 692.775C244.151 692.791 244.147 692.806 244.14 692.82C244.013 693.059 243.817 693.255 243.579 693.383C243.341 693.511 243.069 693.566 242.8 693.54C242.265 693.478 241.741 693.346 241.24 693.15C240.407 692.881 239.535 692.749 238.66 692.76C238.271 692.795 237.879 692.795 237.49 692.76C236.33 692.56 236.71 692.09 237.6 691.99C238.417 691.897 239.238 691.847 240.06 691.84V691.84Z" fill="black"/>
<path opacity="0.1" d="M194.84 627.16C193.19 626.004 191.234 625.364 189.22 625.32C191.26 625.193 193.27 625.851 194.84 627.16Z" fill="black"/>
<path opacity="0.1" d="M193.3 620.52C194.783 620.528 196.236 620.943 197.5 621.72L195.98 621.3C195.065 621.01 194.124 620.812 193.17 620.71C192.62 620.66 192.07 620.71 191.52 620.65C190.97 620.59 190.27 620.49 189.65 620.47C190.86 620.53 192.08 620.46 193.3 620.52Z" fill="black"/>
<path opacity="0.1" d="M198.25 623.68C198.71 623.77 199.25 623.97 199.35 624.44C199.35 624.16 196.09 623.24 195.69 623.11C195.02 622.87 192.87 621.93 192.38 622.58C194.27 623.09 196.31 623.28 198.25 623.68Z" fill="black"/>
<path opacity="0.1" d="M202.83 609.06C204.992 608.334 206.94 607.083 208.5 605.42C208.483 606.161 208.284 606.887 207.919 607.532C207.555 608.178 207.036 608.723 206.41 609.12C205.143 609.889 203.741 610.411 202.28 610.66C200.82 610.909 199.396 611.336 198.04 611.93C197.39 612.26 195.36 614.18 194.72 614.08C193.91 613.96 195.2 612.68 195.5 612.45C197.64 610.78 200.35 610.04 202.83 609.06Z" fill="black"/>
<path opacity="0.1" d="M243.16 630.41C242.46 630.17 233.96 631.82 234.48 630.17C234.8 629.17 237.56 629.53 238.25 629.56C239.919 629.607 241.572 629.893 243.16 630.41V630.41Z" fill="black"/>
<path d="M234 433.61C234 437.94 232.501 442.137 229.759 445.488C227.017 448.84 223.2 451.139 218.956 451.997C214.711 452.855 210.301 452.218 206.473 450.194C202.645 448.17 199.634 444.885 197.953 440.894C196.271 436.904 196.021 432.455 197.246 428.302C198.471 424.148 201.095 420.547 204.673 418.108C208.251 415.669 212.563 414.542 216.877 414.92C221.19 415.298 225.24 417.156 228.34 420.18C230.138 421.923 231.566 424.011 232.539 426.318C233.511 428.626 234.008 431.106 234 433.61V433.61Z" fill="#FBBEBE"/>
<path d="M224.93 441.34C224.93 441.34 218.84 459.12 222.3 462.74C225.76 466.36 197.44 468.5 197.44 468.5C197.44 468.5 209.29 447.27 208.14 442C206.99 436.73 224.93 441.34 224.93 441.34Z" stroke="#6C63FF" stroke-miterlimit="10"/>
<path opacity="0.1" d="M250.29 562.61C250.29 563.04 250.29 563.45 250.29 563.85C249.96 572.25 234.98 589.2 231.52 586.4C228.06 583.6 204.52 578 204.52 578C204.52 578 201.06 572.57 197.44 572.57C195.385 572.392 193.374 571.871 191.49 571.03L192.17 561.38C192.17 561.38 243.36 552.61 249 559.68C249.602 560.572 250.039 561.564 250.29 562.61V562.61Z" fill="black"/>
<path d="M250.28 562.32C250.11 566.53 246.28 572.88 242.05 577.82C237.82 582.76 233.24 586.26 231.51 584.82C230.244 583.994 228.871 583.345 227.43 582.89C219.64 580.02 204.52 576.42 204.52 576.42C204.52 576.42 201.06 570.99 197.44 570.99C193.82 570.99 186.91 567.37 186.91 567.37C186.91 567.37 187.57 566.37 186.91 562.76C186.25 559.15 175.72 564.76 175.72 564.76C175.72 564.76 175.22 540.4 179.01 528.54C182.8 516.68 181.01 501.54 181.01 501.54C181.01 501.54 183.72 486.62 186.66 474.83C188.43 467.76 190.29 461.83 191.71 460.89C195.5 458.42 215.25 460.89 215.25 460.89C215.25 460.89 223.48 461.05 226.61 461.89C227.582 462.27 228.411 462.945 228.98 463.82C229.17 464.08 229.37 464.35 229.56 464.64C231.76 467.94 234 473.64 236.15 478.85C239.28 486.42 251.63 518.35 251.63 518.35C251.63 518.35 251.3 520.49 248.5 530.2C245.7 539.91 250.61 553.93 250.28 562.32Z" fill="#65617D"/>
<path d="M236.12 572.03L242.05 577.81C242.05 577.81 247.48 596.55 240.4 594.91C233.32 593.27 227.4 582.91 227.4 582.91L236.12 572.03Z" fill="#FBBEBE"/>
<path opacity="0.1" d="M251.1 519.85C237.1 519.69 233.49 500.1 233.49 500.1C233.49 500.1 232.49 480.68 230.69 477.1C229.69 475.1 229.24 470.18 229.04 466.18C231.24 469.48 233.47 475.18 235.63 480.39C238.76 487.92 251.1 519.85 251.1 519.85Z" fill="black"/>
<path d="M251.6 518.37C237.6 518.21 234 498.61 234 498.61C234 498.61 233 479.19 231.2 475.61C230.2 473.61 229.75 468.69 229.55 464.69C231.75 467.99 233.99 473.69 236.14 478.9C239.25 486.44 251.6 518.37 251.6 518.37Z" fill="#65617D"/>
<path opacity="0.1" d="M226.54 470.05C226.54 470.05 222.42 458.86 215.67 470.05C208.92 481.24 208.76 495.4 208.76 495.4L207.61 526.34C207.61 526.34 209.75 530.46 209.67 532.76C209.59 535.06 213.67 541.65 213.67 541.65C213.67 541.65 214.67 554.65 218.44 556.79L222.06 567.49C222.06 567.49 222.23 574.57 224.7 577.37C227.17 580.17 225.87 584.49 225.87 584.49L240.5 579.37C240.5 579.37 238.85 579.96 240.5 575.54C242.15 571.12 239.5 565.35 239.5 565.35C239.5 565.35 230.12 544.94 228.97 541.98C227.82 539.02 226.17 535.56 226.83 532.1C227.49 528.64 226.96 491.94 227.83 486.35C228.7 480.76 226.54 470.05 226.54 470.05Z" fill="black"/>
<path d="M228.06 468.5C228.06 468.5 223.94 457.31 217.19 468.5C210.44 479.69 210.28 493.85 210.28 493.85L209.13 524.79C209.13 524.79 211.27 528.91 211.19 531.21C211.11 533.51 215.19 540.1 215.19 540.1C215.19 540.1 216.19 553.1 219.96 555.24L223.58 565.94C223.58 565.94 223.75 573.02 226.22 575.82C228.69 578.62 227.4 582.94 227.4 582.94L242.02 577.81C242.02 577.81 240.37 578.41 242.02 573.99C243.67 569.57 241.02 563.8 241.02 563.8C241.02 563.8 231.64 543.39 230.49 540.43C229.34 537.47 227.69 534.01 228.35 530.55C229.01 527.09 228.49 490.39 229.35 484.79C230.21 479.19 228.06 468.5 228.06 468.5Z" fill="#444053"/>
<path opacity="0.1" d="M228.34 565.29C228.962 565.364 229.568 565.543 230.13 565.82C230.58 566.06 230.97 566.41 231.41 566.66C231.926 566.951 232.507 567.109 233.1 567.12C232.44 567.12 231.78 567.19 231.1 567.2C230.691 567.221 230.281 567.17 229.89 567.05C229.53 566.868 229.195 566.643 228.89 566.38C228.489 566.08 228.048 565.838 227.58 565.66C227.23 565.51 226.85 565.46 226.7 565.1C227.251 565.119 227.799 565.182 228.34 565.29V565.29Z" fill="black"/>
<path opacity="0.1" d="M233.91 569.71C234.53 569.71 235.15 569.57 235.78 569.53C236.686 569.497 237.593 569.544 238.49 569.67C237.167 570.333 235.68 570.597 234.21 570.43C233.787 570.32 233.343 570.32 232.92 570.43C232.46 570.62 231.13 572.13 231.01 570.79C230.89 569.45 233.15 569.74 233.91 569.71Z" fill="black"/>
<path opacity="0.1" d="M226.34 413.86L224 412.12C224.256 412.208 224.504 412.318 224.74 412.45C225.239 412.728 225.691 413.082 226.08 413.5C226.34 413.72 226.6 413.96 226.85 414.19L226.34 413.86Z" fill="black"/>
<path opacity="0.1" d="M229 463.84C228.571 464.822 227.879 465.666 227 466.28C226.474 466.64 225.872 466.873 225.24 466.96C224.344 467.042 223.44 466.946 222.58 466.68C221.487 466.402 220.409 466.069 219.35 465.68C217.281 464.828 215.16 464.106 213 463.52C209.71 462.77 205.88 463.04 203.52 465.44C201.45 467.55 200.94 470.83 198.87 472.94C196.1 475.76 191.56 475.59 187.63 475.04L186.71 474.91C188.48 467.84 190.34 461.91 191.76 460.97C195.55 458.5 215.3 460.97 215.3 460.97C215.3 460.97 223.53 461.13 226.66 461.97C227.613 462.34 228.429 462.992 229 463.84V463.84Z" fill="black"/>
<path opacity="0.1" d="M196.46 433.61C196.46 429.919 197.548 426.31 199.589 423.235C201.63 420.16 204.532 417.755 207.933 416.322C211.334 414.888 215.082 414.489 218.708 415.176C222.335 415.862 225.678 417.603 228.32 420.18V420.18C228.38 423.45 227.67 426.8 228.59 429.95C229.44 432.88 231.59 435.24 233.53 437.68C232.524 442.188 229.891 446.166 226.135 448.853C222.379 451.541 217.763 452.748 213.173 452.244C208.582 451.74 204.338 449.56 201.254 446.122C198.171 442.683 196.463 438.228 196.46 433.61V433.61Z" fill="black"/>
<path d="M226.8 413.21C223.159 409.91 218.572 407.838 213.689 407.289C208.805 406.74 203.873 407.741 199.59 410.15C197.622 411.234 195.942 412.774 194.69 414.64C192.11 418.75 192.77 424.05 191.42 428.71C190.14 433.16 187.08 436.84 184.55 440.71C182.02 444.58 179.91 449.2 180.86 453.71C181.55 457.01 183.86 459.97 183.78 463.34C183.688 465.215 182.893 466.988 181.553 468.303C180.213 469.619 178.427 470.382 176.55 470.44C179.73 472.69 183.7 473.44 187.55 473.99C191.4 474.54 196.01 474.71 198.79 471.88C200.86 469.78 201.37 466.49 203.44 464.39C205.8 461.98 209.63 461.71 212.92 462.47C216.21 463.23 219.24 464.82 222.5 465.67C223.361 465.928 224.264 466.02 225.16 465.94C227.97 465.56 229.6 462.44 229.82 459.62C230 457.27 229.66 454.56 231.33 452.9C231.95 452.367 232.62 451.895 233.33 451.49C234.612 450.605 235.626 449.386 236.262 447.965C236.899 446.544 237.133 444.975 236.94 443.43C236.17 437.85 230.13 434.37 228.55 428.96C227.63 425.82 228.34 422.47 228.28 419.2C228.22 415.93 226.99 412.2 223.91 411.1" fill="#444053"/>
<path opacity="0.1" d="M236.68 443.46C235.9 437.88 229.86 434.4 228.28 428.99C227.36 425.85 228.07 422.5 228.02 419.23C228.046 416.951 227.346 414.724 226.02 412.87L226.48 413.21C226.233 412.97 225.973 412.74 225.7 412.52C225.324 412.122 224.889 411.784 224.41 411.52C224.13 411.31 223.84 411.12 223.56 410.93L224.01 411.34L223.55 411C224.877 412.853 225.578 415.081 225.55 417.36C225.55 420.62 224.89 423.98 225.81 427.12C227.39 432.53 233.43 436.01 234.21 441.59C234.4 443.136 234.163 444.704 233.525 446.125C232.887 447.546 231.872 448.765 230.59 449.65C229.879 450.054 229.209 450.526 228.59 451.06C226.93 452.72 227.26 455.43 227.08 457.78C226.86 460.6 225.23 463.72 222.43 464.1C221.531 464.18 220.625 464.088 219.76 463.83C216.5 462.98 213.47 461.38 210.18 460.63C206.89 459.88 203.07 460.14 200.7 462.55C198.63 464.65 198.12 467.93 196.05 470.04C193.28 472.87 188.74 472.69 184.82 472.15C182.243 471.856 179.707 471.273 177.26 470.41C176.929 470.463 176.595 470.49 176.26 470.49C179.44 472.74 183.41 473.49 187.26 474.04C191.11 474.59 195.72 474.76 198.49 471.93C200.56 469.83 201.07 466.54 203.14 464.44C205.51 462.03 209.34 461.76 212.62 462.52C215.9 463.28 218.94 464.87 222.2 465.72C223.065 465.978 223.971 466.07 224.87 465.99C227.67 465.61 229.3 462.49 229.52 459.67C229.7 457.32 229.37 454.61 231.03 452.95C231.652 452.419 232.321 451.947 233.03 451.54C234.321 450.658 235.345 449.437 235.989 448.012C236.633 446.587 236.872 445.012 236.68 443.46Z" fill="black"/>
</g>
<defs>
<linearGradient id="paint0_linear_317_335" x1="213.37" y1="724.83" x2="213.37" y2="405.71" gradientUnits="userSpaceOnUse">
<stop stop-color="#808080" stop-opacity="0.25"/>
<stop offset="0.54" stop-color="#808080" stop-opacity="0.12"/>
<stop offset="1" stop-color="#808080" stop-opacity="0.1"/>
</linearGradient>
<clipPath id="clip0_317_335">
<rect width="1144" height="727.23" fill="white"/>
</clipPath>
</defs>
</svg>
