<svg width="1239" height="769" viewBox="0 0 1239 769" fill="none" xmlns="http://www.w3.org/2000/svg">
<path d="M0 769V553.937L207.1 0H1033V554.854L345.167 769H0Z" fill="black"/>
<path d="M268.528 241.97C257.496 241.97 247.318 240.197 237.993 236.651C228.8 233.105 220.788 228.18 213.959 221.876C207.261 215.441 202.073 207.823 198.396 199.024C194.719 190.225 192.88 180.572 192.88 170.065C192.88 159.558 194.719 149.905 198.396 141.106C202.205 132.307 207.524 124.755 214.353 118.451C221.182 112.016 229.259 107.025 238.584 103.479C248.04 99.933 258.415 98.16 269.71 98.16C279.297 98.16 288.622 99.8673 297.684 103.282C306.877 106.697 314.889 111.95 321.718 119.042L296.305 148.789C293.547 145.374 289.935 142.485 285.47 140.121C281.136 137.757 275.751 136.575 269.316 136.575C263.275 136.575 257.759 137.888 252.768 140.515C247.909 143.142 243.969 147.016 240.948 152.138C238.059 157.26 236.614 163.433 236.614 170.656C236.614 180.637 239.897 188.649 246.464 194.69C253.031 200.731 261.83 203.752 272.862 203.752C278.772 203.752 284.157 202.504 289.016 200.009C294.007 197.514 298.078 194.493 301.23 190.947L321.521 222.861C318.106 226.538 313.575 229.822 307.928 232.711C302.281 235.6 296.042 237.899 289.213 239.606C282.384 241.182 275.489 241.97 268.528 241.97ZM406.049 241.97C395.28 241.97 385.364 240.197 376.302 236.651C367.24 233.105 359.36 228.114 352.662 221.679C345.964 215.244 340.777 207.626 337.099 198.827C333.553 190.028 331.78 180.44 331.78 170.065C331.78 159.558 333.553 149.971 337.099 141.303C340.777 132.504 345.964 124.886 352.662 118.451C359.36 112.016 367.24 107.025 376.302 103.479C385.364 99.933 395.28 98.16 406.049 98.16C416.95 98.16 426.866 99.933 435.796 103.479C444.858 107.025 452.738 112.016 459.436 118.451C466.134 124.886 471.256 132.504 474.802 141.303C478.48 149.971 480.318 159.558 480.318 170.065C480.318 180.44 478.48 190.028 474.802 198.827C471.256 207.626 466.134 215.244 459.436 221.679C452.738 228.114 444.858 233.105 435.796 236.651C426.866 240.197 416.95 241.97 406.049 241.97ZM406.049 202.57C411.959 202.57 417.213 201.191 421.809 198.433C426.537 195.675 430.215 191.866 432.841 187.007C435.599 182.016 436.978 176.369 436.978 170.065C436.978 163.761 435.599 158.179 432.841 153.32C430.215 148.329 426.537 144.455 421.809 141.697C417.213 138.939 411.959 137.56 406.049 137.56C400.139 137.56 394.82 138.939 390.092 141.697C385.496 144.455 381.818 148.329 379.06 153.32C376.434 158.179 375.12 163.761 375.12 170.065C375.12 176.369 376.434 182.016 379.06 187.007C381.818 191.866 385.496 195.675 390.092 198.433C394.82 201.191 400.139 202.57 406.049 202.57ZM503.955 240V102.1H541.976L594.969 175.384C594.313 169.474 593.787 164.352 593.393 160.018C592.999 155.553 592.671 150.89 592.408 146.031C592.277 141.172 592.277 135.065 592.408 127.71V102.1H633.384V240H594.969L543.552 169.08C544.078 174.071 544.406 178.93 544.537 183.658C544.8 188.386 544.931 194.624 544.931 202.373V240H503.955ZM664.98 240V102.1H764.071V138.348H707.532V158.048H756.782V191.538H707.532V240H664.98ZM249.025 487.97C233.396 487.97 220.526 485.475 210.413 480.484C200.3 475.362 191.698 468.533 184.606 459.996L209.231 432.416C215.798 440.821 222.627 446.403 229.719 449.161C236.942 451.788 243.706 453.101 250.01 453.101C253.819 453.101 256.905 452.576 259.269 451.525C261.633 450.474 262.815 448.57 262.815 445.812C262.815 443.711 261.961 442.003 260.254 440.69C258.547 439.245 256.38 438.129 253.753 437.341C251.126 436.422 248.5 435.699 245.873 435.174C243.246 434.517 240.948 433.992 238.978 433.598C223.087 429.921 211.267 424.536 203.518 417.444C195.769 410.352 191.895 400.83 191.895 388.879C191.895 382.181 193.405 376.074 196.426 370.558C199.578 365.042 203.715 360.314 208.837 356.374C214.09 352.434 220 349.413 226.567 347.312C233.265 345.211 240.16 344.16 247.252 344.16C257.627 344.16 266.295 345.145 273.256 347.115C280.217 348.954 286.061 351.646 290.789 355.192C295.517 358.738 299.588 362.875 303.003 367.603L278.181 391.44C273.847 387.237 269.185 384.217 264.194 382.378C259.335 380.408 254.41 379.423 249.419 379.423C244.954 379.423 241.408 379.948 238.781 380.999C236.286 382.05 235.038 383.823 235.038 386.318C235.038 388.551 236.286 390.324 238.781 391.637C241.408 392.95 244.363 394.001 247.646 394.789C250.929 395.446 253.622 395.971 255.723 396.365C265.31 398.204 273.847 400.896 281.333 404.442C288.95 407.857 294.86 412.585 299.063 418.626C303.397 424.536 305.564 432.285 305.564 441.872C305.564 451.985 303.003 460.456 297.881 467.285C292.89 474.114 286.127 479.302 277.59 482.848C269.053 486.263 259.532 487.97 249.025 487.97ZM393.352 487.97C382.583 487.97 372.667 486.197 363.605 482.651C354.543 479.105 346.663 474.114 339.965 467.679C333.267 461.244 328.079 453.626 324.402 444.827C320.856 436.028 319.083 426.44 319.083 416.065C319.083 405.558 320.856 395.971 324.402 387.303C328.079 378.504 333.267 370.886 339.965 364.451C346.663 358.016 354.543 353.025 363.605 349.479C372.667 345.933 382.583 344.16 393.352 344.16C404.253 344.16 414.168 345.933 423.099 349.479C432.161 353.025 440.041 358.016 446.739 364.451C453.437 370.886 458.559 378.504 462.105 387.303C465.782 395.971 467.621 405.558 467.621 416.065C467.621 426.178 465.848 435.568 462.302 444.236C458.887 452.773 454.094 460.193 447.921 466.497L461.908 485.803L432.752 507.67L416.401 484.818C409.046 486.919 401.363 487.97 393.352 487.97ZM362.423 416.065C362.423 424.864 364.984 432.285 370.106 438.326C375.359 444.236 381.992 447.585 390.003 448.373L379.562 433.992L409.309 412.716L421.72 429.855C423.427 425.652 424.281 421.056 424.281 416.065C424.281 409.761 422.902 404.179 420.144 399.32C417.517 394.329 413.84 390.455 409.112 387.697C404.515 384.939 399.262 383.56 393.352 383.56C387.442 383.56 382.123 384.939 377.395 387.697C372.798 390.455 369.121 394.329 366.363 399.32C363.736 404.179 362.423 409.761 362.423 416.065ZM552.722 487.182C540.771 487.182 530.133 484.884 520.808 480.287C511.615 475.559 504.391 469.124 499.138 460.981C493.885 452.838 491.258 443.514 491.258 433.007V348.1H534.204V431.234C534.204 437.013 535.911 441.741 539.326 445.418C542.872 449.095 547.337 450.934 552.722 450.934C558.369 450.934 563.032 449.095 566.709 445.418C570.386 441.741 572.225 437.013 572.225 431.234V348.1H614.186V433.007C614.186 443.514 611.559 452.838 606.306 460.981C601.053 469.124 593.764 475.559 584.439 480.287C575.246 484.884 564.673 487.182 552.722 487.182ZM622.194 486L677.551 348.1H711.041L766.004 486H723.846L716.36 465.512H671.05L663.564 486H622.194ZM685.628 425.718L681.688 436.553H705.722L701.782 425.718C699.812 420.465 698.236 416.196 697.054 412.913C695.872 409.498 694.821 406.018 693.902 402.472C692.851 406.018 691.669 409.498 690.356 412.913C689.174 416.196 687.598 420.465 685.628 425.718ZM777.908 486V348.1H842.524C852.112 348.1 860.648 350.004 868.134 353.813C875.62 357.622 881.465 362.809 885.667 369.376C889.87 375.943 891.971 383.494 891.971 392.031C891.971 401.75 889.804 410.286 885.47 417.641C881.136 424.864 875.226 430.38 867.74 434.189L897.684 486H850.207L824.4 440.099H817.702V486H777.908ZM817.702 410.549H835.826C840.686 410.549 844.363 409.236 846.858 406.609C849.354 403.851 850.601 400.108 850.601 395.38C850.601 391.046 849.288 387.697 846.661 385.333C844.166 382.838 840.292 381.59 835.038 381.59H817.702V410.549ZM917.194 486V348.1H1020.22V382.575H957.973V400.108H1012.94V432.416H957.973V451.525H1023.77V486H917.194Z" fill="white"/>
<g clip-path="url(#clip0)">
<path d="M866.014 87.5248C864.638 88.9005 863.504 90.4542 862.6 92.1609C861.991 93.3131 851.778 118.564 851.778 118.564C843.956 137.679 832.584 154.776 817.979 169.381L810.844 176.516C795.981 191.379 795.786 215.435 810.408 230.142C817.541 237.317 827.036 241.267 837.143 241.267C837.153 241.267 837.163 241.267 837.174 241.267C842.775 241.267 848.188 240.049 853.117 237.746L866.363 250.992C867.066 251.695 867.987 252.046 868.907 252.046C869.753 252.046 870.596 251.746 871.273 251.153L889.925 269.805C893.388 273.268 897.937 275 902.487 275C907.036 275 911.585 273.268 915.048 269.805C921.975 262.878 921.975 251.608 915.048 244.682L896.405 226.039L898.925 223.518C899.6 222.844 899.979 221.929 899.979 220.975C899.979 220.02 899.6 219.105 898.925 218.431L888.436 207.942C898.787 200.24 910.061 193.874 922.144 188.929C922.144 188.929 947.329 178.797 949.32 177.684C951.407 176.517 953.185 174.695 953.185 174.695C966.821 161.987 957.545 132.045 933.105 107.605C908.664 83.1645 879.194 74.3441 866.014 87.5248ZM859.497 233.951C861.02 232.827 862.47 231.584 863.833 230.22L871.326 222.727C872.464 221.59 873.622 220.479 874.789 219.381L883.838 228.43L868.907 243.361L859.497 233.951ZM895.013 264.718L876.369 246.074L883.455 238.988L902.1 257.634C904.096 259.63 905.195 262.283 905.195 265.106C905.195 265.114 905.195 265.122 905.195 265.131C905.191 266.632 903.916 267.807 902.414 267.799C899.731 267.784 897.055 266.76 895.013 264.718ZM909.96 249.77C913.18 252.989 913.872 257.781 912.062 261.691C911.395 258.248 909.723 255.081 907.188 252.546L888.543 233.901L891.317 231.126L909.96 249.77ZM891.294 220.975L888.926 223.342L880.148 214.564C880.999 213.835 881.855 213.111 882.72 212.402L891.294 220.975ZM919.418 182.269C899.414 190.456 881.522 202.356 866.239 217.64L858.746 225.133C852.981 230.898 845.321 234.072 837.171 234.072C837.162 234.072 837.154 234.072 837.146 234.072C828.966 234.072 821.282 230.875 815.51 225.069C803.677 213.168 803.866 193.669 815.932 181.604L823.067 174.469C838.351 159.185 850.25 141.293 858.437 121.289L861.268 114.372C864.433 127.053 873.031 141.553 886.094 154.615C897.451 165.973 910.447 174.411 922.689 178.375C923.932 178.778 925.153 179.129 926.353 179.431L919.418 182.269ZM891.205 126.869C891.26 127.053 891.311 127.237 891.371 127.423C892.824 131.909 895.88 136.635 899.977 140.732C904.45 145.206 909.341 148.197 913.83 149.51L903.328 160.012C899.162 156.937 895.076 153.421 891.182 149.527C887.287 145.632 883.77 141.545 880.696 137.378L891.205 126.869ZM920.915 142.426L920.914 142.426L920.907 142.433C919.089 144.225 911.858 142.438 905.064 135.645C901.805 132.385 899.309 128.581 898.216 125.207C897.41 122.716 897.436 120.642 898.284 119.794C898.72 119.358 899.479 119.14 900.453 119.14C901.374 119.14 902.486 119.335 903.696 119.727C907.07 120.82 910.874 123.316 914.134 126.576C920.937 133.378 922.72 140.621 920.915 142.426ZM948.096 169.608C947.267 170.437 946.875 170.797 945.468 171.573C944.061 172.35 942.671 172.752 942.671 172.752C938.028 174.174 931.878 173.788 924.906 171.53C919.828 169.885 914.587 167.367 909.387 164.128L925.991 147.524C925.995 147.52 925.999 147.517 926.003 147.514C931.489 142.027 928.573 130.839 919.222 121.488C915.125 117.391 910.398 114.335 905.912 112.882C900.607 111.163 896.09 111.811 893.195 114.706L893.193 114.704L876.579 131.319C873.34 126.119 870.823 120.879 869.179 115.802C866.917 108.819 866.533 102.66 867.963 98.0139C867.963 98.0139 868.43 96.4655 868.99 95.5057C869.549 94.5458 870.266 93.4469 871.101 92.6118C873.847 89.8656 877.809 88.571 882.547 88.571C895.03 88.571 912.888 97.565 928.016 112.692C948.884 133.561 958.08 159.624 948.096 169.608Z" fill="white"/>
<path d="M994.835 127.698H961.929C959.942 127.698 958.331 129.309 958.331 131.296C958.331 133.282 959.942 134.893 961.929 134.893H994.835C996.822 134.893 998.432 133.282 998.432 131.296C998.432 129.309 996.822 127.698 994.835 127.698Z" fill="white"/>
<path d="M946.944 112.742C947.554 114.051 948.852 114.82 950.207 114.82C950.716 114.82 951.234 114.711 951.725 114.481L988.138 97.5007C989.938 96.6608 990.717 94.5205 989.877 92.7198C989.038 90.919 986.897 90.1405 985.097 90.98L948.684 107.961C946.884 108.801 946.105 110.941 946.944 112.742Z" fill="white"/>
<path d="M934.169 99.0923C934.843 99.6578 935.664 99.9341 936.48 99.9341C937.506 99.9341 938.526 99.4971 939.237 98.6491L966.267 66.4385C967.545 64.9165 967.346 62.6472 965.824 61.3703C964.301 60.0929 962.032 60.2915 960.756 61.8135L933.726 94.024C932.448 95.546 932.647 97.8149 934.169 99.0923Z" fill="white"/>
<path d="M918.905 87.4404C919.217 87.5238 919.53 87.5636 919.839 87.5636C921.427 87.5636 922.881 86.5035 923.312 84.8961L933.323 47.5291C933.837 45.6099 932.698 43.637 930.778 43.1227C928.861 42.6085 926.887 43.7473 926.372 45.667L916.361 83.034C915.847 84.9537 916.986 86.9261 918.905 87.4404Z" fill="white"/>
</g>
<defs>
<clipPath id="clip0">
<rect width="232" height="232" fill="white" transform="translate(783 43)"/>
</clipPath>
</defs>
</svg>
