<svg width="909" height="778" viewBox="0 0 909 778" fill="none" xmlns="http://www.w3.org/2000/svg">
<g clip-path="url(#clip0_317_499)">
<path d="M123.571 525.146C176.244 525.146 218.944 438.022 218.944 330.548C218.944 223.074 176.244 135.95 123.571 135.95C70.8984 135.95 28.1987 223.074 28.1987 330.548C28.1987 438.022 70.8984 525.146 123.571 525.146Z" fill="#3F3D56"/>
<path d="M122.696 332.566C127.453 247.859 137.038 190.642 137.135 190.074L135.055 189.722C134.959 190.29 125.356 247.599 120.591 332.416C116.194 410.696 115.133 529.1 135.054 648.629L137.135 648.283C117.248 528.957 118.306 410.732 122.696 332.566Z" fill="#3F3D56"/>
<path d="M208.812 291.084L122.581 337.238L123.576 339.098L209.808 292.944L208.812 291.084Z" fill="#3F3D56"/>
<path d="M32.5434 314.216L31.5483 316.076L117.792 362.207L118.788 360.346L32.5434 314.216Z" fill="#3F3D56"/>
<path d="M784.894 504.917C853.228 504.917 908.623 391.887 908.623 252.458C908.623 113.029 853.228 0 784.894 0C716.56 0 661.164 113.029 661.164 252.458C661.164 391.887 716.56 504.917 784.894 504.917Z" fill="#3F3D56"/>
<path d="M783.39 255.045C789.563 145.133 802.001 70.8927 802.126 70.1554L800.155 69.8214C800.03 70.5592 787.576 144.887 781.395 254.901C775.691 356.439 774.315 510.019 800.154 665.054L802.127 664.726C776.32 509.882 777.694 356.473 783.39 255.045Z" fill="#3F3D56"/>
<path d="M895.653 201.585L783.782 261.462L784.726 263.225L896.597 203.348L895.653 201.585Z" fill="#3F3D56"/>
<path d="M666.627 231.595L665.684 233.359L777.571 293.205L778.514 291.442L666.627 231.595Z" fill="#3F3D56"/>
<path d="M870.057 685.766C623.825 607.818 400.548 611.971 256.603 629.181C100.655 647.825 1.69873 685.369 0.717773 685.746L0 683.879C0.98389 683.501 100.173 645.868 256.365 627.194C348.241 616.223 440.939 613.852 533.255 620.111C647.859 627.868 761.127 649.269 870.661 683.859L870.057 685.766Z" fill="#3F3D56"/>
<path d="M839.014 620.729L880.172 681.757L841.852 720.077L836.885 710.142L845.4 690.273C845.4 690.273 843.981 671.823 839.014 666.855C834.046 661.888 812.048 632.084 812.048 632.084L839.014 620.729Z" fill="#FFB8B8"/>
<path d="M786.502 423.454C786.502 423.454 794.306 435.806 777.984 489.028C777.984 489.028 854.115 617.516 842.051 626.031C829.987 634.547 797.342 653.392 788.827 647.715C780.311 642.038 718.377 449.71 718.377 449.71L786.502 423.454Z" fill="#2F2E41"/>
<path d="M872.721 670.758L885.139 683.177C891.526 689.563 895.784 698.788 883.72 706.594C871.656 714.4 829.789 743.495 815.596 734.27C801.403 725.044 832.627 716.529 832.627 716.529C832.627 716.529 837.79 697.386 840.531 701.635C843.271 705.885 843.271 714.4 843.271 714.4L872.721 670.758Z" fill="#2F2E41"/>
<path d="M722.635 654.082C722.635 654.082 699.927 695.95 699.927 700.917C699.927 705.885 701.347 720.077 701.347 720.077L658.059 730.721L643.157 723.625L648.125 710.852C648.125 710.852 675.09 701.627 680.767 683.886C686.444 666.146 692.831 647.695 692.831 647.695L722.635 654.082Z" fill="#FFB8B8"/>
<path d="M748.891 237.532C765.352 237.532 778.695 224.188 778.695 207.727C778.695 191.267 765.352 177.923 748.891 177.923C732.431 177.923 719.087 191.267 719.087 207.727C719.087 224.188 732.431 237.532 748.891 237.532Z" fill="#FFB8B8"/>
<path d="M741.085 233.274L755.315 274.159L786.502 260.24C786.502 260.24 765.213 227.597 765.213 223.339L741.085 233.274Z" fill="#FFB8B8"/>
<path d="M736.828 378.747H774.438C774.438 378.747 801.403 419.905 785.792 463.193C783.401 469.821 781.028 479.107 778.659 490.085C773.211 515.332 767.788 549.531 762.229 580.956C754.422 625.099 746.349 663.769 737.573 664.471C719.833 665.89 685.334 665.654 685.334 658.557C685.334 651.461 708.442 446.162 708.442 446.162L713.41 437.646L714.349 400.554C714.497 394.7 716.934 389.138 721.136 385.062C725.339 380.985 730.972 378.718 736.828 378.747V378.747Z" fill="#2F2E41"/>
<path d="M699.572 700.562C699.572 700.562 707.733 714.4 705.604 724.335C703.475 734.269 699.927 732.85 684.315 734.269C668.703 735.689 615.481 735.689 615.481 725.754C615.481 715.819 656.999 702.917 657.174 706.885C657.349 710.852 658.769 718.658 654.511 720.077C650.253 721.496 654.156 720.432 654.156 720.432L699.572 700.562Z" fill="#2F2E41"/>
<path d="M741.091 467.32C741.091 467.32 738.004 517.729 717.416 502.722C696.827 487.715 725.439 460.607 725.439 460.607L741.091 467.32Z" fill="white"/>
<path d="M782.184 400.93C783.173 401.377 784.266 401.545 785.343 401.417C786.421 401.29 787.444 400.871 788.302 400.206C789.548 399.228 790.377 397.816 790.624 396.252C793.6 379.091 797.225 331.518 799.312 307.461C801.931 277.276 788.847 253.896 788.738 253.753L781.027 243.152C780.227 242.044 779.074 241.24 777.758 240.87C776.442 240.501 775.04 240.588 773.78 241.117C773.78 241.117 749.708 266.092 749.619 267.056C749.242 271.197 746.377 280.373 731.444 295.305C715.106 311.644 715.015 325.904 715.377 329.886C715.4 330.147 715.413 330.409 715.413 330.67C715.382 332.457 715.625 334.237 716.133 335.95C722.976 357.525 717.617 383.356 709.011 410.319C708.684 411.537 708.745 412.827 709.184 414.009C709.623 415.192 710.419 416.208 711.462 416.918C713.975 418.628 710.961 416.091 711.858 417.189C717.789 424.457 726.325 414.328 736.088 403.275C739.489 399.424 743.344 395.06 747.888 390.517C754.134 384.27 766.07 398.525 771.62 398.525C775.272 398.569 778.873 399.389 782.184 400.93V400.93Z" fill="#575A89"/>
<path d="M785.493 264.761C785.493 264.761 801.082 277.907 792.225 294.957C783.369 312.006 784.547 324.581 784.547 324.581C784.547 324.581 782.189 441.706 754.516 436.015L741.929 470.768L719.195 462.563L732.341 431.91C732.341 431.91 721.812 431.255 724.889 424.081C727.049 419.042 738.691 364.363 745.43 332.259C748.286 318.655 750.261 309.105 750.261 309.105C750.261 309.105 759.218 261.214 785.493 264.761Z" fill="#575A89"/>
<path opacity="0.2" d="M788.763 324.281L779.998 381.79L784.727 320.297L788.763 324.281Z" fill="black"/>
<path d="M716.374 194.522C716.374 194.522 711.363 155.527 752.247 168.314C752.247 168.314 781.446 162.956 791.022 199.48L800.718 237.767L795.993 235.195L793.79 240.01L786.132 241.949L782.856 235.446L781.27 243.343L718.554 249.596C718.554 249.596 746.643 232.984 747.089 203.211L741.738 208.865L716.374 194.522Z" fill="#2F2E41"/>
<path opacity="0.2" d="M763.014 583.199L776.999 490.013L765.625 590.611L763.014 583.199Z" fill="black"/>
<path d="M785.869 184.466C794.579 184.466 801.639 177.406 801.639 168.696C801.639 159.986 794.579 152.926 785.869 152.926C777.16 152.926 770.099 159.986 770.099 168.696C770.099 177.406 777.16 184.466 785.869 184.466Z" fill="#2F2E41"/>
<path d="M769.62 164.835C769.879 160.834 771.653 157.082 774.582 154.344C777.511 151.605 781.373 150.086 785.383 150.096C785.057 150.054 784.734 150.004 784.402 149.983C782.335 149.849 780.261 150.123 778.3 150.791C776.339 151.459 774.529 152.506 772.972 153.874C771.416 155.241 770.145 156.902 769.23 158.761C768.316 160.62 767.777 162.641 767.644 164.708C767.511 166.776 767.787 168.849 768.456 170.81C769.124 172.771 770.173 174.58 771.541 176.136C772.909 177.691 774.571 178.962 776.43 179.875C778.29 180.788 780.311 181.326 782.378 181.458C782.71 181.48 783.037 181.471 783.365 181.472C779.388 180.968 775.752 178.967 773.198 175.876C770.644 172.785 769.364 168.837 769.62 164.835V164.835Z" fill="#2F2E41"/>
<path opacity="0.2" d="M740.865 342.202L726.99 416.567L744.974 334.43L740.865 342.202Z" fill="black"/>
<path d="M741.73 229.206L733.643 235.303C725.315 231.111 719.068 221.414 716.798 212.159L725.61 207.712C726.303 217.152 733.004 223.428 741.73 229.206Z" fill="white"/>
<path d="M745.089 209.056H724.939C724.761 209.056 724.59 208.985 724.464 208.859C724.338 208.733 724.267 208.562 724.267 208.384C724.267 208.206 724.338 208.035 724.464 207.909C724.59 207.783 724.761 207.712 724.939 207.712H745.089C745.267 207.712 745.438 207.783 745.563 207.909C745.689 208.035 745.76 208.206 745.76 208.384C745.76 208.562 745.689 208.733 745.563 208.859C745.438 208.985 745.267 209.056 745.089 209.056V209.056Z" fill="white"/>
<path d="M741.059 229.206C740.949 229.206 740.841 229.179 740.744 229.127C740.647 229.076 740.564 229.001 740.502 228.911C740.441 228.82 740.403 228.715 740.391 228.606C740.379 228.497 740.395 228.387 740.435 228.285L745.809 214.851C745.841 214.769 745.89 214.694 745.951 214.631C746.013 214.568 746.086 214.517 746.167 214.482C746.248 214.447 746.336 214.429 746.424 214.428C746.512 214.426 746.6 214.443 746.682 214.475C746.764 214.508 746.839 214.557 746.902 214.619C746.965 214.68 747.015 214.754 747.05 214.835C747.085 214.917 747.103 215.004 747.104 215.092C747.105 215.18 747.088 215.268 747.055 215.35L741.682 228.783C741.632 228.908 741.546 229.015 741.435 229.09C741.324 229.165 741.193 229.206 741.059 229.206V229.206Z" fill="white"/>
<path d="M746.444 216.992C749.166 216.992 751.372 213.903 751.372 210.093C751.372 206.282 749.166 203.193 746.444 203.193C743.722 203.193 741.516 206.282 741.516 210.093C741.516 213.903 743.722 216.992 746.444 216.992Z" fill="#FFB8B8"/>
<path d="M399.191 230.876L451.677 242.887L473.853 201.062L428.974 183.54L399.191 230.876Z" fill="#2F2E41"/>
<path d="M427.077 456.027C427.077 456.027 410.205 494.691 410.205 505.939C410.205 505.939 416.884 536.518 414.775 544.954L407.393 560.771L391.928 554.444L387.71 512.265L388.413 444.779L427.077 456.027Z" fill="#FFB9B9"/>
<path d="M436.567 224.746C436.567 224.746 437.973 247.944 435.161 254.974C432.349 262.004 445.706 275.361 445.706 275.361L466.796 247.944C466.796 247.944 452.736 233.885 456.251 218.419L436.567 224.746Z" fill="#FFB9B9"/>
<path d="M392.631 385.377C392.631 385.377 372.245 423.338 391.928 420.526C411.611 417.714 404.933 384.323 404.933 384.323" fill="#E6E6E6"/>
<path d="M404.933 384.323L411.611 317.891L411.26 277.47L395.794 280.281V317.539L392.631 385.377" fill="#FFB9B9"/>
<path d="M388.062 549.523L418.29 537.573L421.805 597.326C421.805 597.326 428.132 615.604 426.023 622.634C426.023 622.634 427.429 634.584 423.914 635.287C420.399 635.99 410.557 637.396 409.854 636.693C409.151 635.99 409.151 633.881 409.151 633.881C409.151 633.881 402.121 638.802 401.418 644.426C401.418 644.426 371.893 653.565 371.19 645.129C370.487 636.693 385.953 629.663 385.953 629.663L397.904 611.386L388.062 549.523Z" fill="#2F2E41"/>
<path d="M489.994 456.027C489.994 456.027 473.122 494.691 473.122 505.939C473.122 505.939 479.801 536.518 477.692 544.954L470.31 560.771L454.845 554.444L450.627 512.265L451.33 444.779L489.994 456.027Z" fill="#FFB9B9"/>
<path d="M452.033 549.523L482.261 537.573L485.776 597.326C485.776 597.326 492.103 615.604 489.994 622.634C489.994 622.634 491.4 634.584 487.885 635.287C484.37 635.99 474.528 637.396 473.825 636.693C473.122 635.99 473.122 633.881 473.122 633.881C473.122 633.881 466.093 638.802 465.39 644.426C465.39 644.426 435.864 653.565 435.161 645.129C434.458 636.693 449.924 629.663 449.924 629.663L461.875 611.386L452.033 549.523Z" fill="#2F2E41"/>
<path d="M466.098 208.581C466.095 214.117 464.052 219.458 460.358 223.581C456.664 227.705 451.579 230.322 446.077 230.931C440.575 231.54 435.041 230.099 430.534 226.884C426.028 223.668 422.865 218.904 421.651 213.503C421.281 211.888 421.097 210.237 421.101 208.581C421.105 202.616 423.477 196.898 427.696 192.682C431.914 188.466 437.635 186.097 443.599 186.097C449.563 186.097 455.284 188.466 459.503 192.682C463.721 196.898 466.094 202.616 466.098 208.581V208.581Z" fill="#FFB9B9"/>
<path d="M446.409 253.568L463.866 244.503L471.716 250.756C471.716 250.756 490.697 250.053 497.727 258.489C504.757 266.925 508.623 288.366 508.623 288.366C508.623 288.366 485.424 283.445 488.236 303.128L484.018 291.881L480.152 301.371L433.052 317.539L411.963 281.687C411.963 281.687 397.903 277.47 392.982 287.311C392.982 287.311 394.037 251.811 407.745 250.756C416.964 250.047 423.914 250.053 423.914 250.053L431.646 248.647L436.598 246.89L446.409 253.568Z" fill="#575A89"/>
<path d="M476.286 330.545C476.286 330.545 513.192 441.264 502.648 456.73C502.648 456.73 463.281 476.413 384.547 449.7L416.532 325.624C436.18 321.606 456.098 323.246 476.286 330.545Z" fill="#2F2E41"/>
<path d="M476.286 330.545L486.673 294.85C474.213 281.3 484.967 251.253 484.967 251.253L469.933 248.031C469.933 248.031 454.845 288.717 439.379 283.796C423.914 278.876 432.349 247.241 432.349 247.241L418.29 248.647L411.963 273.252L416.532 325.624C435.589 323.989 455.575 325.891 476.286 330.545Z" fill="#575A89"/>
<path d="M494.563 384.323L499.484 317.539L500.89 277.47L485.425 280.281V317.539L482.261 385.377" fill="#FFB9B9"/>
<path d="M482.261 385.377C482.261 385.377 461.874 423.338 481.558 420.526C501.241 417.714 494.563 384.323 494.563 384.323" fill="white"/>
<path d="M508.623 288.366C508.623 288.366 506.124 252.264 485.229 252.389V294.139C485.229 294.139 500.89 284.851 508.623 288.366Z" fill="#575A89"/>
<path d="M450.792 214.386C450.673 214.386 450.557 214.349 450.46 214.28C450.363 214.212 450.29 214.114 450.251 214.002C450.211 213.89 450.208 213.768 450.241 213.654C450.273 213.54 450.341 213.438 450.434 213.364L461.907 204.186C461.965 204.138 462.033 204.103 462.106 204.081C462.178 204.06 462.254 204.053 462.33 204.061C462.405 204.069 462.478 204.092 462.544 204.128C462.611 204.165 462.669 204.214 462.716 204.273C462.764 204.332 462.799 204.4 462.82 204.473C462.841 204.546 462.847 204.622 462.838 204.697C462.83 204.772 462.806 204.845 462.77 204.911C462.733 204.977 462.683 205.035 462.624 205.082L451.151 214.261C451.049 214.342 450.923 214.386 450.792 214.386Z" fill="white"/>
<path d="M451.661 228.154C451.408 228.463 451.156 228.773 450.892 229.06C447.848 230.44 444.535 231.125 441.193 231.064C437.851 231.003 434.565 230.199 431.573 228.709C428.581 227.219 425.959 225.081 423.897 222.451C421.834 219.82 420.384 216.764 419.651 213.503L430.523 211.503L451.661 213.503C446.819 219.4 447.404 221.442 451.661 228.154Z" fill="white"/>
<path d="M430.896 177.091C430.896 177.091 419.269 179.278 416.58 193.779C416.16 196.224 416.083 198.717 416.352 201.183C416.621 203.975 416.231 209.87 410.171 216.812C406.216 221.314 402.531 226.047 399.135 230.984V230.984L411.284 234.219L416.713 214.09C419.344 204.331 423.398 195.013 428.745 186.435L428.856 186.256C428.856 186.256 432.891 197.037 443.707 198.515L440.372 194.125C440.372 194.125 453.015 201.434 460.178 203.666C460.995 203.921 461.728 204.394 462.296 205.035C462.865 205.675 463.248 206.458 463.404 207.3C463.56 208.142 463.484 209.011 463.183 209.813C462.882 210.614 462.368 211.319 461.697 211.85C461.646 211.89 461.594 211.93 461.541 211.97C456.273 215.972 445.525 225.52 449.771 234.757C454.017 243.993 449.065 245.677 449.065 245.677L458.196 242.204L462.376 240.414L461.953 243.504L482.356 243.931C482.356 243.931 487.869 243.898 478.076 229.182C478.076 229.182 475.713 223.664 477.653 219.448C479.21 216.255 479.985 212.738 479.914 209.187C479.297 194.35 473.047 164.166 430.896 177.091Z" fill="#2F2E41"/>
<path d="M144.696 599.713C144.696 599.713 144.696 695.175 122.787 720.214C122.787 720.214 118.092 732.734 116.527 737.429C115.652 740.101 114.606 742.715 113.397 745.253V751.513C113.397 751.513 71.1433 746.818 66.4485 735.864L74.2732 726.474C74.2732 726.474 75.8382 724.909 74.2732 720.214C72.7083 715.519 77.4031 715.519 77.4031 715.519L88.3578 690.48L86.7928 587.193L94.6176 444.783L161.91 441.653L144.696 599.713Z" fill="#2F2E41"/>
<path d="M110.267 742.123C110.267 742.123 121.222 774.987 110.267 776.552C99.3125 778.117 3.85056 779.682 5.41551 767.162C6.98046 754.643 38.2794 756.208 38.2794 756.208L71.1434 735.864L110.267 742.123Z" fill="#2F2E41"/>
<path d="M207.294 444.783C207.294 444.783 210.424 465.127 197.904 487.037C185.385 508.946 193.209 582.499 193.209 582.499L304.321 679.525C304.321 679.525 282.412 717.084 274.587 715.519C266.762 713.954 143.131 613.797 143.131 613.797L94.6177 451.043L207.294 444.783Z" fill="#2F2E41"/>
<path d="M302.794 675.379C302.794 675.379 336.416 683.72 331.874 693.81C327.331 703.9 277.547 785.368 267.811 777.344C258.074 769.32 276.152 743.722 276.152 743.722L276.562 705.073L302.794 675.379Z" fill="#2F2E41"/>
<path d="M182.255 153.705C182.267 161.95 179.433 169.946 174.231 176.342C170.118 181.44 164.688 185.315 158.531 187.548C152.373 189.782 145.722 190.288 139.297 189.012C136.08 188.391 132.966 187.319 130.048 185.83C125.413 183.494 121.339 180.182 118.104 176.122C114.87 172.063 112.552 167.351 111.311 162.312C110.612 159.496 110.26 156.606 110.265 153.705C110.265 144.159 114.057 135.003 120.808 128.253C127.558 121.503 136.714 117.71 146.26 117.71C155.806 117.71 164.962 121.503 171.712 128.253C178.462 135.003 182.255 144.159 182.255 153.705V153.705Z" fill="#A0616A"/>
<path d="M174.582 166.402L172.99 212.72L142.703 224.686C142.703 224.686 139.733 177.26 135.541 174.631C131.348 172.002 174.582 166.402 174.582 166.402Z" fill="#A0616A"/>
<path d="M135.306 230.385C135.306 230.385 177.56 188.131 188.515 189.696C199.469 191.261 199.469 195.956 199.469 199.086C199.469 202.216 196.339 203.781 199.469 205.346C202.599 206.911 205.729 205.346 205.729 210.041C205.729 214.735 233.898 261.684 224.508 313.327C215.119 364.971 204.164 390.01 208.859 418.179C213.554 446.348 210.424 452.608 210.424 452.608C210.424 452.608 93.0526 461.997 91.4877 451.043C89.9228 440.088 96.1825 446.348 88.3578 438.523C80.533 430.698 83.6629 430.698 83.6629 426.004C83.6629 421.309 118.092 230.385 135.306 230.385Z" fill="#575A89"/>
<path d="M157.215 443.218C157.215 443.218 138.436 488.602 124.351 477.647C110.267 466.692 130.611 429.133 130.611 429.133L157.215 443.218Z" fill="white"/>
<path d="M202.599 233.515C202.599 233.515 239.368 237.724 225.678 305.26C211.989 372.795 158.78 451.043 158.78 451.043L122.787 433.828L169.735 341.496L158.78 283.593C158.78 283.593 152.521 228.82 202.599 233.515Z" fill="#575A89"/>
<path opacity="0.2" d="M170.518 342.279L118.874 428.351L123.569 433.046L170.518 342.279Z" fill="black"/>
<path opacity="0.2" d="M197.853 382.389L156.433 450.26H170.518L197.853 382.389Z" fill="black"/>
<path opacity="0.2" d="M104.29 505.73L102.209 506.523L143.391 614.498L145.471 613.705L104.29 505.73Z" fill="black"/>
<path d="M135.528 238.977C136.758 238.977 137.754 237.981 137.754 236.751C137.754 235.522 136.758 234.525 135.528 234.525C134.298 234.525 133.302 235.522 133.302 236.751C133.302 237.981 134.298 238.977 135.528 238.977Z" fill="#D0CDE1"/>
<path d="M116.605 299.086C116.843 299.086 117.074 299.01 117.266 298.869C117.457 298.727 117.598 298.529 117.668 298.301L136.591 237.08C136.635 236.94 136.65 236.793 136.637 236.648C136.624 236.502 136.582 236.36 136.514 236.231C136.445 236.101 136.352 235.987 136.24 235.893C136.127 235.8 135.997 235.729 135.858 235.686C135.718 235.643 135.571 235.627 135.425 235.641C135.28 235.655 135.138 235.697 135.009 235.765C134.879 235.834 134.765 235.927 134.671 236.04C134.578 236.152 134.508 236.282 134.465 236.422L115.542 297.645C115.491 297.811 115.479 297.987 115.508 298.159C115.538 298.331 115.607 298.493 115.71 298.633C115.814 298.774 115.948 298.888 116.104 298.966C116.259 299.045 116.431 299.086 116.605 299.086V299.086Z" fill="#D0CDE1"/>
<path d="M139.043 181.273L130.048 189.83C120.784 185.168 111.836 172.606 109.311 162.311L121.113 157.366C121.883 167.866 129.337 174.847 139.043 181.273Z" fill="white"/>
<path d="M141.286 161.848C141.25 161.848 141.215 161.846 141.179 161.841L120.261 158.853C120.164 158.839 120.07 158.806 119.986 158.756C119.901 158.706 119.827 158.64 119.768 158.562C119.71 158.483 119.667 158.394 119.642 158.299C119.618 158.204 119.612 158.105 119.626 158.008C119.64 157.911 119.673 157.817 119.723 157.733C119.773 157.648 119.839 157.574 119.917 157.516C119.996 157.457 120.085 157.414 120.18 157.389C120.275 157.365 120.374 157.359 120.471 157.373L141.389 160.361C141.577 160.388 141.747 160.484 141.865 160.631C141.984 160.778 142.043 160.965 142.03 161.153C142.017 161.342 141.933 161.518 141.795 161.647C141.657 161.776 141.475 161.848 141.286 161.848V161.848Z" fill="white"/>
<path d="M138.296 181.273C138.166 181.273 138.037 181.239 137.924 181.174C137.811 181.109 137.717 181.016 137.651 180.903C137.585 180.79 137.55 180.662 137.549 180.532C137.548 180.401 137.581 180.273 137.645 180.159L144.576 167.821C144.624 167.735 144.689 167.659 144.766 167.599C144.843 167.538 144.931 167.493 145.026 167.466C145.12 167.439 145.219 167.432 145.317 167.443C145.414 167.455 145.509 167.486 145.594 167.534C145.68 167.582 145.755 167.647 145.816 167.724C145.877 167.802 145.921 167.89 145.948 167.985C145.974 168.079 145.981 168.178 145.969 168.276C145.957 168.373 145.926 168.468 145.878 168.553L138.947 180.892C138.882 181.007 138.788 181.104 138.673 181.171C138.559 181.238 138.429 181.273 138.296 181.273V181.273Z" fill="white"/>
<path d="M162.552 175.331C159.638 173.79 156.253 173.473 153.099 172.515C141.815 169.089 134.256 156.333 136.67 144.79C137.116 143.309 137.316 141.766 137.262 140.22C136.84 136.802 133.342 134.596 129.988 133.812C126.633 133.029 123.064 133.143 119.858 131.883C114.908 129.938 111.62 124.851 110.907 119.58C110.194 114.31 111.758 108.934 114.302 104.263L115.513 107.75C117.361 106.186 118.733 104.134 119.472 101.829C120.849 102.06 122.144 102.641 123.232 103.516C124.32 104.391 125.165 105.531 125.687 106.826C127.632 107.973 127.912 103.263 130.06 102.569C130.96 102.278 131.885 102.83 132.742 103.23C137.07 105.249 142.1 103.523 146.743 102.404C154.784 100.475 163.166 100.465 171.212 102.375C176.557 103.65 181.848 105.87 185.672 109.815C188.813 113.055 190.771 117.245 192.437 121.439C196.539 131.763 199.249 142.934 197.895 153.961C196.767 162.984 192.992 171.471 187.047 178.351C183.949 181.92 173.844 194.37 168.303 192.247C161.34 189.58 170.756 179.668 162.552 175.331Z" fill="#2F2E41"/>
</g>
<defs>
<clipPath id="clip0_317_499">
<rect width="908.623" height="777.899" fill="white"/>
</clipPath>
</defs>
</svg>
