<svg width="708" height="384" viewBox="0 0 708 384" fill="none" xmlns="http://www.w3.org/2000/svg">
<path d="M89.5 279.041V118.848L246 55.4678V216.148L89.5 279.041Z" stroke="black" stroke-width="4"/>
<path d="M166 328.541V168.348L322.5 104.968V265.648L166 328.541Z" stroke="black" stroke-width="4"/>
<line x1="247.084" y1="54.3191" x2="323.084" y2="103.319" stroke="black" stroke-width="4"/>
<line x1="245.089" y1="215.323" x2="322.089" y2="265.323" stroke="black" stroke-width="4"/>
<line x1="89.0892" y1="118.323" x2="166.089" y2="168.323" stroke="black" stroke-width="4"/>
<path d="M140.763 346.238L75.1618 299.987L224.276 240.244L292.701 285.075L140.763 346.238Z" stroke="black" stroke-width="4"/>
<path d="M69.8554 148.701L138.355 193.581L138.355 345.17L69.8554 297.456L69.8554 148.701Z" stroke="black" stroke-width="4"/>
<path d="M358.86 267V123.5H366.24V191.56H451.93V123.5H459.31V267H451.93V198.53H366.24V267H358.86ZM524.465 267L484.285 123.5H491.665L529.795 260.03H542.915L581.045 123.5H588.425L548.245 267H524.465ZM613.508 267V123.5H697.353V130.47H620.888V190.125H685.053V197.095H620.888V260.03H697.353V267H613.508Z" fill="black"/>
</svg>
