<svg width="917" height="462" viewBox="0 0 917 462" fill="none" xmlns="http://www.w3.org/2000/svg">
<path d="M893.363 440.2L884.309 444.057L865.118 410.972L878.481 405.278L893.363 440.2Z" fill="#FFB6B6"/>
<path d="M818.545 448.767L808.704 448.766L804.022 410.806H818.547L818.545 448.767Z" fill="#FFB6B6"/>
<path d="M818.891 459.034L788.627 459.033V458.65C788.628 455.526 789.869 452.53 792.078 450.321C794.287 448.112 797.283 446.871 800.407 446.87H800.408L805.936 442.677L816.25 446.871L818.892 446.871L818.891 459.034Z" fill="#2F2E41"/>
<path d="M898.868 446.772L871.027 458.636L870.877 458.284C869.652 455.41 869.619 452.167 870.786 449.269C871.952 446.371 874.221 444.054 877.095 442.829L877.096 442.829L880.537 436.804L891.67 436.618L894.1 435.583L898.868 446.772Z" fill="#2F2E41"/>
<path d="M808.891 224.103L793.934 315.178L798.004 328.75L792.663 338.362L800.507 422.777L797.323 429.786L806.219 435.273H824.322L825.282 358.852L829.754 347.632V341.448L838.857 294.848L840.533 348.152L843.181 359.39L840.956 367.392L843.863 372.997L868.769 426.477H889.067L887.497 414.383C891.134 412.541 882.037 407.16 881.163 403.178L884.152 396.453L881.163 383.75L878.422 358.929L881.312 306.534L879.953 235.978C873.137 226.841 865.577 219.794 856.207 217.82L808.891 224.103Z" fill="#2F2E41"/>
<path d="M845.316 104.162C856.645 104.162 865.829 94.9783 865.829 83.6491C865.829 72.3199 856.645 63.1358 845.316 63.1358C833.986 63.1358 824.802 72.3199 824.802 83.6491C824.802 94.9783 833.986 104.162 845.316 104.162Z" fill="#FFB6B6"/>
<path d="M760.74 245.621C760.484 244.469 760.484 243.275 760.74 242.123C760.996 240.971 761.501 239.889 762.22 238.953C762.939 238.018 763.855 237.251 764.902 236.708C765.95 236.164 767.104 235.857 768.283 235.807L776.546 208.337L786.099 219.78L776.788 244.112C776.739 246.099 775.964 247.998 774.609 249.451C773.253 250.904 771.412 251.809 769.434 251.995C767.456 252.181 765.478 251.635 763.876 250.46C762.273 249.285 761.157 247.564 760.74 245.621Z" fill="#FFB6B6"/>
<path d="M814.344 132.708L810.64 125.942L805.868 127.535C805.868 127.535 800.6 130.934 793.223 143.768C789.812 149.703 782.437 187.765 782.437 187.765L765.198 233.411L782.772 236.383L797.437 198.765L814.437 162.765L814.344 132.708Z" fill="#3F3D56"/>
<path d="M844.555 223.816C858.998 223.816 873.571 226.659 879.539 236.825C879.383 234.615 878.992 230.782 878.586 227.265L877.093 217.816L878.605 209.153L880.605 207.153L877.024 203.571L879.467 185.487L887.532 142.884C888.164 139.533 887.671 136.066 886.129 133.024C884.588 129.981 882.084 127.534 879.007 126.062L871.259 122.336L858.698 110.685L835.976 110.515L828.563 120.152L809.05 126.78L812.325 194.541L810.178 199.55C810.66 199.992 811.675 200.937 812.225 201.545C813.002 202.405 812.012 206.836 811.352 209.4L810.445 216.23L813.3 218.27L809.588 222.654L808.847 228.219C812.532 227.347 828.463 223.816 844.555 223.816Z" fill="#3F3D56"/>
<path d="M850.563 103.158C850.651 102.965 850.739 102.771 850.826 102.577C850.792 102.578 850.759 102.583 850.725 102.584L850.563 103.158Z" fill="#2F2E41"/>
<path d="M866.399 64.0686C865.425 63.1497 864.159 62.6023 862.823 62.5222C861.496 62.565 860.151 63.763 860.426 65.0615C857.99 60.7475 854.111 57.4295 849.472 55.69C844.833 53.9504 839.73 53.9005 835.057 55.5489C831.761 56.7121 828.528 59.0391 827.77 62.4521C827.697 63.3482 827.429 64.2175 826.987 65.0003C826.604 65.4188 826.106 65.716 825.556 65.8554C825.006 65.9948 824.427 65.9702 823.891 65.7847L823.859 65.7751C823.675 65.7124 823.477 65.7063 823.29 65.7574C823.103 65.8086 822.935 65.9147 822.809 66.0621C822.683 66.2094 822.604 66.3912 822.582 66.584C822.56 66.7768 822.597 66.9716 822.687 67.1433L823.62 68.8831C822.444 69.1452 821.222 69.1192 820.059 68.8073C819.865 68.7566 819.661 68.767 819.474 68.8369C819.287 68.9069 819.126 69.0331 819.013 69.1982C818.901 69.3633 818.842 69.5592 818.845 69.759C818.848 69.9588 818.913 70.1528 819.03 70.3143C820.581 72.4353 822.605 74.1651 824.941 75.3661C827.278 76.5671 829.862 77.2062 832.489 77.2324C836.216 77.2097 839.982 75.9251 843.609 76.7822C845.013 77.1138 846.324 77.7553 847.447 78.6598C848.57 79.5642 849.476 80.7086 850.099 82.009C850.722 83.3094 851.046 84.7327 851.048 86.1747C851.049 87.6166 850.727 89.0405 850.106 90.3419C851.221 89.1231 853.375 89.4117 854.515 90.6067C855.04 91.2465 855.428 91.9872 855.655 92.7829C855.882 93.5787 855.943 94.4126 855.835 95.233C855.531 97.7459 854.785 100.185 853.631 102.438C858.039 102.303 862.298 100.817 865.835 98.1836C869.371 95.5496 872.014 91.8937 873.407 87.7097C874.799 83.5257 874.874 79.0151 873.62 74.7873C872.367 70.5595 869.847 66.8182 866.399 64.0686H866.399Z" fill="#2F2E41"/>
<path d="M218.603 103.543C234.701 95.9542 247.347 82.5773 254.019 66.0792C254.679 64.4441 257.182 65.5542 256.523 67.1873C249.547 84.3426 236.359 98.2366 219.59 106.096C217.991 106.844 217.013 104.287 218.603 103.543L218.603 103.543Z" fill="white"/>
<path d="M648.604 41.5426C664.701 33.9542 677.347 20.5773 684.02 4.07924C684.68 2.44413 687.182 3.5542 686.523 5.18734C679.547 22.3426 666.359 36.2366 649.59 44.0963C647.992 44.8444 647.014 42.2865 648.604 41.5425L648.604 41.5426Z" fill="white"/>
<path d="M163.937 445.981L173.383 453.297L210.112 459.67L250.937 358.19C250.937 358.19 275.937 279.981 345.937 295.981L570.936 291.981C570.936 291.981 640.02 284.901 651.436 317.481C653.599 323.652 711.937 459.981 711.937 459.981L752.838 454.208L747.937 337.981L650.791 112.481L481.936 101.938L307.937 113.981L163.937 445.981Z" fill="#3F3D56"/>
<path d="M350.937 302.981C386.835 302.981 415.937 273.88 415.937 237.981C415.937 202.083 386.835 172.981 350.937 172.981C315.038 172.981 285.937 202.083 285.937 237.981C285.937 273.88 315.038 302.981 350.937 302.981Z" fill="#2F2E41"/>
<path d="M568.937 302.981C604.835 302.981 633.937 273.88 633.937 237.981C633.937 202.083 604.835 172.981 568.937 172.981C533.038 172.981 503.937 202.083 503.937 237.981C503.937 273.88 533.038 302.981 568.937 302.981Z" fill="#2F2E41"/>
<path d="M274.937 24.9811L301.7 19.7331C301.7 19.7331 503.204 -9.01891 630.57 24.9811L620.936 51.9811L283.937 49.9811L274.937 24.9811Z" fill="#E6E6E6"/>
<path d="M546.626 164.481H375.617C354.853 164.481 336.908 150.104 332.947 130.295L314.232 36.6905C313.818 34.6479 313.835 32.5413 314.281 30.5053C314.727 28.4694 315.592 26.5488 316.823 24.8663C318.109 23.1011 319.745 21.6192 321.629 20.5127C323.512 19.4063 325.603 18.6988 327.771 18.4342C417.964 7.23886 507.273 7.21981 593.221 18.3761C595.359 18.6379 597.421 19.3369 599.277 20.4296C601.133 21.5223 602.745 22.9854 604.011 24.7277C605.234 26.3859 606.102 28.2779 606.561 30.286C607.021 32.2941 607.062 34.3752 606.683 36.4L589.407 129.717C585.678 149.86 567.686 164.481 546.626 164.481Z" fill="#3F3D56"/>
<path d="M198.866 40.2203L199.611 26.8253C199.727 24.7385 200.347 22.7109 201.418 20.916C202.489 19.1212 203.978 17.6125 205.76 16.5192C216.557 9.8952 245.683 -4.68879 282.852 2.95621C285.462 3.49644 287.843 4.82729 289.67 6.76785C291.497 8.70842 292.682 11.1646 293.064 13.8024L294.06 20.7721L198.866 40.2203Z" fill="#3F3D56"/>
<path d="M723.007 40.2203L627.813 20.7721L629.413 9.5748C629.597 8.25258 630.173 7.01572 631.066 6.02326C631.959 5.0308 633.128 4.32812 634.423 4.00553C677.289 -6.7518 710.099 12.3517 719.135 18.463C719.992 19.0452 720.704 19.8167 721.216 20.7178C721.728 21.619 722.026 22.6257 722.086 23.6603L723.007 40.2203Z" fill="#3F3D56"/>
<path d="M168.641 454.716C166.347 454.741 164.094 454.107 162.15 452.89C136.661 438.006 120.77 410.731 114.955 371.844C110.152 339.723 112.158 299.406 120.917 252.011C136.446 167.985 168.992 83.9952 182.265 51.7852C184.023 47.5338 186.755 43.7548 190.242 40.7526C193.728 37.7505 197.87 35.6091 202.336 34.5011C229.697 27.7711 277.463 16.4811 289.937 16.4811C307.031 16.4811 316.281 32.5734 316.373 32.736L316.424 32.8688L331.437 97.9694V98.9088C339.719 126.931 333.565 147.174 326.94 159.222C319.749 172.299 310.444 178.828 310.351 178.892C295.74 190.015 271.936 225.848 248.246 272.395C223.627 320.767 205.377 368.497 199.428 400.074C192.146 438.723 181.472 450.555 173.799 453.674C172.164 454.354 170.412 454.708 168.641 454.716V454.716Z" fill="#E6E6E6"/>
<path d="M540.988 156.481H379.408C369.872 156.468 360.635 153.144 353.277 147.078C345.919 141.011 340.895 132.578 339.063 123.219L321.38 32.1827C320.988 30.1676 321.012 28.0934 321.453 26.0881C321.893 24.0829 322.74 22.1892 323.941 20.524C325.141 18.8588 326.671 17.4576 328.435 16.4067C330.198 15.3558 332.159 14.6777 334.195 14.4141C419.419 3.52597 503.809 3.50741 585.02 14.3575C587.027 14.6308 588.959 15.3078 590.698 16.3476C592.436 17.3875 593.947 18.7687 595.137 20.4079C596.328 22.0472 597.174 23.9106 597.625 25.8858C598.076 27.8609 598.122 29.9069 597.761 31.9005L581.438 122.657C579.738 132.146 574.754 140.735 567.359 146.919C559.963 153.103 550.628 156.488 540.988 156.481V156.481Z" fill="#E6E6E6"/>
<path d="M753.235 454.717C751.463 454.709 749.71 454.355 748.074 453.674C740.401 450.555 729.727 438.723 722.445 400.074C716.496 368.497 698.246 320.767 673.628 272.395C649.937 225.848 626.133 190.015 611.504 178.879C611.429 178.828 602.125 172.299 594.934 159.222C588.308 147.174 582.154 126.931 590.437 98.9088L590.449 97.857L605.465 32.7985L605.501 32.736C605.592 32.5734 614.842 16.4811 631.937 16.4811C644.411 16.4811 692.176 27.7711 719.538 34.5011C724.003 35.6095 728.145 37.7509 731.631 40.753C735.117 43.7551 737.85 47.534 739.608 51.7853V51.7853C752.881 83.9953 785.428 167.984 800.957 252.011C809.715 299.406 811.721 339.723 806.918 371.844C801.103 410.731 785.212 438.006 759.689 452.913C757.754 454.117 755.515 454.744 753.235 454.717V454.717Z" fill="#E6E6E6"/>
<path d="M350.937 265.981C372.476 265.981 389.937 248.52 389.937 226.981C389.937 205.442 372.476 187.981 350.937 187.981C329.397 187.981 311.937 205.442 311.937 226.981C311.937 248.52 329.397 265.981 350.937 265.981Z" fill="#3F3D56"/>
<path d="M350.937 252.981C365.296 252.981 376.937 241.34 376.937 226.981C376.937 212.622 365.296 200.981 350.937 200.981C336.577 200.981 324.937 212.622 324.937 226.981C324.937 241.34 336.577 252.981 350.937 252.981Z" fill="#2F2E41"/>
<path d="M568.937 265.981C590.476 265.981 607.937 248.52 607.937 226.981C607.937 205.442 590.476 187.981 568.937 187.981C547.397 187.981 529.937 205.442 529.937 226.981C529.937 248.52 547.397 265.981 568.937 265.981Z" fill="#3F3D56"/>
<path d="M568.937 252.981C583.296 252.981 594.937 241.34 594.937 226.981C594.937 212.622 583.296 200.981 568.937 200.981C554.577 200.981 542.937 212.622 542.937 226.981C542.937 241.34 554.577 252.981 568.937 252.981Z" fill="#2F2E41"/>
<path d="M435.937 179.981C437.593 179.981 438.937 178.638 438.937 176.981C438.937 175.324 437.593 173.981 435.937 173.981C434.28 173.981 432.937 175.324 432.937 176.981C432.937 178.638 434.28 179.981 435.937 179.981Z" fill="#2F2E41"/>
<path d="M448.937 179.981C450.593 179.981 451.937 178.638 451.937 176.981C451.937 175.324 450.593 173.981 448.937 173.981C447.28 173.981 445.937 175.324 445.937 176.981C445.937 178.638 447.28 179.981 448.937 179.981Z" fill="#2F2E41"/>
<path d="M442.937 190.981C444.593 190.981 445.937 189.638 445.937 187.981C445.937 186.324 444.593 184.981 442.937 184.981C441.28 184.981 439.937 186.324 439.937 187.981C439.937 189.638 441.28 190.981 442.937 190.981Z" fill="#2F2E41"/>
<path d="M454.937 190.981C456.593 190.981 457.937 189.638 457.937 187.981C457.937 186.324 456.593 184.981 454.937 184.981C453.28 184.981 451.937 186.324 451.937 187.981C451.937 189.638 453.28 190.981 454.937 190.981Z" fill="#2F2E41"/>
<path d="M466.937 190.981C468.593 190.981 469.937 189.638 469.937 187.981C469.937 186.324 468.593 184.981 466.937 184.981C465.28 184.981 463.937 186.324 463.937 187.981C463.937 189.638 465.28 190.981 466.937 190.981Z" fill="#2F2E41"/>
<path d="M478.937 190.981C480.593 190.981 481.937 189.638 481.937 187.981C481.937 186.324 480.593 184.981 478.937 184.981C477.28 184.981 475.937 186.324 475.937 187.981C475.937 189.638 477.28 190.981 478.937 190.981Z" fill="#2F2E41"/>
<path d="M461.937 179.981C463.593 179.981 464.937 178.638 464.937 176.981C464.937 175.324 463.593 173.981 461.937 173.981C460.28 173.981 458.937 175.324 458.937 176.981C458.937 178.638 460.28 179.981 461.937 179.981Z" fill="#2F2E41"/>
<path d="M474.937 179.981C476.593 179.981 477.937 178.638 477.937 176.981C477.937 175.324 476.593 173.981 474.937 173.981C473.28 173.981 471.937 175.324 471.937 176.981C471.937 178.638 473.28 179.981 474.937 179.981Z" fill="#2F2E41"/>
<path d="M487.937 179.981C489.593 179.981 490.937 178.638 490.937 176.981C490.937 175.324 489.593 173.981 487.937 173.981C486.28 173.981 484.937 175.324 484.937 176.981C484.937 178.638 486.28 179.981 487.937 179.981Z" fill="#2F2E41"/>
<path d="M473.937 269.481H447.937C446.743 269.481 445.598 269.007 444.755 268.163C443.911 267.319 443.437 266.175 443.437 264.981C443.437 263.788 443.911 262.643 444.755 261.799C445.598 260.955 446.743 260.481 447.937 260.481H473.937C475.13 260.481 476.275 260.955 477.119 261.799C477.962 262.643 478.437 263.788 478.437 264.981C478.437 266.175 477.962 267.319 477.119 268.163C476.275 269.007 475.13 269.481 473.937 269.481Z" fill="#2F2E41"/>
<path d="M301.78 73.8673C300.102 73.8627 298.475 73.2928 297.161 72.2496C295.846 71.2065 294.922 69.7509 294.536 68.1178L290.549 51.1895C290.098 49.2654 290.429 47.2408 291.47 45.5606C292.51 43.8804 294.176 42.6821 296.099 42.229C298.023 41.7759 300.048 42.105 301.729 43.144C303.41 44.1829 304.61 45.8469 305.066 47.7701L309.053 64.6983C309.309 65.7941 309.315 66.9338 309.069 68.032C308.823 69.1303 308.332 70.1587 307.633 71.0405C306.933 71.9222 306.044 72.6345 305.03 73.124C304.017 73.6135 302.906 73.8676 301.78 73.8673V73.8673Z" fill="#3F3D56"/>
<path d="M621.093 72.8673C619.968 72.8676 618.857 72.6135 617.843 72.124C616.83 71.6345 615.94 70.9222 615.241 70.0405C614.541 69.1587 614.05 68.1303 613.805 67.032C613.559 65.9338 613.564 64.7941 613.821 63.6983L617.808 46.7701C618.263 44.8469 619.463 43.1829 621.144 42.144C622.825 41.105 624.85 40.7759 626.774 41.229C628.698 41.6821 630.363 42.8804 631.404 44.5606C632.444 46.2408 632.776 48.2654 632.324 50.1895L628.337 67.1178C627.952 68.7509 627.027 70.2065 625.713 71.2496C624.398 72.2928 622.771 72.8627 621.093 72.8673V72.8673Z" fill="#3F3D56"/>
<path d="M246.765 123.835C244.311 123.835 241.917 123.08 239.907 121.671L231.538 115.812C229.963 114.709 228.677 113.243 227.789 111.537C226.901 109.832 226.437 107.938 226.437 106.015V88.0714C226.441 84.4683 227.874 81.0139 230.422 78.4661C232.969 75.9183 236.424 74.4852 240.027 74.4811H252.846C256.449 74.4852 259.904 75.9183 262.451 78.4661C264.999 81.0139 266.432 84.4683 266.437 88.0714V106.191C266.433 108.064 265.991 109.91 265.146 111.582C264.301 113.254 263.077 114.704 261.571 115.818L253.859 121.501C251.805 123.017 249.318 123.835 246.765 123.835V123.835Z" fill="#3F3D56"/>
<path d="M252.846 189.481H240.027C236.424 189.477 232.969 188.044 230.422 185.496C227.874 182.948 226.441 179.494 226.437 175.891V157.947C226.437 156.025 226.901 154.13 227.789 152.425C228.677 150.72 229.963 149.253 231.538 148.15L239.907 142.291C241.957 140.854 244.407 140.098 246.91 140.128C249.414 140.159 251.844 140.975 253.859 142.461L261.571 148.144C263.077 149.258 264.301 150.709 265.146 152.38C265.991 154.052 266.433 155.898 266.437 157.771V175.891C266.432 179.494 264.999 182.948 262.451 185.496C259.904 188.044 256.449 189.477 252.846 189.481V189.481Z" fill="#3F3D56"/>
<path d="M292.846 151.981H274.903C272.98 151.98 271.086 151.516 269.381 150.628C267.675 149.74 266.209 148.455 265.106 146.88L259.247 138.51C257.81 136.46 257.053 134.011 257.084 131.507C257.114 129.004 257.93 126.573 259.417 124.559L265.1 116.846C266.214 115.34 267.664 114.116 269.336 113.271C271.008 112.426 272.854 111.985 274.727 111.981H292.846C296.449 111.985 299.904 113.418 302.452 115.966C304.999 118.514 306.433 121.968 306.437 125.571V138.391C306.433 141.994 304.999 145.448 302.452 147.996C299.904 150.544 296.449 151.977 292.846 151.981V151.981Z" fill="#3F3D56"/>
<path d="M216.97 151.981H199.027C195.424 151.977 191.969 150.544 189.422 147.996C186.874 145.448 185.441 141.994 185.437 138.391V125.571C185.441 121.968 186.874 118.514 189.422 115.966C191.969 113.418 195.424 111.985 199.027 111.981H217.146C219.019 111.985 220.866 112.426 222.537 113.271C224.209 114.116 225.66 115.34 226.773 116.846L232.457 124.559C233.943 126.573 234.759 129.004 234.789 131.507C234.82 134.011 234.063 136.46 232.626 138.51L226.768 146.88C225.664 148.455 224.198 149.74 222.493 150.628C220.787 151.516 218.893 151.98 216.97 151.981V151.981Z" fill="#3F3D56"/>
<path d="M675.937 103.981C688.639 103.981 698.937 93.6836 698.937 80.9811C698.937 68.2785 688.639 57.9811 675.937 57.9811C663.234 57.9811 652.937 68.2785 652.937 80.9811C652.937 93.6836 663.234 103.981 675.937 103.981Z" fill="#3F3D56"/>
<path d="M726.937 156.981C739.639 156.981 749.937 146.684 749.937 133.981C749.937 121.279 739.639 110.981 726.937 110.981C714.234 110.981 703.937 121.279 703.937 133.981C703.937 146.684 714.234 156.981 726.937 156.981Z" fill="#3F3D56"/>
<path d="M675.937 206.981C688.639 206.981 698.937 196.684 698.937 183.981C698.937 171.279 688.639 160.981 675.937 160.981C663.234 160.981 652.937 171.279 652.937 183.981C652.937 196.684 663.234 206.981 675.937 206.981Z" fill="#3F3D56"/>
<path d="M624.937 155.981C637.639 155.981 647.937 145.684 647.937 132.981C647.937 120.279 637.639 109.981 624.937 109.981C612.234 109.981 601.937 120.279 601.937 132.981C601.937 145.684 612.234 155.981 624.937 155.981Z" fill="#3F3D56"/>
<path d="M726.937 148.981C723.97 148.981 721.07 148.101 718.603 146.453C716.136 144.805 714.214 142.462 713.078 139.721C711.943 136.98 711.646 133.964 712.225 131.055C712.804 128.145 714.232 125.472 716.33 123.374C718.428 121.277 721.1 119.848 724.01 119.269C726.92 118.691 729.936 118.988 732.677 120.123C735.418 121.258 737.76 123.181 739.409 125.648C741.057 128.114 741.937 131.014 741.937 133.981C741.932 137.958 740.35 141.771 737.538 144.583C734.726 147.395 730.913 148.977 726.937 148.981V148.981ZM726.937 120.981C724.365 120.981 721.852 121.744 719.714 123.172C717.576 124.6 715.91 126.631 714.926 129.006C713.942 131.382 713.685 133.996 714.186 136.517C714.688 139.039 715.926 141.355 717.744 143.173C719.562 144.992 721.879 146.23 724.4 146.731C726.922 147.233 729.536 146.975 731.911 145.992C734.287 145.008 736.317 143.341 737.746 141.203C739.174 139.066 739.937 136.552 739.937 133.981C739.933 130.534 738.562 127.23 736.125 124.793C733.688 122.356 730.383 120.985 726.937 120.981V120.981Z" fill="#E6E6E6"/>
<path d="M692.009 92.1407L661.864 91.7144L677.306 65.8214L692.009 92.1407ZM665.356 89.7633L688.573 90.0919L677.25 69.8214L665.356 89.7633Z" fill="#E6E6E6"/>
<path d="M636.937 144.981H612.937V120.981H636.937V144.981ZM614.937 142.981H634.937V122.981H614.937V142.981Z" fill="#E6E6E6"/>
<path d="M688.348 194.307L677.353 183.333L687.049 173.655L685.635 172.239L675.937 181.919L666.238 172.239L664.825 173.655L674.521 183.333L663.526 194.307L664.939 195.723L675.937 184.746L686.935 195.723L688.348 194.307Z" fill="#E6E6E6"/>
<path opacity="0.2" d="M867.437 193.481L828.622 222.694L872.437 203.481L867.437 193.481Z" fill="black"/>
<path d="M149.437 229.481L100.437 231.481L94.437 198.481L136.437 185.481L149.437 229.481Z" fill="#A0616A"/>
<path d="M131.422 148.605L120.493 137.477L133.893 116.987L156.829 78.8079C156.08 77.1632 155.847 75.3297 156.163 73.55C156.478 71.7703 157.326 70.1283 158.595 68.8411C159.864 67.5539 161.494 66.6823 163.269 66.3415C165.044 66.0006 166.88 66.2067 168.536 66.9325C170.191 67.6582 171.587 68.8694 172.539 70.4057C173.491 71.9421 173.954 73.7313 173.867 75.5366C173.78 77.3419 173.147 79.0783 172.052 80.5161C170.957 81.9538 169.451 83.0252 167.733 83.5884L148.801 124.348L131.422 148.605Z" fill="#A0616A"/>
<path d="M119.315 174.01C118.032 175.997 116.203 177.573 114.048 178.549C111.893 179.524 109.503 179.859 107.163 179.512C104.936 179.249 102.834 178.342 101.115 176.901C99.3961 175.46 98.1355 173.549 97.4878 171.402C97.0107 169.878 96.8718 168.268 97.0807 166.685C97.2896 165.102 97.8414 163.583 98.6975 162.235C106.009 149.91 119.493 133.633 119.628 133.471L119.843 133.212L142.586 138.139L119.315 174.01Z" fill="#3F3D56"/>
<path d="M137.758 446.772L151.347 446.771L157.811 394.356L137.755 394.357L137.758 446.772Z" fill="#A0616A"/>
<path d="M134.291 442.335L161.053 442.334H161.054C165.577 442.335 169.915 444.131 173.113 447.33C176.311 450.528 178.108 454.866 178.109 459.389V459.943L134.292 459.945L134.291 442.335Z" fill="#2F2E41"/>
<path d="M31.948 440.89L45.384 442.92L59.612 392.061L41.998 389.063L31.948 440.89Z" fill="#A0616A"/>
<path d="M29.1838 435.985L55.6452 439.984L55.6462 439.984C60.1185 440.661 64.1389 443.086 66.8232 446.726C69.5075 450.367 70.6358 454.924 69.9599 459.397L69.8771 459.945L26.5522 453.396L29.1838 435.985Z" fill="#2F2E41"/>
<path d="M98.4367 221.481L145.437 213.481L159.979 243.457L160.533 439.094L134.738 438.933L123.955 280.589L55.2329 426.902L27.5222 423.576L87.9315 266.734C87.9315 266.734 84.6062 239.023 95.1362 225.168L98.4367 221.481Z" fill="#2F2E41"/>
<path d="M80.9883 162.422C80.27 160.264 80.1937 157.944 80.7687 155.744C81.3437 153.544 82.5452 151.558 84.2273 150.027L90.9068 143.956L109.738 140.783L121.512 138.643L140.437 193.481L94.4736 214.598C90.4399 213.727 88.8286 211.521 91.1757 207.134L80.9883 162.422Z" fill="#3F3D56"/>
<path d="M123.171 180.926L136.32 172.535L153.595 189.884L186.203 220.221C187.967 219.828 189.809 219.98 191.485 220.657C193.161 221.334 194.592 222.503 195.589 224.011C196.586 225.518 197.102 227.293 197.068 229.1C197.034 230.907 196.453 232.662 195.4 234.131C194.348 235.601 192.874 236.716 191.174 237.329C189.474 237.943 187.628 238.026 185.88 237.568C184.131 237.109 182.563 236.131 181.383 234.762C180.203 233.393 179.467 231.698 179.271 229.901L143.309 202.947L123.171 180.926Z" fill="#A0616A"/>
<path d="M100.82 163.825C99.141 162.158 97.9777 160.044 97.4689 157.734C96.9601 155.424 97.1274 153.016 97.9506 150.799C98.6692 148.674 99.992 146.806 101.757 145.422C103.522 144.039 105.652 143.201 107.887 143.01C109.476 142.859 111.08 143.056 112.586 143.588C114.091 144.12 115.463 144.974 116.605 146.09C127.151 155.792 140.287 172.353 140.418 172.518L140.626 172.782L131.101 194.014L100.82 163.825Z" fill="#3F3D56"/>
<path d="M101.474 134.111C112.89 134.111 122.145 124.857 122.145 113.44C122.145 102.024 112.89 92.7695 101.474 92.7695C90.0574 92.7695 80.8027 102.024 80.8027 113.44C80.8027 124.857 90.0574 134.111 101.474 134.111Z" fill="#A0616A"/>
<path d="M84.738 142.889C81.5325 142.888 78.33 142.693 75.1482 142.304L74.7119 142.251L71.3823 124.175C69.9702 116.512 71.5447 108.599 75.7826 102.061C80.0205 95.5221 86.6004 90.8538 94.1718 89.0137C94.6771 88.8857 95.2078 88.8996 95.7057 89.0537C96.2035 89.2078 96.6492 89.4963 96.9938 89.8874L97.7879 89.6105C100.828 88.5503 104.048 88.0994 107.262 88.2834C110.477 88.4673 113.624 89.2827 116.523 90.6829C119.423 92.083 122.018 94.0406 124.161 96.4438C126.304 98.847 127.952 101.649 129.012 104.689L129.209 105.254L123.91 107.102C122.259 107.677 120.757 108.614 119.513 109.843C118.269 111.073 117.315 112.564 116.72 114.208C116.125 115.852 115.904 117.609 116.073 119.349C116.242 121.09 116.797 122.771 117.698 124.27L123.116 133.29L122.539 133.579C110.845 139.608 97.8948 142.798 84.738 142.889V142.889Z" fill="#2F2E41"/>
<path d="M794.897 229.389C795.136 228.234 795.626 227.145 796.331 226.199C797.037 225.253 797.941 224.473 798.981 223.915C800.021 223.356 801.17 223.032 802.348 222.966C803.527 222.9 804.705 223.093 805.801 223.531L824.601 201.864L828.622 216.218L810.153 234.593C809.294 236.385 807.808 237.8 805.976 238.569C804.144 239.338 802.094 239.409 800.213 238.768C798.333 238.126 796.753 236.817 795.773 235.089C794.793 233.36 794.481 231.332 794.897 229.389H794.897Z" fill="#FFB6B6"/>
<path d="M878.788 134.13L886.49 133.714L887.65 138.609C887.65 138.609 887.536 144.878 880.513 157.908C873.491 170.939 819.08 228.953 819.08 228.953L807.296 215.58L836.421 185.58L854.06 154.136L878.788 134.13Z" fill="#3F3D56"/>
<path d="M1.24701 461.055H915.528C915.859 461.055 916.176 460.924 916.41 460.69C916.644 460.456 916.775 460.139 916.775 459.808C916.775 459.477 916.644 459.16 916.41 458.926C916.176 458.692 915.859 458.561 915.528 458.561H1.24701C0.916284 458.561 0.599108 458.692 0.36525 458.926C0.131392 459.16 0 459.477 0 459.808C0 460.139 0.131392 460.456 0.36525 460.69C0.599108 460.924 0.916284 461.055 1.24701 461.055Z" fill="#CCCCCC"/>
</svg>
