<svg width="893" height="749" viewBox="0 0 893 749" fill="none" xmlns="http://www.w3.org/2000/svg">
<g clip-path="url(#clip0_331_725)">
<path d="M837.125 581.237C829.879 580.936 823.277 578.011 820.291 573.479C820.151 573.267 820.02 573.052 819.896 572.834C818.806 570.903 818.465 568.684 819.657 566.781C820.849 564.879 823.828 563.434 826.818 563.734C829.809 564.034 832.144 566.42 830.906 568.308C830.63 564.492 830.404 560.482 833.48 557.16C835.173 555.423 837.382 554.281 839.778 553.904C845.976 552.814 850.092 556.319 850.916 559.859C851.525 562.472 850.684 565.13 849.848 567.714C852.426 564.664 858.558 563.308 863.253 564.748C867.949 566.188 870.555 570.224 868.95 573.572C867.06 577.515 860.759 579.554 854.907 580.631C850.074 581.521 842.827 581.474 837.125 581.237Z" fill="#F2F2F2"/>
<path d="M584.841 581.237C577.595 580.936 570.993 578.011 568.007 573.479C567.867 573.267 567.735 573.052 567.612 572.834C566.521 570.903 566.181 568.684 567.373 566.781C568.565 564.879 571.543 563.434 574.534 563.734C577.525 564.034 579.86 566.42 578.622 568.308C578.345 564.492 578.119 560.482 581.196 557.16C582.889 555.423 585.098 554.281 587.493 553.904C593.692 552.814 597.808 556.319 598.632 559.859C599.24 562.472 598.4 565.13 597.564 567.714C600.142 564.664 606.274 563.308 610.969 564.748C615.665 566.188 618.27 570.224 616.666 573.572C614.776 577.515 608.475 579.554 602.622 580.631C597.789 581.521 590.543 581.474 584.841 581.237Z" fill="#F2F2F2"/>
<path d="M352.677 353.811H300.709C296.575 353.807 292.612 352.162 289.69 349.239C286.767 346.315 285.123 342.352 285.118 338.217V240.871C285.123 236.737 286.767 232.773 289.69 229.849C292.612 226.926 296.575 225.282 300.709 225.277H352.677C356.811 225.282 360.774 226.926 363.696 229.849C366.619 232.773 368.263 236.737 368.268 240.871V338.217C368.263 342.352 366.619 346.315 363.696 349.239C360.774 352.162 356.811 353.807 352.677 353.811V353.811Z" fill="#F2F2F2"/>
<path d="M671.865 570.881H660.282L654.771 526.189L671.867 526.19L671.865 570.881Z" fill="#FFB8B8"/>
<path d="M674.82 582.113L637.468 582.112V581.639C637.468 579.729 637.844 577.838 638.574 576.074C639.305 574.31 640.376 572.707 641.726 571.356C643.076 570.006 644.679 568.935 646.443 568.204C648.207 567.473 650.097 567.097 652.006 567.097H652.007L674.82 567.098L674.82 582.113Z" fill="#2F2E41"/>
<path d="M801.272 560.041L790.352 563.908L770.24 523.621L786.356 517.912L801.272 560.041Z" fill="#FFB8B8"/>
<path d="M807.806 569.641L772.597 582.113L772.44 581.668C771.802 579.868 771.526 577.96 771.625 576.053C771.725 574.146 772.199 572.277 773.021 570.553C773.843 568.829 774.996 567.285 776.415 566.007C777.834 564.729 779.49 563.743 781.29 563.105L781.291 563.105L802.795 555.488L807.806 569.641Z" fill="#2F2E41"/>
<path d="M671.543 555.875C671.283 555.875 671.024 555.852 670.768 555.805L656.603 553.229C655.638 553.051 654.765 552.546 654.129 551.8C653.493 551.054 653.132 550.111 653.109 549.13C651.05 453.756 661.173 389.664 683.197 343.725C683.589 342.912 684.231 342.246 685.028 341.824C685.826 341.402 686.737 341.246 687.63 341.379L738.57 348.735C739.5 348.871 740.359 349.31 741.013 349.985C741.667 350.66 742.08 351.532 742.187 352.466L746.679 392.069C746.703 392.283 746.748 392.494 746.813 392.699L795.653 539.067C795.986 540.132 795.889 541.285 795.383 542.279C794.877 543.274 794.002 544.031 792.945 544.388L779.746 548.789C778.775 549.108 777.721 549.068 776.777 548.677C775.832 548.286 775.06 547.569 774.598 546.656L708.534 422.056C708.403 421.794 708.193 421.579 707.935 421.44C707.677 421.302 707.382 421.247 707.091 421.283C706.8 421.32 706.528 421.445 706.311 421.643C706.094 421.84 705.944 422.1 705.882 422.386L675.682 552.533C675.478 553.479 674.956 554.327 674.203 554.935C673.45 555.543 672.511 555.875 671.543 555.875Z" fill="#2F2E41"/>
<path d="M631.284 266.481C631.4 266.991 631.476 267.509 631.51 268.031L672.1 291.453L681.966 285.772L692.483 299.544L675.995 311.299C674.663 312.248 673.059 312.74 671.423 312.7C669.788 312.661 668.21 312.091 666.926 311.078L625.071 278.05C623.182 278.75 621.125 278.857 619.173 278.359C617.222 277.86 615.468 276.779 614.146 275.26C612.824 273.74 611.995 271.854 611.771 269.851C611.546 267.849 611.937 265.826 612.89 264.052C613.843 262.277 615.314 260.834 617.107 259.916C618.899 258.998 620.929 258.647 622.926 258.911C624.923 259.175 626.792 260.04 628.285 261.392C629.778 262.745 630.824 264.519 631.284 266.481V266.481Z" fill="#FFB8B8"/>
<path d="M672.657 289.112C672.779 288.513 673.029 287.947 673.39 287.454C673.75 286.961 674.213 286.551 674.746 286.253L693.373 275.835C695.848 273.924 698.979 273.073 702.08 273.468C705.182 273.863 708 275.472 709.917 277.942C711.834 280.412 712.693 283.542 712.307 286.645C711.92 289.748 710.319 292.571 707.855 294.495L693.004 309.921C692.58 310.361 692.066 310.704 691.497 310.928C690.929 311.152 690.319 311.25 689.709 311.217C689.099 311.183 688.503 311.019 687.962 310.734C687.421 310.45 686.948 310.052 686.575 309.568L673.456 292.562C673.083 292.078 672.818 291.52 672.68 290.924C672.542 290.329 672.534 289.71 672.657 289.112Z" fill="#3F3D56"/>
<path d="M716.032 264.146C728.849 264.146 739.24 253.753 739.24 240.933C739.24 228.113 728.849 217.72 716.032 217.72C703.215 217.72 692.825 228.113 692.825 240.933C692.825 253.753 703.215 264.146 716.032 264.146Z" fill="#FFB8B8"/>
<path d="M738.63 353.687C738.4 353.687 738.17 353.668 737.943 353.631L687.719 345.395C687.151 345.302 686.609 345.095 686.124 344.786C685.639 344.477 685.221 344.073 684.897 343.599C684.572 343.124 684.347 342.588 684.236 342.024C684.124 341.46 684.128 340.879 684.247 340.316L686.691 328.794C685.44 326.928 675.255 310.699 687.66 295.456C687.422 290.041 689.306 284.746 692.912 280.7C696.519 276.654 701.561 274.175 706.967 273.792L732.922 271.82C736.261 271.567 739.612 272.119 742.693 273.431C745.774 274.743 748.495 276.776 750.627 279.358C752.759 281.941 754.239 284.998 754.944 288.273C755.648 291.547 755.556 294.943 754.675 298.174L742.776 350.379C742.56 351.318 742.033 352.156 741.28 352.757C740.527 353.357 739.593 353.685 738.63 353.687V353.687Z" fill="#3F3D56"/>
<path d="M785.531 397.342C786.383 396.126 786.958 394.739 787.216 393.277C787.474 391.815 787.408 390.315 787.023 388.881C786.639 387.448 785.944 386.116 784.989 384.98C784.035 383.844 782.842 382.931 781.496 382.306L752.901 294.366L736.329 302.231L767.617 387.857C766.717 390.188 766.702 392.768 767.577 395.109C768.452 397.45 770.154 399.389 772.362 400.558C774.57 401.727 777.131 402.045 779.558 401.453C781.985 400.86 784.11 399.397 785.531 397.342V397.342Z" fill="#FFB8B8"/>
<path d="M759.226 309.007L737.221 315.656C736.595 315.845 735.936 315.897 735.288 315.808C734.64 315.719 734.018 315.492 733.466 315.141C732.914 314.791 732.444 314.325 732.088 313.777C731.732 313.228 731.498 312.609 731.402 311.962L728.062 289.284C727.111 286.074 727.472 282.618 729.065 279.673C730.659 276.729 733.354 274.537 736.561 273.579C739.768 272.62 743.225 272.973 746.172 274.559C749.119 276.146 751.317 278.837 752.283 282.043L762.027 302.708C762.306 303.3 762.454 303.945 762.461 304.599C762.468 305.253 762.334 305.902 762.069 306.499C761.803 307.097 761.411 307.63 760.921 308.063C760.43 308.496 759.852 308.818 759.226 309.007H759.226Z" fill="#3F3D56"/>
<path d="M693.474 241.83C698.626 243.794 704.234 244.235 709.63 243.102C715.026 241.969 719.983 239.308 723.91 235.437C721.475 241.87 722.156 269.153 722.156 269.153C722.156 269.153 743.743 258.901 746.672 257.109C763.97 246.519 740.113 200.456 720.266 207.721C716.905 208.951 714.097 210.399 712.737 213.711C709.774 210.054 704.164 209.261 699.849 211.139C695.534 213.017 692.467 217.087 690.817 221.496C689.515 225.053 689.009 228.853 689.334 232.627C689.659 236.401 690.809 240.058 692.7 243.34L693.474 241.83Z" fill="black"/>
<path d="M592.206 187H61.1812C52.9139 187.008 44.9876 190.297 39.1417 196.144C33.2959 201.991 30.0081 209.919 30 218.189V363.735C30.0081 372.004 33.2959 379.933 39.1417 385.78C44.9876 391.627 52.9139 394.916 61.1812 394.924H592.206C600.473 394.916 608.399 391.627 614.245 385.78C620.091 379.933 623.379 372.004 623.387 363.735V218.189C623.379 209.919 620.091 201.991 614.245 196.144C608.399 190.297 600.473 187.008 592.206 187V187ZM621.497 363.735C621.487 371.502 618.398 378.949 612.907 384.441C607.416 389.934 599.971 393.024 592.206 393.033H61.1812C53.4156 393.024 45.971 389.934 40.48 384.441C34.9889 378.949 31.8997 371.502 31.8898 363.735V218.189C31.8997 210.421 34.9889 202.975 40.48 197.482C45.971 191.99 53.4156 188.9 61.1812 188.89H592.206C599.971 188.9 607.416 191.99 612.907 197.482C618.398 202.975 621.487 210.421 621.497 218.189V363.735Z" fill="#3F3D56"/>
<path d="M113.858 324.513C111.616 324.513 109.423 323.848 107.559 322.602C105.694 321.356 104.241 319.584 103.383 317.512C102.524 315.44 102.3 313.159 102.737 310.959C103.175 308.759 104.255 306.738 105.841 305.152C107.426 303.566 109.447 302.486 111.646 302.048C113.846 301.611 116.125 301.835 118.197 302.694C120.269 303.552 122.04 305.006 123.286 306.871C124.532 308.736 125.197 310.929 125.197 313.172C125.193 316.179 123.998 319.061 121.872 321.188C119.746 323.314 116.864 324.51 113.858 324.513V324.513ZM113.858 303.721C111.989 303.721 110.163 304.275 108.609 305.314C107.055 306.352 105.844 307.828 105.129 309.555C104.413 311.282 104.226 313.182 104.591 315.016C104.955 316.849 105.855 318.533 107.177 319.855C108.498 321.177 110.182 322.077 112.015 322.441C113.848 322.806 115.748 322.619 117.474 321.904C119.201 321.188 120.676 319.977 121.715 318.423C122.753 316.868 123.307 315.041 123.307 313.172C123.304 310.666 122.308 308.264 120.536 306.492C118.765 304.72 116.363 303.724 113.858 303.721V303.721Z" fill="#3F3D56"/>
<path d="M113.486 298.995C113.235 298.995 112.995 298.896 112.818 298.718C112.641 298.541 112.541 298.301 112.541 298.05V287.181C112.541 286.931 112.641 286.69 112.818 286.513C112.995 286.336 113.235 286.236 113.486 286.236C113.736 286.236 113.977 286.336 114.154 286.513C114.331 286.69 114.431 286.931 114.431 287.181V298.05C114.431 298.301 114.331 298.541 114.154 298.718C113.977 298.896 113.736 298.995 113.486 298.995Z" fill="#3F3D56"/>
<path d="M98.7407 313.745H87.8746C87.624 313.745 87.3836 313.645 87.2064 313.468C87.0292 313.291 86.9297 313.051 86.9297 312.8C86.9297 312.549 87.0292 312.309 87.2064 312.132C87.3836 311.954 87.624 311.855 87.8746 311.855H98.7407C98.9913 311.855 99.2317 311.954 99.4089 312.132C99.5861 312.309 99.6856 312.549 99.6856 312.8C99.6856 313.051 99.5861 313.291 99.4089 313.468C99.2317 313.645 98.9913 313.745 98.7407 313.745Z" fill="#3F3D56"/>
<path d="M138.425 313.745H127.559C127.309 313.745 127.068 313.645 126.891 313.468C126.714 313.291 126.614 313.051 126.614 312.8C126.614 312.549 126.714 312.309 126.891 312.132C127.068 311.954 127.309 311.855 127.559 311.855H138.425C138.676 311.855 138.916 311.954 139.093 312.132C139.271 312.309 139.37 312.549 139.37 312.8C139.37 313.051 139.271 313.291 139.093 313.468C138.916 313.645 138.676 313.745 138.425 313.745Z" fill="#3F3D56"/>
<path d="M127.26 303.411C127.072 303.411 126.888 303.355 126.732 303.25C126.576 303.145 126.455 302.995 126.385 302.821C126.314 302.647 126.297 302.455 126.336 302.271C126.375 302.087 126.467 301.919 126.602 301.788L131.153 297.372C131.333 297.197 131.575 297.101 131.825 297.105C132.076 297.109 132.315 297.212 132.489 297.392C132.664 297.572 132.759 297.814 132.756 298.064C132.752 298.315 132.649 298.554 132.469 298.728L127.918 303.144C127.742 303.316 127.506 303.411 127.26 303.411V303.411Z" fill="#3F3D56"/>
<path d="M99.511 303.411C99.2653 303.411 99.0292 303.316 98.8531 303.144L94.3026 298.728C94.2135 298.642 94.1424 298.539 94.0932 298.425C94.0439 298.311 94.0176 298.189 94.0157 298.064C94.0138 297.94 94.0364 297.817 94.0822 297.702C94.1279 297.586 94.1959 297.481 94.2823 297.392C94.3687 297.303 94.4718 297.232 94.5857 297.183C94.6996 297.133 94.8221 297.107 94.9462 297.105C95.0702 297.103 95.1935 297.126 95.3088 297.172C95.4242 297.217 95.5294 297.285 95.6184 297.372L100.169 301.788C100.304 301.919 100.397 302.087 100.436 302.271C100.474 302.455 100.457 302.647 100.387 302.821C100.316 302.995 100.195 303.145 100.039 303.25C99.8829 303.355 99.6991 303.411 99.511 303.411Z" fill="#3F3D56"/>
<path d="M95.9057 329.239C95.72 329.239 95.5385 329.184 95.3837 329.081C95.229 328.979 95.1079 328.833 95.0356 328.662C94.9632 328.491 94.9429 328.302 94.9771 328.119C95.0113 327.937 95.0984 327.768 95.2277 327.635L99.7782 322.948C99.9528 322.768 100.192 322.665 100.442 322.661C100.693 322.658 100.935 322.754 101.115 322.928C101.294 323.103 101.397 323.342 101.401 323.593C101.405 323.843 101.309 324.085 101.134 324.265L96.5837 328.952C96.4957 329.043 96.3903 329.115 96.2738 329.164C96.1573 329.214 96.0322 329.239 95.9057 329.239V329.239Z" fill="#3F3D56"/>
<path d="M132.756 330.184C132.63 330.184 132.506 330.159 132.389 330.11C132.273 330.061 132.168 329.989 132.08 329.899L126.585 324.266C126.498 324.177 126.43 324.072 126.384 323.957C126.338 323.842 126.315 323.719 126.316 323.595C126.318 323.471 126.344 323.348 126.393 323.234C126.442 323.12 126.513 323.017 126.601 322.93C126.69 322.843 126.795 322.775 126.91 322.729C127.025 322.683 127.149 322.66 127.273 322.661C127.397 322.663 127.519 322.689 127.633 322.738C127.747 322.787 127.851 322.858 127.937 322.946L133.433 328.579C133.562 328.712 133.65 328.88 133.685 329.063C133.719 329.246 133.699 329.434 133.627 329.606C133.555 329.777 133.434 329.923 133.279 330.026C133.124 330.129 132.942 330.184 132.756 330.184Z" fill="#3F3D56"/>
<path d="M113.486 339.635C113.235 339.635 112.995 339.535 112.818 339.358C112.641 339.181 112.541 338.94 112.541 338.69V327.821C112.541 327.57 112.641 327.33 112.818 327.153C112.995 326.976 113.235 326.876 113.486 326.876C113.736 326.876 113.977 326.976 114.154 327.153C114.331 327.33 114.431 327.57 114.431 327.821V338.69C114.431 338.94 114.331 339.181 114.154 339.358C113.977 339.535 113.736 339.635 113.486 339.635Z" fill="#3F3D56"/>
<path d="M237.084 331.129H205.542C202.321 331.074 199.249 329.756 196.99 327.458C194.731 325.159 193.465 322.065 193.465 318.842C193.465 315.619 194.731 312.525 196.99 310.227C199.249 307.929 202.321 306.611 205.542 306.556H207.955C209.151 304.021 211.041 301.877 213.405 300.372C215.769 298.867 218.511 298.062 221.313 298.05C225.124 298.085 228.778 299.57 231.533 302.203C234.288 304.837 235.937 308.421 236.145 312.227H237.084C239.563 312.268 241.927 313.281 243.666 315.049C245.404 316.817 246.379 319.198 246.379 321.678C246.379 324.158 245.404 326.538 243.666 328.306C241.927 330.074 239.563 331.088 237.084 331.129V331.129ZM205.542 308.446C202.822 308.501 200.231 309.62 198.326 311.564C196.422 313.507 195.355 316.121 195.355 318.842C195.355 321.564 196.422 324.177 198.326 326.121C200.231 328.065 202.822 329.184 205.542 329.239H237.084C239.062 329.198 240.945 328.383 242.329 326.97C243.713 325.556 244.489 323.656 244.489 321.678C244.489 319.699 243.713 317.799 242.329 316.386C240.945 314.972 239.062 314.158 237.084 314.117H235.229C234.978 314.117 234.738 314.017 234.561 313.84C234.384 313.663 234.284 313.422 234.284 313.172C234.314 309.698 232.965 306.354 230.534 303.874C228.102 301.393 224.786 299.979 221.313 299.94C218.774 299.954 216.294 300.713 214.182 302.123C212.07 303.533 210.418 305.533 209.432 307.874C209.359 308.044 209.238 308.189 209.083 308.29C208.929 308.392 208.748 308.446 208.563 308.446H205.542Z" fill="#3F3D56"/>
<path d="M342.446 313.225L341.71 311.485C343.139 310.88 344.398 309.933 345.374 308.727C346.351 307.521 347.016 306.092 347.31 304.568C347.604 303.044 347.518 301.471 347.06 299.988C346.602 298.505 345.786 297.157 344.684 296.064C343.582 294.971 342.228 294.167 340.741 293.722C339.254 293.276 337.681 293.204 336.16 293.512C334.638 293.819 333.216 294.496 332.019 295.483C330.821 296.471 329.885 297.738 329.294 299.173L327.547 298.452C328.257 296.73 329.38 295.21 330.817 294.025C332.254 292.84 333.96 292.027 335.786 291.659C337.611 291.29 339.499 291.377 341.283 291.911C343.067 292.445 344.692 293.41 346.014 294.722C347.337 296.033 348.316 297.65 348.866 299.43C349.415 301.209 349.518 303.097 349.166 304.926C348.813 306.755 348.015 308.468 346.843 309.916C345.672 311.363 344.161 312.5 342.446 313.225V313.225Z" fill="#3F3D56"/>
<path d="M343.856 331.129H312.314C309.092 331.074 306.021 329.756 303.761 327.458C301.502 325.159 300.236 322.065 300.236 318.842C300.236 315.619 301.502 312.525 303.761 310.227C306.021 307.929 309.092 306.611 312.314 306.556H314.726C315.923 304.021 317.812 301.877 320.176 300.372C322.54 298.867 325.282 298.062 328.085 298.05C331.895 298.085 335.55 299.57 338.305 302.203C341.06 304.837 342.709 308.421 342.917 312.227H343.856C346.335 312.268 348.698 313.281 350.437 315.049C352.176 316.817 353.15 319.198 353.15 321.678C353.15 324.158 352.176 326.538 350.437 328.306C348.698 330.074 346.335 331.088 343.856 331.129V331.129ZM312.314 308.446C309.593 308.501 307.003 309.62 305.098 311.564C303.193 313.507 302.126 316.121 302.126 318.842C302.126 321.564 303.193 324.177 305.098 326.121C307.003 328.065 309.593 329.184 312.314 329.239H343.856C345.833 329.198 347.716 328.383 349.101 326.97C350.485 325.556 351.26 323.656 351.26 321.678C351.26 319.699 350.485 317.799 349.101 316.386C347.716 314.972 345.833 314.158 343.856 314.117H342C341.75 314.117 341.509 314.017 341.332 313.84C341.155 313.663 341.055 313.422 341.055 313.172C341.085 309.698 339.737 306.354 337.305 303.874C334.873 301.393 331.558 299.979 328.085 299.94C325.545 299.954 323.065 300.713 320.953 302.123C318.841 303.533 317.189 305.533 316.203 307.874C316.13 308.044 316.009 308.189 315.855 308.29C315.7 308.392 315.52 308.446 315.335 308.446H312.314Z" fill="#3F3D56"/>
<path d="M450.628 326.403H446.835C446.585 326.403 446.345 326.304 446.167 326.127C445.99 325.949 445.891 325.709 445.891 325.458C445.891 325.208 445.99 324.967 446.167 324.79C446.345 324.613 446.585 324.513 446.835 324.513H450.628C452.606 324.472 454.489 323.658 455.873 322.244C457.257 320.831 458.033 318.931 458.033 316.952C458.033 314.974 457.257 313.074 455.873 311.66C454.489 310.247 452.606 309.432 450.628 309.392H448.773C448.522 309.392 448.282 309.292 448.105 309.115C447.927 308.937 447.828 308.697 447.828 308.446C447.858 304.973 446.509 301.629 444.077 299.148C441.646 296.668 438.33 295.253 434.857 295.215C432.318 295.228 429.838 295.987 427.726 297.398C425.613 298.808 423.962 300.808 422.976 303.149C422.903 303.319 422.781 303.463 422.627 303.565C422.473 303.667 422.292 303.721 422.107 303.721H419.086C416.366 303.775 413.775 304.895 411.87 306.838C409.966 308.782 408.899 311.395 408.899 314.117C408.899 316.839 409.966 319.452 411.87 321.396C413.775 323.339 416.366 324.459 419.086 324.513H422.015C422.266 324.513 422.506 324.613 422.684 324.79C422.861 324.967 422.96 325.208 422.96 325.458C422.96 325.709 422.861 325.949 422.684 326.127C422.506 326.304 422.266 326.403 422.015 326.403H419.086C415.864 326.349 412.793 325.031 410.534 322.732C408.275 320.434 407.009 317.34 407.009 314.117C407.009 310.894 408.275 307.8 410.534 305.502C412.793 303.204 415.864 301.885 419.086 301.831H421.498C422.695 299.296 424.585 297.152 426.949 295.647C429.313 294.141 432.055 293.336 434.857 293.325C438.668 293.36 442.322 294.845 445.077 297.478C447.832 300.111 449.481 303.695 449.689 307.501H450.628C453.107 307.542 455.471 308.556 457.209 310.324C458.948 312.092 459.922 314.472 459.922 316.952C459.922 319.432 458.948 321.813 457.209 323.581C455.471 325.349 453.107 326.363 450.628 326.403V326.403Z" fill="#3F3D56"/>
<path d="M434.701 330.483C434.45 330.483 434.21 330.384 434.033 330.206C433.855 330.029 433.756 329.789 433.756 329.538V318.669C433.756 318.419 433.855 318.178 434.033 318.001C434.21 317.824 434.45 317.724 434.701 317.724C434.951 317.724 435.192 317.824 435.369 318.001C435.546 318.178 435.646 318.419 435.646 318.669V329.538C435.646 329.789 435.546 330.029 435.369 330.206C435.192 330.384 434.951 330.483 434.701 330.483V330.483Z" fill="#3F3D56"/>
<path d="M428.087 336.154C427.836 336.154 427.596 336.054 427.418 335.877C427.241 335.7 427.142 335.46 427.142 335.209V324.34C427.142 324.089 427.241 323.849 427.418 323.672C427.596 323.495 427.836 323.395 428.087 323.395C428.337 323.395 428.577 323.495 428.755 323.672C428.932 323.849 429.031 324.089 429.031 324.34V335.209C429.031 335.46 428.932 335.7 428.755 335.877C428.577 336.054 428.337 336.154 428.087 336.154Z" fill="#3F3D56"/>
<path d="M441.315 338.989C441.064 338.989 440.824 338.89 440.647 338.712C440.47 338.535 440.37 338.295 440.37 338.044V327.175C440.37 326.925 440.47 326.684 440.647 326.507C440.824 326.33 441.064 326.23 441.315 326.23C441.566 326.23 441.806 326.33 441.983 326.507C442.16 326.684 442.26 326.925 442.26 327.175V338.044C442.26 338.295 442.16 338.535 441.983 338.712C441.806 338.89 441.566 338.989 441.315 338.989V338.989Z" fill="#3F3D56"/>
<path d="M557.4 326.403H553.607C553.356 326.403 553.116 326.304 552.939 326.127C552.762 325.949 552.662 325.709 552.662 325.458C552.662 325.208 552.762 324.967 552.939 324.79C553.116 324.613 553.356 324.513 553.607 324.513H557.4C559.377 324.472 561.26 323.658 562.645 322.244C564.029 320.831 564.804 318.931 564.804 316.952C564.804 314.974 564.029 313.074 562.645 311.66C561.26 310.247 559.377 309.432 557.4 309.392H555.544C555.294 309.392 555.053 309.292 554.876 309.115C554.699 308.937 554.599 308.697 554.599 308.446C554.629 304.973 553.281 301.629 550.849 299.148C548.417 296.668 545.102 295.253 541.629 295.215C539.089 295.228 536.609 295.987 534.497 297.398C532.385 298.808 530.733 300.808 529.747 303.149C529.674 303.319 529.553 303.463 529.399 303.565C529.244 303.667 529.064 303.721 528.879 303.721H525.858C523.137 303.775 520.547 304.895 518.642 306.838C516.737 308.782 515.67 311.395 515.67 314.117C515.67 316.839 516.737 319.452 518.642 321.396C520.547 323.339 523.137 324.459 525.858 324.513H528.787C529.038 324.513 529.278 324.613 529.455 324.79C529.632 324.967 529.732 325.208 529.732 325.458C529.732 325.709 529.632 325.949 529.455 326.127C529.278 326.304 529.038 326.403 528.787 326.403H525.858C522.636 326.349 519.564 325.031 517.305 322.732C515.046 320.434 513.78 317.34 513.78 314.117C513.78 310.894 515.046 307.8 517.305 305.502C519.564 303.204 522.636 301.885 525.858 301.831H528.27C529.467 299.296 531.356 297.152 533.72 295.647C536.084 294.141 538.826 293.336 541.629 293.325C545.439 293.36 549.094 294.845 551.849 297.478C554.604 300.111 556.253 303.695 556.461 307.501H557.4C559.879 307.542 562.242 308.556 563.981 310.324C565.72 312.092 566.694 314.472 566.694 316.952C566.694 319.432 565.72 321.813 563.981 323.581C562.242 325.349 559.879 326.363 557.4 326.403V326.403Z" fill="#3F3D56"/>
<path d="M540.001 324.041C541.175 324.041 542.127 323.089 542.127 321.914C542.127 320.74 541.175 319.788 540.001 319.788C538.827 319.788 537.875 320.74 537.875 321.914C537.875 323.089 538.827 324.041 540.001 324.041Z" fill="#3F3D56"/>
<path d="M547.088 326.876C548.262 326.876 549.214 325.924 549.214 324.749C549.214 323.575 548.262 322.623 547.088 322.623C545.914 322.623 544.962 323.575 544.962 324.749C544.962 325.924 545.914 326.876 547.088 326.876Z" fill="#3F3D56"/>
<path d="M535.276 330.184C536.451 330.184 537.402 329.232 537.402 328.057C537.402 326.883 536.451 325.931 535.276 325.931C534.102 325.931 533.15 326.883 533.15 328.057C533.15 329.232 534.102 330.184 535.276 330.184Z" fill="#3F3D56"/>
<path d="M542.836 334.909C544.01 334.909 544.962 333.957 544.962 332.783C544.962 331.608 544.01 330.656 542.836 330.656C541.662 330.656 540.71 331.608 540.71 332.783C540.71 333.957 541.662 334.909 542.836 334.909Z" fill="#3F3D56"/>
<path d="M140.552 254.575H85.7485C83.7437 254.575 81.8211 253.779 80.4035 252.361C78.9859 250.943 78.1895 249.019 78.1895 247.014C78.1895 245.009 78.9859 243.086 80.4035 241.668C81.8211 240.25 83.7437 239.453 85.7485 239.453H140.552C142.557 239.453 144.479 240.25 145.897 241.668C147.314 243.086 148.111 245.009 148.111 247.014C148.111 249.019 147.314 250.943 145.897 252.361C144.479 253.779 142.557 254.575 140.552 254.575Z" fill="#3F3D56"/>
<path d="M247.323 254.575H192.52C190.515 254.575 188.593 253.779 187.175 252.361C185.757 250.943 184.961 249.019 184.961 247.014C184.961 245.009 185.757 243.086 187.175 241.668C188.593 240.25 190.515 239.453 192.52 239.453H247.323C249.328 239.453 251.251 240.25 252.668 241.668C254.086 243.086 254.882 245.009 254.882 247.014C254.882 249.019 254.086 250.943 252.668 252.361C251.251 253.779 249.328 254.575 247.323 254.575Z" fill="#3F3D56"/>
<path d="M354.095 254.575H299.291C297.287 254.575 295.364 253.779 293.946 252.361C292.529 250.943 291.732 249.019 291.732 247.014C291.732 245.009 292.529 243.086 293.946 241.668C295.364 240.25 297.287 239.453 299.291 239.453H354.095C356.1 239.453 358.022 240.25 359.44 241.668C360.857 243.086 361.654 245.009 361.654 247.014C361.654 249.019 360.857 250.943 359.44 252.361C358.022 253.779 356.1 254.575 354.095 254.575Z" fill="#3F3D56"/>
<path d="M460.867 254.575H406.064C404.059 254.575 402.136 253.779 400.719 252.361C399.301 250.943 398.505 249.019 398.505 247.014C398.505 245.009 399.301 243.086 400.719 241.668C402.136 240.25 404.059 239.453 406.064 239.453H460.867C462.872 239.453 464.795 240.25 466.212 241.668C467.63 243.086 468.426 245.009 468.426 247.014C468.426 249.019 467.63 250.943 466.212 252.361C464.795 253.779 462.872 254.575 460.867 254.575Z" fill="#3F3D56"/>
<path d="M567.639 254.575H512.835C510.831 254.575 508.908 253.779 507.49 252.361C506.073 250.943 505.276 249.019 505.276 247.014C505.276 245.009 506.073 243.086 507.49 241.668C508.908 240.25 510.831 239.453 512.835 239.453H567.639C569.643 239.453 571.566 240.25 572.984 241.668C574.401 243.086 575.198 245.009 575.198 247.014C575.198 249.019 574.401 250.943 572.984 252.361C571.566 253.779 569.643 254.575 567.639 254.575Z" fill="#3F3D56"/>
<path d="M164.173 343.415C163.923 343.415 163.682 343.316 163.505 343.139C163.328 342.961 163.229 342.721 163.229 342.47V270.642C163.229 270.391 163.328 270.151 163.505 269.974C163.682 269.797 163.923 269.697 164.173 269.697C164.424 269.697 164.664 269.797 164.842 269.974C165.019 270.151 165.118 270.391 165.118 270.642V342.47C165.118 342.721 165.019 342.961 164.842 343.139C164.664 343.316 164.424 343.415 164.173 343.415Z" fill="#E6E6E6"/>
<path d="M270.945 342.47C270.694 342.47 270.454 342.371 270.277 342.193C270.1 342.016 270 341.776 270 341.525V269.697C270 269.446 270.1 269.206 270.277 269.029C270.454 268.851 270.694 268.752 270.945 268.752C271.196 268.752 271.436 268.851 271.613 269.029C271.79 269.206 271.89 269.446 271.89 269.697V341.525C271.89 341.776 271.79 342.016 271.613 342.193C271.436 342.371 271.196 342.47 270.945 342.47Z" fill="#E6E6E6"/>
<path d="M383.386 342.47C383.136 342.47 382.895 342.371 382.718 342.193C382.541 342.016 382.441 341.776 382.441 341.525V269.697C382.441 269.446 382.541 269.206 382.718 269.029C382.895 268.851 383.136 268.752 383.386 268.752C383.637 268.752 383.877 268.851 384.054 269.029C384.232 269.206 384.331 269.446 384.331 269.697V341.525C384.331 341.776 384.232 342.016 384.054 342.193C383.877 342.371 383.637 342.47 383.386 342.47Z" fill="#E6E6E6"/>
<path d="M490.159 342.47C489.908 342.47 489.668 342.371 489.491 342.193C489.313 342.016 489.214 341.776 489.214 341.525V269.697C489.214 269.446 489.313 269.206 489.491 269.029C489.668 268.851 489.908 268.752 490.159 268.752C490.409 268.752 490.65 268.851 490.827 269.029C491.004 269.206 491.104 269.446 491.104 269.697V341.525C491.104 341.776 491.004 342.016 490.827 342.193C490.65 342.371 490.409 342.47 490.159 342.47Z" fill="#E6E6E6"/>
<path d="M883.055 583H523.054C522.804 583 522.563 582.9 522.386 582.723C522.209 582.546 522.109 582.306 522.109 582.055C522.109 581.804 522.209 581.564 522.386 581.387C522.563 581.209 522.804 581.11 523.054 581.11H883.055C883.306 581.11 883.546 581.209 883.723 581.387C883.9 581.564 884 581.804 884 582.055C884 582.306 883.9 582.546 883.723 582.723C883.546 582.9 883.306 583 883.055 583Z" fill="#3F3D56"/>
</g>
<defs>
<clipPath id="clip0_331_725">
<rect width="854" height="396" fill="white" transform="translate(30 187)"/>
</clipPath>
</defs>
</svg>
