<svg width="904" height="419" viewBox="0 0 904 419" fill="none" xmlns="http://www.w3.org/2000/svg">
<g clip-path="url(#clip0_319_725)">
<path d="M854.206 417.135C846.537 416.816 839.55 413.721 836.39 408.927C836.242 408.702 836.102 408.475 835.972 408.244C834.818 406.201 834.458 403.852 835.719 401.839C836.981 399.826 840.133 398.297 843.298 398.615C846.463 398.932 848.934 401.457 847.624 403.455C847.331 399.417 847.092 395.174 850.348 391.659C852.14 389.822 854.478 388.614 857.013 388.214C863.573 387.06 867.929 390.77 868.801 394.515C869.445 397.28 868.556 400.092 867.671 402.826C870.399 399.599 876.889 398.164 881.858 399.688C886.828 401.211 889.585 405.482 887.887 409.024C885.887 413.197 879.219 415.354 873.025 416.494C867.91 417.435 860.24 417.385 854.206 417.135Z" fill="#F2F2F2"/>
<path d="M587.206 417.135C579.537 416.816 572.55 413.721 569.39 408.927C569.242 408.702 569.102 408.475 568.972 408.244C567.818 406.201 567.458 403.852 568.719 401.839C569.981 399.826 573.133 398.297 576.298 398.615C579.463 398.932 581.934 401.457 580.624 403.455C580.331 399.417 580.092 395.174 583.348 391.659C585.14 389.822 587.478 388.614 590.013 388.214C596.573 387.06 600.929 390.77 601.801 394.515C602.445 397.28 601.556 400.092 600.671 402.826C603.399 399.599 609.889 398.164 614.858 399.688C619.828 401.211 622.585 405.482 620.887 409.024C618.887 413.197 612.219 415.354 606.025 416.494C600.91 417.435 593.24 417.385 587.206 417.135Z" fill="#F2F2F2"/>
<path d="M341.5 176.5H286.5C282.125 176.495 277.931 174.755 274.838 171.662C271.745 168.569 270.005 164.375 270 160V57C270.005 52.6254 271.745 48.4315 274.838 45.3382C277.931 42.2449 282.125 40.5049 286.5 40.5H341.5C345.874 40.5049 350.068 42.2449 353.162 45.3382C356.255 48.4315 357.995 52.6254 358 57V160C357.995 164.375 356.255 168.569 353.162 171.662C350.068 174.755 345.874 176.495 341.5 176.5V176.5Z" fill="#F2F2F2"/>
<path d="M679.306 406.177H667.047L661.214 358.889L679.308 358.89L679.306 406.177Z" fill="#FFB8B8"/>
<path d="M682.433 418.062L642.902 418.06V417.56C642.902 415.539 643.3 413.539 644.073 411.672C644.847 409.805 645.98 408.109 647.409 406.68C648.838 405.251 650.534 404.118 652.401 403.345C654.267 402.572 656.268 402.174 658.289 402.174H658.29L682.434 402.175L682.433 418.062Z" fill="#2F2E41"/>
<path d="M816.262 394.707L804.705 398.799L783.42 356.172L800.476 350.132L816.262 394.707Z" fill="#FFB8B8"/>
<path d="M823.176 404.865L785.914 418.061L785.747 417.59C785.072 415.686 784.779 413.667 784.885 411.649C784.99 409.631 785.493 407.654 786.362 405.83C787.232 404.006 788.453 402.372 789.954 401.02C791.456 399.667 793.209 398.624 795.113 397.95L795.114 397.949L817.873 389.89L823.176 404.865Z" fill="#2F2E41"/>
<path d="M678.965 390.3C678.69 390.3 678.415 390.275 678.145 390.226L663.153 387.5C662.132 387.312 661.208 386.778 660.534 385.988C659.861 385.198 659.48 384.201 659.455 383.163C657.276 282.249 667.99 214.435 691.299 165.828C691.713 164.967 692.392 164.263 693.236 163.816C694.08 163.37 695.045 163.205 695.99 163.346L749.901 171.129C750.885 171.272 751.795 171.737 752.487 172.451C753.18 173.165 753.616 174.088 753.729 175.077L758.483 216.98C758.509 217.206 758.556 217.429 758.625 217.646L810.314 372.515C810.667 373.642 810.564 374.862 810.029 375.914C809.493 376.967 808.567 377.768 807.448 378.146L793.48 382.802C792.452 383.14 791.337 383.098 790.337 382.684C789.337 382.269 788.519 381.511 788.031 380.545L718.113 248.708C717.974 248.431 717.753 248.203 717.479 248.057C717.206 247.911 716.894 247.853 716.586 247.891C716.278 247.929 715.99 248.062 715.761 248.271C715.531 248.48 715.373 248.755 715.306 249.058L683.345 386.763C683.129 387.764 682.577 388.662 681.78 389.305C680.983 389.949 679.989 390.3 678.965 390.3Z" fill="#2F2E41"/>
<path d="M636.357 84.0974C636.48 84.637 636.56 85.1854 636.596 85.7375L679.554 110.52L689.995 104.509L701.126 119.081L683.676 131.518C682.266 132.523 680.569 133.044 678.838 133.001C677.107 132.959 675.437 132.357 674.078 131.285L629.781 96.3387C627.782 97.0787 625.605 97.1926 623.54 96.6651C621.475 96.1376 619.619 94.9939 618.219 93.3859C616.82 91.778 615.943 89.7821 615.706 87.6637C615.468 85.5453 615.881 83.4048 616.89 81.527C617.899 79.6491 619.455 78.1229 621.353 77.1512C623.25 76.1796 625.398 75.8086 627.512 76.0876C629.625 76.3667 631.603 77.2825 633.183 78.7133C634.763 80.1441 635.87 82.0221 636.357 84.0974V84.0974Z" fill="#FFB8B8"/>
<path d="M680.144 108.042C680.273 107.409 680.538 106.81 680.92 106.288C681.301 105.766 681.791 105.333 682.355 105.017L702.068 93.9946C704.688 91.9727 708.002 91.0719 711.284 91.4898C714.566 91.9077 717.549 93.6101 719.577 96.2237C721.606 98.8374 722.516 102.149 722.107 105.432C721.698 108.716 720.003 111.703 717.395 113.739L701.678 130.06C701.229 130.526 700.685 130.889 700.084 131.126C699.482 131.363 698.836 131.467 698.19 131.432C697.545 131.396 696.914 131.222 696.342 130.921C695.77 130.62 695.269 130.199 694.874 129.687L680.99 111.693C680.595 111.181 680.314 110.59 680.168 109.96C680.022 109.33 680.014 108.676 680.144 108.042Z" fill="#3F3D56"/>
<path d="M726.05 81.6269C739.614 81.6269 750.611 70.6306 750.611 57.0659C750.611 43.5012 739.614 32.5049 726.05 32.5049C712.485 32.5049 701.489 43.5012 701.489 57.0659C701.489 70.6306 712.485 81.6269 726.05 81.6269Z" fill="#FFB8B8"/>
<path d="M749.966 176.369C749.722 176.368 749.479 176.349 749.238 176.309L696.085 167.595C695.484 167.497 694.91 167.277 694.397 166.951C693.883 166.624 693.441 166.197 693.098 165.694C692.755 165.192 692.517 164.625 692.398 164.028C692.28 163.431 692.285 162.816 692.411 162.221L694.997 150.03C693.673 148.055 682.894 130.884 696.022 114.755C695.77 109.026 697.765 103.424 701.581 99.1425C705.398 94.8613 710.735 92.2388 716.456 91.8334L743.925 89.7465C747.459 89.4784 751.005 90.063 754.266 91.451C757.526 92.839 760.406 94.9899 762.662 97.7228C764.918 100.456 766.485 103.69 767.231 107.155C767.976 110.619 767.879 114.212 766.947 117.631L754.354 172.869C754.125 173.862 753.567 174.749 752.771 175.384C751.974 176.02 750.985 176.367 749.966 176.369V176.369Z" fill="#3F3D56"/>
<path d="M799.602 222.558C800.504 221.272 801.112 219.804 801.385 218.258C801.658 216.711 801.588 215.124 801.181 213.607C800.774 212.09 800.039 210.681 799.029 209.479C798.018 208.277 796.756 207.311 795.332 206.649L765.068 113.602L747.53 121.924L780.643 212.523C779.69 214.989 779.675 217.719 780.601 220.196C781.526 222.673 783.328 224.725 785.665 225.962C788.002 227.199 790.712 227.535 793.28 226.908C795.849 226.281 798.098 224.733 799.602 222.558V222.558Z" fill="#FFB8B8"/>
<path d="M771.762 129.093L748.474 136.128C747.811 136.328 747.113 136.383 746.428 136.29C745.742 136.196 745.084 135.955 744.5 135.584C743.916 135.213 743.418 134.721 743.041 134.14C742.664 133.559 742.417 132.904 742.316 132.22L738.78 108.225C737.774 104.828 738.156 101.171 739.842 98.056C741.528 94.9408 744.382 92.6216 747.776 91.6072C751.17 90.5927 754.827 90.9659 757.947 92.6448C761.066 94.3237 763.392 97.1713 764.414 100.563L774.727 122.429C775.022 123.055 775.179 123.737 775.186 124.43C775.194 125.122 775.052 125.807 774.771 126.44C774.489 127.072 774.075 127.637 773.556 128.095C773.037 128.552 772.425 128.893 771.763 129.093H771.762Z" fill="#3F3D56"/>
<path d="M702.175 58.0144C707.628 60.0924 713.563 60.5596 719.274 59.3604C724.984 58.1611 730.23 55.3459 734.386 51.25C731.81 58.0564 732.53 86.9241 732.53 86.9241C732.53 86.9241 755.377 76.0774 758.476 74.1805C776.784 62.9763 751.534 14.2376 730.53 21.9241C726.972 23.2259 724.001 24.7578 722.562 28.2619C719.426 24.3932 713.489 23.5541 708.922 25.5412C704.355 27.5284 701.109 31.8347 699.363 36.4991C697.985 40.263 697.449 44.2835 697.794 48.2771C698.138 52.2706 699.354 56.14 701.356 59.6125L702.175 58.0144Z" fill="black"/>
<path d="M595 0H33C24.2505 0.00858837 15.8618 3.48812 9.67497 9.67496C3.48813 15.8618 0.00858837 24.2505 0 33V187C0.00858837 195.75 3.48813 204.138 9.67497 210.325C15.8618 216.512 24.2505 219.991 33 220H595C603.75 219.991 612.138 216.512 618.325 210.325C624.512 204.138 627.991 195.75 628 187V33C627.991 24.2505 624.512 15.8618 618.325 9.67496C612.138 3.48812 603.75 0.00858837 595 0V0ZM626 187C625.99 195.218 622.72 203.097 616.909 208.909C611.097 214.72 603.218 217.99 595 218H33C24.7815 217.99 16.9026 214.72 11.0913 208.909C5.27992 203.097 2.01049 195.218 2 187V33C2.01049 24.7815 5.27992 16.9026 11.0913 11.0913C16.9026 5.27992 24.7815 2.01049 33 2H595C603.218 2.01049 611.097 5.27992 616.909 11.0913C622.72 16.9026 625.99 24.7815 626 33V187Z" fill="#3F3D56"/>
<path d="M88.75 145.5C86.3766 145.5 84.0566 144.796 82.0832 143.478C80.1098 142.159 78.5717 140.285 77.6635 138.092C76.7552 135.899 76.5176 133.487 76.9806 131.159C77.4436 128.831 78.5865 126.693 80.2647 125.015C81.943 123.336 84.0812 122.194 86.4089 121.731C88.7367 121.268 91.1495 121.505 93.3422 122.413C95.5349 123.322 97.4091 124.86 98.7276 126.833C100.046 128.807 100.75 131.127 100.75 133.5C100.746 136.681 99.4809 139.732 97.2313 141.981C94.9816 144.231 91.9315 145.496 88.75 145.5V145.5ZM88.75 123.5C86.7722 123.5 84.8388 124.086 83.1943 125.185C81.5498 126.284 80.2681 127.846 79.5112 129.673C78.7543 131.5 78.5563 133.511 78.9422 135.451C79.328 137.391 80.2804 139.173 81.6789 140.571C83.0775 141.97 84.8593 142.922 86.7991 143.308C88.7389 143.694 90.7496 143.496 92.5768 142.739C94.4041 141.982 95.9659 140.7 97.0647 139.056C98.1635 137.411 98.75 135.478 98.75 133.5C98.747 130.849 97.6925 128.307 95.8178 126.432C93.9431 124.557 91.4013 123.503 88.75 123.5V123.5Z" fill="#3F3D56"/>
<path d="M88.3562 118.5C88.091 118.5 87.8366 118.395 87.6491 118.207C87.4616 118.02 87.3562 117.765 87.3562 117.5V106C87.3562 105.735 87.4616 105.48 87.6491 105.293C87.8366 105.105 88.091 105 88.3562 105C88.6214 105 88.8758 105.105 89.0633 105.293C89.2508 105.48 89.3562 105.735 89.3562 106V117.5C89.3562 117.765 89.2508 118.02 89.0633 118.207C88.8758 118.395 88.6214 118.5 88.3562 118.5Z" fill="#3F3D56"/>
<path d="M72.75 134.106H61.25C60.9848 134.106 60.7304 134.001 60.5429 133.814C60.3554 133.626 60.25 133.372 60.25 133.106C60.25 132.841 60.3554 132.587 60.5429 132.399C60.7304 132.212 60.9848 132.106 61.25 132.106H72.75C73.0152 132.106 73.2696 132.212 73.4571 132.399C73.6446 132.587 73.75 132.841 73.75 133.106C73.75 133.372 73.6446 133.626 73.4571 133.814C73.2696 134.001 73.0152 134.106 72.75 134.106Z" fill="#3F3D56"/>
<path d="M114.75 134.106H103.25C102.985 134.106 102.73 134.001 102.543 133.814C102.355 133.626 102.25 133.372 102.25 133.106C102.25 132.841 102.355 132.587 102.543 132.399C102.73 132.212 102.985 132.106 103.25 132.106H114.75C115.015 132.106 115.27 132.212 115.457 132.399C115.645 132.587 115.75 132.841 115.75 133.106C115.75 133.372 115.645 133.626 115.457 133.814C115.27 134.001 115.015 134.106 114.75 134.106Z" fill="#3F3D56"/>
<path d="M102.934 123.172C102.735 123.172 102.54 123.113 102.375 123.002C102.21 122.89 102.082 122.732 102.007 122.548C101.933 122.364 101.915 122.161 101.956 121.966C101.997 121.771 102.095 121.593 102.238 121.455L107.054 116.782C107.244 116.598 107.5 116.496 107.765 116.5C108.03 116.504 108.283 116.613 108.468 116.804C108.652 116.994 108.754 117.25 108.75 117.515C108.746 117.78 108.637 118.033 108.446 118.218L103.63 122.89C103.444 123.071 103.194 123.173 102.934 123.172V123.172Z" fill="#3F3D56"/>
<path d="M73.5659 123.172C73.3059 123.173 73.056 123.071 72.8696 122.89L68.0537 118.218C67.9594 118.126 67.8841 118.017 67.832 117.897C67.7799 117.776 67.7521 117.646 67.7501 117.515C67.7481 117.384 67.772 117.253 67.8204 117.131C67.8688 117.009 67.9408 116.898 68.0322 116.804C68.1237 116.709 68.2328 116.634 68.3533 116.582C68.4739 116.53 68.6035 116.502 68.7348 116.5C68.8661 116.498 68.9965 116.522 69.1186 116.57C69.2407 116.619 69.352 116.691 69.4463 116.782L74.2622 121.455C74.4051 121.593 74.5034 121.771 74.5444 121.966C74.5855 122.161 74.5675 122.364 74.4927 122.548C74.4179 122.732 74.2897 122.89 74.1246 123.002C73.9595 123.113 73.765 123.172 73.5659 123.172Z" fill="#3F3D56"/>
<path d="M69.75 150.5C69.5535 150.5 69.3613 150.442 69.1976 150.333C69.0338 150.225 68.9056 150.07 68.8291 149.889C68.7525 149.708 68.731 149.509 68.7672 149.316C68.8034 149.122 68.8956 148.944 69.0325 148.803L73.8484 143.844C74.0332 143.653 74.286 143.544 74.5512 143.54C74.8165 143.536 75.0724 143.638 75.2627 143.823C75.453 144.008 75.5621 144.261 75.566 144.526C75.5699 144.791 75.4682 145.047 75.2834 145.237L70.4675 150.197C70.3743 150.293 70.2628 150.369 70.1395 150.421C70.0163 150.473 69.8838 150.5 69.75 150.5V150.5Z" fill="#3F3D56"/>
<path d="M108.75 151.5C108.617 151.5 108.484 151.474 108.362 151.422C108.239 151.37 108.127 151.294 108.034 151.198L102.219 145.239C102.127 145.145 102.055 145.034 102.006 144.912C101.957 144.79 101.933 144.66 101.934 144.528C101.936 144.397 101.963 144.267 102.015 144.147C102.067 144.026 102.142 143.917 102.236 143.825C102.33 143.733 102.441 143.661 102.563 143.612C102.685 143.564 102.815 143.539 102.946 143.541C103.078 143.542 103.207 143.57 103.328 143.622C103.449 143.673 103.558 143.748 103.65 143.842L109.466 149.802C109.603 149.943 109.696 150.121 109.733 150.314C109.769 150.507 109.748 150.707 109.672 150.889C109.595 151.07 109.467 151.225 109.303 151.333C109.139 151.442 108.947 151.5 108.75 151.5Z" fill="#3F3D56"/>
<path d="M88.3562 161.5C88.091 161.5 87.8366 161.395 87.6491 161.207C87.4616 161.02 87.3562 160.765 87.3562 160.5V149C87.3562 148.735 87.4616 148.48 87.6491 148.293C87.8366 148.105 88.091 148 88.3562 148C88.6214 148 88.8758 148.105 89.0633 148.293C89.2508 148.48 89.3562 148.735 89.3562 149V160.5C89.3562 160.765 89.2508 161.02 89.0633 161.207C88.8758 161.395 88.6214 161.5 88.3562 161.5Z" fill="#3F3D56"/>
<path d="M219.164 152.5H185.782C182.372 152.442 179.121 151.047 176.731 148.616C174.34 146.184 173 142.91 173 139.5C173 136.09 174.34 132.816 176.731 130.384C179.121 127.953 182.372 126.558 185.782 126.5H188.335C189.601 123.818 191.601 121.549 194.103 119.957C196.605 118.364 199.507 117.512 202.473 117.5C206.506 117.537 210.373 119.108 213.289 121.895C216.204 124.681 217.95 128.473 218.17 132.5H219.164C221.787 132.543 224.289 133.616 226.129 135.487C227.969 137.357 229 139.876 229 142.5C229 145.124 227.969 147.643 226.129 149.513C224.289 151.384 221.787 152.457 219.164 152.5V152.5ZM185.782 128.5C182.903 128.558 180.161 129.742 178.145 131.799C176.129 133.855 175 136.62 175 139.5C175 142.38 176.129 145.145 178.145 147.201C180.161 149.258 182.903 150.442 185.782 150.5H219.164C221.257 150.457 223.249 149.595 224.714 148.099C226.179 146.604 227 144.594 227 142.5C227 140.406 226.179 138.396 224.714 136.901C223.249 135.405 221.257 134.543 219.164 134.5H217.2C216.935 134.5 216.68 134.395 216.493 134.207C216.305 134.02 216.2 133.765 216.2 133.5C216.232 129.824 214.804 126.286 212.231 123.662C209.657 121.037 206.148 119.541 202.473 119.5C199.785 119.514 197.161 120.317 194.925 121.81C192.69 123.302 190.942 125.418 189.898 127.895C189.821 128.074 189.693 128.227 189.529 128.335C189.366 128.443 189.175 128.5 188.979 128.5H185.782Z" fill="#3F3D56"/>
<path d="M330.671 133.557L329.892 131.715C331.405 131.075 332.737 130.073 333.771 128.797C334.804 127.521 335.508 126.009 335.819 124.397C336.13 122.784 336.039 121.119 335.554 119.55C335.07 117.981 334.206 116.555 333.04 115.399C331.873 114.243 330.44 113.391 328.867 112.92C327.293 112.449 325.628 112.373 324.018 112.698C322.408 113.023 320.903 113.74 319.636 114.784C318.369 115.829 317.378 117.17 316.752 118.688L314.903 117.925C315.655 116.103 316.843 114.495 318.364 113.241C319.885 111.987 321.691 111.128 323.622 110.737C325.554 110.347 327.552 110.439 329.44 111.004C331.328 111.569 333.048 112.591 334.448 113.978C335.847 115.366 336.884 117.077 337.465 118.96C338.047 120.843 338.156 122.84 337.783 124.775C337.41 126.71 336.566 128.523 335.325 130.055C334.085 131.587 332.487 132.789 330.671 133.557V133.557Z" fill="#3F3D56"/>
<path d="M332.164 152.5H298.782C295.372 152.442 292.121 151.047 289.731 148.616C287.34 146.184 286 142.91 286 139.5C286 136.09 287.34 132.816 289.731 130.384C292.121 127.953 295.372 126.558 298.782 126.5H301.335C302.601 123.818 304.601 121.549 307.103 119.957C309.605 118.364 312.507 117.512 315.473 117.5C319.505 117.537 323.373 119.108 326.289 121.895C329.204 124.681 330.95 128.473 331.17 132.5H332.164C334.787 132.543 337.289 133.616 339.129 135.487C340.969 137.357 342 139.876 342 142.5C342 145.124 340.969 147.643 339.129 149.513C337.289 151.384 334.787 152.457 332.164 152.5V152.5ZM298.782 128.5C295.903 128.558 293.161 129.742 291.145 131.799C289.129 133.855 288 136.62 288 139.5C288 142.38 289.129 145.145 291.145 147.201C293.161 149.258 295.903 150.442 298.782 150.5H332.164C334.257 150.457 336.249 149.595 337.714 148.099C339.179 146.604 340 144.594 340 142.5C340 140.406 339.179 138.396 337.714 136.901C336.249 135.405 334.257 134.543 332.164 134.5H330.2C329.935 134.5 329.68 134.395 329.493 134.207C329.305 134.02 329.2 133.765 329.2 133.5C329.232 129.824 327.804 126.286 325.231 123.662C322.657 121.037 319.148 119.541 315.473 119.5C312.785 119.514 310.161 120.317 307.925 121.81C305.69 123.302 303.942 125.418 302.898 127.895C302.821 128.074 302.693 128.227 302.529 128.335C302.366 128.443 302.175 128.5 301.979 128.5H298.782Z" fill="#3F3D56"/>
<path d="M445.164 147.5H441.15C440.884 147.5 440.63 147.395 440.443 147.207C440.255 147.02 440.15 146.765 440.15 146.5C440.15 146.235 440.255 145.98 440.443 145.793C440.63 145.605 440.884 145.5 441.15 145.5H445.164C447.257 145.457 449.249 144.595 450.714 143.099C452.179 141.604 453 139.594 453 137.5C453 135.406 452.179 133.396 450.714 131.901C449.249 130.405 447.257 129.543 445.164 129.5H443.2C442.935 129.5 442.68 129.395 442.493 129.207C442.305 129.02 442.2 128.765 442.2 128.5C442.232 124.824 440.804 121.286 438.231 118.662C435.657 116.037 432.148 114.541 428.473 114.5C425.785 114.514 423.161 115.317 420.925 116.81C418.69 118.302 416.942 120.418 415.898 122.895C415.821 123.074 415.693 123.227 415.529 123.335C415.366 123.443 415.175 123.5 414.979 123.5H411.782C408.903 123.558 406.161 124.742 404.145 126.799C402.129 128.855 401 131.62 401 134.5C401 137.38 402.129 140.145 404.145 142.201C406.161 144.258 408.903 145.442 411.782 145.5H414.882C415.147 145.5 415.401 145.605 415.589 145.793C415.776 145.98 415.882 146.235 415.882 146.5C415.882 146.765 415.776 147.02 415.589 147.207C415.401 147.395 415.147 147.5 414.882 147.5H411.782C408.372 147.442 405.121 146.047 402.731 143.616C400.34 141.184 399 137.91 399 134.5C399 131.09 400.34 127.816 402.731 125.384C405.121 122.953 408.372 121.558 411.782 121.5H414.335C415.601 118.818 417.601 116.549 420.103 114.957C422.605 113.364 425.507 112.512 428.473 112.5C432.505 112.537 436.373 114.108 439.289 116.895C442.204 119.681 443.95 123.473 444.17 127.5H445.164C447.787 127.543 450.289 128.616 452.129 130.487C453.969 132.357 455 134.876 455 137.5C455 140.124 453.969 142.643 452.129 144.513C450.289 146.384 447.787 147.457 445.164 147.5V147.5Z" fill="#3F3D56"/>
<path d="M428.307 151.817C428.042 151.817 427.788 151.712 427.6 151.524C427.413 151.336 427.307 151.082 427.307 150.817V139.317C427.307 139.052 427.413 138.797 427.6 138.61C427.788 138.422 428.042 138.317 428.307 138.317C428.572 138.317 428.827 138.422 429.014 138.61C429.202 138.797 429.307 139.052 429.307 139.317V150.817C429.307 151.082 429.202 151.336 429.014 151.524C428.827 151.712 428.572 151.817 428.307 151.817V151.817Z" fill="#3F3D56"/>
<path d="M421.307 157.817C421.042 157.817 420.788 157.712 420.6 157.524C420.413 157.336 420.307 157.082 420.307 156.817V145.317C420.307 145.052 420.413 144.797 420.6 144.61C420.788 144.422 421.042 144.317 421.307 144.317C421.572 144.317 421.827 144.422 422.014 144.61C422.202 144.797 422.307 145.052 422.307 145.317V156.817C422.307 157.082 422.202 157.336 422.014 157.524C421.827 157.712 421.572 157.817 421.307 157.817Z" fill="#3F3D56"/>
<path d="M435.307 160.817C435.042 160.817 434.788 160.712 434.6 160.524C434.413 160.336 434.307 160.082 434.307 159.817V148.317C434.307 148.052 434.413 147.797 434.6 147.61C434.788 147.422 435.042 147.317 435.307 147.317C435.572 147.317 435.827 147.422 436.014 147.61C436.202 147.797 436.307 148.052 436.307 148.317V159.817C436.307 160.082 436.202 160.336 436.014 160.524C435.827 160.712 435.572 160.817 435.307 160.817V160.817Z" fill="#3F3D56"/>
<path d="M558.164 147.5H554.15C553.884 147.5 553.63 147.395 553.443 147.207C553.255 147.02 553.15 146.765 553.15 146.5C553.15 146.235 553.255 145.98 553.443 145.793C553.63 145.605 553.884 145.5 554.15 145.5H558.164C560.257 145.457 562.249 144.595 563.714 143.099C565.179 141.604 566 139.594 566 137.5C566 135.406 565.179 133.396 563.714 131.901C562.249 130.405 560.257 129.543 558.164 129.5H556.2C555.935 129.5 555.68 129.395 555.493 129.207C555.305 129.02 555.2 128.765 555.2 128.5C555.232 124.824 553.804 121.286 551.231 118.662C548.657 116.037 545.148 114.541 541.473 114.5C538.785 114.514 536.161 115.317 533.925 116.81C531.69 118.302 529.942 120.418 528.898 122.895C528.821 123.074 528.693 123.227 528.529 123.335C528.366 123.443 528.175 123.5 527.979 123.5H524.782C521.903 123.558 519.161 124.742 517.145 126.799C515.129 128.855 514 131.62 514 134.5C514 137.38 515.129 140.145 517.145 142.201C519.161 144.258 521.903 145.442 524.782 145.5H527.882C528.147 145.5 528.401 145.605 528.589 145.793C528.776 145.98 528.882 146.235 528.882 146.5C528.882 146.765 528.776 147.02 528.589 147.207C528.401 147.395 528.147 147.5 527.882 147.5H524.782C521.372 147.442 518.121 146.047 515.731 143.616C513.34 141.184 512 137.91 512 134.5C512 131.09 513.34 127.816 515.731 125.384C518.121 122.953 521.372 121.558 524.782 121.5H527.335C528.601 118.818 530.601 116.549 533.103 114.957C535.605 113.364 538.507 112.512 541.473 112.5C545.505 112.537 549.373 114.108 552.289 116.895C555.204 119.681 556.95 123.473 557.17 127.5H558.164C560.787 127.543 563.289 128.616 565.129 130.487C566.969 132.357 568 134.876 568 137.5C568 140.124 566.969 142.643 565.129 144.513C563.289 146.384 560.787 147.457 558.164 147.5V147.5Z" fill="#3F3D56"/>
<path d="M539.75 145C540.993 145 542 143.993 542 142.75C542 141.507 540.993 140.5 539.75 140.5C538.507 140.5 537.5 141.507 537.5 142.75C537.5 143.993 538.507 145 539.75 145Z" fill="#3F3D56"/>
<path d="M547.25 148C548.493 148 549.5 146.993 549.5 145.75C549.5 144.507 548.493 143.5 547.25 143.5C546.007 143.5 545 144.507 545 145.75C545 146.993 546.007 148 547.25 148Z" fill="#3F3D56"/>
<path d="M534.75 151.5C535.993 151.5 537 150.493 537 149.25C537 148.007 535.993 147 534.75 147C533.507 147 532.5 148.007 532.5 149.25C532.5 150.493 533.507 151.5 534.75 151.5Z" fill="#3F3D56"/>
<path d="M542.75 156.5C543.993 156.5 545 155.493 545 154.25C545 153.007 543.993 152 542.75 152C541.507 152 540.5 153.007 540.5 154.25C540.5 155.493 541.507 156.5 542.75 156.5Z" fill="#3F3D56"/>
<path d="M117 71.5H59C56.8783 71.5 54.8434 70.6572 53.3432 69.1569C51.8429 67.6566 51 65.6217 51 63.5C51 61.3783 51.8429 59.3434 53.3432 57.8431C54.8434 56.3428 56.8783 55.5 59 55.5H117C119.122 55.5 121.157 56.3428 122.657 57.8431C124.157 59.3434 125 61.3783 125 63.5C125 65.6217 124.157 67.6566 122.657 69.1569C121.157 70.6572 119.122 71.5 117 71.5Z" fill="#3F3D56"/>
<path d="M230 71.5H172C169.878 71.5 167.843 70.6572 166.343 69.1569C164.843 67.6566 164 65.6217 164 63.5C164 61.3783 164.843 59.3434 166.343 57.8431C167.843 56.3428 169.878 55.5 172 55.5H230C232.122 55.5 234.157 56.3428 235.657 57.8431C237.157 59.3434 238 61.3783 238 63.5C238 65.6217 237.157 67.6566 235.657 69.1569C234.157 70.6572 232.122 71.5 230 71.5Z" fill="#3F3D56"/>
<path d="M343 71.5H285C282.878 71.5 280.843 70.6572 279.343 69.1569C277.843 67.6566 277 65.6217 277 63.5C277 61.3783 277.843 59.3434 279.343 57.8431C280.843 56.3428 282.878 55.5 285 55.5H343C345.122 55.5 347.157 56.3428 348.657 57.8431C350.157 59.3434 351 61.3783 351 63.5C351 65.6217 350.157 67.6566 348.657 69.1569C347.157 70.6572 345.122 71.5 343 71.5Z" fill="#3F3D56"/>
<path d="M456 71.5H398C395.878 71.5 393.843 70.6572 392.343 69.1569C390.843 67.6566 390 65.6217 390 63.5C390 61.3783 390.843 59.3434 392.343 57.8431C393.843 56.3428 395.878 55.5 398 55.5H456C458.122 55.5 460.157 56.3428 461.657 57.8431C463.157 59.3434 464 61.3783 464 63.5C464 65.6217 463.157 67.6566 461.657 69.1569C460.157 70.6572 458.122 71.5 456 71.5Z" fill="#3F3D56"/>
<path d="M569 71.5H511C508.878 71.5 506.843 70.6572 505.343 69.1569C503.843 67.6566 503 65.6217 503 63.5C503 61.3783 503.843 59.3434 505.343 57.8431C506.843 56.3428 508.878 55.5 511 55.5H569C571.122 55.5 573.157 56.3428 574.657 57.8431C576.157 59.3434 577 61.3783 577 63.5C577 65.6217 576.157 67.6566 574.657 69.1569C573.157 70.6572 571.122 71.5 569 71.5Z" fill="#3F3D56"/>
<path d="M142 165.5C141.735 165.5 141.48 165.395 141.293 165.207C141.105 165.02 141 164.765 141 164.5V88.5C141 88.2348 141.105 87.9804 141.293 87.7929C141.48 87.6054 141.735 87.5 142 87.5C142.265 87.5 142.52 87.6054 142.707 87.7929C142.895 87.9804 143 88.2348 143 88.5V164.5C143 164.765 142.895 165.02 142.707 165.207C142.52 165.395 142.265 165.5 142 165.5Z" fill="#E6E6E6"/>
<path d="M255 164.5C254.735 164.5 254.48 164.395 254.293 164.207C254.105 164.02 254 163.765 254 163.5V87.5C254 87.2348 254.105 86.9804 254.293 86.7929C254.48 86.6054 254.735 86.5 255 86.5C255.265 86.5 255.52 86.6054 255.707 86.7929C255.895 86.9804 256 87.2348 256 87.5V163.5C256 163.765 255.895 164.02 255.707 164.207C255.52 164.395 255.265 164.5 255 164.5Z" fill="#E6E6E6"/>
<path d="M374 164.5C373.735 164.5 373.48 164.395 373.293 164.207C373.105 164.02 373 163.765 373 163.5V87.5C373 87.2348 373.105 86.9804 373.293 86.7929C373.48 86.6054 373.735 86.5 374 86.5C374.265 86.5 374.52 86.6054 374.707 86.7929C374.895 86.9804 375 87.2348 375 87.5V163.5C375 163.765 374.895 164.02 374.707 164.207C374.52 164.395 374.265 164.5 374 164.5Z" fill="#E6E6E6"/>
<path d="M487 164.5C486.735 164.5 486.48 164.395 486.293 164.207C486.105 164.02 486 163.765 486 163.5V87.5C486 87.2348 486.105 86.9804 486.293 86.7929C486.48 86.6054 486.735 86.5 487 86.5C487.265 86.5 487.52 86.6054 487.707 86.7929C487.895 86.9804 488 87.2348 488 87.5V163.5C488 163.765 487.895 164.02 487.707 164.207C487.52 164.395 487.265 164.5 487 164.5Z" fill="#E6E6E6"/>
<path d="M902.815 419H521.815C521.55 419 521.295 418.895 521.108 418.707C520.92 418.52 520.815 418.265 520.815 418C520.815 417.735 520.92 417.48 521.108 417.293C521.295 417.105 521.55 417 521.815 417H902.815C903.08 417 903.335 417.105 903.522 417.293C903.71 417.48 903.815 417.735 903.815 418C903.815 418.265 903.71 418.52 903.522 418.707C903.335 418.895 903.08 419 902.815 419Z" fill="#3F3D56"/>
</g>
<defs>
<clipPath id="clip0_319_725">
<rect width="903.815" height="419" fill="white"/>
</clipPath>
</defs>
</svg>
