<svg width="893" height="749" viewBox="0 0 893 749" fill="none" xmlns="http://www.w3.org/2000/svg">
<path d="M769.212 207.897V167.976H763.001V207.897C761.22 208.617 759.745 209.934 758.828 211.622C757.912 213.311 757.612 215.265 757.979 217.15C758.346 219.036 759.357 220.735 760.84 221.956C762.323 223.178 764.185 223.846 766.107 223.846C768.028 223.846 769.89 223.178 771.373 221.956C772.856 220.735 773.868 219.036 774.235 217.15C774.602 215.265 774.301 213.311 773.385 211.622C772.469 209.934 770.993 208.617 769.212 207.897Z" fill="#E6E6E6"/>
<path d="M783.703 610.767H741.266V95.5574H724.705V610.767H682.268C677.238 610.767 672.258 611.757 667.612 613.681C662.966 615.605 658.744 618.424 655.188 621.979C651.631 625.533 648.81 629.753 646.886 634.397C644.961 639.041 643.971 644.019 643.971 649.046V649.046H822V649.046C822 644.019 821.009 639.041 819.085 634.397C817.16 629.753 814.339 625.533 810.783 621.979C807.227 618.424 803.005 615.605 798.359 613.681C793.712 611.757 788.732 610.767 783.703 610.767V610.767Z" fill="#E6E6E6"/>
<path d="M644.057 172.115H821.914L811.038 36.2354C810.64 31.55 808.503 27.1829 805.046 23.9933C801.59 20.8037 797.064 19.0224 792.359 19H673.611C668.907 19.0224 664.381 20.8037 660.924 23.9933C657.468 27.1829 655.33 31.55 654.933 36.2354L644.057 172.115Z" fill="#3F3D56"/>
<path d="M140.239 492.347H683.103V436.95C683.103 287.355 561.339 165.649 411.671 165.649C262.004 165.649 140.239 287.355 140.239 436.95V492.347Z" fill="#3F3D56"/>
<path opacity="0.2" d="M140.239 492.347H683.103V436.95C683.103 287.355 561.339 165.649 411.671 165.649C262.004 165.649 140.239 287.355 140.239 436.95V492.347Z" fill="black"/>
<path d="M210.597 511.523H628.378C627.981 489.553 618.977 468.616 603.301 453.211C587.625 437.806 566.528 429.163 544.545 429.138H294.43C272.446 429.163 251.349 437.806 235.674 453.211C219.998 468.616 210.994 489.553 210.597 511.523V511.523Z" fill="#3F3D56"/>
<path d="M160.845 503C207.152 503 244.691 465.479 244.691 419.195C244.691 372.911 207.152 335.39 160.845 335.39C114.539 335.39 77 372.911 77 419.195C77 465.479 114.539 503 160.845 503Z" fill="#3F3D56"/>
<path d="M669.602 503C715.909 503 753.448 465.479 753.448 419.195C753.448 372.911 715.909 335.39 669.602 335.39C623.296 335.39 585.757 372.911 585.757 419.195C585.757 465.479 623.296 503 669.602 503Z" fill="#3F3D56"/>
<path d="M606.363 461.808V493.057H219.11V461.808H132.423V614.118C132.423 623.45 136.132 632.4 142.734 638.999C149.336 645.597 158.29 649.304 167.626 649.304H657.847C662.47 649.304 667.048 648.394 671.319 646.626C675.59 644.858 679.471 642.266 682.739 638.999C686.008 635.731 688.601 631.852 690.371 627.583C692.14 623.314 693.05 618.739 693.05 614.118V461.808H606.363Z" fill="#3F3D56"/>
<path opacity="0.2" d="M160.845 436.24C170.264 436.24 177.899 428.609 177.899 419.195C177.899 409.781 170.264 402.15 160.845 402.15C151.427 402.15 143.792 409.781 143.792 419.195C143.792 428.609 151.427 436.24 160.845 436.24Z" fill="black"/>
<path opacity="0.2" d="M669.602 436.24C679.02 436.24 686.655 428.609 686.655 419.195C686.655 409.781 679.02 402.15 669.602 402.15C660.184 402.15 652.549 409.781 652.549 419.195C652.549 428.609 660.184 436.24 669.602 436.24Z" fill="black"/>
<path d="M442.558 156.075C442.558 156.075 444.235 187.913 455.97 194.616C467.706 201.319 455.97 246.563 455.97 246.563L400.646 248.238L397.293 194.616C397.293 194.616 403.999 172.832 400.646 162.778C397.293 152.724 442.558 156.075 442.558 156.075Z" fill="#FFB8B8"/>
<path d="M504.588 598.458L484.471 621.918L516.325 652.08L533.089 618.567L504.588 598.458Z" fill="#FFB8B8"/>
<path d="M362.086 598.458L382.204 621.918L350.351 652.08L333.586 618.567L362.086 598.458Z" fill="#FFB8B8"/>
<path d="M493.691 376.429C493.691 376.429 614.399 416.646 607.693 455.186C600.987 493.727 549.016 629.458 549.016 629.458C549.016 629.458 520.515 629.458 498.721 599.296L513.809 565.782C513.809 565.782 507.103 547.349 518.839 543.998C530.574 540.647 537.28 481.997 537.28 481.997C537.28 481.997 451.779 475.295 433.338 443.457L399.808 363.023L493.691 376.429Z" fill="#2F2E41"/>
<path d="M372.984 376.429C372.984 376.429 252.276 416.646 258.982 455.186C265.688 493.727 317.66 629.458 317.66 629.458C317.66 629.458 346.16 629.458 367.955 599.296L352.866 565.782C352.866 565.782 359.572 547.349 347.837 543.998C336.101 540.647 329.395 481.997 329.395 481.997C329.395 481.997 414.896 475.295 433.338 443.457L466.868 363.023L372.984 376.429Z" fill="#2F2E41"/>
<path d="M510.456 639.513C510.456 639.513 527.221 624.431 528.897 636.161C530.574 647.891 527.221 694.81 527.221 694.81C527.221 694.81 543.986 730 518.838 730C493.691 730 481.956 703.189 485.309 676.378C488.662 649.567 473.573 639.513 473.573 639.513C473.573 639.513 455.132 602.647 473.573 599.296C492.015 595.945 498.721 604.323 498.721 604.323C498.721 604.323 492.015 634.485 510.456 639.513Z" fill="#2F2E41"/>
<path d="M356.219 639.513C356.219 639.513 339.454 624.431 337.777 636.161C336.101 647.891 339.454 694.81 339.454 694.81C339.454 694.81 322.689 730 347.836 730C372.984 730 384.719 703.189 381.366 676.378C378.013 649.567 393.102 639.513 393.102 639.513C393.102 639.513 411.543 602.647 393.102 599.296C374.66 595.945 367.954 604.323 367.954 604.323C367.954 604.323 374.66 634.485 356.219 639.513Z" fill="#2F2E41"/>
<path d="M416.572 175.346C437.868 175.346 455.131 158.09 455.131 136.805C455.131 115.519 437.868 98.2639 416.572 98.2639C395.276 98.2639 378.013 115.519 378.013 136.805C378.013 158.09 395.276 175.346 416.572 175.346Z" fill="#FFB8B8"/>
<path d="M422.44 202.995L398.969 184.562L341.968 211.373L340.292 363.861C340.292 363.861 305.085 380.618 315.144 402.402C315.144 402.402 345.321 409.105 358.733 422.51C372.145 435.916 447.588 417.483 479.441 407.429C511.294 397.375 519.677 385.645 519.677 385.645L487.823 340.401L506.265 224.779L449.27 186.478L422.44 202.995Z" fill="#E6E6E6"/>
<path d="M463.45 110.573C462.61 109.434 461.843 108.243 461.152 107.007C459.956 104.096 461.845 100.667 460.08 97.9487C458.279 95.1743 453.705 94.5892 450.594 92.7043C445.801 89.8008 444.929 84.1033 440.439 80.9036C437.203 78.5982 432.588 77.9768 428.265 78.1083C423.941 78.2398 419.675 79.0212 415.349 79.1069C409.51 79.2372 403.717 78.053 398.398 75.6421L401.589 81.8813C398.043 81.1088 394.655 79.7363 391.571 77.823C390.16 79.5728 392.742 82.2287 391.141 83.87C390.485 84.3994 389.709 84.7593 388.88 84.9178C382.725 86.666 376.93 89.4922 371.763 93.2649C370.567 94.0253 369.577 95.0694 368.882 96.3043C368.051 98.1467 368.788 100.182 368.725 102.141C368.611 105.7 365.892 108.804 363.963 112.011C362.033 115.218 360.992 119.375 363.853 122.096C364.549 122.649 365.216 123.237 365.852 123.859C368.719 127.239 363.644 132.189 366.09 135.776C367.152 137.333 369.329 138.121 371.221 139.041C374.845 140.735 377.894 143.451 379.993 146.855L378.522 136.066C378.445 135.8 378.431 135.519 378.482 135.246C378.533 134.973 378.647 134.716 378.815 134.495C379.527 133.769 381.019 134.059 382.002 133.578C383.084 133.049 383.165 131.837 383.122 130.821L382.791 122.988C382.642 119.466 382.601 118.998 385.196 116.155C387.01 114.169 389.862 112.97 392.727 112.089C399.274 110.075 406.316 109.378 413.276 108.697C421.358 107.907 430.46 103.987 436.737 108.149C441.875 111.556 443.583 117.156 446.059 122.122C448.285 126.587 453.996 139.731 458.751 132.616C461.737 128.147 466.304 115.548 463.45 110.573Z" fill="#2F2E41"/>
<path d="M423.192 125.625C423.033 125.625 422.881 125.688 422.769 125.8C422.656 125.912 422.593 126.065 422.593 126.223V142.36C422.593 142.518 422.656 142.67 422.769 142.783C422.881 142.895 423.033 142.958 423.192 142.958H450.983C451.142 142.958 451.294 142.895 451.406 142.783C451.519 142.67 451.582 142.518 451.582 142.36V126.223C451.582 126.065 451.519 125.912 451.406 125.8C451.294 125.688 451.142 125.625 450.983 125.625L423.192 125.625Z" fill="#3F3D56"/>
<path d="M426.298 127.048C426.002 127.048 425.718 127.166 425.509 127.375C425.3 127.584 425.182 127.868 425.182 128.163V140.419C425.182 140.715 425.3 140.999 425.509 141.208C425.718 141.417 426.002 141.535 426.298 141.535H447.878C448.173 141.535 448.457 141.417 448.667 141.208C448.876 140.999 448.994 140.715 448.994 140.419V128.163C448.994 127.868 448.876 127.584 448.667 127.375C448.457 127.166 448.173 127.048 447.878 127.048H426.298Z" fill="#FF6584"/>
<path d="M423.505 130.94H409.028V134.291H423.505V130.94Z" fill="#3F3D56"/>
<path d="M383.838 125.625C383.679 125.625 383.527 125.688 383.415 125.8C383.303 125.913 383.24 126.065 383.239 126.223V142.36C383.24 142.518 383.303 142.67 383.415 142.783C383.527 142.895 383.679 142.958 383.838 142.958H411.629C411.788 142.958 411.94 142.895 412.053 142.783C412.165 142.67 412.228 142.518 412.228 142.36V126.223C412.228 126.065 412.165 125.913 412.053 125.8C411.94 125.688 411.788 125.625 411.629 125.625L383.838 125.625Z" fill="#3F3D56"/>
<path d="M386.944 127.048C386.648 127.048 386.364 127.165 386.155 127.375C385.945 127.584 385.828 127.868 385.827 128.163V140.419C385.828 140.715 385.945 140.999 386.155 141.208C386.364 141.417 386.648 141.535 386.944 141.535H408.523C408.819 141.535 409.103 141.417 409.312 141.208C409.522 140.999 409.64 140.715 409.64 140.419V128.163C409.64 127.868 409.522 127.584 409.312 127.375C409.103 127.165 408.819 127.048 408.523 127.048H386.944Z" fill="#3F3D56"/>
<path d="M368.646 327.04H464.906C468.749 327.04 472.435 328.566 475.153 331.282C477.87 333.998 479.397 337.682 479.397 341.523V341.523H354.155C354.155 337.682 355.682 333.998 358.4 331.282C361.117 328.566 364.803 327.04 368.646 327.04V327.04Z" fill="#3F3D56"/>
<path d="M471.635 326.005C471.071 326.008 470.512 326.103 469.979 326.287C469.797 325.552 469.351 324.91 468.727 324.481C468.103 324.052 467.344 323.867 466.592 323.959C465.84 324.052 465.149 324.416 464.648 324.984C464.146 325.551 463.87 326.283 463.872 327.04C463.872 327.055 463.876 327.069 463.876 327.085C463.488 327.122 463.105 327.201 462.734 327.321C462.629 326.904 462.438 326.512 462.174 326.172C461.91 325.832 461.578 325.55 461.199 325.344C462.194 324.795 462.981 323.934 463.439 322.894C464.021 322.952 464.609 322.886 465.163 322.702C465.718 322.517 466.228 322.218 466.66 321.824C467.091 321.429 467.435 320.948 467.668 320.412C467.901 319.876 468.018 319.297 468.012 318.712C468.006 318.128 467.877 317.551 467.633 317.02C467.389 316.489 467.036 316.015 466.596 315.629C466.157 315.243 465.641 314.955 465.082 314.782C464.524 314.609 463.935 314.555 463.354 314.625C462.791 314.627 462.232 314.723 461.699 314.907C461.603 314.5 461.426 314.117 461.179 313.78C460.931 313.444 460.617 313.161 460.257 312.949C459.897 312.736 459.497 312.6 459.082 312.546C458.668 312.493 458.247 312.524 457.844 312.637C457.442 312.751 457.067 312.945 456.742 313.207C456.416 313.47 456.148 313.796 455.952 314.165C455.756 314.534 455.637 314.939 455.602 315.356C455.567 315.772 455.617 316.191 455.749 316.588C455.625 316.674 455.509 316.771 455.394 316.867C454.808 316.363 454.048 316.11 453.277 316.163C452.879 315.02 452.091 314.054 451.052 313.434C450.013 312.813 448.789 312.578 447.594 312.769C446.398 312.961 445.309 313.566 444.515 314.48C443.722 315.394 443.276 316.557 443.255 317.767C442.839 317.8 442.429 317.881 442.033 318.01C441.988 317.835 441.929 317.664 441.854 317.5C442.263 317.139 442.591 316.697 442.818 316.202C443.045 315.707 443.165 315.17 443.171 314.625C443.098 313.46 442.568 312.372 441.695 311.596C440.823 310.821 439.679 310.422 438.513 310.487C437.95 310.489 437.39 310.584 436.858 310.768C436.762 310.362 436.585 309.978 436.337 309.642C436.089 309.305 435.776 309.022 435.416 308.81C435.055 308.598 434.656 308.461 434.241 308.408C433.826 308.354 433.405 308.385 433.003 308.499C432.601 308.613 432.226 308.807 431.9 309.069C431.575 309.332 431.306 309.657 431.11 310.027C430.915 310.396 430.796 310.801 430.761 311.217C430.726 311.634 430.776 312.053 430.907 312.45C430.256 312.902 429.717 313.499 429.333 314.193C428.95 314.887 428.731 315.66 428.695 316.453C428.651 316.491 428.601 316.523 428.56 316.564C428.637 316.269 428.677 315.965 428.68 315.66C428.607 314.495 428.077 313.406 427.204 312.631C426.332 311.856 425.188 311.457 424.022 311.521C423.459 311.524 422.9 311.619 422.367 311.803C422.271 311.396 422.094 311.013 421.846 310.676C421.599 310.34 421.285 310.057 420.925 309.845C420.565 309.633 420.165 309.496 419.75 309.442C419.336 309.389 418.914 309.42 418.512 309.534C418.11 309.647 417.735 309.841 417.409 310.104C417.084 310.366 416.815 310.692 416.62 311.061C416.424 311.43 416.305 311.836 416.27 312.252C416.235 312.668 416.285 313.088 416.416 313.484C415.729 313.959 415.168 314.593 414.78 315.332C414.392 316.072 414.189 316.894 414.189 317.729C414.189 318.563 414.392 319.386 414.78 320.125C415.168 320.864 415.729 321.499 416.416 321.973C416.207 322.574 416.207 323.229 416.416 323.83C415.898 324.192 415.449 324.644 415.092 325.166C414.901 324.471 414.472 323.866 413.88 323.454C413.288 323.042 412.57 322.851 411.852 322.913C411.133 322.975 410.459 323.287 409.947 323.794C409.434 324.301 409.115 324.971 409.046 325.689C408.631 325.446 408.183 325.265 407.715 325.151C408.554 324.598 409.214 323.814 409.616 322.894C410.198 322.952 410.786 322.886 411.341 322.702C411.895 322.517 412.405 322.218 412.837 321.824C413.268 321.429 413.612 320.948 413.845 320.412C414.078 319.876 414.195 319.297 414.189 318.712C414.183 318.128 414.054 317.551 413.81 317.02C413.566 316.489 413.213 316.015 412.773 315.629C412.334 315.243 411.818 314.955 411.259 314.782C410.701 314.609 410.112 314.555 409.531 314.625C408.968 314.627 408.409 314.723 407.876 314.907C407.781 314.5 407.603 314.117 407.356 313.78C407.108 313.444 406.794 313.161 406.434 312.949C406.074 312.736 405.674 312.6 405.26 312.546C404.845 312.493 404.424 312.524 404.021 312.637C403.619 312.751 403.244 312.945 402.919 313.207C402.593 313.47 402.325 313.796 402.129 314.165C401.933 314.534 401.814 314.939 401.779 315.356C401.744 315.772 401.794 316.191 401.926 316.588C401.859 316.634 401.799 316.688 401.735 316.737C401.574 316.722 401.417 316.694 401.251 316.694C400.688 316.697 400.128 316.792 399.596 316.976C399.576 316.898 399.544 316.825 399.519 316.75C399.619 316.289 399.611 315.812 399.495 315.355C399.38 314.898 399.16 314.474 398.853 314.116C398.545 313.758 398.16 313.477 397.725 313.293C397.291 313.11 396.82 313.03 396.349 313.059C396.08 312.309 395.64 311.631 395.065 311.079C394.49 310.527 393.795 310.115 393.034 309.876C392.273 309.637 391.467 309.577 390.68 309.7C389.892 309.824 389.143 310.129 388.493 310.59C387.842 311.051 387.307 311.656 386.929 312.358C386.552 313.06 386.342 313.84 386.315 314.636C386.289 315.433 386.448 316.225 386.779 316.95C387.11 317.675 387.604 318.314 388.223 318.817C387.867 318.858 387.516 318.934 387.175 319.045C387.053 318.541 386.805 318.075 386.454 317.693C386.103 317.31 385.661 317.022 385.169 316.856C384.677 316.69 384.151 316.651 383.64 316.743C383.129 316.834 382.65 317.054 382.246 317.381C381.785 316.833 381.208 316.395 380.557 316.097C379.905 315.8 379.196 315.65 378.48 315.66C377.916 315.662 377.357 315.757 376.825 315.941C376.729 315.534 376.552 315.151 376.304 314.815C376.056 314.478 375.743 314.195 375.382 313.983C375.022 313.771 374.623 313.634 374.208 313.581C373.793 313.527 373.372 313.558 372.97 313.672C372.567 313.785 372.192 313.979 371.867 314.242C371.542 314.505 371.273 314.83 371.077 315.199C370.881 315.569 370.762 315.974 370.727 316.39C370.693 316.807 370.742 317.226 370.874 317.622C370.187 318.097 369.626 318.731 369.238 319.471C368.85 320.21 368.647 321.032 368.647 321.867C368.647 321.883 368.651 321.898 368.651 321.914C367.918 321.802 367.167 321.883 366.474 322.149C366.378 321.742 366.201 321.359 365.953 321.022C365.706 320.685 365.392 320.403 365.032 320.19C364.672 319.978 364.272 319.841 363.857 319.788C363.443 319.734 363.022 319.765 362.619 319.879C362.217 319.993 361.842 320.187 361.516 320.449C361.191 320.712 360.923 321.038 360.727 321.407C360.531 321.776 360.412 322.181 360.377 322.598C360.342 323.014 360.392 323.433 360.523 323.83C359.525 324.505 358.795 325.509 358.461 326.667C358.127 327.824 358.209 329.062 358.693 330.166C359.177 331.269 360.033 332.168 361.112 332.706C362.191 333.243 363.424 333.386 364.597 333.11C364.784 334.189 365.31 335.181 366.099 335.941C366.887 336.702 367.898 337.191 368.984 337.338C370.07 337.486 371.175 337.284 372.138 336.761C373.101 336.239 373.873 335.423 374.341 334.433C378.069 334.917 381.853 334.747 385.522 333.929C385.864 334.909 386.494 335.763 387.33 336.379C388.166 336.995 389.168 337.345 390.206 337.382C391.244 337.419 392.268 337.143 393.146 336.588C394.024 336.033 394.714 335.227 395.125 334.274C395.88 334.259 396.622 334.076 397.296 333.737C397.769 334.571 398.465 335.258 399.306 335.718C400.147 336.178 401.1 336.395 402.058 336.343C403.016 336.292 403.94 335.974 404.727 335.425C405.513 334.877 406.131 334.12 406.511 333.239C407.662 333.021 408.853 333.213 409.878 333.781C410.902 334.35 411.695 335.259 412.119 336.351C412.811 335.404 413.702 334.619 414.729 334.051C415.755 333.483 416.894 333.145 418.064 333.062C419.104 333.352 420.21 333.301 421.219 332.915C422.228 332.53 423.086 331.832 423.669 330.923C423.343 332.183 423.505 333.519 424.122 334.665C424.739 335.81 425.765 336.682 426.996 337.104C428.227 337.527 429.572 337.471 430.763 336.946C431.954 336.422 432.904 335.467 433.422 334.274C434.177 334.259 434.919 334.076 435.593 333.737C436.066 334.571 436.761 335.258 437.603 335.718C438.444 336.178 439.397 336.395 440.355 336.343C441.313 336.292 442.237 335.974 443.024 335.425C443.81 334.877 444.428 334.12 444.808 333.239C445.563 333.224 446.304 333.041 446.979 332.703C447.343 333.351 447.844 333.912 448.447 334.347C449.05 334.782 449.74 335.081 450.47 335.223C451.201 335.364 451.953 335.345 452.675 335.166C453.397 334.988 454.071 334.654 454.651 334.189C454.831 335.179 455.297 336.094 455.991 336.822C456.685 337.55 457.577 338.059 458.557 338.287C459.538 338.514 460.563 338.449 461.507 338.101C462.451 337.752 463.272 337.135 463.869 336.326C464.491 336.801 465.212 337.129 465.979 337.284C466.747 337.439 467.539 337.416 468.296 337.218C469.053 337.02 469.755 336.652 470.349 336.142C470.942 335.632 471.411 334.993 471.719 334.274C472.301 334.332 472.889 334.266 473.444 334.082C473.999 333.898 474.508 333.598 474.94 333.204C475.371 332.809 475.715 332.328 475.948 331.792C476.181 331.256 476.298 330.677 476.292 330.092C476.286 329.508 476.157 328.931 475.913 328.4C475.669 327.869 475.316 327.395 474.876 327.009C474.437 326.624 473.921 326.335 473.363 326.162C472.804 325.989 472.215 325.935 471.635 326.005L471.635 326.005ZM379.123 323.87C379.118 323.895 379.114 323.92 379.109 323.946C379.071 323.944 379.036 323.936 378.997 323.936C378.843 323.94 378.689 323.955 378.536 323.982C378.545 323.964 378.556 323.947 378.565 323.928C378.752 323.919 378.938 323.9 379.123 323.87V323.87ZM422.367 322.149C422.352 322.088 422.326 322.033 422.308 321.974C423.098 321.426 423.721 320.671 424.107 319.79C424.788 319.787 425.46 319.64 426.08 319.359C426.7 319.078 427.254 318.67 427.706 318.161C427.666 318.36 427.646 318.561 427.645 318.763C427.649 319.079 427.702 319.392 427.802 319.692C426.913 320.311 426.241 321.192 425.878 322.213C424.753 321.775 423.508 321.752 422.367 322.149V322.149ZM453.367 322.534C453.365 322.471 453.373 322.406 453.369 322.343C453.501 322.342 453.633 322.333 453.763 322.316C453.964 322.985 454.3 323.607 454.749 324.142C454.652 324.169 454.549 324.185 454.454 324.218C454.286 323.552 453.905 322.961 453.367 322.534V322.534Z" fill="#F9A825"/>
<path d="M364.582 332.212C363.114 332.212 361.661 332.511 360.313 333.091C358.964 333.67 357.747 334.519 356.737 335.584C355.727 336.649 354.945 337.909 354.439 339.286C353.932 340.663 353.711 342.129 353.79 343.595L360.799 439.928C360.947 442.689 362.148 445.288 364.156 447.19C366.164 449.092 368.825 450.152 371.591 450.152H461.962C464.728 450.152 467.39 449.092 469.397 447.19C471.405 445.288 472.607 442.689 472.754 439.928L479.763 343.595C479.842 342.129 479.622 340.663 479.115 339.286C478.608 337.909 477.826 336.649 476.816 335.584C475.806 334.519 474.59 333.67 473.241 333.091C471.892 332.511 470.439 332.212 468.971 332.212H364.582Z" fill="#3F3D56"/>
<path d="M375.892 332.212H369.682V450.152H375.892V332.212Z" fill="#3F3D56"/>
<path d="M393.488 332.212H387.277V450.152H393.488V332.212Z" fill="#3F3D56"/>
<path d="M411.083 332.212H404.873V450.152H411.083V332.212Z" fill="#3F3D56"/>
<path d="M428.68 332.212H422.47V450.152H428.68V332.212Z" fill="#3F3D56"/>
<path d="M446.276 332.212H440.065V450.152H446.276V332.212Z" fill="#3F3D56"/>
<path d="M463.871 332.212H457.661V450.152H463.871V332.212Z" fill="#3F3D56"/>
<path d="M457.647 390.672L437.529 402.402C437.529 402.402 388.91 442.619 422.44 449.321C455.97 456.024 464.353 420.835 464.353 420.835L476.088 407.429L457.647 390.672Z" fill="#FFB8B8"/>
<path d="M362.086 382.294L382.204 394.024C382.204 394.024 430.822 434.24 397.292 440.943C363.763 447.646 355.38 412.456 355.38 412.456L343.645 399.051L362.086 382.294Z" fill="#FFB8B8"/>
<path d="M484.47 223.103L506.265 224.779C506.265 224.779 523.03 239.86 521.353 259.968C521.353 259.968 536.442 303.536 533.089 321.969C533.089 321.969 536.442 352.131 531.412 363.861C526.383 375.591 484.47 420.835 484.47 420.835C484.47 420.835 445.911 390.672 447.587 388.997L497.882 338.726L472.735 305.212L484.47 223.103Z" fill="#E6E6E6"/>
<path d="M341.968 211.373L341.13 212.211C341.13 212.211 303.409 228.13 305.085 248.238C305.085 248.238 289.997 291.806 293.35 310.239C293.35 310.239 289.997 340.402 295.026 352.131C300.056 363.861 341.968 409.105 341.968 409.105C341.968 409.105 380.527 378.942 378.851 377.267L328.556 326.996L353.704 293.482L341.968 211.373Z" fill="#E6E6E6"/>
</svg>
